<?xml version="1.0" encoding="UTF-8" standalone="no"?>
<!DOCTYPE svg PUBLIC "-//W3C//DTD SVG 1.1//EN"
 "http://www.w3.org/Graphics/SVG/1.1/DTD/svg11.dtd">
<!-- Generated by graphviz version 2.47.3 (20210619.1520)
 -->
<!-- Title: dependencies Pages: 1 -->
<svg width="464pt" height="174pt"
 viewBox="0.00 0.00 464.00 173.80" xmlns="http://www.w3.org/2000/svg" xmlns:xlink="http://www.w3.org/1999/xlink">
<g id="graph0" class="graph" transform="scale(1 1) rotate(0) translate(4 169.8)">
<title>dependencies</title>
<polygon fill="white" stroke="transparent" points="-4,4 -4,-169.8 460,-169.8 460,4 -4,4"/>
<text text-anchor="middle" x="228" y="-8.2" font-family="sans-serif" font-size="14.00">dependencies</text>
<g id="clust1" class="cluster">
<title>cluster_AlarmsModule</title>
<polygon fill="none" stroke="black" stroke-dasharray="1,5" points="8,-32.8 8,-157.8 448,-157.8 448,-32.8 8,-32.8"/>
</g>
<g id="clust2" class="cluster">
<title>cluster_AlarmsModule_declarations</title>
<polygon fill="none" stroke="black" points="302,-40.8 302,-92.8 440,-92.8 440,-40.8 302,-40.8"/>
</g>
<g id="clust4" class="cluster">
<title>cluster_AlarmsModule_imports</title>
<polygon fill="none" stroke="black" points="16,-40.8 16,-92.8 294,-92.8 294,-40.8 16,-40.8"/>
</g>
<!-- AlarmsComponent -->
<g id="node1" class="node">
<title>AlarmsComponent</title>
<polygon fill="#ffffb3" stroke="black" points="432.04,-84.8 309.96,-84.8 309.96,-48.8 432.04,-48.8 432.04,-84.8"/>
<text text-anchor="middle" x="371" y="-62.6" font-family="Times,serif" font-size="14.00">AlarmsComponent</text>
</g>
<!-- AlarmsModule -->
<g id="node2" class="node">
<title>AlarmsModule</title>
<polygon fill="#8dd3c7" stroke="black" points="263.26,-149.8 260.26,-153.8 239.26,-153.8 236.26,-149.8 162.74,-149.8 162.74,-113.8 263.26,-113.8 263.26,-149.8"/>
<text text-anchor="middle" x="213" y="-127.6" font-family="Times,serif" font-size="14.00">AlarmsModule</text>
</g>
<!-- AlarmsComponent&#45;&gt;AlarmsModule -->
<g id="edge1" class="edge">
<title>AlarmsComponent&#45;&gt;AlarmsModule</title>
<path fill="none" stroke="black" d="M371,-84.91C371,-104.14 371,-131.8 371,-131.8 371,-131.8 273.43,-131.8 273.43,-131.8"/>
<polygon fill="black" stroke="black" points="273.43,-128.3 263.43,-131.8 273.43,-135.3 273.43,-128.3"/>
</g>
<!-- AlarmsRoutingModule -->
<g id="node3" class="node">
<title>AlarmsRoutingModule</title>
<polygon fill="#8dd3c7" stroke="black" points="285.88,-84.8 282.88,-88.8 261.88,-88.8 258.88,-84.8 140.12,-84.8 140.12,-48.8 285.88,-48.8 285.88,-84.8"/>
<text text-anchor="middle" x="213" y="-62.6" font-family="Times,serif" font-size="14.00">AlarmsRoutingModule</text>
</g>
<!-- AlarmsRoutingModule&#45;&gt;AlarmsModule -->
<g id="edge2" class="edge">
<title>AlarmsRoutingModule&#45;&gt;AlarmsModule</title>
<path fill="none" stroke="black" d="M213,-84.91C213,-84.91 213,-103.79 213,-103.79"/>
<polygon fill="black" stroke="black" points="209.5,-103.79 213,-113.79 216.5,-103.79 209.5,-103.79"/>
</g>
<!-- SharedModule -->
<g id="node4" class="node">
<title>SharedModule</title>
<polygon fill="#8dd3c7" stroke="black" points="122.42,-84.8 119.42,-88.8 98.42,-88.8 95.42,-84.8 23.58,-84.8 23.58,-48.8 122.42,-48.8 122.42,-84.8"/>
<text text-anchor="middle" x="73" y="-62.6" font-family="Times,serif" font-size="14.00">SharedModule</text>
</g>
<!-- SharedModule&#45;&gt;AlarmsModule -->
<g id="edge3" class="edge">
<title>SharedModule&#45;&gt;AlarmsModule</title>
<path fill="none" stroke="black" d="M73,-84.91C73,-104.14 73,-131.8 73,-131.8 73,-131.8 152.46,-131.8 152.46,-131.8"/>
<polygon fill="black" stroke="black" points="152.46,-135.3 162.46,-131.8 152.46,-128.3 152.46,-135.3"/>
</g>
</g>
</svg>
