<?xml version="1.0" encoding="UTF-8" standalone="no"?>
<!DOCTYPE svg PUBLIC "-//W3C//DTD SVG 1.1//EN"
 "http://www.w3.org/Graphics/SVG/1.1/DTD/svg11.dtd">
<!-- Generated by graphviz version 2.47.3 (20210619.1520)
 -->
<!-- Title: dependencies Pages: 1 -->
<svg width="300pt" height="174pt"
 viewBox="0.00 0.00 300.00 173.80" xmlns="http://www.w3.org/2000/svg" xmlns:xlink="http://www.w3.org/1999/xlink">
<g id="graph0" class="graph" transform="scale(1 1) rotate(0) translate(4 169.8)">
<title>dependencies</title>
<polygon fill="white" stroke="transparent" points="-4,4 -4,-169.8 296,-169.8 296,4 -4,4"/>
<text text-anchor="middle" x="146" y="-8.2" font-family="sans-serif" font-size="14.00">dependencies</text>
<g id="clust1" class="cluster">
<title>cluster_AlarmsModule</title>
<polygon fill="none" stroke="black" stroke-dasharray="1,5" points="8,-32.8 8,-157.8 284,-157.8 284,-32.8 8,-32.8"/>
</g>
<g id="clust2" class="cluster">
<title>cluster_AlarmsModule_declarations</title>
<polygon fill="none" stroke="black" points="138,-40.8 138,-92.8 276,-92.8 276,-40.8 138,-40.8"/>
</g>
<g id="clust4" class="cluster">
<title>cluster_AlarmsModule_imports</title>
<polygon fill="none" stroke="black" points="16,-40.8 16,-92.8 130,-92.8 130,-40.8 16,-40.8"/>
</g>
<!-- AlarmsComponent -->
<g id="node1" class="node">
<title>AlarmsComponent</title>
<polygon fill="#ffffb3" stroke="black" points="268.04,-84.8 145.96,-84.8 145.96,-48.8 268.04,-48.8 268.04,-84.8"/>
<text text-anchor="middle" x="207" y="-62.6" font-family="Times,serif" font-size="14.00">AlarmsComponent</text>
</g>
<!-- AlarmsModule -->
<g id="node2" class="node">
<title>AlarmsModule</title>
<polygon fill="#8dd3c7" stroke="black" points="190.26,-149.8 187.26,-153.8 166.26,-153.8 163.26,-149.8 89.74,-149.8 89.74,-113.8 190.26,-113.8 190.26,-149.8"/>
<text text-anchor="middle" x="140" y="-127.6" font-family="Times,serif" font-size="14.00">AlarmsModule</text>
</g>
<!-- AlarmsComponent&#45;&gt;AlarmsModule -->
<g id="edge1" class="edge">
<title>AlarmsComponent&#45;&gt;AlarmsModule</title>
<path fill="none" stroke="black" d="M168.05,-84.91C168.05,-84.91 168.05,-103.79 168.05,-103.79"/>
<polygon fill="black" stroke="black" points="164.55,-103.79 168.05,-113.79 171.55,-103.79 164.55,-103.79"/>
</g>
<!-- SharedModule -->
<g id="node3" class="node">
<title>SharedModule</title>
<polygon fill="#8dd3c7" stroke="black" points="122.42,-84.8 119.42,-88.8 98.42,-88.8 95.42,-84.8 23.58,-84.8 23.58,-48.8 122.42,-48.8 122.42,-84.8"/>
<text text-anchor="middle" x="73" y="-62.6" font-family="Times,serif" font-size="14.00">SharedModule</text>
</g>
<!-- SharedModule&#45;&gt;AlarmsModule -->
<g id="edge2" class="edge">
<title>SharedModule&#45;&gt;AlarmsModule</title>
<path fill="none" stroke="black" d="M105.92,-84.91C105.92,-84.91 105.92,-103.79 105.92,-103.79"/>
<polygon fill="black" stroke="black" points="102.42,-103.79 105.92,-113.79 109.42,-103.79 102.42,-103.79"/>
</g>
</g>
</svg>
