<?xml version="1.0" encoding="UTF-8" standalone="no"?>
<!DOCTYPE svg PUBLIC "-//W3C//DTD SVG 1.1//EN"
 "http://www.w3.org/Graphics/SVG/1.1/DTD/svg11.dtd">
<!-- Generated by graphviz version 2.47.3 (20210619.1520)
 -->
<!-- Title: dependencies Pages: 1 -->
<svg width="464pt" height="174pt"
 viewBox="0.00 0.00 464.00 173.80" xmlns="http://www.w3.org/2000/svg" xmlns:xlink="http://www.w3.org/1999/xlink">
<g id="graph0" class="graph" transform="scale(1 1) rotate(0) translate(4 169.8)">
<title>dependencies</title>
<polygon fill="white" stroke="transparent" points="-4,4 -4,-169.8 460,-169.8 460,4 -4,4"/>
<text text-anchor="middle" x="228" y="-8.2" font-family="sans-serif" font-size="14.00">dependencies</text>
<g id="clust1" class="cluster">
<title>cluster_AlarmsModule</title>
<polygon fill="none" stroke="black" stroke-dasharray="1,5" points="8,-32.8 8,-157.8 448,-157.8 448,-32.8 8,-32.8"/>
</g>
<g id="clust4" class="cluster">
<title>cluster_AlarmsModule_imports</title>
<polygon fill="none" stroke="black" points="162,-40.8 162,-92.8 440,-92.8 440,-40.8 162,-40.8"/>
</g>
<g id="clust2" class="cluster">
<title>cluster_AlarmsModule_declarations</title>
<polygon fill="none" stroke="black" points="16,-40.8 16,-92.8 154,-92.8 154,-40.8 16,-40.8"/>
</g>
<!-- AlarmsComponent -->
<g id="node1" class="node">
<title>AlarmsComponent</title>
<polygon fill="#ffffb3" stroke="black" points="146.04,-84.8 23.96,-84.8 23.96,-48.8 146.04,-48.8 146.04,-84.8"/>
<text text-anchor="middle" x="85" y="-62.6" font-family="Times,serif" font-size="14.00">AlarmsComponent</text>
</g>
<!-- AlarmsModule -->
<g id="node2" class="node">
<title>AlarmsModule</title>
<polygon fill="#8dd3c7" stroke="black" points="269.26,-149.8 266.26,-153.8 245.26,-153.8 242.26,-149.8 168.74,-149.8 168.74,-113.8 269.26,-113.8 269.26,-149.8"/>
<text text-anchor="middle" x="219" y="-127.6" font-family="Times,serif" font-size="14.00">AlarmsModule</text>
</g>
<!-- AlarmsComponent&#45;&gt;AlarmsModule -->
<g id="edge1" class="edge">
<title>AlarmsComponent&#45;&gt;AlarmsModule</title>
<path fill="none" stroke="black" d="M85,-84.91C85,-104.14 85,-131.8 85,-131.8 85,-131.8 158.72,-131.8 158.72,-131.8"/>
<polygon fill="black" stroke="black" points="158.72,-135.3 168.72,-131.8 158.72,-128.3 158.72,-135.3"/>
</g>
<!-- AlarmsRoutingModule -->
<g id="node3" class="node">
<title>AlarmsRoutingModule</title>
<polygon fill="#8dd3c7" stroke="black" points="431.88,-84.8 428.88,-88.8 407.88,-88.8 404.88,-84.8 286.12,-84.8 286.12,-48.8 431.88,-48.8 431.88,-84.8"/>
<text text-anchor="middle" x="359" y="-62.6" font-family="Times,serif" font-size="14.00">AlarmsRoutingModule</text>
</g>
<!-- AlarmsRoutingModule&#45;&gt;AlarmsModule -->
<g id="edge2" class="edge">
<title>AlarmsRoutingModule&#45;&gt;AlarmsModule</title>
<path fill="none" stroke="black" d="M359,-84.91C359,-104.14 359,-131.8 359,-131.8 359,-131.8 279.54,-131.8 279.54,-131.8"/>
<polygon fill="black" stroke="black" points="279.54,-128.3 269.54,-131.8 279.54,-135.3 279.54,-128.3"/>
</g>
<!-- SharedModule -->
<g id="node4" class="node">
<title>SharedModule</title>
<polygon fill="#8dd3c7" stroke="black" points="268.42,-84.8 265.42,-88.8 244.42,-88.8 241.42,-84.8 169.58,-84.8 169.58,-48.8 268.42,-48.8 268.42,-84.8"/>
<text text-anchor="middle" x="219" y="-62.6" font-family="Times,serif" font-size="14.00">SharedModule</text>
</g>
<!-- SharedModule&#45;&gt;AlarmsModule -->
<g id="edge3" class="edge">
<title>SharedModule&#45;&gt;AlarmsModule</title>
<path fill="none" stroke="black" d="M219,-84.91C219,-84.91 219,-103.79 219,-103.79"/>
<polygon fill="black" stroke="black" points="215.5,-103.79 219,-113.79 222.5,-103.79 215.5,-103.79"/>
</g>
</g>
</svg>
