<?xml version="1.0" encoding="UTF-8" standalone="no"?>
<!DOCTYPE svg PUBLIC "-//W3C//DTD SVG 1.1//EN"
 "http://www.w3.org/Graphics/SVG/1.1/DTD/svg11.dtd">
<!-- Generated by graphviz version 2.47.3 (20210619.1520)
 -->
<!-- Title: dependencies Pages: 1 -->
<svg width="734pt" height="247pt"
 viewBox="0.00 0.00 734.00 246.80" xmlns="http://www.w3.org/2000/svg" xmlns:xlink="http://www.w3.org/1999/xlink">
<g id="graph0" class="graph" transform="scale(1 1) rotate(0) translate(4 242.8)">
<title>dependencies</title>
<polygon fill="white" stroke="transparent" points="-4,4 -4,-242.8 730,-242.8 730,4 -4,4"/>
<text text-anchor="middle" x="363" y="-8.2" font-family="sans-serif" font-size="14.00">dependencies</text>
<g id="clust1" class="cluster">
<title>cluster_SharedModule</title>
<polygon fill="none" stroke="black" stroke-dasharray="1,5" points="8,-32.8 8,-230.8 718,-230.8 718,-32.8 8,-32.8"/>
</g>
<g id="clust6" class="cluster">
<title>cluster_SharedModule_exports</title>
<polygon fill="none" stroke="black" points="233,-170.8 233,-222.8 517,-222.8 517,-170.8 233,-170.8"/>
</g>
<g id="clust8" class="cluster">
<title>cluster_SharedModule_providers</title>
<polygon fill="none" stroke="black" points="300,-40.8 300,-92.8 710,-92.8 710,-40.8 300,-40.8"/>
</g>
<g id="clust2" class="cluster">
<title>cluster_SharedModule_declarations</title>
<polygon fill="none" stroke="black" points="16,-40.8 16,-92.8 292,-92.8 292,-40.8 16,-40.8"/>
</g>
<!-- BgVideoComponent -->
<g id="node1" class="node">
<title>BgVideoComponent</title>
<polygon fill="#ffffb3" stroke="black" points="283.88,-84.8 152.12,-84.8 152.12,-48.8 283.88,-48.8 283.88,-84.8"/>
<text text-anchor="middle" x="218" y="-62.6" font-family="Times,serif" font-size="14.00">BgVideoComponent</text>
</g>
<!-- SharedModule -->
<g id="node3" class="node">
<title>SharedModule</title>
<polygon fill="#8dd3c7" stroke="black" points="418.42,-149.8 415.42,-153.8 394.42,-153.8 391.42,-149.8 319.58,-149.8 319.58,-113.8 418.42,-113.8 418.42,-149.8"/>
<text text-anchor="middle" x="369" y="-127.6" font-family="Times,serif" font-size="14.00">SharedModule</text>
</g>
<!-- BgVideoComponent&#45;&gt;SharedModule -->
<g id="edge1" class="edge">
<title>BgVideoComponent&#45;&gt;SharedModule</title>
<path fill="none" stroke="black" d="M262.37,-84.82C262.37,-102.17 262.37,-125.8 262.37,-125.8 262.37,-125.8 309.74,-125.8 309.74,-125.8"/>
<polygon fill="black" stroke="black" points="309.74,-129.3 319.74,-125.8 309.74,-122.3 309.74,-129.3"/>
</g>
<!-- LogoComponent -->
<g id="node2" class="node">
<title>LogoComponent</title>
<polygon fill="#ffffb3" stroke="black" points="134.39,-84.8 23.61,-84.8 23.61,-48.8 134.39,-48.8 134.39,-84.8"/>
<text text-anchor="middle" x="79" y="-62.6" font-family="Times,serif" font-size="14.00">LogoComponent</text>
</g>
<!-- LogoComponent&#45;&gt;SharedModule -->
<g id="edge2" class="edge">
<title>LogoComponent&#45;&gt;SharedModule</title>
<path fill="none" stroke="black" d="M79,-85.08C79,-106.12 79,-137.8 79,-137.8 79,-137.8 309.48,-137.8 309.48,-137.8"/>
<polygon fill="black" stroke="black" points="309.48,-141.3 319.48,-137.8 309.48,-134.3 309.48,-141.3"/>
</g>
<!-- BgVideoComponent  -->
<g id="node4" class="node">
<title>BgVideoComponent </title>
<polygon fill="#fb8072" stroke="black" points="508.88,-214.8 373.12,-214.8 373.12,-178.8 508.88,-178.8 508.88,-214.8"/>
<text text-anchor="middle" x="441" y="-192.6" font-family="Times,serif" font-size="14.00">BgVideoComponent </text>
</g>
<!-- SharedModule&#45;&gt;BgVideoComponent  -->
<g id="edge3" class="edge">
<title>SharedModule&#45;&gt;BgVideoComponent </title>
<path fill="none" stroke="black" stroke-dasharray="5,2" d="M395.76,-149.91C395.76,-149.91 395.76,-168.79 395.76,-168.79"/>
<polygon fill="black" stroke="black" points="392.26,-168.79 395.76,-178.79 399.26,-168.79 392.26,-168.79"/>
</g>
<!-- LogoComponent  -->
<g id="node5" class="node">
<title>LogoComponent </title>
<polygon fill="#fb8072" stroke="black" points="355.39,-214.8 240.61,-214.8 240.61,-178.8 355.39,-178.8 355.39,-214.8"/>
<text text-anchor="middle" x="298" y="-192.6" font-family="Times,serif" font-size="14.00">LogoComponent </text>
</g>
<!-- SharedModule&#45;&gt;LogoComponent  -->
<g id="edge4" class="edge">
<title>SharedModule&#45;&gt;LogoComponent </title>
<path fill="none" stroke="black" stroke-dasharray="5,2" d="M337.49,-149.91C337.49,-149.91 337.49,-168.79 337.49,-168.79"/>
<polygon fill="black" stroke="black" points="333.99,-168.79 337.49,-178.79 340.99,-168.79 333.99,-168.79"/>
</g>
<!-- AuthService -->
<g id="node6" class="node">
<title>AuthService</title>
<ellipse fill="#fdb462" stroke="black" cx="643" cy="-66.8" rx="59.11" ry="18"/>
<text text-anchor="middle" x="643" y="-62.6" font-family="Times,serif" font-size="14.00">AuthService</text>
</g>
<!-- AuthService&#45;&gt;SharedModule -->
<g id="edge5" class="edge">
<title>AuthService&#45;&gt;SharedModule</title>
<path fill="none" stroke="black" d="M643,-85.08C643,-106.12 643,-137.8 643,-137.8 643,-137.8 428.3,-137.8 428.3,-137.8"/>
<polygon fill="black" stroke="black" points="428.3,-134.3 418.3,-137.8 428.3,-141.3 428.3,-134.3"/>
</g>
<!-- TitleService -->
<g id="node7" class="node">
<title>TitleService</title>
<ellipse fill="#fdb462" stroke="black" cx="507" cy="-66.8" rx="58.46" ry="18"/>
<text text-anchor="middle" x="507" y="-62.6" font-family="Times,serif" font-size="14.00">TitleService</text>
</g>
<!-- TitleService&#45;&gt;SharedModule -->
<g id="edge6" class="edge">
<title>TitleService&#45;&gt;SharedModule</title>
<path fill="none" stroke="black" d="M478.73,-82.61C478.73,-100.09 478.73,-125.8 478.73,-125.8 478.73,-125.8 428.41,-125.8 428.41,-125.8"/>
<polygon fill="black" stroke="black" points="428.41,-122.3 418.41,-125.8 428.41,-129.3 428.41,-122.3"/>
</g>
<!-- ToastService -->
<g id="node8" class="node">
<title>ToastService</title>
<ellipse fill="#fdb462" stroke="black" cx="369" cy="-66.8" rx="61.39" ry="18"/>
<text text-anchor="middle" x="369" y="-62.6" font-family="Times,serif" font-size="14.00">ToastService</text>
</g>
<!-- ToastService&#45;&gt;SharedModule -->
<g id="edge7" class="edge">
<title>ToastService&#45;&gt;SharedModule</title>
<path fill="none" stroke="black" d="M369,-84.91C369,-84.91 369,-103.79 369,-103.79"/>
<polygon fill="black" stroke="black" points="365.5,-103.79 369,-113.79 372.5,-103.79 365.5,-103.79"/>
</g>
</g>
</svg>
