<?xml version="1.0" encoding="UTF-8" standalone="no"?>
<!DOCTYPE svg PUBLIC "-//W3C//DTD SVG 1.1//EN"
 "http://www.w3.org/Graphics/SVG/1.1/DTD/svg11.dtd">
<!-- Generated by graphviz version 2.47.3 (20210619.1520)
 -->
<!-- Title: dependencies Pages: 1 -->
<svg width="997pt" height="247pt"
 viewBox="0.00 0.00 997.00 246.80" xmlns="http://www.w3.org/2000/svg" xmlns:xlink="http://www.w3.org/1999/xlink">
<g id="graph0" class="graph" transform="scale(1 1) rotate(0) translate(4 242.8)">
<title>dependencies</title>
<polygon fill="white" stroke="transparent" points="-4,4 -4,-242.8 993,-242.8 993,4 -4,4"/>
<text text-anchor="middle" x="494.5" y="-8.2" font-family="sans-serif" font-size="14.00">dependencies</text>
<g id="clust1" class="cluster">
<title>cluster_SharedModule</title>
<polygon fill="none" stroke="black" stroke-dasharray="1,5" points="8,-32.8 8,-230.8 981,-230.8 981,-32.8 8,-32.8"/>
</g>
<g id="clust10" class="cluster">
<title>cluster_SharedModule_providers</title>
<polygon fill="none" stroke="black" points="563,-40.8 563,-92.8 973,-92.8 973,-40.8 563,-40.8"/>
</g>
<g id="clust8" class="cluster">
<title>cluster_SharedModule_exports</title>
<polygon fill="none" stroke="black" points="221,-170.8 221,-222.8 774,-222.8 774,-170.8 221,-170.8"/>
</g>
<g id="clust2" class="cluster">
<title>cluster_SharedModule_declarations</title>
<polygon fill="none" stroke="black" points="16,-40.8 16,-92.8 555,-92.8 555,-40.8 16,-40.8"/>
</g>
<!-- BgVideoComponent -->
<g id="node1" class="node">
<title>BgVideoComponent</title>
<polygon fill="#ffffb3" stroke="black" points="546.88,-84.8 415.12,-84.8 415.12,-48.8 546.88,-48.8 546.88,-84.8"/>
<text text-anchor="middle" x="481" y="-62.6" font-family="Times,serif" font-size="14.00">BgVideoComponent</text>
</g>
<!-- SharedModule -->
<g id="node5" class="node">
<title>SharedModule</title>
<polygon fill="#8dd3c7" stroke="black" points="530.42,-149.8 527.42,-153.8 506.42,-153.8 503.42,-149.8 431.58,-149.8 431.58,-113.8 530.42,-113.8 530.42,-149.8"/>
<text text-anchor="middle" x="481" y="-127.6" font-family="Times,serif" font-size="14.00">SharedModule</text>
</g>
<!-- BgVideoComponent&#45;&gt;SharedModule -->
<g id="edge1" class="edge">
<title>BgVideoComponent&#45;&gt;SharedModule</title>
<path fill="none" stroke="black" d="M481,-84.91C481,-84.91 481,-103.79 481,-103.79"/>
<polygon fill="black" stroke="black" points="477.5,-103.79 481,-113.79 484.5,-103.79 477.5,-103.79"/>
</g>
<!-- HeaderComponent -->
<g id="node2" class="node">
<title>HeaderComponent</title>
<polygon fill="#ffffb3" stroke="black" points="396.74,-84.8 275.26,-84.8 275.26,-48.8 396.74,-48.8 396.74,-84.8"/>
<text text-anchor="middle" x="336" y="-62.6" font-family="Times,serif" font-size="14.00">HeaderComponent</text>
</g>
<!-- HeaderComponent&#45;&gt;SharedModule -->
<g id="edge2" class="edge">
<title>HeaderComponent&#45;&gt;SharedModule</title>
<path fill="none" stroke="black" d="M375.84,-84.81C375.84,-100.85 375.84,-121.8 375.84,-121.8 375.84,-121.8 421.5,-121.8 421.5,-121.8"/>
<polygon fill="black" stroke="black" points="421.5,-125.3 431.5,-121.8 421.5,-118.3 421.5,-125.3"/>
</g>
<!-- LogoComponent -->
<g id="node3" class="node">
<title>LogoComponent</title>
<polygon fill="#ffffb3" stroke="black" points="257.39,-84.8 146.61,-84.8 146.61,-48.8 257.39,-48.8 257.39,-84.8"/>
<text text-anchor="middle" x="202" y="-62.6" font-family="Times,serif" font-size="14.00">LogoComponent</text>
</g>
<!-- LogoComponent&#45;&gt;SharedModule -->
<g id="edge3" class="edge">
<title>LogoComponent&#45;&gt;SharedModule</title>
<path fill="none" stroke="black" d="M243.18,-85.07C243.18,-103.36 243.18,-128.8 243.18,-128.8 243.18,-128.8 421.72,-128.8 421.72,-128.8"/>
<polygon fill="black" stroke="black" points="421.72,-132.3 431.72,-128.8 421.72,-125.3 421.72,-132.3"/>
</g>
<!-- NavComponent -->
<g id="node4" class="node">
<title>NavComponent</title>
<polygon fill="#ffffb3" stroke="black" points="128.15,-84.8 23.85,-84.8 23.85,-48.8 128.15,-48.8 128.15,-84.8"/>
<text text-anchor="middle" x="76" y="-62.6" font-family="Times,serif" font-size="14.00">NavComponent</text>
</g>
<!-- NavComponent&#45;&gt;SharedModule -->
<g id="edge4" class="edge">
<title>NavComponent&#45;&gt;SharedModule</title>
<path fill="none" stroke="black" d="M76,-84.93C76,-105.37 76,-135.8 76,-135.8 76,-135.8 421.74,-135.8 421.74,-135.8"/>
<polygon fill="black" stroke="black" points="421.74,-139.3 431.74,-135.8 421.74,-132.3 421.74,-139.3"/>
</g>
<!-- BgVideoComponent  -->
<g id="node6" class="node">
<title>BgVideoComponent </title>
<polygon fill="#fb8072" stroke="black" points="765.88,-214.8 630.12,-214.8 630.12,-178.8 765.88,-178.8 765.88,-214.8"/>
<text text-anchor="middle" x="698" y="-192.6" font-family="Times,serif" font-size="14.00">BgVideoComponent </text>
</g>
<!-- SharedModule&#45;&gt;BgVideoComponent  -->
<g id="edge5" class="edge">
<title>SharedModule&#45;&gt;BgVideoComponent </title>
<path fill="none" stroke="black" stroke-dasharray="5,2" d="M530.43,-142.8C583.98,-142.8 661.88,-142.8 661.88,-142.8 661.88,-142.8 661.88,-168.52 661.88,-168.52"/>
<polygon fill="black" stroke="black" points="658.38,-168.52 661.88,-178.52 665.38,-168.52 658.38,-168.52"/>
</g>
<!-- HeaderComponent  -->
<g id="node7" class="node">
<title>HeaderComponent </title>
<polygon fill="#fb8072" stroke="black" points="612.74,-214.8 487.26,-214.8 487.26,-178.8 612.74,-178.8 612.74,-214.8"/>
<text text-anchor="middle" x="550" y="-192.6" font-family="Times,serif" font-size="14.00">HeaderComponent </text>
</g>
<!-- SharedModule&#45;&gt;HeaderComponent  -->
<g id="edge6" class="edge">
<title>SharedModule&#45;&gt;HeaderComponent </title>
<path fill="none" stroke="black" stroke-dasharray="5,2" d="M508.79,-149.91C508.79,-149.91 508.79,-168.79 508.79,-168.79"/>
<polygon fill="black" stroke="black" points="505.29,-168.79 508.79,-178.79 512.29,-168.79 505.29,-168.79"/>
</g>
<!-- LogoComponent  -->
<g id="node8" class="node">
<title>LogoComponent </title>
<polygon fill="#fb8072" stroke="black" points="469.39,-214.8 354.61,-214.8 354.61,-178.8 469.39,-178.8 469.39,-214.8"/>
<text text-anchor="middle" x="412" y="-192.6" font-family="Times,serif" font-size="14.00">LogoComponent </text>
</g>
<!-- SharedModule&#45;&gt;LogoComponent  -->
<g id="edge7" class="edge">
<title>SharedModule&#45;&gt;LogoComponent </title>
<path fill="none" stroke="black" stroke-dasharray="5,2" d="M450.49,-149.91C450.49,-149.91 450.49,-168.79 450.49,-168.79"/>
<polygon fill="black" stroke="black" points="446.99,-168.79 450.49,-178.79 453.99,-168.79 446.99,-168.79"/>
</g>
<!-- NavComponent  -->
<g id="node9" class="node">
<title>NavComponent </title>
<polygon fill="#fb8072" stroke="black" points="337.15,-214.8 228.85,-214.8 228.85,-178.8 337.15,-178.8 337.15,-214.8"/>
<text text-anchor="middle" x="283" y="-192.6" font-family="Times,serif" font-size="14.00">NavComponent </text>
</g>
<!-- SharedModule&#45;&gt;NavComponent  -->
<g id="edge8" class="edge">
<title>SharedModule&#45;&gt;NavComponent </title>
<path fill="none" stroke="black" stroke-dasharray="5,2" d="M431.35,-142.8C379.64,-142.8 306.1,-142.8 306.1,-142.8 306.1,-142.8 306.1,-168.52 306.1,-168.52"/>
<polygon fill="black" stroke="black" points="302.6,-168.52 306.1,-178.52 309.6,-168.52 302.6,-168.52"/>
</g>
<!-- AuthService -->
<g id="node10" class="node">
<title>AuthService</title>
<ellipse fill="#fdb462" stroke="black" cx="906" cy="-66.8" rx="59.11" ry="18"/>
<text text-anchor="middle" x="906" y="-62.6" font-family="Times,serif" font-size="14.00">AuthService</text>
</g>
<!-- AuthService&#45;&gt;SharedModule -->
<g id="edge9" class="edge">
<title>AuthService&#45;&gt;SharedModule</title>
<path fill="none" stroke="black" d="M906,-84.93C906,-105.37 906,-135.8 906,-135.8 906,-135.8 540.58,-135.8 540.58,-135.8"/>
<polygon fill="black" stroke="black" points="540.58,-132.3 530.58,-135.8 540.58,-139.3 540.58,-132.3"/>
</g>
<!-- TitleService -->
<g id="node11" class="node">
<title>TitleService</title>
<ellipse fill="#fdb462" stroke="black" cx="770" cy="-66.8" rx="58.46" ry="18"/>
<text text-anchor="middle" x="770" y="-62.6" font-family="Times,serif" font-size="14.00">TitleService</text>
</g>
<!-- TitleService&#45;&gt;SharedModule -->
<g id="edge10" class="edge">
<title>TitleService&#45;&gt;SharedModule</title>
<path fill="none" stroke="black" d="M738.73,-82.13C738.73,-100.49 738.73,-128.8 738.73,-128.8 738.73,-128.8 540.39,-128.8 540.39,-128.8"/>
<polygon fill="black" stroke="black" points="540.39,-125.3 530.39,-128.8 540.39,-132.3 540.39,-125.3"/>
</g>
<!-- ToastService -->
<g id="node12" class="node">
<title>ToastService</title>
<ellipse fill="#fdb462" stroke="black" cx="632" cy="-66.8" rx="61.39" ry="18"/>
<text text-anchor="middle" x="632" y="-62.6" font-family="Times,serif" font-size="14.00">ToastService</text>
</g>
<!-- ToastService&#45;&gt;SharedModule -->
<g id="edge11" class="edge">
<title>ToastService&#45;&gt;SharedModule</title>
<path fill="none" stroke="black" d="M591.59,-80.4C591.59,-96.68 591.59,-121.8 591.59,-121.8 591.59,-121.8 540.47,-121.8 540.47,-121.8"/>
<polygon fill="black" stroke="black" points="540.47,-118.3 530.47,-121.8 540.47,-125.3 540.47,-118.3"/>
</g>
</g>
</svg>
