<?xml version="1.0" encoding="UTF-8" standalone="no"?>
<!DOCTYPE svg PUBLIC "-//W3C//DTD SVG 1.1//EN"
 "http://www.w3.org/Graphics/SVG/1.1/DTD/svg11.dtd">
<!-- Generated by graphviz version 2.47.3 (20210619.1520)
 -->
<!-- Title: dependencies Pages: 1 -->
<svg width="862pt" height="247pt"
 viewBox="0.00 0.00 862.00 246.80" xmlns="http://www.w3.org/2000/svg" xmlns:xlink="http://www.w3.org/1999/xlink">
<g id="graph0" class="graph" transform="scale(1 1) rotate(0) translate(4 242.8)">
<title>dependencies</title>
<polygon fill="white" stroke="transparent" points="-4,4 -4,-242.8 858,-242.8 858,4 -4,4"/>
<text text-anchor="middle" x="427" y="-8.2" font-family="sans-serif" font-size="14.00">dependencies</text>
<g id="clust1" class="cluster">
<title>cluster_SharedModule</title>
<polygon fill="none" stroke="black" stroke-dasharray="1,5" points="8,-32.8 8,-230.8 846,-230.8 846,-32.8 8,-32.8"/>
</g>
<g id="clust2" class="cluster">
<title>cluster_SharedModule_declarations</title>
<polygon fill="none" stroke="black" points="299,-40.8 299,-92.8 838,-92.8 838,-40.8 299,-40.8"/>
</g>
<g id="clust8" class="cluster">
<title>cluster_SharedModule_exports</title>
<polygon fill="none" stroke="black" points="157,-170.8 157,-222.8 710,-222.8 710,-170.8 157,-170.8"/>
</g>
<g id="clust10" class="cluster">
<title>cluster_SharedModule_providers</title>
<polygon fill="none" stroke="black" points="16,-40.8 16,-92.8 291,-92.8 291,-40.8 16,-40.8"/>
</g>
<!-- BgVideoComponent -->
<g id="node1" class="node">
<title>BgVideoComponent</title>
<polygon fill="#ffffb3" stroke="black" points="829.88,-84.8 698.12,-84.8 698.12,-48.8 829.88,-48.8 829.88,-84.8"/>
<text text-anchor="middle" x="764" y="-62.6" font-family="Times,serif" font-size="14.00">BgVideoComponent</text>
</g>
<!-- SharedModule -->
<g id="node5" class="node">
<title>SharedModule</title>
<polygon fill="#8dd3c7" stroke="black" points="466.42,-149.8 463.42,-153.8 442.42,-153.8 439.42,-149.8 367.58,-149.8 367.58,-113.8 466.42,-113.8 466.42,-149.8"/>
<text text-anchor="middle" x="417" y="-127.6" font-family="Times,serif" font-size="14.00">SharedModule</text>
</g>
<!-- BgVideoComponent&#45;&gt;SharedModule -->
<g id="edge1" class="edge">
<title>BgVideoComponent&#45;&gt;SharedModule</title>
<path fill="none" stroke="black" d="M765.82,-84.91C765.82,-104.14 765.82,-131.8 765.82,-131.8 765.82,-131.8 476.24,-131.8 476.24,-131.8"/>
<polygon fill="black" stroke="black" points="476.24,-128.3 466.24,-131.8 476.24,-135.3 476.24,-128.3"/>
</g>
<!-- HeaderComponent -->
<g id="node2" class="node">
<title>HeaderComponent</title>
<polygon fill="#ffffb3" stroke="black" points="679.74,-84.8 558.26,-84.8 558.26,-48.8 679.74,-48.8 679.74,-84.8"/>
<text text-anchor="middle" x="619" y="-62.6" font-family="Times,serif" font-size="14.00">HeaderComponent</text>
</g>
<!-- HeaderComponent&#45;&gt;SharedModule -->
<g id="edge2" class="edge">
<title>HeaderComponent&#45;&gt;SharedModule</title>
<path fill="none" stroke="black" d="M562.22,-84.83C562.22,-101.2 562.22,-122.8 562.22,-122.8 562.22,-122.8 476.57,-122.8 476.57,-122.8"/>
<polygon fill="black" stroke="black" points="476.57,-119.3 466.57,-122.8 476.57,-126.3 476.57,-119.3"/>
</g>
<!-- LogoComponent -->
<g id="node3" class="node">
<title>LogoComponent</title>
<polygon fill="#ffffb3" stroke="black" points="540.39,-84.8 429.61,-84.8 429.61,-48.8 540.39,-48.8 540.39,-84.8"/>
<text text-anchor="middle" x="485" y="-62.6" font-family="Times,serif" font-size="14.00">LogoComponent</text>
</g>
<!-- LogoComponent&#45;&gt;SharedModule -->
<g id="edge3" class="edge">
<title>LogoComponent&#45;&gt;SharedModule</title>
<path fill="none" stroke="black" d="M447.88,-84.91C447.88,-84.91 447.88,-103.79 447.88,-103.79"/>
<polygon fill="black" stroke="black" points="444.38,-103.79 447.88,-113.79 451.38,-103.79 444.38,-103.79"/>
</g>
<!-- NavComponent -->
<g id="node4" class="node">
<title>NavComponent</title>
<polygon fill="#ffffb3" stroke="black" points="411.15,-84.8 306.85,-84.8 306.85,-48.8 411.15,-48.8 411.15,-84.8"/>
<text text-anchor="middle" x="359" y="-62.6" font-family="Times,serif" font-size="14.00">NavComponent</text>
</g>
<!-- NavComponent&#45;&gt;SharedModule -->
<g id="edge4" class="edge">
<title>NavComponent&#45;&gt;SharedModule</title>
<path fill="none" stroke="black" d="M389.56,-84.91C389.56,-84.91 389.56,-103.79 389.56,-103.79"/>
<polygon fill="black" stroke="black" points="386.06,-103.79 389.56,-113.79 393.06,-103.79 386.06,-103.79"/>
</g>
<!-- BgVideoComponent  -->
<g id="node6" class="node">
<title>BgVideoComponent </title>
<polygon fill="#fb8072" stroke="black" points="701.88,-214.8 566.12,-214.8 566.12,-178.8 701.88,-178.8 701.88,-214.8"/>
<text text-anchor="middle" x="634" y="-192.6" font-family="Times,serif" font-size="14.00">BgVideoComponent </text>
</g>
<!-- SharedModule&#45;&gt;BgVideoComponent  -->
<g id="edge5" class="edge">
<title>SharedModule&#45;&gt;BgVideoComponent </title>
<path fill="none" stroke="black" stroke-dasharray="5,2" d="M466.36,-140.8C527.33,-140.8 623.09,-140.8 623.09,-140.8 623.09,-140.8 623.09,-168.77 623.09,-168.77"/>
<polygon fill="black" stroke="black" points="619.59,-168.77 623.09,-178.77 626.59,-168.77 619.59,-168.77"/>
</g>
<!-- HeaderComponent  -->
<g id="node7" class="node">
<title>HeaderComponent </title>
<polygon fill="#fb8072" stroke="black" points="548.74,-214.8 423.26,-214.8 423.26,-178.8 548.74,-178.8 548.74,-214.8"/>
<text text-anchor="middle" x="486" y="-192.6" font-family="Times,serif" font-size="14.00">HeaderComponent </text>
</g>
<!-- SharedModule&#45;&gt;HeaderComponent  -->
<g id="edge6" class="edge">
<title>SharedModule&#45;&gt;HeaderComponent </title>
<path fill="none" stroke="black" stroke-dasharray="5,2" d="M444.79,-149.91C444.79,-149.91 444.79,-168.79 444.79,-168.79"/>
<polygon fill="black" stroke="black" points="441.29,-168.79 444.79,-178.79 448.29,-168.79 441.29,-168.79"/>
</g>
<!-- LogoComponent  -->
<g id="node8" class="node">
<title>LogoComponent </title>
<polygon fill="#fb8072" stroke="black" points="405.39,-214.8 290.61,-214.8 290.61,-178.8 405.39,-178.8 405.39,-214.8"/>
<text text-anchor="middle" x="348" y="-192.6" font-family="Times,serif" font-size="14.00">LogoComponent </text>
</g>
<!-- SharedModule&#45;&gt;LogoComponent  -->
<g id="edge7" class="edge">
<title>SharedModule&#45;&gt;LogoComponent </title>
<path fill="none" stroke="black" stroke-dasharray="5,2" d="M386.49,-149.91C386.49,-149.91 386.49,-168.79 386.49,-168.79"/>
<polygon fill="black" stroke="black" points="382.99,-168.79 386.49,-178.79 389.99,-168.79 382.99,-168.79"/>
</g>
<!-- NavComponent  -->
<g id="node9" class="node">
<title>NavComponent </title>
<polygon fill="#fb8072" stroke="black" points="273.15,-214.8 164.85,-214.8 164.85,-178.8 273.15,-178.8 273.15,-214.8"/>
<text text-anchor="middle" x="219" y="-192.6" font-family="Times,serif" font-size="14.00">NavComponent </text>
</g>
<!-- SharedModule&#45;&gt;NavComponent  -->
<g id="edge8" class="edge">
<title>SharedModule&#45;&gt;NavComponent </title>
<path fill="none" stroke="black" stroke-dasharray="5,2" d="M367.55,-140.8C308.9,-140.8 219,-140.8 219,-140.8 219,-140.8 219,-168.77 219,-168.77"/>
<polygon fill="black" stroke="black" points="215.5,-168.77 219,-178.77 222.5,-168.77 215.5,-168.77"/>
</g>
<!-- AuthService -->
<g id="node10" class="node">
<title>AuthService</title>
<ellipse fill="#fdb462" stroke="black" cx="224" cy="-66.8" rx="59.11" ry="18"/>
<text text-anchor="middle" x="224" y="-62.6" font-family="Times,serif" font-size="14.00">AuthService</text>
</g>
<!-- AuthService&#45;&gt;SharedModule -->
<g id="edge9" class="edge">
<title>AuthService&#45;&gt;SharedModule</title>
<path fill="none" stroke="black" d="M278.19,-74.12C278.19,-89.3 278.19,-122.8 278.19,-122.8 278.19,-122.8 357.67,-122.8 357.67,-122.8"/>
<polygon fill="black" stroke="black" points="357.67,-126.3 367.67,-122.8 357.67,-119.3 357.67,-126.3"/>
</g>
<!-- ToastService -->
<g id="node11" class="node">
<title>ToastService</title>
<ellipse fill="#fdb462" stroke="black" cx="85" cy="-66.8" rx="61.39" ry="18"/>
<text text-anchor="middle" x="85" y="-62.6" font-family="Times,serif" font-size="14.00">ToastService</text>
</g>
<!-- ToastService&#45;&gt;SharedModule -->
<g id="edge10" class="edge">
<title>ToastService&#45;&gt;SharedModule</title>
<path fill="none" stroke="black" d="M85,-84.91C85,-104.14 85,-131.8 85,-131.8 85,-131.8 357.65,-131.8 357.65,-131.8"/>
<polygon fill="black" stroke="black" points="357.65,-135.3 367.65,-131.8 357.65,-128.3 357.65,-135.3"/>
</g>
</g>
</svg>
