<?xml version="1.0" encoding="UTF-8" standalone="no"?>
<!DOCTYPE svg PUBLIC "-//W3C//DTD SVG 1.1//EN"
 "http://www.w3.org/Graphics/SVG/1.1/DTD/svg11.dtd">
<!-- Generated by graphviz version 2.47.3 (20210619.1520)
 -->
<!-- Title: dependencies Pages: 1 -->
<svg width="296pt" height="174pt"
 viewBox="0.00 0.00 296.00 173.80" xmlns="http://www.w3.org/2000/svg" xmlns:xlink="http://www.w3.org/1999/xlink">
<g id="graph0" class="graph" transform="scale(1 1) rotate(0) translate(4 169.8)">
<title>dependencies</title>
<polygon fill="white" stroke="transparent" points="-4,4 -4,-169.8 292,-169.8 292,4 -4,4"/>
<text text-anchor="middle" x="144" y="-8.2" font-family="sans-serif" font-size="14.00">dependencies</text>
<g id="clust1" class="cluster">
<title>cluster_AuthModule</title>
<polygon fill="none" stroke="black" stroke-dasharray="1,5" points="8,-32.8 8,-157.8 280,-157.8 280,-32.8 8,-32.8"/>
</g>
<g id="clust2" class="cluster">
<title>cluster_AuthModule_declarations</title>
<polygon fill="none" stroke="black" points="138,-40.8 138,-92.8 272,-92.8 272,-40.8 138,-40.8"/>
</g>
<g id="clust4" class="cluster">
<title>cluster_AuthModule_imports</title>
<polygon fill="none" stroke="black" points="16,-40.8 16,-92.8 130,-92.8 130,-40.8 16,-40.8"/>
</g>
<!-- SignInComponent -->
<g id="node1" class="node">
<title>SignInComponent</title>
<polygon fill="#ffffb3" stroke="black" points="264.17,-84.8 145.83,-84.8 145.83,-48.8 264.17,-48.8 264.17,-84.8"/>
<text text-anchor="middle" x="205" y="-62.6" font-family="Times,serif" font-size="14.00">SignInComponent</text>
</g>
<!-- AuthModule -->
<g id="node2" class="node">
<title>AuthModule</title>
<polygon fill="#8dd3c7" stroke="black" points="182.55,-149.8 179.55,-153.8 158.55,-153.8 155.55,-149.8 95.45,-149.8 95.45,-113.8 182.55,-113.8 182.55,-149.8"/>
<text text-anchor="middle" x="139" y="-127.6" font-family="Times,serif" font-size="14.00">AuthModule</text>
</g>
<!-- SignInComponent&#45;&gt;AuthModule -->
<g id="edge1" class="edge">
<title>SignInComponent&#45;&gt;AuthModule</title>
<path fill="none" stroke="black" d="M164.22,-84.91C164.22,-84.91 164.22,-103.79 164.22,-103.79"/>
<polygon fill="black" stroke="black" points="160.72,-103.79 164.22,-113.79 167.72,-103.79 160.72,-103.79"/>
</g>
<!-- SharedModule -->
<g id="node3" class="node">
<title>SharedModule</title>
<polygon fill="#8dd3c7" stroke="black" points="122.42,-84.8 119.42,-88.8 98.42,-88.8 95.42,-84.8 23.58,-84.8 23.58,-48.8 122.42,-48.8 122.42,-84.8"/>
<text text-anchor="middle" x="73" y="-62.6" font-family="Times,serif" font-size="14.00">SharedModule</text>
</g>
<!-- SharedModule&#45;&gt;AuthModule -->
<g id="edge2" class="edge">
<title>SharedModule&#45;&gt;AuthModule</title>
<path fill="none" stroke="black" d="M108.72,-84.91C108.72,-84.91 108.72,-103.79 108.72,-103.79"/>
<polygon fill="black" stroke="black" points="105.22,-103.79 108.72,-113.79 112.22,-103.79 105.22,-103.79"/>
</g>
</g>
</svg>
