<?xml version="1.0" encoding="UTF-8" standalone="no"?>
<!DOCTYPE svg PUBLIC "-//W3C//DTD SVG 1.1//EN"
 "http://www.w3.org/Graphics/SVG/1.1/DTD/svg11.dtd">
<!-- Generated by graphviz version 2.47.3 (20210619.1520)
 -->
<!-- Title: dependencies Pages: 1 -->
<svg width="308pt" height="174pt"
 viewBox="0.00 0.00 308.00 173.80" xmlns="http://www.w3.org/2000/svg" xmlns:xlink="http://www.w3.org/1999/xlink">
<g id="graph0" class="graph" transform="scale(1 1) rotate(0) translate(4 169.8)">
<title>dependencies</title>
<polygon fill="white" stroke="transparent" points="-4,4 -4,-169.8 304,-169.8 304,4 -4,4"/>
<text text-anchor="middle" x="150" y="-8.2" font-family="sans-serif" font-size="14.00">dependencies</text>
<g id="clust1" class="cluster">
<title>cluster_AuthModule</title>
<polygon fill="none" stroke="black" stroke-dasharray="1,5" points="8,-32.8 8,-157.8 292,-157.8 292,-32.8 8,-32.8"/>
</g>
<g id="clust7" class="cluster">
<title>cluster_AuthModule_providers</title>
<polygon fill="none" stroke="black" points="150,-40.8 150,-92.8 284,-92.8 284,-40.8 150,-40.8"/>
</g>
<g id="clust2" class="cluster">
<title>cluster_AuthModule_declarations</title>
<polygon fill="none" stroke="black" points="16,-40.8 16,-92.8 142,-92.8 142,-40.8 16,-40.8"/>
</g>
<!-- AuthComponent -->
<g id="node1" class="node">
<title>AuthComponent</title>
<polygon fill="#ffffb3" stroke="black" points="133.83,-84.8 24.17,-84.8 24.17,-48.8 133.83,-48.8 133.83,-84.8"/>
<text text-anchor="middle" x="79" y="-62.6" font-family="Times,serif" font-size="14.00">AuthComponent</text>
</g>
<!-- AuthModule -->
<g id="node2" class="node">
<title>AuthModule</title>
<polygon fill="#8dd3c7" stroke="black" points="191.55,-149.8 188.55,-153.8 167.55,-153.8 164.55,-149.8 104.45,-149.8 104.45,-113.8 191.55,-113.8 191.55,-149.8"/>
<text text-anchor="middle" x="148" y="-127.6" font-family="Times,serif" font-size="14.00">AuthModule</text>
</g>
<!-- AuthComponent&#45;&gt;AuthModule -->
<g id="edge1" class="edge">
<title>AuthComponent&#45;&gt;AuthModule</title>
<path fill="none" stroke="black" d="M118.95,-84.91C118.95,-84.91 118.95,-103.79 118.95,-103.79"/>
<polygon fill="black" stroke="black" points="115.45,-103.79 118.95,-113.79 122.45,-103.79 115.45,-103.79"/>
</g>
<!-- AuthService -->
<g id="node3" class="node">
<title>AuthService</title>
<ellipse fill="#fdb462" stroke="black" cx="217" cy="-66.8" rx="59.11" ry="18"/>
<text text-anchor="middle" x="217" y="-62.6" font-family="Times,serif" font-size="14.00">AuthService</text>
</g>
<!-- AuthService&#45;&gt;AuthModule -->
<g id="edge2" class="edge">
<title>AuthService&#45;&gt;AuthModule</title>
<path fill="none" stroke="black" d="M174.73,-79.64C174.73,-79.64 174.73,-103.32 174.73,-103.32"/>
<polygon fill="black" stroke="black" points="171.23,-103.32 174.73,-113.32 178.23,-103.32 171.23,-103.32"/>
</g>
</g>
</svg>
