<?xml version="1.0" encoding="UTF-8" standalone="no"?>
<!DOCTYPE svg PUBLIC "-//W3C//DTD SVG 1.1//EN"
 "http://www.w3.org/Graphics/SVG/1.1/DTD/svg11.dtd">
<!-- Generated by graphviz version 2.47.3 (20210619.1520)
 -->
<!-- Title: dependencies Pages: 1 -->
<svg width="3465pt" height="323pt"
 viewBox="0.00 0.00 3465.00 322.80" xmlns="http://www.w3.org/2000/svg" xmlns:xlink="http://www.w3.org/1999/xlink">
<g id="graph0" class="graph" transform="scale(1 1) rotate(0) translate(4 318.8)">
<title>dependencies</title>
<polygon fill="white" stroke="transparent" points="-4,4 -4,-318.8 3461,-318.8 3461,4 -4,4"/>
<text text-anchor="middle" x="1728.5" y="-8.2" font-family="sans-serif" font-size="14.00">dependencies</text>
<g id="clust1" class="cluster">
<title>cluster_AlarmsModule</title>
<polygon fill="none" stroke="black" stroke-dasharray="1,5" points="1033,-108.8 1033,-233.8 1473,-233.8 1473,-108.8 1033,-108.8"/>
</g>
<g id="clust2" class="cluster">
<title>cluster_AlarmsModule_declarations</title>
<polygon fill="none" stroke="black" points="1041,-116.8 1041,-168.8 1179,-168.8 1179,-116.8 1041,-116.8"/>
</g>
<g id="clust4" class="cluster">
<title>cluster_AlarmsModule_imports</title>
<polygon fill="none" stroke="black" points="1187,-116.8 1187,-168.8 1465,-168.8 1465,-116.8 1187,-116.8"/>
</g>
<g id="clust14" class="cluster">
<title>cluster_AppModule</title>
<polygon fill="none" stroke="black" stroke-dasharray="1,5" points="8,-108.8 8,-306.8 397,-306.8 397,-108.8 8,-108.8"/>
</g>
<g id="clust15" class="cluster">
<title>cluster_AppModule_declarations</title>
<polygon fill="none" stroke="black" points="267,-116.8 267,-168.8 389,-168.8 389,-116.8 267,-116.8"/>
</g>
<g id="clust17" class="cluster">
<title>cluster_AppModule_imports</title>
<polygon fill="none" stroke="black" points="16,-116.8 16,-168.8 259,-168.8 259,-116.8 16,-116.8"/>
</g>
<g id="clust19" class="cluster">
<title>cluster_AppModule_bootstrap</title>
<polygon fill="none" stroke="black" points="195,-246.8 195,-298.8 319,-298.8 319,-246.8 195,-246.8"/>
</g>
<g id="clust27" class="cluster">
<title>cluster_AuthModule</title>
<polygon fill="none" stroke="black" stroke-dasharray="1,5" points="405,-108.8 405,-233.8 711,-233.8 711,-108.8 405,-108.8"/>
</g>
<g id="clust28" class="cluster">
<title>cluster_AuthModule_declarations</title>
<polygon fill="none" stroke="black" points="569,-116.8 569,-168.8 703,-168.8 703,-116.8 569,-116.8"/>
</g>
<g id="clust30" class="cluster">
<title>cluster_AuthModule_imports</title>
<polygon fill="none" stroke="black" points="413,-116.8 413,-168.8 561,-168.8 561,-116.8 413,-116.8"/>
</g>
<g id="clust40" class="cluster">
<title>cluster_ChatsModule</title>
<polygon fill="none" stroke="black" stroke-dasharray="1,5" points="719,-108.8 719,-233.8 1025,-233.8 1025,-108.8 719,-108.8"/>
</g>
<g id="clust41" class="cluster">
<title>cluster_ChatsModule_declarations</title>
<polygon fill="none" stroke="black" points="887,-116.8 887,-168.8 1017,-168.8 1017,-116.8 887,-116.8"/>
</g>
<g id="clust43" class="cluster">
<title>cluster_ChatsModule_imports</title>
<polygon fill="none" stroke="black" points="727,-116.8 727,-168.8 879,-168.8 879,-116.8 727,-116.8"/>
</g>
<g id="clust53" class="cluster">
<title>cluster_DashboardModule</title>
<polygon fill="none" stroke="black" stroke-dasharray="1,5" points="1481,-108.8 1481,-233.8 1845,-233.8 1845,-108.8 1481,-108.8"/>
</g>
<g id="clust54" class="cluster">
<title>cluster_DashboardModule_declarations</title>
<polygon fill="none" stroke="black" points="1679,-116.8 1679,-168.8 1837,-168.8 1837,-116.8 1679,-116.8"/>
</g>
<g id="clust56" class="cluster">
<title>cluster_DashboardModule_imports</title>
<polygon fill="none" stroke="black" points="1489,-116.8 1489,-168.8 1671,-168.8 1671,-116.8 1489,-116.8"/>
</g>
<g id="clust66" class="cluster">
<title>cluster_DebtsModule</title>
<polygon fill="none" stroke="black" stroke-dasharray="1,5" points="1853,-108.8 1853,-233.8 2161,-233.8 2161,-108.8 1853,-108.8"/>
</g>
<g id="clust67" class="cluster">
<title>cluster_DebtsModule_declarations</title>
<polygon fill="none" stroke="black" points="2023,-116.8 2023,-168.8 2153,-168.8 2153,-116.8 2023,-116.8"/>
</g>
<g id="clust69" class="cluster">
<title>cluster_DebtsModule_imports</title>
<polygon fill="none" stroke="black" points="1861,-116.8 1861,-168.8 2015,-168.8 2015,-116.8 1861,-116.8"/>
</g>
<g id="clust85" class="cluster">
<title>cluster_MeModule</title>
<polygon fill="none" stroke="black" stroke-dasharray="1,5" points="2169,-108.8 2169,-233.8 2449,-233.8 2449,-108.8 2169,-108.8"/>
</g>
<g id="clust86" class="cluster">
<title>cluster_MeModule_declarations</title>
<polygon fill="none" stroke="black" points="2325,-116.8 2325,-168.8 2441,-168.8 2441,-116.8 2325,-116.8"/>
</g>
<g id="clust88" class="cluster">
<title>cluster_MeModule_imports</title>
<polygon fill="none" stroke="black" points="2177,-116.8 2177,-168.8 2317,-168.8 2317,-116.8 2177,-116.8"/>
</g>
<g id="clust98" class="cluster">
<title>cluster_ProgressModule</title>
<polygon fill="none" stroke="black" stroke-dasharray="1,5" points="2457,-108.8 2457,-233.8 2795,-233.8 2795,-108.8 2457,-108.8"/>
</g>
<g id="clust99" class="cluster">
<title>cluster_ProgressModule_declarations</title>
<polygon fill="none" stroke="black" points="2641,-116.8 2641,-168.8 2787,-168.8 2787,-116.8 2641,-116.8"/>
</g>
<g id="clust101" class="cluster">
<title>cluster_ProgressModule_imports</title>
<polygon fill="none" stroke="black" points="2465,-116.8 2465,-168.8 2633,-168.8 2633,-116.8 2465,-116.8"/>
</g>
<g id="clust111" class="cluster">
<title>cluster_SettingsModule</title>
<polygon fill="none" stroke="black" stroke-dasharray="1,5" points="2803,-108.8 2803,-233.8 3135,-233.8 3135,-108.8 2803,-108.8"/>
</g>
<g id="clust112" class="cluster">
<title>cluster_SettingsModule_declarations</title>
<polygon fill="none" stroke="black" points="2985,-116.8 2985,-168.8 3127,-168.8 3127,-116.8 2985,-116.8"/>
</g>
<g id="clust114" class="cluster">
<title>cluster_SettingsModule_imports</title>
<polygon fill="none" stroke="black" points="2811,-116.8 2811,-168.8 2977,-168.8 2977,-116.8 2811,-116.8"/>
</g>
<g id="clust124" class="cluster">
<title>cluster_SharedModule</title>
<polygon fill="none" stroke="black" stroke-dasharray="1,5" points="714,-32.8 714,-100.8 2113,-100.8 2113,-32.8 714,-32.8"/>
</g>
<g id="clust125" class="cluster">
<title>cluster_SharedModule_declarations</title>
<polygon fill="none" stroke="black" points="1566,-40.8 1566,-92.8 2105,-92.8 2105,-40.8 1566,-40.8"/>
</g>
<g id="clust131" class="cluster">
<title>cluster_SharedModule_exports</title>
<polygon fill="none" stroke="black" points="1005,-40.8 1005,-92.8 1558,-92.8 1558,-40.8 1005,-40.8"/>
</g>
<g id="clust133" class="cluster">
<title>cluster_SharedModule_providers</title>
<polygon fill="none" stroke="black" points="722,-40.8 722,-92.8 997,-92.8 997,-40.8 722,-40.8"/>
</g>
<g id="clust134" class="cluster">
<title>cluster_UsersModule</title>
<polygon fill="none" stroke="black" stroke-dasharray="1,5" points="3143,-108.8 3143,-233.8 3449,-233.8 3449,-108.8 3143,-108.8"/>
</g>
<g id="clust135" class="cluster">
<title>cluster_UsersModule_declarations</title>
<polygon fill="none" stroke="black" points="3311,-116.8 3311,-168.8 3441,-168.8 3441,-116.8 3311,-116.8"/>
</g>
<g id="clust137" class="cluster">
<title>cluster_UsersModule_imports</title>
<polygon fill="none" stroke="black" points="3151,-116.8 3151,-168.8 3303,-168.8 3303,-116.8 3151,-116.8"/>
</g>
<!-- AlarmsComponent -->
<g id="node1" class="node">
<title>AlarmsComponent</title>
<polygon fill="#ffffb3" stroke="black" points="1171.04,-160.8 1048.96,-160.8 1048.96,-124.8 1171.04,-124.8 1171.04,-160.8"/>
<text text-anchor="middle" x="1110" y="-138.6" font-family="Times,serif" font-size="14.00">AlarmsComponent</text>
</g>
<!-- AlarmsModule -->
<g id="node2" class="node">
<title>AlarmsModule</title>
<polygon fill="#8dd3c7" stroke="black" points="1318.26,-225.8 1315.26,-229.8 1294.26,-229.8 1291.26,-225.8 1217.74,-225.8 1217.74,-189.8 1318.26,-189.8 1318.26,-225.8"/>
<text text-anchor="middle" x="1268" y="-203.6" font-family="Times,serif" font-size="14.00">AlarmsModule</text>
</g>
<!-- AlarmsComponent&#45;&gt;AlarmsModule -->
<g id="edge1" class="edge">
<title>AlarmsComponent&#45;&gt;AlarmsModule</title>
<path fill="none" stroke="black" d="M1110,-160.91C1110,-180.14 1110,-207.8 1110,-207.8 1110,-207.8 1207.57,-207.8 1207.57,-207.8"/>
<polygon fill="black" stroke="black" points="1207.57,-211.3 1217.57,-207.8 1207.57,-204.3 1207.57,-211.3"/>
</g>
<!-- AlarmsRoutingModule -->
<g id="node3" class="node">
<title>AlarmsRoutingModule</title>
<polygon fill="#8dd3c7" stroke="black" points="1340.88,-160.8 1337.88,-164.8 1316.88,-164.8 1313.88,-160.8 1195.12,-160.8 1195.12,-124.8 1340.88,-124.8 1340.88,-160.8"/>
<text text-anchor="middle" x="1268" y="-138.6" font-family="Times,serif" font-size="14.00">AlarmsRoutingModule</text>
</g>
<!-- AlarmsRoutingModule&#45;&gt;AlarmsModule -->
<g id="edge2" class="edge">
<title>AlarmsRoutingModule&#45;&gt;AlarmsModule</title>
<path fill="none" stroke="black" d="M1268,-160.91C1268,-160.91 1268,-179.79 1268,-179.79"/>
<polygon fill="black" stroke="black" points="1264.5,-179.79 1268,-189.79 1271.5,-179.79 1264.5,-179.79"/>
</g>
<!-- SharedModule -->
<g id="node4" class="node">
<title>SharedModule</title>
<polygon fill="#8dd3c7" stroke="black" points="1457.42,-160.8 1454.42,-164.8 1433.42,-164.8 1430.42,-160.8 1358.58,-160.8 1358.58,-124.8 1457.42,-124.8 1457.42,-160.8"/>
<text text-anchor="middle" x="1408" y="-138.6" font-family="Times,serif" font-size="14.00">SharedModule</text>
</g>
<!-- SharedModule&#45;&gt;AlarmsModule -->
<g id="edge3" class="edge">
<title>SharedModule&#45;&gt;AlarmsModule</title>
<path fill="none" stroke="black" d="M1439.32,-161.08C1439.32,-182.12 1439.32,-213.8 1439.32,-213.8 1439.32,-213.8 1328.47,-213.8 1328.47,-213.8"/>
<polygon fill="black" stroke="black" points="1328.47,-210.3 1318.47,-213.8 1328.47,-217.3 1328.47,-210.3"/>
</g>
<!-- AppModule -->
<g id="node6" class="node">
<title>AppModule</title>
<polygon fill="#8dd3c7" stroke="black" points="298.66,-225.8 295.66,-229.8 274.66,-229.8 271.66,-225.8 215.34,-225.8 215.34,-189.8 298.66,-189.8 298.66,-225.8"/>
<text text-anchor="middle" x="257" y="-203.6" font-family="Times,serif" font-size="14.00">AppModule</text>
</g>
<!-- SharedModule&#45;&gt;AppModule -->
<g id="edge7" class="edge">
<title>SharedModule&#45;&gt;AppModule</title>
<path fill="none" stroke="black" d="M1367.74,-161.01C1367.74,-166.35 1367.74,-170.8 1367.74,-170.8 1367.74,-170.8 290.98,-170.8 290.98,-170.8 290.98,-170.8 290.98,-179.73 290.98,-179.73"/>
<polygon fill="black" stroke="black" points="287.48,-179.73 290.98,-189.73 294.48,-179.73 287.48,-179.73"/>
</g>
<!-- AuthModule -->
<g id="node11" class="node">
<title>AuthModule</title>
<polygon fill="#8dd3c7" stroke="black" points="679.55,-225.8 676.55,-229.8 655.55,-229.8 652.55,-225.8 592.45,-225.8 592.45,-189.8 679.55,-189.8 679.55,-225.8"/>
<text text-anchor="middle" x="636" y="-203.6" font-family="Times,serif" font-size="14.00">AuthModule</text>
</g>
<!-- SharedModule&#45;&gt;AuthModule -->
<g id="edge11" class="edge">
<title>SharedModule&#45;&gt;AuthModule</title>
<path fill="none" stroke="black" d="M1376.68,-160.91C1376.68,-170.7 1376.68,-180.8 1376.68,-180.8 1376.68,-180.8 650.59,-180.8 650.59,-180.8 650.59,-180.8 650.59,-181.68 650.59,-181.68"/>
<polygon fill="black" stroke="black" points="647.09,-179.64 650.59,-189.64 654.09,-179.64 647.09,-179.64"/>
</g>
<!-- ChatsModule -->
<g id="node14" class="node">
<title>ChatsModule</title>
<polygon fill="#8dd3c7" stroke="black" points="997.94,-225.8 994.94,-229.8 973.94,-229.8 970.94,-225.8 906.06,-225.8 906.06,-189.8 997.94,-189.8 997.94,-225.8"/>
<text text-anchor="middle" x="952" y="-203.6" font-family="Times,serif" font-size="14.00">ChatsModule</text>
</g>
<!-- SharedModule&#45;&gt;ChatsModule -->
<g id="edge14" class="edge">
<title>SharedModule&#45;&gt;ChatsModule</title>
<path fill="none" stroke="black" d="M1385.63,-160.95C1385.63,-173.07 1385.63,-186.8 1385.63,-186.8 1385.63,-186.8 967.24,-186.8 967.24,-186.8 967.24,-186.8 967.24,-187.09 967.24,-187.09"/>
<polygon fill="black" stroke="black" points="963.74,-179.72 967.24,-189.72 970.74,-179.72 963.74,-179.72"/>
</g>
<!-- DashboardModule -->
<g id="node17" class="node">
<title>DashboardModule</title>
<polygon fill="#8dd3c7" stroke="black" points="1640.19,-225.8 1637.19,-229.8 1616.19,-229.8 1613.19,-225.8 1519.81,-225.8 1519.81,-189.8 1640.19,-189.8 1640.19,-225.8"/>
<text text-anchor="middle" x="1580" y="-203.6" font-family="Times,serif" font-size="14.00">DashboardModule</text>
</g>
<!-- SharedModule&#45;&gt;DashboardModule -->
<g id="edge17" class="edge">
<title>SharedModule&#45;&gt;DashboardModule</title>
<path fill="none" stroke="black" d="M1448.26,-160.82C1448.26,-178.17 1448.26,-201.8 1448.26,-201.8 1448.26,-201.8 1509.53,-201.8 1509.53,-201.8"/>
<polygon fill="black" stroke="black" points="1509.53,-205.3 1519.53,-201.8 1509.53,-198.3 1509.53,-205.3"/>
</g>
<!-- DebtsModule -->
<g id="node20" class="node">
<title>DebtsModule</title>
<polygon fill="#8dd3c7" stroke="black" points="1984.21,-225.8 1981.21,-229.8 1960.21,-229.8 1957.21,-225.8 1891.79,-225.8 1891.79,-189.8 1984.21,-189.8 1984.21,-225.8"/>
<text text-anchor="middle" x="1938" y="-203.6" font-family="Times,serif" font-size="14.00">DebtsModule</text>
</g>
<!-- SharedModule&#45;&gt;DebtsModule -->
<g id="edge20" class="edge">
<title>SharedModule&#45;&gt;DebtsModule</title>
<path fill="none" stroke="black" d="M1394.58,-160.9C1394.58,-171.89 1394.58,-183.8 1394.58,-183.8 1394.58,-183.8 1922.63,-183.8 1922.63,-183.8 1922.63,-183.8 1922.63,-184.38 1922.63,-184.38"/>
<polygon fill="black" stroke="black" points="1919.13,-179.61 1922.63,-189.61 1926.13,-179.61 1919.13,-179.61"/>
</g>
<!-- MeModule -->
<g id="node23" class="node">
<title>MeModule</title>
<polygon fill="#8dd3c7" stroke="black" points="2286.21,-225.8 2283.21,-229.8 2262.21,-229.8 2259.21,-225.8 2207.79,-225.8 2207.79,-189.8 2286.21,-189.8 2286.21,-225.8"/>
<text text-anchor="middle" x="2247" y="-203.6" font-family="Times,serif" font-size="14.00">MeModule</text>
</g>
<!-- SharedModule&#45;&gt;MeModule -->
<g id="edge23" class="edge">
<title>SharedModule&#45;&gt;MeModule</title>
<path fill="none" stroke="black" d="M1403.53,-161.12C1403.53,-169.59 1403.53,-177.8 1403.53,-177.8 1403.53,-177.8 2233.97,-177.8 2233.97,-177.8 2233.97,-177.8 2233.97,-179.66 2233.97,-179.66"/>
<polygon fill="black" stroke="black" points="2230.47,-179.66 2233.97,-189.66 2237.47,-179.66 2230.47,-179.66"/>
</g>
<!-- ProgressModule -->
<g id="node26" class="node">
<title>ProgressModule</title>
<polygon fill="#8dd3c7" stroke="black" points="2602.76,-225.8 2599.76,-229.8 2578.76,-229.8 2575.76,-225.8 2495.24,-225.8 2495.24,-189.8 2602.76,-189.8 2602.76,-225.8"/>
<text text-anchor="middle" x="2549" y="-203.6" font-family="Times,serif" font-size="14.00">ProgressModule</text>
</g>
<!-- SharedModule&#45;&gt;ProgressModule -->
<g id="edge26" class="edge">
<title>SharedModule&#45;&gt;ProgressModule</title>
<path fill="none" stroke="black" d="M1412.47,-160.83C1412.47,-167.65 1412.47,-173.8 1412.47,-173.8 1412.47,-173.8 2531.04,-173.8 2531.04,-173.8 2531.04,-173.8 2531.04,-179.61 2531.04,-179.61"/>
<polygon fill="black" stroke="black" points="2527.54,-179.61 2531.04,-189.61 2534.54,-179.61 2527.54,-179.61"/>
</g>
<!-- SettingsModule -->
<g id="node29" class="node">
<title>SettingsModule</title>
<polygon fill="#8dd3c7" stroke="black" points="2946.16,-225.8 2943.16,-229.8 2922.16,-229.8 2919.16,-225.8 2841.84,-225.8 2841.84,-189.8 2946.16,-189.8 2946.16,-225.8"/>
<text text-anchor="middle" x="2894" y="-203.6" font-family="Times,serif" font-size="14.00">SettingsModule</text>
</g>
<!-- SharedModule&#45;&gt;SettingsModule -->
<g id="edge29" class="edge">
<title>SharedModule&#45;&gt;SettingsModule</title>
<path fill="none" stroke="black" d="M1421.42,-160.97C1421.42,-164.85 1421.42,-167.8 1421.42,-167.8 1421.42,-167.8 2876.56,-167.8 2876.56,-167.8 2876.56,-167.8 2876.56,-179.67 2876.56,-179.67"/>
<polygon fill="black" stroke="black" points="2873.06,-179.67 2876.56,-189.67 2880.06,-179.67 2873.06,-179.67"/>
</g>
<!-- BgVideoComponent  -->
<g id="node35" class="node">
<title>BgVideoComponent </title>
<polygon fill="#fb8072" stroke="black" points="1549.88,-84.8 1414.12,-84.8 1414.12,-48.8 1549.88,-48.8 1549.88,-84.8"/>
<text text-anchor="middle" x="1482" y="-62.6" font-family="Times,serif" font-size="14.00">BgVideoComponent </text>
</g>
<!-- SharedModule&#45;&gt;BgVideoComponent  -->
<g id="edge34" class="edge">
<title>SharedModule&#45;&gt;BgVideoComponent </title>
<path fill="none" stroke="black" stroke-dasharray="5,2" d="M1421.46,-124.79C1421.46,-124.79 1421.46,-94.95 1421.46,-94.95"/>
<polygon fill="black" stroke="black" points="1424.96,-94.95 1421.46,-84.95 1417.96,-94.95 1424.96,-94.95"/>
</g>
<!-- HeaderComponent  -->
<g id="node36" class="node">
<title>HeaderComponent </title>
<polygon fill="#fb8072" stroke="black" points="1396.74,-84.8 1271.26,-84.8 1271.26,-48.8 1396.74,-48.8 1396.74,-84.8"/>
<text text-anchor="middle" x="1334" y="-62.6" font-family="Times,serif" font-size="14.00">HeaderComponent </text>
</g>
<!-- SharedModule&#45;&gt;HeaderComponent  -->
<g id="edge35" class="edge">
<title>SharedModule&#45;&gt;HeaderComponent </title>
<path fill="none" stroke="black" stroke-dasharray="5,2" d="M1390.32,-124.79C1390.32,-124.79 1390.32,-94.95 1390.32,-94.95"/>
<polygon fill="black" stroke="black" points="1393.82,-94.95 1390.32,-84.95 1386.82,-94.95 1393.82,-94.95"/>
</g>
<!-- LogoComponent  -->
<g id="node37" class="node">
<title>LogoComponent </title>
<polygon fill="#fb8072" stroke="black" points="1253.39,-84.8 1138.61,-84.8 1138.61,-48.8 1253.39,-48.8 1253.39,-84.8"/>
<text text-anchor="middle" x="1196" y="-62.6" font-family="Times,serif" font-size="14.00">LogoComponent </text>
</g>
<!-- SharedModule&#45;&gt;LogoComponent  -->
<g id="edge36" class="edge">
<title>SharedModule&#45;&gt;LogoComponent </title>
<path fill="none" stroke="black" stroke-dasharray="5,2" d="M1384.01,-124.48C1384.01,-116.01 1384.01,-107.8 1384.01,-107.8 1384.01,-107.8 1224.13,-107.8 1224.13,-107.8 1224.13,-107.8 1224.13,-94.9 1224.13,-94.9"/>
<polygon fill="black" stroke="black" points="1227.63,-94.9 1224.13,-84.9 1220.63,-94.9 1227.63,-94.9"/>
</g>
<!-- NavComponent  -->
<g id="node38" class="node">
<title>NavComponent </title>
<polygon fill="#fb8072" stroke="black" points="1121.15,-84.8 1012.85,-84.8 1012.85,-48.8 1121.15,-48.8 1121.15,-84.8"/>
<text text-anchor="middle" x="1067" y="-62.6" font-family="Times,serif" font-size="14.00">NavComponent </text>
</g>
<!-- SharedModule&#45;&gt;NavComponent  -->
<g id="edge37" class="edge">
<title>SharedModule&#45;&gt;NavComponent </title>
<path fill="none" stroke="black" stroke-dasharray="5,2" d="M1377.71,-124.77C1377.71,-117.95 1377.71,-111.8 1377.71,-111.8 1377.71,-111.8 1084.9,-111.8 1084.9,-111.8 1084.9,-111.8 1084.9,-94.84 1084.9,-94.84"/>
<polygon fill="black" stroke="black" points="1088.4,-94.84 1084.9,-84.84 1081.4,-94.84 1088.4,-94.84"/>
</g>
<!-- UsersModule -->
<g id="node42" class="node">
<title>UsersModule</title>
<polygon fill="#8dd3c7" stroke="black" points="3272.92,-225.8 3269.92,-229.8 3248.92,-229.8 3245.92,-225.8 3181.08,-225.8 3181.08,-189.8 3272.92,-189.8 3272.92,-225.8"/>
<text text-anchor="middle" x="3227" y="-203.6" font-family="Times,serif" font-size="14.00">UsersModule</text>
</g>
<!-- SharedModule&#45;&gt;UsersModule -->
<g id="edge41" class="edge">
<title>SharedModule&#45;&gt;UsersModule</title>
<path fill="none" stroke="black" d="M1430.37,-160.97C1430.37,-163.25 1430.37,-164.8 1430.37,-164.8 1430.37,-164.8 3211.76,-164.8 3211.76,-164.8 3211.76,-164.8 3211.76,-179.31 3211.76,-179.31"/>
<polygon fill="black" stroke="black" points="3208.26,-179.31 3211.76,-189.31 3215.26,-179.31 3208.26,-179.31"/>
</g>
<!-- AppComponent -->
<g id="node5" class="node">
<title>AppComponent</title>
<polygon fill="#ffffb3" stroke="black" points="380.94,-160.8 275.06,-160.8 275.06,-124.8 380.94,-124.8 380.94,-160.8"/>
<text text-anchor="middle" x="328" y="-138.6" font-family="Times,serif" font-size="14.00">AppComponent</text>
</g>
<!-- AppComponent&#45;&gt;AppModule -->
<g id="edge4" class="edge">
<title>AppComponent&#45;&gt;AppModule</title>
<path fill="none" stroke="black" d="M283.13,-160.91C283.13,-160.91 283.13,-179.79 283.13,-179.79"/>
<polygon fill="black" stroke="black" points="279.63,-179.79 283.13,-189.79 286.63,-179.79 279.63,-179.79"/>
</g>
<!-- AppComponent  -->
<g id="node9" class="node">
<title>AppComponent </title>
<polygon fill="#80b1d3" stroke="black" points="311.44,-290.8 202.56,-290.8 202.56,-254.8 311.44,-254.8 311.44,-290.8"/>
<text text-anchor="middle" x="257" y="-268.6" font-family="Times,serif" font-size="14.00">AppComponent </text>
</g>
<!-- AppModule&#45;&gt;AppComponent  -->
<g id="edge8" class="edge">
<title>AppModule&#45;&gt;AppComponent </title>
<path fill="none" stroke="black" stroke-dasharray="1,5" d="M257,-225.91C257,-225.91 257,-244.79 257,-244.79"/>
<polygon fill="black" stroke="black" points="253.5,-244.79 257,-254.79 260.5,-244.79 253.5,-244.79"/>
</g>
<!-- AppRoutingModule -->
<g id="node7" class="node">
<title>AppRoutingModule</title>
<polygon fill="#8dd3c7" stroke="black" points="251.27,-160.8 248.27,-164.8 227.27,-164.8 224.27,-160.8 122.73,-160.8 122.73,-124.8 251.27,-124.8 251.27,-160.8"/>
<text text-anchor="middle" x="187" y="-138.6" font-family="Times,serif" font-size="14.00">AppRoutingModule</text>
</g>
<!-- AppRoutingModule&#45;&gt;AppModule -->
<g id="edge5" class="edge">
<title>AppRoutingModule&#45;&gt;AppModule</title>
<path fill="none" stroke="black" d="M233.28,-160.91C233.28,-160.91 233.28,-179.79 233.28,-179.79"/>
<polygon fill="black" stroke="black" points="229.78,-179.79 233.28,-189.79 236.78,-179.79 229.78,-179.79"/>
</g>
<!-- GqlModule -->
<g id="node8" class="node">
<title>GqlModule</title>
<polygon fill="#8dd3c7" stroke="black" points="104.05,-160.8 101.05,-164.8 80.05,-164.8 77.05,-160.8 23.95,-160.8 23.95,-124.8 104.05,-124.8 104.05,-160.8"/>
<text text-anchor="middle" x="64" y="-138.6" font-family="Times,serif" font-size="14.00">GqlModule</text>
</g>
<!-- GqlModule&#45;&gt;AppModule -->
<g id="edge6" class="edge">
<title>GqlModule&#45;&gt;AppModule</title>
<path fill="none" stroke="black" d="M64,-160.91C64,-180.14 64,-207.8 64,-207.8 64,-207.8 205.12,-207.8 205.12,-207.8"/>
<polygon fill="black" stroke="black" points="205.12,-211.3 215.12,-207.8 205.12,-204.3 205.12,-211.3"/>
</g>
<!-- SignInComponent -->
<g id="node10" class="node">
<title>SignInComponent</title>
<polygon fill="#ffffb3" stroke="black" points="695.17,-160.8 576.83,-160.8 576.83,-124.8 695.17,-124.8 695.17,-160.8"/>
<text text-anchor="middle" x="636" y="-138.6" font-family="Times,serif" font-size="14.00">SignInComponent</text>
</g>
<!-- SignInComponent&#45;&gt;AuthModule -->
<g id="edge9" class="edge">
<title>SignInComponent&#45;&gt;AuthModule</title>
<path fill="none" stroke="black" d="M621.41,-160.91C621.41,-160.91 621.41,-179.79 621.41,-179.79"/>
<polygon fill="black" stroke="black" points="617.91,-179.79 621.41,-189.79 624.91,-179.79 617.91,-179.79"/>
</g>
<!-- AuthRoutingModule -->
<g id="node12" class="node">
<title>AuthRoutingModule</title>
<polygon fill="#8dd3c7" stroke="black" points="553.17,-160.8 550.17,-164.8 529.17,-164.8 526.17,-160.8 420.83,-160.8 420.83,-124.8 553.17,-124.8 553.17,-160.8"/>
<text text-anchor="middle" x="487" y="-138.6" font-family="Times,serif" font-size="14.00">AuthRoutingModule</text>
</g>
<!-- AuthRoutingModule&#45;&gt;AuthModule -->
<g id="edge10" class="edge">
<title>AuthRoutingModule&#45;&gt;AuthModule</title>
<path fill="none" stroke="black" d="M487,-160.91C487,-180.14 487,-207.8 487,-207.8 487,-207.8 582.1,-207.8 582.1,-207.8"/>
<polygon fill="black" stroke="black" points="582.1,-211.3 592.1,-207.8 582.1,-204.3 582.1,-211.3"/>
</g>
<!-- ChatsComponent -->
<g id="node13" class="node">
<title>ChatsComponent</title>
<polygon fill="#ffffb3" stroke="black" points="1008.72,-160.8 895.28,-160.8 895.28,-124.8 1008.72,-124.8 1008.72,-160.8"/>
<text text-anchor="middle" x="952" y="-138.6" font-family="Times,serif" font-size="14.00">ChatsComponent</text>
</g>
<!-- ChatsComponent&#45;&gt;ChatsModule -->
<g id="edge12" class="edge">
<title>ChatsComponent&#45;&gt;ChatsModule</title>
<path fill="none" stroke="black" d="M936.76,-160.91C936.76,-160.91 936.76,-179.79 936.76,-179.79"/>
<polygon fill="black" stroke="black" points="933.26,-179.79 936.76,-189.79 940.26,-179.79 933.26,-179.79"/>
</g>
<!-- ChatsRoutingModule -->
<g id="node15" class="node">
<title>ChatsRoutingModule</title>
<polygon fill="#8dd3c7" stroke="black" points="871.05,-160.8 868.05,-164.8 847.05,-164.8 844.05,-160.8 734.95,-160.8 734.95,-124.8 871.05,-124.8 871.05,-160.8"/>
<text text-anchor="middle" x="803" y="-138.6" font-family="Times,serif" font-size="14.00">ChatsRoutingModule</text>
</g>
<!-- ChatsRoutingModule&#45;&gt;ChatsModule -->
<g id="edge13" class="edge">
<title>ChatsRoutingModule&#45;&gt;ChatsModule</title>
<path fill="none" stroke="black" d="M803,-160.91C803,-180.14 803,-207.8 803,-207.8 803,-207.8 896.08,-207.8 896.08,-207.8"/>
<polygon fill="black" stroke="black" points="896.08,-211.3 906.08,-207.8 896.08,-204.3 896.08,-211.3"/>
</g>
<!-- DashboardComponent -->
<g id="node16" class="node">
<title>DashboardComponent</title>
<polygon fill="#ffffb3" stroke="black" points="1828.97,-160.8 1687.03,-160.8 1687.03,-124.8 1828.97,-124.8 1828.97,-160.8"/>
<text text-anchor="middle" x="1758" y="-138.6" font-family="Times,serif" font-size="14.00">DashboardComponent</text>
</g>
<!-- DashboardComponent&#45;&gt;DashboardModule -->
<g id="edge15" class="edge">
<title>DashboardComponent&#45;&gt;DashboardModule</title>
<path fill="none" stroke="black" d="M1758,-160.91C1758,-180.14 1758,-207.8 1758,-207.8 1758,-207.8 1650.26,-207.8 1650.26,-207.8"/>
<polygon fill="black" stroke="black" points="1650.26,-204.3 1640.26,-207.8 1650.26,-211.3 1650.26,-204.3"/>
</g>
<!-- DashboardRoutingModule -->
<g id="node18" class="node">
<title>DashboardRoutingModule</title>
<polygon fill="#8dd3c7" stroke="black" points="1662.81,-160.8 1659.81,-164.8 1638.81,-164.8 1635.81,-160.8 1497.19,-160.8 1497.19,-124.8 1662.81,-124.8 1662.81,-160.8"/>
<text text-anchor="middle" x="1580" y="-138.6" font-family="Times,serif" font-size="14.00">DashboardRoutingModule</text>
</g>
<!-- DashboardRoutingModule&#45;&gt;DashboardModule -->
<g id="edge16" class="edge">
<title>DashboardRoutingModule&#45;&gt;DashboardModule</title>
<path fill="none" stroke="black" d="M1580,-160.91C1580,-160.91 1580,-179.79 1580,-179.79"/>
<polygon fill="black" stroke="black" points="1576.5,-179.79 1580,-189.79 1583.5,-179.79 1576.5,-179.79"/>
</g>
<!-- DebtsComponent -->
<g id="node19" class="node">
<title>DebtsComponent</title>
<polygon fill="#ffffb3" stroke="black" points="2144.99,-160.8 2031.01,-160.8 2031.01,-124.8 2144.99,-124.8 2144.99,-160.8"/>
<text text-anchor="middle" x="2088" y="-138.6" font-family="Times,serif" font-size="14.00">DebtsComponent</text>
</g>
<!-- DebtsComponent&#45;&gt;DebtsModule -->
<g id="edge18" class="edge">
<title>DebtsComponent&#45;&gt;DebtsModule</title>
<path fill="none" stroke="black" d="M2088,-160.91C2088,-180.14 2088,-207.8 2088,-207.8 2088,-207.8 1994.23,-207.8 1994.23,-207.8"/>
<polygon fill="black" stroke="black" points="1994.23,-204.3 1984.23,-207.8 1994.23,-211.3 1994.23,-204.3"/>
</g>
<!-- DebtsRoutingModule -->
<g id="node21" class="node">
<title>DebtsRoutingModule</title>
<polygon fill="#8dd3c7" stroke="black" points="2006.82,-160.8 2003.82,-164.8 1982.82,-164.8 1979.82,-160.8 1869.18,-160.8 1869.18,-124.8 2006.82,-124.8 2006.82,-160.8"/>
<text text-anchor="middle" x="1938" y="-138.6" font-family="Times,serif" font-size="14.00">DebtsRoutingModule</text>
</g>
<!-- DebtsRoutingModule&#45;&gt;DebtsModule -->
<g id="edge19" class="edge">
<title>DebtsRoutingModule&#45;&gt;DebtsModule</title>
<path fill="none" stroke="black" d="M1953.37,-160.91C1953.37,-160.91 1953.37,-179.79 1953.37,-179.79"/>
<polygon fill="black" stroke="black" points="1949.87,-179.79 1953.37,-189.79 1956.87,-179.79 1949.87,-179.79"/>
</g>
<!-- MeComponent -->
<g id="node22" class="node">
<title>MeComponent</title>
<polygon fill="#ffffb3" stroke="black" points="2432.99,-160.8 2333.01,-160.8 2333.01,-124.8 2432.99,-124.8 2432.99,-160.8"/>
<text text-anchor="middle" x="2383" y="-138.6" font-family="Times,serif" font-size="14.00">MeComponent</text>
</g>
<!-- MeComponent&#45;&gt;MeModule -->
<g id="edge21" class="edge">
<title>MeComponent&#45;&gt;MeModule</title>
<path fill="none" stroke="black" d="M2383,-160.91C2383,-180.14 2383,-207.8 2383,-207.8 2383,-207.8 2296.34,-207.8 2296.34,-207.8"/>
<polygon fill="black" stroke="black" points="2296.34,-204.3 2286.34,-207.8 2296.34,-211.3 2296.34,-204.3"/>
</g>
<!-- MeRoutingModule -->
<g id="node24" class="node">
<title>MeRoutingModule</title>
<polygon fill="#8dd3c7" stroke="black" points="2308.83,-160.8 2305.83,-164.8 2284.83,-164.8 2281.83,-160.8 2185.17,-160.8 2185.17,-124.8 2308.83,-124.8 2308.83,-160.8"/>
<text text-anchor="middle" x="2247" y="-138.6" font-family="Times,serif" font-size="14.00">MeRoutingModule</text>
</g>
<!-- MeRoutingModule&#45;&gt;MeModule -->
<g id="edge22" class="edge">
<title>MeRoutingModule&#45;&gt;MeModule</title>
<path fill="none" stroke="black" d="M2260.03,-160.91C2260.03,-160.91 2260.03,-179.79 2260.03,-179.79"/>
<polygon fill="black" stroke="black" points="2256.53,-179.79 2260.03,-189.79 2263.53,-179.79 2256.53,-179.79"/>
</g>
<!-- ProgressComponent -->
<g id="node25" class="node">
<title>ProgressComponent</title>
<polygon fill="#ffffb3" stroke="black" points="2778.54,-160.8 2649.46,-160.8 2649.46,-124.8 2778.54,-124.8 2778.54,-160.8"/>
<text text-anchor="middle" x="2714" y="-138.6" font-family="Times,serif" font-size="14.00">ProgressComponent</text>
</g>
<!-- ProgressComponent&#45;&gt;ProgressModule -->
<g id="edge24" class="edge">
<title>ProgressComponent&#45;&gt;ProgressModule</title>
<path fill="none" stroke="black" d="M2714,-160.91C2714,-180.14 2714,-207.8 2714,-207.8 2714,-207.8 2613.03,-207.8 2613.03,-207.8"/>
<polygon fill="black" stroke="black" points="2613.03,-204.3 2603.03,-207.8 2613.03,-211.3 2613.03,-204.3"/>
</g>
<!-- ProgressRoutingModule -->
<g id="node27" class="node">
<title>ProgressRoutingModule</title>
<polygon fill="#8dd3c7" stroke="black" points="2625.38,-160.8 2622.38,-164.8 2601.38,-164.8 2598.38,-160.8 2472.62,-160.8 2472.62,-124.8 2625.38,-124.8 2625.38,-160.8"/>
<text text-anchor="middle" x="2549" y="-138.6" font-family="Times,serif" font-size="14.00">ProgressRoutingModule</text>
</g>
<!-- ProgressRoutingModule&#45;&gt;ProgressModule -->
<g id="edge25" class="edge">
<title>ProgressRoutingModule&#45;&gt;ProgressModule</title>
<path fill="none" stroke="black" d="M2566.96,-160.91C2566.96,-160.91 2566.96,-179.79 2566.96,-179.79"/>
<polygon fill="black" stroke="black" points="2563.46,-179.79 2566.96,-189.79 2570.46,-179.79 2563.46,-179.79"/>
</g>
<!-- SettingsComponent -->
<g id="node28" class="node">
<title>SettingsComponent</title>
<polygon fill="#ffffb3" stroke="black" points="3119.45,-160.8 2992.55,-160.8 2992.55,-124.8 3119.45,-124.8 3119.45,-160.8"/>
<text text-anchor="middle" x="3056" y="-138.6" font-family="Times,serif" font-size="14.00">SettingsComponent</text>
</g>
<!-- SettingsComponent&#45;&gt;SettingsModule -->
<g id="edge27" class="edge">
<title>SettingsComponent&#45;&gt;SettingsModule</title>
<path fill="none" stroke="black" d="M3056,-160.91C3056,-180.14 3056,-207.8 3056,-207.8 3056,-207.8 2956.6,-207.8 2956.6,-207.8"/>
<polygon fill="black" stroke="black" points="2956.6,-204.3 2946.6,-207.8 2956.6,-211.3 2956.6,-204.3"/>
</g>
<!-- SettingsRoutingModule -->
<g id="node30" class="node">
<title>SettingsRoutingModule</title>
<polygon fill="#8dd3c7" stroke="black" points="2968.78,-160.8 2965.78,-164.8 2944.78,-164.8 2941.78,-160.8 2819.22,-160.8 2819.22,-124.8 2968.78,-124.8 2968.78,-160.8"/>
<text text-anchor="middle" x="2894" y="-138.6" font-family="Times,serif" font-size="14.00">SettingsRoutingModule</text>
</g>
<!-- SettingsRoutingModule&#45;&gt;SettingsModule -->
<g id="edge28" class="edge">
<title>SettingsRoutingModule&#45;&gt;SettingsModule</title>
<path fill="none" stroke="black" d="M2911.44,-160.91C2911.44,-160.91 2911.44,-179.79 2911.44,-179.79"/>
<polygon fill="black" stroke="black" points="2907.94,-179.79 2911.44,-189.79 2914.94,-179.79 2907.94,-179.79"/>
</g>
<!-- BgVideoComponent -->
<g id="node31" class="node">
<title>BgVideoComponent</title>
<polygon fill="#ffffb3" stroke="black" points="2096.88,-84.8 1965.12,-84.8 1965.12,-48.8 2096.88,-48.8 2096.88,-84.8"/>
<text text-anchor="middle" x="2031" y="-62.6" font-family="Times,serif" font-size="14.00">BgVideoComponent</text>
</g>
<!-- BgVideoComponent&#45;&gt;SharedModule -->
<g id="edge30" class="edge">
<title>BgVideoComponent&#45;&gt;SharedModule</title>
<path fill="none" stroke="black" d="M1985.86,-85.22C1985.86,-94.08 1985.86,-102.8 1985.86,-102.8 1985.86,-102.8 1450.06,-102.8 1450.06,-102.8 1450.06,-102.8 1450.06,-114.67 1450.06,-114.67"/>
<polygon fill="black" stroke="black" points="1446.56,-114.67 1450.06,-124.67 1453.56,-114.67 1446.56,-114.67"/>
</g>
<!-- HeaderComponent -->
<g id="node32" class="node">
<title>HeaderComponent</title>
<polygon fill="#ffffb3" stroke="black" points="1946.74,-84.8 1825.26,-84.8 1825.26,-48.8 1946.74,-48.8 1946.74,-84.8"/>
<text text-anchor="middle" x="1886" y="-62.6" font-family="Times,serif" font-size="14.00">HeaderComponent</text>
</g>
<!-- HeaderComponent&#45;&gt;SharedModule -->
<g id="edge31" class="edge">
<title>HeaderComponent&#45;&gt;SharedModule</title>
<path fill="none" stroke="black" d="M1849.16,-85.04C1849.16,-92.23 1849.16,-98.8 1849.16,-98.8 1849.16,-98.8 1442.91,-98.8 1442.91,-98.8 1442.91,-98.8 1442.91,-114.65 1442.91,-114.65"/>
<polygon fill="black" stroke="black" points="1439.41,-114.65 1442.91,-124.65 1446.41,-114.65 1439.41,-114.65"/>
</g>
<!-- LogoComponent -->
<g id="node33" class="node">
<title>LogoComponent</title>
<polygon fill="#ffffb3" stroke="black" points="1807.39,-84.8 1696.61,-84.8 1696.61,-48.8 1807.39,-48.8 1807.39,-84.8"/>
<text text-anchor="middle" x="1752" y="-62.6" font-family="Times,serif" font-size="14.00">LogoComponent</text>
</g>
<!-- LogoComponent&#45;&gt;SharedModule -->
<g id="edge32" class="edge">
<title>LogoComponent&#45;&gt;SharedModule</title>
<path fill="none" stroke="black" d="M1752,-84.96C1752,-89.84 1752,-93.8 1752,-93.8 1752,-93.8 1435.76,-93.8 1435.76,-93.8 1435.76,-93.8 1435.76,-114.55 1435.76,-114.55"/>
<polygon fill="black" stroke="black" points="1432.26,-114.55 1435.76,-124.55 1439.26,-114.55 1432.26,-114.55"/>
</g>
<!-- NavComponent -->
<g id="node34" class="node">
<title>NavComponent</title>
<polygon fill="#ffffb3" stroke="black" points="1678.15,-84.8 1573.85,-84.8 1573.85,-48.8 1678.15,-48.8 1678.15,-84.8"/>
<text text-anchor="middle" x="1626" y="-62.6" font-family="Times,serif" font-size="14.00">NavComponent</text>
</g>
<!-- NavComponent&#45;&gt;SharedModule -->
<g id="edge33" class="edge">
<title>NavComponent&#45;&gt;SharedModule</title>
<path fill="none" stroke="black" d="M1618.16,-84.92C1618.16,-87.77 1618.16,-89.8 1618.16,-89.8 1618.16,-89.8 1428.61,-89.8 1428.61,-89.8 1428.61,-89.8 1428.61,-114.56 1428.61,-114.56"/>
<polygon fill="black" stroke="black" points="1425.11,-114.56 1428.61,-124.56 1432.11,-114.56 1425.11,-114.56"/>
</g>
<!-- AuthService -->
<g id="node39" class="node">
<title>AuthService</title>
<ellipse fill="#fdb462" stroke="black" cx="930" cy="-66.8" rx="59.11" ry="18"/>
<text text-anchor="middle" x="930" y="-62.6" font-family="Times,serif" font-size="14.00">AuthService</text>
</g>
<!-- AuthService&#45;&gt;SharedModule -->
<g id="edge38" class="edge">
<title>AuthService&#45;&gt;SharedModule</title>
<path fill="none" stroke="black" d="M942.35,-84.57C942.35,-98.94 942.35,-116.8 942.35,-116.8 942.35,-116.8 1371.4,-116.8 1371.4,-116.8 1371.4,-116.8 1371.4,-117.59 1371.4,-117.59"/>
<polygon fill="black" stroke="black" points="1367.9,-114.74 1371.4,-124.74 1374.9,-114.74 1367.9,-114.74"/>
</g>
<!-- ToastService -->
<g id="node40" class="node">
<title>ToastService</title>
<ellipse fill="#fdb462" stroke="black" cx="791" cy="-66.8" rx="61.39" ry="18"/>
<text text-anchor="middle" x="791" y="-62.6" font-family="Times,serif" font-size="14.00">ToastService</text>
</g>
<!-- ToastService&#45;&gt;SharedModule -->
<g id="edge39" class="edge">
<title>ToastService&#45;&gt;SharedModule</title>
<path fill="none" stroke="black" d="M793.58,-85.08C793.58,-100.75 793.58,-120.8 793.58,-120.8 793.58,-120.8 1365.09,-120.8 1365.09,-120.8 1365.09,-120.8 1365.09,-121.18 1365.09,-121.18"/>
<polygon fill="black" stroke="black" points="1361.59,-114.63 1365.09,-124.63 1368.59,-114.63 1361.59,-114.63"/>
</g>
<!-- UsersComponent -->
<g id="node41" class="node">
<title>UsersComponent</title>
<polygon fill="#ffffb3" stroke="black" points="3432.7,-160.8 3319.3,-160.8 3319.3,-124.8 3432.7,-124.8 3432.7,-160.8"/>
<text text-anchor="middle" x="3376" y="-138.6" font-family="Times,serif" font-size="14.00">UsersComponent</text>
</g>
<!-- UsersComponent&#45;&gt;UsersModule -->
<g id="edge40" class="edge">
<title>UsersComponent&#45;&gt;UsersModule</title>
<path fill="none" stroke="black" d="M3376,-160.91C3376,-180.14 3376,-207.8 3376,-207.8 3376,-207.8 3282.92,-207.8 3282.92,-207.8"/>
<polygon fill="black" stroke="black" points="3282.92,-204.3 3272.92,-207.8 3282.92,-211.3 3282.92,-204.3"/>
</g>
<!-- UsersRoutingModule -->
<g id="node43" class="node">
<title>UsersRoutingModule</title>
<polygon fill="#8dd3c7" stroke="black" points="3295.04,-160.8 3292.04,-164.8 3271.04,-164.8 3268.04,-160.8 3158.96,-160.8 3158.96,-124.8 3295.04,-124.8 3295.04,-160.8"/>
<text text-anchor="middle" x="3227" y="-138.6" font-family="Times,serif" font-size="14.00">UsersRoutingModule</text>
</g>
<!-- UsersRoutingModule&#45;&gt;UsersModule -->
<g id="edge42" class="edge">
<title>UsersRoutingModule&#45;&gt;UsersModule</title>
<path fill="none" stroke="black" d="M3242.24,-160.91C3242.24,-160.91 3242.24,-179.79 3242.24,-179.79"/>
<polygon fill="black" stroke="black" points="3238.74,-179.79 3242.24,-189.79 3245.74,-179.79 3238.74,-179.79"/>
</g>
</g>
</svg>
