<?xml version="1.0" encoding="UTF-8" standalone="no"?>
<!DOCTYPE svg PUBLIC "-//W3C//DTD SVG 1.1//EN"
 "http://www.w3.org/Graphics/SVG/1.1/DTD/svg11.dtd">
<!-- Generated by graphviz version 2.47.3 (20210619.1520)
 -->
<!-- Title: dependencies Pages: 1 -->
<svg width="2091pt" height="399pt"
 viewBox="0.00 0.00 2091.00 398.80" xmlns="http://www.w3.org/2000/svg" xmlns:xlink="http://www.w3.org/1999/xlink">
<g id="graph0" class="graph" transform="scale(1 1) rotate(0) translate(4 394.8)">
<title>dependencies</title>
<polygon fill="white" stroke="transparent" points="-4,4 -4,-394.8 2087,-394.8 2087,4 -4,4"/>
<text text-anchor="middle" x="1041.5" y="-8.2" font-family="sans-serif" font-size="14.00">dependencies</text>
<g id="clust1" class="cluster">
<title>cluster_AlarmsModule</title>
<polygon fill="none" stroke="black" stroke-dasharray="1,5" points="582,-108.8 582,-244.8 858,-244.8 858,-108.8 582,-108.8"/>
</g>
<g id="clust2" class="cluster">
<title>cluster_AlarmsModule_declarations</title>
<polygon fill="none" stroke="black" points="590,-116.8 590,-168.8 728,-168.8 728,-116.8 590,-116.8"/>
</g>
<g id="clust4" class="cluster">
<title>cluster_AlarmsModule_imports</title>
<polygon fill="none" stroke="black" points="736,-116.8 736,-168.8 850,-168.8 850,-116.8 736,-116.8"/>
</g>
<g id="clust8" class="cluster">
<title>cluster_AppModule</title>
<polygon fill="none" stroke="black" stroke-dasharray="1,5" points="866,-184.8 866,-382.8 2075,-382.8 2075,-184.8 866,-184.8"/>
</g>
<g id="clust9" class="cluster">
<title>cluster_AppModule_declarations</title>
<polygon fill="none" stroke="black" points="1945,-192.8 1945,-244.8 2067,-244.8 2067,-192.8 1945,-192.8"/>
</g>
<g id="clust11" class="cluster">
<title>cluster_AppModule_imports</title>
<polygon fill="none" stroke="black" points="874,-192.8 874,-244.8 1937,-244.8 1937,-192.8 874,-192.8"/>
</g>
<g id="clust13" class="cluster">
<title>cluster_AppModule_bootstrap</title>
<polygon fill="none" stroke="black" points="1324,-322.8 1324,-374.8 1448,-374.8 1448,-322.8 1324,-322.8"/>
</g>
<g id="clust21" class="cluster">
<title>cluster_AuthModule</title>
<polygon fill="none" stroke="black" stroke-dasharray="1,5" points="1750,-108.8 1750,-176.8 1900,-176.8 1900,-108.8 1750,-108.8"/>
</g>
<g id="clust22" class="cluster">
<title>cluster_AuthModule_declarations</title>
<polygon fill="none" stroke="black" points="1758,-116.8 1758,-168.8 1892,-168.8 1892,-116.8 1758,-116.8"/>
</g>
<g id="clust28" class="cluster">
<title>cluster_ChatsModule</title>
<polygon fill="none" stroke="black" stroke-dasharray="1,5" points="1908,-108.8 1908,-176.8 2054,-176.8 2054,-108.8 1908,-108.8"/>
</g>
<g id="clust29" class="cluster">
<title>cluster_ChatsModule_declarations</title>
<polygon fill="none" stroke="black" points="1916,-116.8 1916,-168.8 2046,-168.8 2046,-116.8 1916,-116.8"/>
</g>
<g id="clust35" class="cluster">
<title>cluster_DashboardModule</title>
<polygon fill="none" stroke="black" stroke-dasharray="1,5" points="924,-108.8 924,-176.8 1098,-176.8 1098,-108.8 924,-108.8"/>
</g>
<g id="clust36" class="cluster">
<title>cluster_DashboardModule_declarations</title>
<polygon fill="none" stroke="black" points="932,-116.8 932,-168.8 1090,-168.8 1090,-116.8 932,-116.8"/>
</g>
<g id="clust42" class="cluster">
<title>cluster_DebtsModule</title>
<polygon fill="none" stroke="black" stroke-dasharray="1,5" points="1106,-108.8 1106,-176.8 1252,-176.8 1252,-108.8 1106,-108.8"/>
</g>
<g id="clust43" class="cluster">
<title>cluster_DebtsModule_declarations</title>
<polygon fill="none" stroke="black" points="1114,-116.8 1114,-168.8 1244,-168.8 1244,-116.8 1114,-116.8"/>
</g>
<g id="clust55" class="cluster">
<title>cluster_MeModule</title>
<polygon fill="none" stroke="black" stroke-dasharray="1,5" points="442,-108.8 442,-244.8 574,-244.8 574,-108.8 442,-108.8"/>
</g>
<g id="clust56" class="cluster">
<title>cluster_MeModule_declarations</title>
<polygon fill="none" stroke="black" points="450,-116.8 450,-168.8 566,-168.8 566,-116.8 450,-116.8"/>
</g>
<g id="clust62" class="cluster">
<title>cluster_ProgressModule</title>
<polygon fill="none" stroke="black" stroke-dasharray="1,5" points="1260,-108.8 1260,-176.8 1422,-176.8 1422,-108.8 1260,-108.8"/>
</g>
<g id="clust63" class="cluster">
<title>cluster_ProgressModule_declarations</title>
<polygon fill="none" stroke="black" points="1268,-116.8 1268,-168.8 1414,-168.8 1414,-116.8 1268,-116.8"/>
</g>
<g id="clust69" class="cluster">
<title>cluster_SettingsModule</title>
<polygon fill="none" stroke="black" stroke-dasharray="1,5" points="1430,-108.8 1430,-176.8 1588,-176.8 1588,-108.8 1430,-108.8"/>
</g>
<g id="clust70" class="cluster">
<title>cluster_SettingsModule_declarations</title>
<polygon fill="none" stroke="black" points="1438,-116.8 1438,-168.8 1580,-168.8 1580,-116.8 1438,-116.8"/>
</g>
<g id="clust76" class="cluster">
<title>cluster_SharedModule</title>
<polygon fill="none" stroke="black" stroke-dasharray="1,5" points="8,-32.8 8,-100.8 1542,-100.8 1542,-32.8 8,-32.8"/>
</g>
<g id="clust77" class="cluster">
<title>cluster_SharedModule_declarations</title>
<polygon fill="none" stroke="black" points="995,-40.8 995,-92.8 1534,-92.8 1534,-40.8 995,-40.8"/>
</g>
<g id="clust83" class="cluster">
<title>cluster_SharedModule_exports</title>
<polygon fill="none" stroke="black" points="434,-40.8 434,-92.8 987,-92.8 987,-40.8 434,-40.8"/>
</g>
<g id="clust85" class="cluster">
<title>cluster_SharedModule_providers</title>
<polygon fill="none" stroke="black" points="16,-40.8 16,-92.8 426,-92.8 426,-40.8 16,-40.8"/>
</g>
<g id="clust86" class="cluster">
<title>cluster_UsersModule</title>
<polygon fill="none" stroke="black" stroke-dasharray="1,5" points="1596,-108.8 1596,-176.8 1742,-176.8 1742,-108.8 1596,-108.8"/>
</g>
<g id="clust87" class="cluster">
<title>cluster_UsersModule_declarations</title>
<polygon fill="none" stroke="black" points="1604,-116.8 1604,-168.8 1734,-168.8 1734,-116.8 1604,-116.8"/>
</g>
<!-- AlarmsComponent -->
<g id="node1" class="node">
<title>AlarmsComponent</title>
<polygon fill="#ffffb3" stroke="black" points="720.04,-160.8 597.96,-160.8 597.96,-124.8 720.04,-124.8 720.04,-160.8"/>
<text text-anchor="middle" x="659" y="-138.6" font-family="Times,serif" font-size="14.00">AlarmsComponent</text>
</g>
<!-- AlarmsModule -->
<g id="node2" class="node">
<title>AlarmsModule</title>
<polygon fill="#8dd3c7" stroke="black" points="850.26,-236.8 847.26,-240.8 826.26,-240.8 823.26,-236.8 749.74,-236.8 749.74,-200.8 850.26,-200.8 850.26,-236.8"/>
<text text-anchor="middle" x="800" y="-214.6" font-family="Times,serif" font-size="14.00">AlarmsModule</text>
</g>
<!-- AlarmsComponent&#45;&gt;AlarmsModule -->
<g id="edge1" class="edge">
<title>AlarmsComponent&#45;&gt;AlarmsModule</title>
<path fill="none" stroke="black" d="M659,-161C659,-185.16 659,-224.8 659,-224.8 659,-224.8 739.49,-224.8 739.49,-224.8"/>
<polygon fill="black" stroke="black" points="739.49,-228.3 749.49,-224.8 739.49,-221.3 739.49,-228.3"/>
</g>
<!-- AppModule -->
<g id="node5" class="node">
<title>AppModule</title>
<polygon fill="#8dd3c7" stroke="black" points="1427.66,-301.8 1424.66,-305.8 1403.66,-305.8 1400.66,-301.8 1344.34,-301.8 1344.34,-265.8 1427.66,-265.8 1427.66,-301.8"/>
<text text-anchor="middle" x="1386" y="-279.6" font-family="Times,serif" font-size="14.00">AppModule</text>
</g>
<!-- AlarmsModule&#45;&gt;AppModule -->
<g id="edge4" class="edge">
<title>AlarmsModule&#45;&gt;AppModule</title>
<path fill="none" stroke="black" d="M800,-237.05C800,-259.82 800,-295.8 800,-295.8 800,-295.8 1334.33,-295.8 1334.33,-295.8"/>
<polygon fill="black" stroke="black" points="1334.33,-299.3 1344.33,-295.8 1334.33,-292.3 1334.33,-299.3"/>
</g>
<!-- SharedModule -->
<g id="node3" class="node">
<title>SharedModule</title>
<polygon fill="#8dd3c7" stroke="black" points="842.42,-160.8 839.42,-164.8 818.42,-164.8 815.42,-160.8 743.58,-160.8 743.58,-124.8 842.42,-124.8 842.42,-160.8"/>
<text text-anchor="middle" x="793" y="-138.6" font-family="Times,serif" font-size="14.00">SharedModule</text>
</g>
<!-- SharedModule&#45;&gt;AlarmsModule -->
<g id="edge2" class="edge">
<title>SharedModule&#45;&gt;AlarmsModule</title>
<path fill="none" stroke="black" d="M759.91,-160.81C759.91,-160.81 759.91,-190.65 759.91,-190.65"/>
<polygon fill="black" stroke="black" points="756.41,-190.65 759.91,-200.65 763.41,-190.65 756.41,-190.65"/>
</g>
<!-- SharedModule&#45;&gt;AppModule -->
<g id="edge13" class="edge">
<title>SharedModule&#45;&gt;AppModule</title>
<path fill="none" stroke="black" d="M842.29,-148.8C851.13,-148.8 857.59,-148.8 857.59,-148.8 857.59,-148.8 857.59,-289.8 857.59,-289.8 857.59,-289.8 1334.1,-289.8 1334.1,-289.8"/>
<polygon fill="black" stroke="black" points="1334.1,-293.3 1344.1,-289.8 1334.1,-286.3 1334.1,-293.3"/>
</g>
<!-- AuthModule -->
<g id="node7" class="node">
<title>AuthModule</title>
<polygon fill="#8dd3c7" stroke="black" points="1819.55,-236.8 1816.55,-240.8 1795.55,-240.8 1792.55,-236.8 1732.45,-236.8 1732.45,-200.8 1819.55,-200.8 1819.55,-236.8"/>
<text text-anchor="middle" x="1776" y="-214.6" font-family="Times,serif" font-size="14.00">AuthModule</text>
</g>
<!-- SharedModule&#45;&gt;AuthModule -->
<g id="edge17" class="edge">
<title>SharedModule&#45;&gt;AuthModule</title>
<path fill="none" stroke="black" d="M821.64,-161.01C821.64,-166.35 821.64,-170.8 821.64,-170.8 821.64,-170.8 1748.95,-170.8 1748.95,-170.8 1748.95,-170.8 1748.95,-190.65 1748.95,-190.65"/>
<polygon fill="black" stroke="black" points="1745.45,-190.65 1748.95,-200.65 1752.45,-190.65 1745.45,-190.65"/>
</g>
<!-- ChatsModule -->
<g id="node8" class="node">
<title>ChatsModule</title>
<polygon fill="#8dd3c7" stroke="black" points="1928.94,-236.8 1925.94,-240.8 1904.94,-240.8 1901.94,-236.8 1837.06,-236.8 1837.06,-200.8 1928.94,-200.8 1928.94,-236.8"/>
<text text-anchor="middle" x="1883" y="-214.6" font-family="Times,serif" font-size="14.00">ChatsModule</text>
</g>
<!-- SharedModule&#45;&gt;ChatsModule -->
<g id="edge19" class="edge">
<title>SharedModule&#45;&gt;ChatsModule</title>
<path fill="none" stroke="black" d="M831.92,-160.92C831.92,-163.77 831.92,-165.8 831.92,-165.8 831.92,-165.8 1860.81,-165.8 1860.81,-165.8 1860.81,-165.8 1860.81,-190.56 1860.81,-190.56"/>
<polygon fill="black" stroke="black" points="1857.31,-190.56 1860.81,-200.56 1864.31,-190.56 1857.31,-190.56"/>
</g>
<!-- DashboardModule -->
<g id="node9" class="node">
<title>DashboardModule</title>
<polygon fill="#8dd3c7" stroke="black" points="1148.19,-236.8 1145.19,-240.8 1124.19,-240.8 1121.19,-236.8 1027.81,-236.8 1027.81,-200.8 1148.19,-200.8 1148.19,-236.8"/>
<text text-anchor="middle" x="1088" y="-214.6" font-family="Times,serif" font-size="14.00">DashboardModule</text>
</g>
<!-- SharedModule&#45;&gt;DashboardModule -->
<g id="edge21" class="edge">
<title>SharedModule&#45;&gt;DashboardModule</title>
<path fill="none" stroke="black" d="M770.2,-161.04C770.2,-176.37 770.2,-195.8 770.2,-195.8 770.2,-195.8 1045.93,-195.8 1045.93,-195.8 1045.93,-195.8 1045.93,-196.29 1045.93,-196.29"/>
<polygon fill="black" stroke="black" points="1042.43,-190.68 1045.93,-200.68 1049.43,-190.68 1042.43,-190.68"/>
</g>
<!-- DebtsModule -->
<g id="node10" class="node">
<title>DebtsModule</title>
<polygon fill="#8dd3c7" stroke="black" points="1258.21,-236.8 1255.21,-240.8 1234.21,-240.8 1231.21,-236.8 1165.79,-236.8 1165.79,-200.8 1258.21,-200.8 1258.21,-236.8"/>
<text text-anchor="middle" x="1212" y="-214.6" font-family="Times,serif" font-size="14.00">DebtsModule</text>
</g>
<!-- SharedModule&#45;&gt;DebtsModule -->
<g id="edge23" class="edge">
<title>SharedModule&#45;&gt;DebtsModule</title>
<path fill="none" stroke="black" d="M780.48,-160.95C780.48,-174.54 780.48,-190.8 780.48,-190.8 780.48,-190.8 1189.26,-190.8 1189.26,-190.8 1189.26,-190.8 1189.26,-191.78 1189.26,-191.78"/>
<polygon fill="black" stroke="black" points="1185.76,-190.59 1189.26,-200.59 1192.76,-190.59 1185.76,-190.59"/>
</g>
<!-- ProgressModule -->
<g id="node12" class="node">
<title>ProgressModule</title>
<polygon fill="#8dd3c7" stroke="black" points="1383.76,-236.8 1380.76,-240.8 1359.76,-240.8 1356.76,-236.8 1276.24,-236.8 1276.24,-200.8 1383.76,-200.8 1383.76,-236.8"/>
<text text-anchor="middle" x="1330" y="-214.6" font-family="Times,serif" font-size="14.00">ProgressModule</text>
</g>
<!-- SharedModule&#45;&gt;ProgressModule -->
<g id="edge27" class="edge">
<title>SharedModule&#45;&gt;ProgressModule</title>
<path fill="none" stroke="black" d="M790.77,-161.29C790.77,-172.94 790.77,-185.8 790.77,-185.8 790.77,-185.8 1312.11,-185.8 1312.11,-185.8 1312.11,-185.8 1312.11,-190.76 1312.11,-190.76"/>
<polygon fill="black" stroke="black" points="1308.61,-190.76 1312.11,-200.76 1315.61,-190.76 1308.61,-190.76"/>
</g>
<!-- SettingsModule -->
<g id="node13" class="node">
<title>SettingsModule</title>
<polygon fill="#8dd3c7" stroke="black" points="1605.16,-236.8 1602.16,-240.8 1581.16,-240.8 1578.16,-236.8 1500.84,-236.8 1500.84,-200.8 1605.16,-200.8 1605.16,-236.8"/>
<text text-anchor="middle" x="1553" y="-214.6" font-family="Times,serif" font-size="14.00">SettingsModule</text>
</g>
<!-- SharedModule&#45;&gt;SettingsModule -->
<g id="edge29" class="edge">
<title>SharedModule&#45;&gt;SettingsModule</title>
<path fill="none" stroke="black" d="M801.06,-160.91C801.06,-170.7 801.06,-180.8 801.06,-180.8 801.06,-180.8 1524.52,-180.8 1524.52,-180.8 1524.52,-180.8 1524.52,-190.69 1524.52,-190.69"/>
<polygon fill="black" stroke="black" points="1521.02,-190.69 1524.52,-200.69 1528.02,-190.69 1521.02,-190.69"/>
</g>
<!-- UsersModule -->
<g id="node14" class="node">
<title>UsersModule</title>
<polygon fill="#8dd3c7" stroke="black" points="1714.92,-236.8 1711.92,-240.8 1690.92,-240.8 1687.92,-236.8 1623.08,-236.8 1623.08,-200.8 1714.92,-200.8 1714.92,-236.8"/>
<text text-anchor="middle" x="1669" y="-214.6" font-family="Times,serif" font-size="14.00">UsersModule</text>
</g>
<!-- SharedModule&#45;&gt;UsersModule -->
<g id="edge42" class="edge">
<title>SharedModule&#45;&gt;UsersModule</title>
<path fill="none" stroke="black" d="M811.35,-160.84C811.35,-168.55 811.35,-175.8 811.35,-175.8 811.35,-175.8 1653.76,-175.8 1653.76,-175.8 1653.76,-175.8 1653.76,-190.31 1653.76,-190.31"/>
<polygon fill="black" stroke="black" points="1650.26,-190.31 1653.76,-200.31 1657.26,-190.31 1650.26,-190.31"/>
</g>
<!-- MeModule -->
<g id="node21" class="node">
<title>MeModule</title>
<polygon fill="#8dd3c7" stroke="black" points="556.21,-236.8 553.21,-240.8 532.21,-240.8 529.21,-236.8 477.79,-236.8 477.79,-200.8 556.21,-200.8 556.21,-236.8"/>
<text text-anchor="middle" x="517" y="-214.6" font-family="Times,serif" font-size="14.00">MeModule</text>
</g>
<!-- SharedModule&#45;&gt;MeModule -->
<g id="edge25" class="edge">
<title>SharedModule&#45;&gt;MeModule</title>
<path fill="none" stroke="black" d="M743.48,-148.8C733.9,-148.8 726.77,-148.8 726.77,-148.8 726.77,-148.8 726.77,-212.8 726.77,-212.8 726.77,-212.8 566.46,-212.8 566.46,-212.8"/>
<polygon fill="black" stroke="black" points="566.46,-209.3 556.46,-212.8 566.46,-216.3 566.46,-209.3"/>
</g>
<!-- BgVideoComponent  -->
<g id="node28" class="node">
<title>BgVideoComponent </title>
<polygon fill="#fb8072" stroke="black" points="720.88,-84.8 585.12,-84.8 585.12,-48.8 720.88,-48.8 720.88,-84.8"/>
<text text-anchor="middle" x="653" y="-62.6" font-family="Times,serif" font-size="14.00">BgVideoComponent </text>
</g>
<!-- SharedModule&#45;&gt;BgVideoComponent  -->
<g id="edge34" class="edge">
<title>SharedModule&#45;&gt;BgVideoComponent </title>
<path fill="none" stroke="black" stroke-dasharray="5,2" d="M743.6,-136.8C737.22,-136.8 732.85,-136.8 732.85,-136.8 732.85,-136.8 732.85,-66.8 732.85,-66.8 732.85,-66.8 730.72,-66.8 730.72,-66.8"/>
<polygon fill="black" stroke="black" points="730.72,-63.3 720.72,-66.8 730.72,-70.3 730.72,-63.3"/>
</g>
<!-- HeaderComponent  -->
<g id="node29" class="node">
<title>HeaderComponent </title>
<polygon fill="#fb8072" stroke="black" points="567.74,-84.8 442.26,-84.8 442.26,-48.8 567.74,-48.8 567.74,-84.8"/>
<text text-anchor="middle" x="505" y="-62.6" font-family="Times,serif" font-size="14.00">HeaderComponent </text>
</g>
<!-- SharedModule&#45;&gt;HeaderComponent  -->
<g id="edge35" class="edge">
<title>SharedModule&#45;&gt;HeaderComponent </title>
<path fill="none" stroke="black" stroke-dasharray="5,2" d="M783.16,-124.56C783.16,-109.23 783.16,-89.8 783.16,-89.8 783.16,-89.8 562.81,-89.8 562.81,-89.8 562.81,-89.8 562.81,-89.31 562.81,-89.31"/>
<polygon fill="black" stroke="black" points="566.31,-94.92 562.81,-84.92 559.31,-94.92 566.31,-94.92"/>
</g>
<!-- LogoComponent  -->
<g id="node30" class="node">
<title>LogoComponent </title>
<polygon fill="#fb8072" stroke="black" points="979.39,-84.8 864.61,-84.8 864.61,-48.8 979.39,-48.8 979.39,-84.8"/>
<text text-anchor="middle" x="922" y="-62.6" font-family="Times,serif" font-size="14.00">LogoComponent </text>
</g>
<!-- SharedModule&#45;&gt;LogoComponent  -->
<g id="edge36" class="edge">
<title>SharedModule&#45;&gt;LogoComponent </title>
<path fill="none" stroke="black" stroke-dasharray="5,2" d="M842.43,-136.8C858.93,-136.8 873.21,-136.8 873.21,-136.8 873.21,-136.8 873.21,-94.83 873.21,-94.83"/>
<polygon fill="black" stroke="black" points="876.71,-94.83 873.21,-84.83 869.71,-94.83 876.71,-94.83"/>
</g>
<!-- NavComponent  -->
<g id="node31" class="node">
<title>NavComponent </title>
<polygon fill="#fb8072" stroke="black" points="847.15,-84.8 738.85,-84.8 738.85,-48.8 847.15,-48.8 847.15,-84.8"/>
<text text-anchor="middle" x="793" y="-62.6" font-family="Times,serif" font-size="14.00">NavComponent </text>
</g>
<!-- SharedModule&#45;&gt;NavComponent  -->
<g id="edge37" class="edge">
<title>SharedModule&#45;&gt;NavComponent </title>
<path fill="none" stroke="black" stroke-dasharray="5,2" d="M793,-124.79C793,-124.79 793,-94.95 793,-94.95"/>
<polygon fill="black" stroke="black" points="796.5,-94.95 793,-84.95 789.5,-94.95 796.5,-94.95"/>
</g>
<!-- AppComponent -->
<g id="node4" class="node">
<title>AppComponent</title>
<polygon fill="#ffffb3" stroke="black" points="2058.94,-236.8 1953.06,-236.8 1953.06,-200.8 2058.94,-200.8 2058.94,-236.8"/>
<text text-anchor="middle" x="2006" y="-214.6" font-family="Times,serif" font-size="14.00">AppComponent</text>
</g>
<!-- AppComponent&#45;&gt;AppModule -->
<g id="edge3" class="edge">
<title>AppComponent&#45;&gt;AppModule</title>
<path fill="none" stroke="black" d="M2006,-237.05C2006,-259.82 2006,-295.8 2006,-295.8 2006,-295.8 1438.13,-295.8 1438.13,-295.8"/>
<polygon fill="black" stroke="black" points="1438.13,-292.3 1428.13,-295.8 1438.13,-299.3 1438.13,-292.3"/>
</g>
<!-- AppComponent  -->
<g id="node15" class="node">
<title>AppComponent </title>
<polygon fill="#80b1d3" stroke="black" points="1440.44,-366.8 1331.56,-366.8 1331.56,-330.8 1440.44,-330.8 1440.44,-366.8"/>
<text text-anchor="middle" x="1386" y="-344.6" font-family="Times,serif" font-size="14.00">AppComponent </text>
</g>
<!-- AppModule&#45;&gt;AppComponent  -->
<g id="edge15" class="edge">
<title>AppModule&#45;&gt;AppComponent </title>
<path fill="none" stroke="black" stroke-dasharray="1,5" d="M1386,-301.91C1386,-301.91 1386,-320.79 1386,-320.79"/>
<polygon fill="black" stroke="black" points="1382.5,-320.79 1386,-330.79 1389.5,-320.79 1382.5,-320.79"/>
</g>
<!-- AppRoutingModule -->
<g id="node6" class="node">
<title>AppRoutingModule</title>
<polygon fill="#8dd3c7" stroke="black" points="1010.27,-236.8 1007.27,-240.8 986.27,-240.8 983.27,-236.8 881.73,-236.8 881.73,-200.8 1010.27,-200.8 1010.27,-236.8"/>
<text text-anchor="middle" x="946" y="-214.6" font-family="Times,serif" font-size="14.00">AppRoutingModule</text>
</g>
<!-- AppRoutingModule&#45;&gt;AppModule -->
<g id="edge5" class="edge">
<title>AppRoutingModule&#45;&gt;AppModule</title>
<path fill="none" stroke="black" d="M946,-236.91C946,-256.14 946,-283.8 946,-283.8 946,-283.8 1334.21,-283.8 1334.21,-283.8"/>
<polygon fill="black" stroke="black" points="1334.21,-287.3 1344.21,-283.8 1334.21,-280.3 1334.21,-287.3"/>
</g>
<!-- AuthModule&#45;&gt;AppModule -->
<g id="edge6" class="edge">
<title>AuthModule&#45;&gt;AppModule</title>
<path fill="none" stroke="black" d="M1776,-236.91C1776,-256.14 1776,-283.8 1776,-283.8 1776,-283.8 1437.74,-283.8 1437.74,-283.8"/>
<polygon fill="black" stroke="black" points="1437.74,-280.3 1427.74,-283.8 1437.74,-287.3 1437.74,-280.3"/>
</g>
<!-- ChatsModule&#45;&gt;AppModule -->
<g id="edge7" class="edge">
<title>ChatsModule&#45;&gt;AppModule</title>
<path fill="none" stroke="black" d="M1883,-237.08C1883,-258.12 1883,-289.8 1883,-289.8 1883,-289.8 1437.95,-289.8 1437.95,-289.8"/>
<polygon fill="black" stroke="black" points="1437.95,-286.3 1427.95,-289.8 1437.95,-293.3 1437.95,-286.3"/>
</g>
<!-- DashboardModule&#45;&gt;AppModule -->
<g id="edge8" class="edge">
<title>DashboardModule&#45;&gt;AppModule</title>
<path fill="none" stroke="black" d="M1088,-236.82C1088,-254.17 1088,-277.8 1088,-277.8 1088,-277.8 1334.25,-277.8 1334.25,-277.8"/>
<polygon fill="black" stroke="black" points="1334.25,-281.3 1344.25,-277.8 1334.25,-274.3 1334.25,-281.3"/>
</g>
<!-- DebtsModule&#45;&gt;AppModule -->
<g id="edge9" class="edge">
<title>DebtsModule&#45;&gt;AppModule</title>
<path fill="none" stroke="black" d="M1212,-237.04C1212,-252.37 1212,-271.8 1212,-271.8 1212,-271.8 1334.32,-271.8 1334.32,-271.8"/>
<polygon fill="black" stroke="black" points="1334.32,-275.3 1344.32,-271.8 1334.32,-268.3 1334.32,-275.3"/>
</g>
<!-- GqlModule -->
<g id="node11" class="node">
<title>GqlModule</title>
<polygon fill="#8dd3c7" stroke="black" points="1482.05,-236.8 1479.05,-240.8 1458.05,-240.8 1455.05,-236.8 1401.95,-236.8 1401.95,-200.8 1482.05,-200.8 1482.05,-236.8"/>
<text text-anchor="middle" x="1442" y="-214.6" font-family="Times,serif" font-size="14.00">GqlModule</text>
</g>
<!-- GqlModule&#45;&gt;AppModule -->
<g id="edge10" class="edge">
<title>GqlModule&#45;&gt;AppModule</title>
<path fill="none" stroke="black" d="M1414.78,-236.91C1414.78,-236.91 1414.78,-255.79 1414.78,-255.79"/>
<polygon fill="black" stroke="black" points="1411.28,-255.79 1414.78,-265.79 1418.28,-255.79 1411.28,-255.79"/>
</g>
<!-- ProgressModule&#45;&gt;AppModule -->
<g id="edge11" class="edge">
<title>ProgressModule&#45;&gt;AppModule</title>
<path fill="none" stroke="black" d="M1364.03,-236.91C1364.03,-236.91 1364.03,-255.79 1364.03,-255.79"/>
<polygon fill="black" stroke="black" points="1360.53,-255.79 1364.03,-265.79 1367.53,-255.79 1360.53,-255.79"/>
</g>
<!-- SettingsModule&#45;&gt;AppModule -->
<g id="edge12" class="edge">
<title>SettingsModule&#45;&gt;AppModule</title>
<path fill="none" stroke="black" d="M1553,-237.04C1553,-252.37 1553,-271.8 1553,-271.8 1553,-271.8 1437.71,-271.8 1437.71,-271.8"/>
<polygon fill="black" stroke="black" points="1437.71,-268.3 1427.71,-271.8 1437.71,-275.3 1437.71,-268.3"/>
</g>
<!-- UsersModule&#45;&gt;AppModule -->
<g id="edge14" class="edge">
<title>UsersModule&#45;&gt;AppModule</title>
<path fill="none" stroke="black" d="M1669,-236.82C1669,-254.17 1669,-277.8 1669,-277.8 1669,-277.8 1437.76,-277.8 1437.76,-277.8"/>
<polygon fill="black" stroke="black" points="1437.76,-274.3 1427.76,-277.8 1437.76,-281.3 1437.76,-274.3"/>
</g>
<!-- SignInComponent -->
<g id="node16" class="node">
<title>SignInComponent</title>
<polygon fill="#ffffb3" stroke="black" points="1884.17,-160.8 1765.83,-160.8 1765.83,-124.8 1884.17,-124.8 1884.17,-160.8"/>
<text text-anchor="middle" x="1825" y="-138.6" font-family="Times,serif" font-size="14.00">SignInComponent</text>
</g>
<!-- SignInComponent&#45;&gt;AuthModule -->
<g id="edge16" class="edge">
<title>SignInComponent&#45;&gt;AuthModule</title>
<path fill="none" stroke="black" d="M1792.72,-160.81C1792.72,-160.81 1792.72,-190.65 1792.72,-190.65"/>
<polygon fill="black" stroke="black" points="1789.22,-190.65 1792.72,-200.65 1796.22,-190.65 1789.22,-190.65"/>
</g>
<!-- ChatsComponent -->
<g id="node17" class="node">
<title>ChatsComponent</title>
<polygon fill="#ffffb3" stroke="black" points="2037.72,-160.8 1924.28,-160.8 1924.28,-124.8 2037.72,-124.8 2037.72,-160.8"/>
<text text-anchor="middle" x="1981" y="-138.6" font-family="Times,serif" font-size="14.00">ChatsComponent</text>
</g>
<!-- ChatsComponent&#45;&gt;ChatsModule -->
<g id="edge18" class="edge">
<title>ChatsComponent&#45;&gt;ChatsModule</title>
<path fill="none" stroke="black" d="M1941,-160.81C1941,-183.29 1941,-218.8 1941,-218.8 1941,-218.8 1938.98,-218.8 1938.98,-218.8"/>
<polygon fill="black" stroke="black" points="1938.98,-215.3 1928.98,-218.8 1938.98,-222.3 1938.98,-215.3"/>
</g>
<!-- DashboardComponent -->
<g id="node18" class="node">
<title>DashboardComponent</title>
<polygon fill="#ffffb3" stroke="black" points="1081.97,-160.8 940.03,-160.8 940.03,-124.8 1081.97,-124.8 1081.97,-160.8"/>
<text text-anchor="middle" x="1011" y="-138.6" font-family="Times,serif" font-size="14.00">DashboardComponent</text>
</g>
<!-- DashboardComponent&#45;&gt;DashboardModule -->
<g id="edge20" class="edge">
<title>DashboardComponent&#45;&gt;DashboardModule</title>
<path fill="none" stroke="black" d="M1063.96,-160.81C1063.96,-160.81 1063.96,-190.65 1063.96,-190.65"/>
<polygon fill="black" stroke="black" points="1060.46,-190.65 1063.96,-200.65 1067.46,-190.65 1060.46,-190.65"/>
</g>
<!-- DebtsComponent -->
<g id="node19" class="node">
<title>DebtsComponent</title>
<polygon fill="#ffffb3" stroke="black" points="1235.99,-160.8 1122.01,-160.8 1122.01,-124.8 1235.99,-124.8 1235.99,-160.8"/>
<text text-anchor="middle" x="1179" y="-138.6" font-family="Times,serif" font-size="14.00">DebtsComponent</text>
</g>
<!-- DebtsComponent&#45;&gt;DebtsModule -->
<g id="edge22" class="edge">
<title>DebtsComponent&#45;&gt;DebtsModule</title>
<path fill="none" stroke="black" d="M1212.63,-160.81C1212.63,-160.81 1212.63,-190.65 1212.63,-190.65"/>
<polygon fill="black" stroke="black" points="1209.13,-190.65 1212.63,-200.65 1216.13,-190.65 1209.13,-190.65"/>
</g>
<!-- MeComponent -->
<g id="node20" class="node">
<title>MeComponent</title>
<polygon fill="#ffffb3" stroke="black" points="557.99,-160.8 458.01,-160.8 458.01,-124.8 557.99,-124.8 557.99,-160.8"/>
<text text-anchor="middle" x="508" y="-138.6" font-family="Times,serif" font-size="14.00">MeComponent</text>
</g>
<!-- MeComponent&#45;&gt;MeModule -->
<g id="edge24" class="edge">
<title>MeComponent&#45;&gt;MeModule</title>
<path fill="none" stroke="black" d="M517,-160.81C517,-160.81 517,-190.65 517,-190.65"/>
<polygon fill="black" stroke="black" points="513.5,-190.65 517,-200.65 520.5,-190.65 513.5,-190.65"/>
</g>
<!-- ProgressComponent -->
<g id="node22" class="node">
<title>ProgressComponent</title>
<polygon fill="#ffffb3" stroke="black" points="1405.54,-160.8 1276.46,-160.8 1276.46,-124.8 1405.54,-124.8 1405.54,-160.8"/>
<text text-anchor="middle" x="1341" y="-138.6" font-family="Times,serif" font-size="14.00">ProgressComponent</text>
</g>
<!-- ProgressComponent&#45;&gt;ProgressModule -->
<g id="edge26" class="edge">
<title>ProgressComponent&#45;&gt;ProgressModule</title>
<path fill="none" stroke="black" d="M1348,-160.81C1348,-160.81 1348,-190.65 1348,-190.65"/>
<polygon fill="black" stroke="black" points="1344.5,-190.65 1348,-200.65 1351.5,-190.65 1344.5,-190.65"/>
</g>
<!-- SettingsComponent -->
<g id="node23" class="node">
<title>SettingsComponent</title>
<polygon fill="#ffffb3" stroke="black" points="1572.45,-160.8 1445.55,-160.8 1445.55,-124.8 1572.45,-124.8 1572.45,-160.8"/>
<text text-anchor="middle" x="1509" y="-138.6" font-family="Times,serif" font-size="14.00">SettingsComponent</text>
</g>
<!-- SettingsComponent&#45;&gt;SettingsModule -->
<g id="edge28" class="edge">
<title>SettingsComponent&#45;&gt;SettingsModule</title>
<path fill="none" stroke="black" d="M1548.37,-160.81C1548.37,-160.81 1548.37,-190.65 1548.37,-190.65"/>
<polygon fill="black" stroke="black" points="1544.87,-190.65 1548.37,-200.65 1551.87,-190.65 1544.87,-190.65"/>
</g>
<!-- BgVideoComponent -->
<g id="node24" class="node">
<title>BgVideoComponent</title>
<polygon fill="#ffffb3" stroke="black" points="1274.88,-84.8 1143.12,-84.8 1143.12,-48.8 1274.88,-48.8 1274.88,-84.8"/>
<text text-anchor="middle" x="1209" y="-62.6" font-family="Times,serif" font-size="14.00">BgVideoComponent</text>
</g>
<!-- BgVideoComponent&#45;&gt;SharedModule -->
<g id="edge30" class="edge">
<title>BgVideoComponent&#45;&gt;SharedModule</title>
<path fill="none" stroke="black" d="M1189.53,-84.84C1189.53,-97.36 1189.53,-111.8 1189.53,-111.8 1189.53,-111.8 812.68,-111.8 812.68,-111.8 812.68,-111.8 812.68,-114.77 812.68,-114.77"/>
<polygon fill="black" stroke="black" points="809.18,-114.77 812.68,-124.77 816.18,-114.77 809.18,-114.77"/>
</g>
<!-- HeaderComponent -->
<g id="node25" class="node">
<title>HeaderComponent</title>
<polygon fill="#ffffb3" stroke="black" points="1124.74,-84.8 1003.26,-84.8 1003.26,-48.8 1124.74,-48.8 1124.74,-84.8"/>
<text text-anchor="middle" x="1064" y="-62.6" font-family="Times,serif" font-size="14.00">HeaderComponent</text>
</g>
<!-- HeaderComponent&#45;&gt;SharedModule -->
<g id="edge31" class="edge">
<title>HeaderComponent&#45;&gt;SharedModule</title>
<path fill="none" stroke="black" d="M1042.56,-84.9C1042.56,-95.89 1042.56,-107.8 1042.56,-107.8 1042.56,-107.8 802.84,-107.8 802.84,-107.8 802.84,-107.8 802.84,-114.48 802.84,-114.48"/>
<polygon fill="black" stroke="black" points="799.34,-114.48 802.84,-124.48 806.34,-114.48 799.34,-114.48"/>
</g>
<!-- LogoComponent -->
<g id="node26" class="node">
<title>LogoComponent</title>
<polygon fill="#ffffb3" stroke="black" points="1526.39,-84.8 1415.61,-84.8 1415.61,-48.8 1526.39,-48.8 1526.39,-84.8"/>
<text text-anchor="middle" x="1471" y="-62.6" font-family="Times,serif" font-size="14.00">LogoComponent</text>
</g>
<!-- LogoComponent&#45;&gt;SharedModule -->
<g id="edge32" class="edge">
<title>LogoComponent&#45;&gt;SharedModule</title>
<path fill="none" stroke="black" d="M1430.67,-85.08C1430.67,-100.75 1430.67,-120.8 1430.67,-120.8 1430.67,-120.8 832.37,-120.8 832.37,-120.8 832.37,-120.8 832.37,-121.18 832.37,-121.18"/>
<polygon fill="black" stroke="black" points="828.87,-114.63 832.37,-124.63 835.87,-114.63 828.87,-114.63"/>
</g>
<!-- NavComponent -->
<g id="node27" class="node">
<title>NavComponent</title>
<polygon fill="#ffffb3" stroke="black" points="1397.15,-84.8 1292.85,-84.8 1292.85,-48.8 1397.15,-48.8 1397.15,-84.8"/>
<text text-anchor="middle" x="1345" y="-62.6" font-family="Times,serif" font-size="14.00">NavComponent</text>
</g>
<!-- NavComponent&#45;&gt;SharedModule -->
<g id="edge33" class="edge">
<title>NavComponent&#45;&gt;SharedModule</title>
<path fill="none" stroke="black" d="M1345,-84.85C1345,-99.17 1345,-116.8 1345,-116.8 1345,-116.8 822.53,-116.8 822.53,-116.8 822.53,-116.8 822.53,-117.59 822.53,-117.59"/>
<polygon fill="black" stroke="black" points="819.03,-114.74 822.53,-124.74 826.03,-114.74 819.03,-114.74"/>
</g>
<!-- AuthService -->
<g id="node32" class="node">
<title>AuthService</title>
<ellipse fill="#fdb462" stroke="black" cx="218" cy="-66.8" rx="59.11" ry="18"/>
<text text-anchor="middle" x="218" y="-62.6" font-family="Times,serif" font-size="14.00">AuthService</text>
</g>
<!-- AuthService&#45;&gt;SharedModule -->
<g id="edge38" class="edge">
<title>AuthService&#45;&gt;SharedModule</title>
<path fill="none" stroke="black" d="M218,-85.04C218,-92.23 218,-98.8 218,-98.8 218,-98.8 763.47,-98.8 763.47,-98.8 763.47,-98.8 763.47,-114.65 763.47,-114.65"/>
<polygon fill="black" stroke="black" points="759.97,-114.65 763.47,-124.65 766.97,-114.65 759.97,-114.65"/>
</g>
<!-- TitleService -->
<g id="node33" class="node">
<title>TitleService</title>
<ellipse fill="#fdb462" stroke="black" cx="82" cy="-66.8" rx="58.46" ry="18"/>
<text text-anchor="middle" x="82" y="-62.6" font-family="Times,serif" font-size="14.00">TitleService</text>
</g>
<!-- TitleService&#45;&gt;SharedModule -->
<g id="edge39" class="edge">
<title>TitleService&#45;&gt;SharedModule</title>
<path fill="none" stroke="black" d="M82,-84.8C82,-93.8 82,-102.8 82,-102.8 82,-102.8 753.63,-102.8 753.63,-102.8 753.63,-102.8 753.63,-114.67 753.63,-114.67"/>
<polygon fill="black" stroke="black" points="750.13,-114.67 753.63,-124.67 757.13,-114.67 750.13,-114.67"/>
</g>
<!-- ToastService -->
<g id="node34" class="node">
<title>ToastService</title>
<ellipse fill="#fdb462" stroke="black" cx="357" cy="-66.8" rx="61.39" ry="18"/>
<text text-anchor="middle" x="357" y="-62.6" font-family="Times,serif" font-size="14.00">ToastService</text>
</g>
<!-- ToastService&#45;&gt;SharedModule -->
<g id="edge40" class="edge">
<title>ToastService&#45;&gt;SharedModule</title>
<path fill="none" stroke="black" d="M357,-84.96C357,-89.84 357,-93.8 357,-93.8 357,-93.8 773.32,-93.8 773.32,-93.8 773.32,-93.8 773.32,-114.55 773.32,-114.55"/>
<polygon fill="black" stroke="black" points="769.82,-114.55 773.32,-124.55 776.82,-114.55 769.82,-114.55"/>
</g>
<!-- UsersComponent -->
<g id="node35" class="node">
<title>UsersComponent</title>
<polygon fill="#ffffb3" stroke="black" points="1725.7,-160.8 1612.3,-160.8 1612.3,-124.8 1725.7,-124.8 1725.7,-160.8"/>
<text text-anchor="middle" x="1669" y="-138.6" font-family="Times,serif" font-size="14.00">UsersComponent</text>
</g>
<!-- UsersComponent&#45;&gt;UsersModule -->
<g id="edge41" class="edge">
<title>UsersComponent&#45;&gt;UsersModule</title>
<path fill="none" stroke="black" d="M1684.24,-160.81C1684.24,-160.81 1684.24,-190.65 1684.24,-190.65"/>
<polygon fill="black" stroke="black" points="1680.74,-190.65 1684.24,-200.65 1687.74,-190.65 1680.74,-190.65"/>
</g>
</g>
</svg>
