<?xml version="1.0" encoding="UTF-8" standalone="no"?>
<!DOCTYPE svg PUBLIC "-//W3C//DTD SVG 1.1//EN"
 "http://www.w3.org/Graphics/SVG/1.1/DTD/svg11.dtd">
<!-- Generated by graphviz version 2.47.3 (20210619.1520)
 -->
<!-- Title: dependencies Pages: 1 -->
<svg width="4721pt" height="253pt"
 viewBox="0.00 0.00 4721.00 252.80" xmlns="http://www.w3.org/2000/svg" xmlns:xlink="http://www.w3.org/1999/xlink">
<g id="graph0" class="graph" transform="scale(1 1) rotate(0) translate(4 248.8)">
<title>dependencies</title>
<polygon fill="white" stroke="transparent" points="-4,4 -4,-248.8 4717,-248.8 4717,4 -4,4"/>
<text text-anchor="middle" x="2356.5" y="-8.2" font-family="sans-serif" font-size="14.00">dependencies</text>
<g id="clust1" class="cluster">
<title>cluster_AlarmsModule</title>
<polygon fill="none" stroke="black" stroke-dasharray="1,5" points="688,-32.8 688,-160.8 1128,-160.8 1128,-32.8 688,-32.8"/>
</g>
<g id="clust2" class="cluster">
<title>cluster_AlarmsModule_declarations</title>
<polygon fill="none" stroke="black" points="696,-40.8 696,-92.8 834,-92.8 834,-40.8 696,-40.8"/>
</g>
<g id="clust4" class="cluster">
<title>cluster_AlarmsModule_imports</title>
<polygon fill="none" stroke="black" points="842,-40.8 842,-92.8 1120,-92.8 1120,-40.8 842,-40.8"/>
</g>
<g id="clust14" class="cluster">
<title>cluster_AppModule</title>
<polygon fill="none" stroke="black" stroke-dasharray="1,5" points="8,-32.8 8,-236.8 680,-236.8 680,-32.8 8,-32.8"/>
</g>
<g id="clust15" class="cluster">
<title>cluster_AppModule_declarations</title>
<polygon fill="none" stroke="black" points="550,-40.8 550,-92.8 672,-92.8 672,-40.8 550,-40.8"/>
</g>
<g id="clust17" class="cluster">
<title>cluster_AppModule_imports</title>
<polygon fill="none" stroke="black" points="299,-40.8 299,-92.8 542,-92.8 542,-40.8 299,-40.8"/>
</g>
<g id="clust19" class="cluster">
<title>cluster_AppModule_bootstrap</title>
<polygon fill="none" stroke="black" points="346,-176.8 346,-228.8 470,-228.8 470,-176.8 346,-176.8"/>
</g>
<g id="clust20" class="cluster">
<title>cluster_AppModule_providers</title>
<polygon fill="none" stroke="black" points="16,-40.8 16,-92.8 291,-92.8 291,-40.8 16,-40.8"/>
</g>
<g id="clust27" class="cluster">
<title>cluster_AuthModule</title>
<polygon fill="none" stroke="black" stroke-dasharray="1,5" points="2260,-32.8 2260,-160.8 2566,-160.8 2566,-32.8 2260,-32.8"/>
</g>
<g id="clust28" class="cluster">
<title>cluster_AuthModule_declarations</title>
<polygon fill="none" stroke="black" points="2424,-40.8 2424,-92.8 2558,-92.8 2558,-40.8 2424,-40.8"/>
</g>
<g id="clust30" class="cluster">
<title>cluster_AuthModule_imports</title>
<polygon fill="none" stroke="black" points="2268,-40.8 2268,-92.8 2416,-92.8 2416,-40.8 2268,-40.8"/>
</g>
<g id="clust40" class="cluster">
<title>cluster_ChatsModule</title>
<polygon fill="none" stroke="black" stroke-dasharray="1,5" points="2574,-32.8 2574,-160.8 2880,-160.8 2880,-32.8 2574,-32.8"/>
</g>
<g id="clust41" class="cluster">
<title>cluster_ChatsModule_declarations</title>
<polygon fill="none" stroke="black" points="2742,-40.8 2742,-92.8 2872,-92.8 2872,-40.8 2742,-40.8"/>
</g>
<g id="clust43" class="cluster">
<title>cluster_ChatsModule_imports</title>
<polygon fill="none" stroke="black" points="2582,-40.8 2582,-92.8 2734,-92.8 2734,-40.8 2582,-40.8"/>
</g>
<g id="clust53" class="cluster">
<title>cluster_DashboardModule</title>
<polygon fill="none" stroke="black" stroke-dasharray="1,5" points="2888,-32.8 2888,-160.8 3252,-160.8 3252,-32.8 2888,-32.8"/>
</g>
<g id="clust54" class="cluster">
<title>cluster_DashboardModule_declarations</title>
<polygon fill="none" stroke="black" points="3086,-40.8 3086,-92.8 3244,-92.8 3244,-40.8 3086,-40.8"/>
</g>
<g id="clust56" class="cluster">
<title>cluster_DashboardModule_imports</title>
<polygon fill="none" stroke="black" points="2896,-40.8 2896,-92.8 3078,-92.8 3078,-40.8 2896,-40.8"/>
</g>
<g id="clust66" class="cluster">
<title>cluster_DebtsModule</title>
<polygon fill="none" stroke="black" stroke-dasharray="1,5" points="3260,-32.8 3260,-160.8 3568,-160.8 3568,-32.8 3260,-32.8"/>
</g>
<g id="clust67" class="cluster">
<title>cluster_DebtsModule_declarations</title>
<polygon fill="none" stroke="black" points="3430,-40.8 3430,-92.8 3560,-92.8 3560,-40.8 3430,-40.8"/>
</g>
<g id="clust69" class="cluster">
<title>cluster_DebtsModule_imports</title>
<polygon fill="none" stroke="black" points="3268,-40.8 3268,-92.8 3422,-92.8 3422,-40.8 3268,-40.8"/>
</g>
<g id="clust85" class="cluster">
<title>cluster_ProgressModule</title>
<polygon fill="none" stroke="black" stroke-dasharray="1,5" points="3576,-32.8 3576,-160.8 3914,-160.8 3914,-32.8 3576,-32.8"/>
</g>
<g id="clust86" class="cluster">
<title>cluster_ProgressModule_declarations</title>
<polygon fill="none" stroke="black" points="3760,-40.8 3760,-92.8 3906,-92.8 3906,-40.8 3760,-40.8"/>
</g>
<g id="clust88" class="cluster">
<title>cluster_ProgressModule_imports</title>
<polygon fill="none" stroke="black" points="3584,-40.8 3584,-92.8 3752,-92.8 3752,-40.8 3584,-40.8"/>
</g>
<g id="clust98" class="cluster">
<title>cluster_SettingsModule</title>
<polygon fill="none" stroke="black" stroke-dasharray="1,5" points="3922,-32.8 3922,-160.8 4254,-160.8 4254,-32.8 3922,-32.8"/>
</g>
<g id="clust99" class="cluster">
<title>cluster_SettingsModule_declarations</title>
<polygon fill="none" stroke="black" points="4104,-40.8 4104,-92.8 4246,-92.8 4246,-40.8 4104,-40.8"/>
</g>
<g id="clust101" class="cluster">
<title>cluster_SettingsModule_imports</title>
<polygon fill="none" stroke="black" points="3930,-40.8 3930,-92.8 4096,-92.8 4096,-40.8 3930,-40.8"/>
</g>
<g id="clust111" class="cluster">
<title>cluster_SharedModule</title>
<polygon fill="none" stroke="black" stroke-dasharray="1,5" points="1136,-100.8 1136,-168.8 2252,-168.8 2252,-100.8 1136,-100.8"/>
</g>
<g id="clust112" class="cluster">
<title>cluster_SharedModule_declarations</title>
<polygon fill="none" stroke="black" points="1705,-108.8 1705,-160.8 2244,-160.8 2244,-108.8 1705,-108.8"/>
</g>
<g id="clust118" class="cluster">
<title>cluster_SharedModule_exports</title>
<polygon fill="none" stroke="black" points="1144,-108.8 1144,-160.8 1697,-160.8 1697,-108.8 1144,-108.8"/>
</g>
<g id="clust121" class="cluster">
<title>cluster_UsersModule</title>
<polygon fill="none" stroke="black" stroke-dasharray="1,5" points="4262,-32.8 4262,-160.8 4705,-160.8 4705,-32.8 4262,-32.8"/>
</g>
<g id="clust122" class="cluster">
<title>cluster_UsersModule_declarations</title>
<polygon fill="none" stroke="black" points="4430,-40.8 4430,-92.8 4697,-92.8 4697,-40.8 4430,-40.8"/>
</g>
<g id="clust125" class="cluster">
<title>cluster_UsersModule_imports</title>
<polygon fill="none" stroke="black" points="4270,-40.8 4270,-92.8 4422,-92.8 4422,-40.8 4270,-40.8"/>
</g>
<!-- AlarmsComponent -->
<g id="node1" class="node">
<title>AlarmsComponent</title>
<polygon fill="#ffffb3" stroke="black" points="826.04,-84.8 703.96,-84.8 703.96,-48.8 826.04,-48.8 826.04,-84.8"/>
<text text-anchor="middle" x="765" y="-62.6" font-family="Times,serif" font-size="14.00">AlarmsComponent</text>
</g>
<!-- AlarmsModule -->
<g id="node2" class="node">
<title>AlarmsModule</title>
<polygon fill="#8dd3c7" stroke="black" points="973.26,-152.8 970.26,-156.8 949.26,-156.8 946.26,-152.8 872.74,-152.8 872.74,-116.8 973.26,-116.8 973.26,-152.8"/>
<text text-anchor="middle" x="923" y="-130.6" font-family="Times,serif" font-size="14.00">AlarmsModule</text>
</g>
<!-- AlarmsComponent&#45;&gt;AlarmsModule -->
<g id="edge1" class="edge">
<title>AlarmsComponent&#45;&gt;AlarmsModule</title>
<path fill="none" stroke="black" d="M765,-85.09C765,-107.01 765,-140.8 765,-140.8 765,-140.8 862.57,-140.8 862.57,-140.8"/>
<polygon fill="black" stroke="black" points="862.57,-144.3 872.57,-140.8 862.57,-137.3 862.57,-144.3"/>
</g>
<!-- AlarmsRoutingModule -->
<g id="node3" class="node">
<title>AlarmsRoutingModule</title>
<polygon fill="#8dd3c7" stroke="black" points="995.88,-84.8 992.88,-88.8 971.88,-88.8 968.88,-84.8 850.12,-84.8 850.12,-48.8 995.88,-48.8 995.88,-84.8"/>
<text text-anchor="middle" x="923" y="-62.6" font-family="Times,serif" font-size="14.00">AlarmsRoutingModule</text>
</g>
<!-- AlarmsRoutingModule&#45;&gt;AlarmsModule -->
<g id="edge2" class="edge">
<title>AlarmsRoutingModule&#45;&gt;AlarmsModule</title>
<path fill="none" stroke="black" d="M923,-85.02C923,-85.02 923,-106.53 923,-106.53"/>
<polygon fill="black" stroke="black" points="919.5,-106.53 923,-116.53 926.5,-106.53 919.5,-106.53"/>
</g>
<!-- SharedModule -->
<g id="node4" class="node">
<title>SharedModule</title>
<polygon fill="#8dd3c7" stroke="black" points="1112.42,-84.8 1109.42,-88.8 1088.42,-88.8 1085.42,-84.8 1013.58,-84.8 1013.58,-48.8 1112.42,-48.8 1112.42,-84.8"/>
<text text-anchor="middle" x="1063" y="-62.6" font-family="Times,serif" font-size="14.00">SharedModule</text>
</g>
<!-- SharedModule&#45;&gt;AlarmsModule -->
<g id="edge3" class="edge">
<title>SharedModule&#45;&gt;AlarmsModule</title>
<path fill="none" stroke="black" d="M1092.53,-85.09C1092.53,-107.01 1092.53,-140.8 1092.53,-140.8 1092.53,-140.8 983.4,-140.8 983.4,-140.8"/>
<polygon fill="black" stroke="black" points="983.4,-137.3 973.4,-140.8 983.4,-144.3 983.4,-137.3"/>
</g>
<!-- AppModule -->
<g id="node6" class="node">
<title>AppModule</title>
<polygon fill="#8dd3c7" stroke="black" points="449.66,-152.8 446.66,-156.8 425.66,-156.8 422.66,-152.8 366.34,-152.8 366.34,-116.8 449.66,-116.8 449.66,-152.8"/>
<text text-anchor="middle" x="408" y="-130.6" font-family="Times,serif" font-size="14.00">AppModule</text>
</g>
<!-- SharedModule&#45;&gt;AppModule -->
<g id="edge7" class="edge">
<title>SharedModule&#45;&gt;AppModule</title>
<path fill="none" stroke="black" d="M1023.63,-84.98C1023.63,-97.84 1023.63,-112.8 1023.63,-112.8 1023.63,-112.8 435.09,-112.8 435.09,-112.8 435.09,-112.8 435.09,-113.18 435.09,-113.18"/>
<polygon fill="black" stroke="black" points="431.59,-106.63 435.09,-116.63 438.59,-106.63 431.59,-106.63"/>
</g>
<!-- AuthModule -->
<g id="node13" class="node">
<title>AuthModule</title>
<polygon fill="#8dd3c7" stroke="black" points="2385.55,-152.8 2382.55,-156.8 2361.55,-156.8 2358.55,-152.8 2298.45,-152.8 2298.45,-116.8 2385.55,-116.8 2385.55,-152.8"/>
<text text-anchor="middle" x="2342" y="-130.6" font-family="Times,serif" font-size="14.00">AuthModule</text>
</g>
<!-- SharedModule&#45;&gt;AuthModule -->
<g id="edge13" class="edge">
<title>SharedModule&#45;&gt;AuthModule</title>
<path fill="none" stroke="black" d="M1112.37,-52.8C1337.52,-52.8 2256.06,-52.8 2256.06,-52.8 2256.06,-52.8 2256.06,-134.8 2256.06,-134.8 2256.06,-134.8 2288.27,-134.8 2288.27,-134.8"/>
<polygon fill="black" stroke="black" points="2288.27,-138.3 2298.27,-134.8 2288.27,-131.3 2288.27,-138.3"/>
</g>
<!-- ChatsModule -->
<g id="node16" class="node">
<title>ChatsModule</title>
<polygon fill="#8dd3c7" stroke="black" points="2703.94,-152.8 2700.94,-156.8 2679.94,-156.8 2676.94,-152.8 2612.06,-152.8 2612.06,-116.8 2703.94,-116.8 2703.94,-152.8"/>
<text text-anchor="middle" x="2658" y="-130.6" font-family="Times,serif" font-size="14.00">ChatsModule</text>
</g>
<!-- SharedModule&#45;&gt;ChatsModule -->
<g id="edge16" class="edge">
<title>SharedModule&#45;&gt;ChatsModule</title>
<path fill="none" stroke="black" d="M1033.47,-84.86C1033.47,-96.24 1033.47,-108.8 1033.47,-108.8 1033.47,-108.8 2642.76,-108.8 2642.76,-108.8 2642.76,-108.8 2642.76,-109.59 2642.76,-109.59"/>
<polygon fill="black" stroke="black" points="2639.26,-106.74 2642.76,-116.74 2646.26,-106.74 2639.26,-106.74"/>
</g>
<!-- DashboardModule -->
<g id="node19" class="node">
<title>DashboardModule</title>
<polygon fill="#8dd3c7" stroke="black" points="3047.19,-152.8 3044.19,-156.8 3023.19,-156.8 3020.19,-152.8 2926.81,-152.8 2926.81,-116.8 3047.19,-116.8 3047.19,-152.8"/>
<text text-anchor="middle" x="2987" y="-130.6" font-family="Times,serif" font-size="14.00">DashboardModule</text>
</g>
<!-- SharedModule&#45;&gt;DashboardModule -->
<g id="edge19" class="edge">
<title>SharedModule&#45;&gt;DashboardModule</title>
<path fill="none" stroke="black" d="M1043.32,-84.91C1043.32,-94.7 1043.32,-104.8 1043.32,-104.8 1043.32,-104.8 2966.97,-104.8 2966.97,-104.8 2966.97,-104.8 2966.97,-106.66 2966.97,-106.66"/>
<polygon fill="black" stroke="black" points="2963.47,-106.66 2966.97,-116.66 2970.47,-106.66 2963.47,-106.66"/>
</g>
<!-- DebtsModule -->
<g id="node22" class="node">
<title>DebtsModule</title>
<polygon fill="#8dd3c7" stroke="black" points="3391.21,-152.8 3388.21,-156.8 3367.21,-156.8 3364.21,-152.8 3298.79,-152.8 3298.79,-116.8 3391.21,-116.8 3391.21,-152.8"/>
<text text-anchor="middle" x="3345" y="-130.6" font-family="Times,serif" font-size="14.00">DebtsModule</text>
</g>
<!-- SharedModule&#45;&gt;DebtsModule -->
<g id="edge22" class="edge">
<title>SharedModule&#45;&gt;DebtsModule</title>
<path fill="none" stroke="black" d="M1053.16,-84.99C1053.16,-93.08 1053.16,-100.8 1053.16,-100.8 1053.16,-100.8 3329.63,-100.8 3329.63,-100.8 3329.63,-100.8 3329.63,-106.61 3329.63,-106.61"/>
<polygon fill="black" stroke="black" points="3326.13,-106.61 3329.63,-116.61 3333.13,-106.61 3326.13,-106.61"/>
</g>
<!-- ProgressModule -->
<g id="node25" class="node">
<title>ProgressModule</title>
<polygon fill="#8dd3c7" stroke="black" points="3721.76,-152.8 3718.76,-156.8 3697.76,-156.8 3694.76,-152.8 3614.24,-152.8 3614.24,-116.8 3721.76,-116.8 3721.76,-152.8"/>
<text text-anchor="middle" x="3668" y="-130.6" font-family="Times,serif" font-size="14.00">ProgressModule</text>
</g>
<!-- SharedModule&#45;&gt;ProgressModule -->
<g id="edge25" class="edge">
<title>SharedModule&#45;&gt;ProgressModule</title>
<path fill="none" stroke="black" d="M1063,-84.94C1063,-91.26 1063,-96.8 1063,-96.8 1063,-96.8 3650.04,-96.8 3650.04,-96.8 3650.04,-96.8 3650.04,-106.69 3650.04,-106.69"/>
<polygon fill="black" stroke="black" points="3646.54,-106.69 3650.04,-116.69 3653.54,-106.69 3646.54,-106.69"/>
</g>
<!-- SettingsModule -->
<g id="node28" class="node">
<title>SettingsModule</title>
<polygon fill="#8dd3c7" stroke="black" points="4065.16,-152.8 4062.16,-156.8 4041.16,-156.8 4038.16,-152.8 3960.84,-152.8 3960.84,-116.8 4065.16,-116.8 4065.16,-152.8"/>
<text text-anchor="middle" x="4013" y="-130.6" font-family="Times,serif" font-size="14.00">SettingsModule</text>
</g>
<!-- SharedModule&#45;&gt;SettingsModule -->
<g id="edge28" class="edge">
<title>SharedModule&#45;&gt;SettingsModule</title>
<path fill="none" stroke="black" d="M1072.84,-84.86C1072.84,-89.29 1072.84,-92.8 1072.84,-92.8 1072.84,-92.8 3995.56,-92.8 3995.56,-92.8 3995.56,-92.8 3995.56,-106.74 3995.56,-106.74"/>
<polygon fill="black" stroke="black" points="3992.06,-106.74 3995.56,-116.74 3999.06,-106.74 3992.06,-106.74"/>
</g>
<!-- BgVideoComponent  -->
<g id="node34" class="node">
<title>BgVideoComponent </title>
<polygon fill="#fb8072" stroke="black" points="1430.88,-152.8 1295.12,-152.8 1295.12,-116.8 1430.88,-116.8 1430.88,-152.8"/>
<text text-anchor="middle" x="1363" y="-130.6" font-family="Times,serif" font-size="14.00">BgVideoComponent </text>
</g>
<!-- SharedModule&#45;&gt;BgVideoComponent  -->
<g id="edge33" class="edge">
<title>SharedModule&#45;&gt;BgVideoComponent </title>
<path fill="none" stroke="black" stroke-dasharray="5,2" d="M1112.54,-80.8C1197.75,-80.8 1363,-80.8 1363,-80.8 1363,-80.8 1363,-106.52 1363,-106.52"/>
<polygon fill="black" stroke="black" points="1359.5,-106.52 1363,-116.52 1366.5,-106.52 1359.5,-106.52"/>
</g>
<!-- HeaderComponent  -->
<g id="node35" class="node">
<title>HeaderComponent </title>
<polygon fill="#fb8072" stroke="black" points="1277.74,-152.8 1152.26,-152.8 1152.26,-116.8 1277.74,-116.8 1277.74,-152.8"/>
<text text-anchor="middle" x="1215" y="-130.6" font-family="Times,serif" font-size="14.00">HeaderComponent </text>
</g>
<!-- SharedModule&#45;&gt;HeaderComponent  -->
<g id="edge34" class="edge">
<title>SharedModule&#45;&gt;HeaderComponent </title>
<path fill="none" stroke="black" stroke-dasharray="5,2" d="M1102.37,-85.07C1102.37,-103.36 1102.37,-128.8 1102.37,-128.8 1102.37,-128.8 1142.1,-128.8 1142.1,-128.8"/>
<polygon fill="black" stroke="black" points="1142.1,-132.3 1152.1,-128.8 1142.1,-125.3 1142.1,-132.3"/>
</g>
<!-- LogoComponent  -->
<g id="node36" class="node">
<title>LogoComponent </title>
<polygon fill="#fb8072" stroke="black" points="1689.39,-152.8 1574.61,-152.8 1574.61,-116.8 1689.39,-116.8 1689.39,-152.8"/>
<text text-anchor="middle" x="1632" y="-130.6" font-family="Times,serif" font-size="14.00">LogoComponent </text>
</g>
<!-- SharedModule&#45;&gt;LogoComponent  -->
<g id="edge35" class="edge">
<title>SharedModule&#45;&gt;LogoComponent </title>
<path fill="none" stroke="black" stroke-dasharray="5,2" d="M1112.5,-72.8C1250.93,-72.8 1632,-72.8 1632,-72.8 1632,-72.8 1632,-106.53 1632,-106.53"/>
<polygon fill="black" stroke="black" points="1628.5,-106.53 1632,-116.53 1635.5,-106.53 1628.5,-106.53"/>
</g>
<!-- NavComponent  -->
<g id="node37" class="node">
<title>NavComponent </title>
<polygon fill="#fb8072" stroke="black" points="1557.15,-152.8 1448.85,-152.8 1448.85,-116.8 1557.15,-116.8 1557.15,-152.8"/>
<text text-anchor="middle" x="1503" y="-130.6" font-family="Times,serif" font-size="14.00">NavComponent </text>
</g>
<!-- SharedModule&#45;&gt;NavComponent  -->
<g id="edge36" class="edge">
<title>SharedModule&#45;&gt;NavComponent </title>
<path fill="none" stroke="black" stroke-dasharray="5,2" d="M1112.62,-76.8C1227.69,-76.8 1503,-76.8 1503,-76.8 1503,-76.8 1503,-106.77 1503,-106.77"/>
<polygon fill="black" stroke="black" points="1499.5,-106.77 1503,-116.77 1506.5,-106.77 1499.5,-106.77"/>
</g>
<!-- UsersModule -->
<g id="node40" class="node">
<title>UsersModule</title>
<polygon fill="#8dd3c7" stroke="black" points="4465.92,-152.8 4462.92,-156.8 4441.92,-156.8 4438.92,-152.8 4374.08,-152.8 4374.08,-116.8 4465.92,-116.8 4465.92,-152.8"/>
<text text-anchor="middle" x="4420" y="-130.6" font-family="Times,serif" font-size="14.00">UsersModule</text>
</g>
<!-- SharedModule&#45;&gt;UsersModule -->
<g id="edge39" class="edge">
<title>SharedModule&#45;&gt;UsersModule</title>
<path fill="none" stroke="black" d="M1082.68,-84.97C1082.68,-87.25 1082.68,-88.8 1082.68,-88.8 1082.68,-88.8 4387.62,-88.8 4387.62,-88.8 4387.62,-88.8 4387.62,-106.62 4387.62,-106.62"/>
<polygon fill="black" stroke="black" points="4384.12,-106.62 4387.62,-116.62 4391.12,-106.62 4384.12,-106.62"/>
</g>
<!-- AppComponent -->
<g id="node5" class="node">
<title>AppComponent</title>
<polygon fill="#ffffb3" stroke="black" points="663.94,-84.8 558.06,-84.8 558.06,-48.8 663.94,-48.8 663.94,-84.8"/>
<text text-anchor="middle" x="611" y="-62.6" font-family="Times,serif" font-size="14.00">AppComponent</text>
</g>
<!-- AppComponent&#45;&gt;AppModule -->
<g id="edge4" class="edge">
<title>AppComponent&#45;&gt;AppModule</title>
<path fill="none" stroke="black" d="M611,-85.07C611,-103.36 611,-128.8 611,-128.8 611,-128.8 460.06,-128.8 460.06,-128.8"/>
<polygon fill="black" stroke="black" points="460.06,-125.3 450.06,-128.8 460.06,-132.3 460.06,-125.3"/>
</g>
<!-- AppComponent  -->
<g id="node9" class="node">
<title>AppComponent </title>
<polygon fill="#80b1d3" stroke="black" points="462.44,-220.8 353.56,-220.8 353.56,-184.8 462.44,-184.8 462.44,-220.8"/>
<text text-anchor="middle" x="408" y="-198.6" font-family="Times,serif" font-size="14.00">AppComponent </text>
</g>
<!-- AppModule&#45;&gt;AppComponent  -->
<g id="edge8" class="edge">
<title>AppModule&#45;&gt;AppComponent </title>
<path fill="none" stroke="black" stroke-dasharray="1,5" d="M408,-153.02C408,-153.02 408,-174.53 408,-174.53"/>
<polygon fill="black" stroke="black" points="404.5,-174.53 408,-184.53 411.5,-174.53 404.5,-174.53"/>
</g>
<!-- AppRoutingModule -->
<g id="node7" class="node">
<title>AppRoutingModule</title>
<polygon fill="#8dd3c7" stroke="black" points="534.27,-84.8 531.27,-88.8 510.27,-88.8 507.27,-84.8 405.73,-84.8 405.73,-48.8 534.27,-48.8 534.27,-84.8"/>
<text text-anchor="middle" x="470" y="-62.6" font-family="Times,serif" font-size="14.00">AppRoutingModule</text>
</g>
<!-- AppRoutingModule&#45;&gt;AppModule -->
<g id="edge5" class="edge">
<title>AppRoutingModule&#45;&gt;AppModule</title>
<path fill="none" stroke="black" d="M420.35,-85.02C420.35,-85.02 420.35,-106.53 420.35,-106.53"/>
<polygon fill="black" stroke="black" points="416.85,-106.53 420.35,-116.53 423.85,-106.53 416.85,-106.53"/>
</g>
<!-- GqlModule -->
<g id="node8" class="node">
<title>GqlModule</title>
<polygon fill="#8dd3c7" stroke="black" points="387.05,-84.8 384.05,-88.8 363.05,-88.8 360.05,-84.8 306.95,-84.8 306.95,-48.8 387.05,-48.8 387.05,-84.8"/>
<text text-anchor="middle" x="347" y="-62.6" font-family="Times,serif" font-size="14.00">GqlModule</text>
</g>
<!-- GqlModule&#45;&gt;AppModule -->
<g id="edge6" class="edge">
<title>GqlModule&#45;&gt;AppModule</title>
<path fill="none" stroke="black" d="M376.72,-85.02C376.72,-85.02 376.72,-106.53 376.72,-106.53"/>
<polygon fill="black" stroke="black" points="373.22,-106.53 376.72,-116.53 380.22,-106.53 373.22,-106.53"/>
</g>
<!-- AuthService -->
<g id="node10" class="node">
<title>AuthService</title>
<ellipse fill="#fdb462" stroke="black" cx="224" cy="-66.8" rx="59.11" ry="18"/>
<text text-anchor="middle" x="224" y="-62.6" font-family="Times,serif" font-size="14.00">AuthService</text>
</g>
<!-- AuthService&#45;&gt;AppModule -->
<g id="edge9" class="edge">
<title>AuthService&#45;&gt;AppModule</title>
<path fill="none" stroke="black" d="M224,-85.07C224,-103.36 224,-128.8 224,-128.8 224,-128.8 356.25,-128.8 356.25,-128.8"/>
<polygon fill="black" stroke="black" points="356.25,-132.3 366.25,-128.8 356.25,-125.3 356.25,-132.3"/>
</g>
<!-- ToastService -->
<g id="node11" class="node">
<title>ToastService</title>
<ellipse fill="#fdb462" stroke="black" cx="85" cy="-66.8" rx="61.39" ry="18"/>
<text text-anchor="middle" x="85" y="-62.6" font-family="Times,serif" font-size="14.00">ToastService</text>
</g>
<!-- ToastService&#45;&gt;AppModule -->
<g id="edge10" class="edge">
<title>ToastService&#45;&gt;AppModule</title>
<path fill="none" stroke="black" d="M85,-85.09C85,-107.01 85,-140.8 85,-140.8 85,-140.8 356.1,-140.8 356.1,-140.8"/>
<polygon fill="black" stroke="black" points="356.1,-144.3 366.1,-140.8 356.1,-137.3 356.1,-144.3"/>
</g>
<!-- SignInComponent -->
<g id="node12" class="node">
<title>SignInComponent</title>
<polygon fill="#ffffb3" stroke="black" points="2550.17,-84.8 2431.83,-84.8 2431.83,-48.8 2550.17,-48.8 2550.17,-84.8"/>
<text text-anchor="middle" x="2491" y="-62.6" font-family="Times,serif" font-size="14.00">SignInComponent</text>
</g>
<!-- SignInComponent&#45;&gt;AuthModule -->
<g id="edge11" class="edge">
<title>SignInComponent&#45;&gt;AuthModule</title>
<path fill="none" stroke="black" d="M2491,-85.02C2491,-105.17 2491,-134.8 2491,-134.8 2491,-134.8 2395.9,-134.8 2395.9,-134.8"/>
<polygon fill="black" stroke="black" points="2395.9,-131.3 2385.9,-134.8 2395.9,-138.3 2395.9,-131.3"/>
</g>
<!-- AuthRoutingModule -->
<g id="node14" class="node">
<title>AuthRoutingModule</title>
<polygon fill="#8dd3c7" stroke="black" points="2408.17,-84.8 2405.17,-88.8 2384.17,-88.8 2381.17,-84.8 2275.83,-84.8 2275.83,-48.8 2408.17,-48.8 2408.17,-84.8"/>
<text text-anchor="middle" x="2342" y="-62.6" font-family="Times,serif" font-size="14.00">AuthRoutingModule</text>
</g>
<!-- AuthRoutingModule&#45;&gt;AuthModule -->
<g id="edge12" class="edge">
<title>AuthRoutingModule&#45;&gt;AuthModule</title>
<path fill="none" stroke="black" d="M2342,-85.02C2342,-85.02 2342,-106.53 2342,-106.53"/>
<polygon fill="black" stroke="black" points="2338.5,-106.53 2342,-116.53 2345.5,-106.53 2338.5,-106.53"/>
</g>
<!-- ChatsComponent -->
<g id="node15" class="node">
<title>ChatsComponent</title>
<polygon fill="#ffffb3" stroke="black" points="2863.72,-84.8 2750.28,-84.8 2750.28,-48.8 2863.72,-48.8 2863.72,-84.8"/>
<text text-anchor="middle" x="2807" y="-62.6" font-family="Times,serif" font-size="14.00">ChatsComponent</text>
</g>
<!-- ChatsComponent&#45;&gt;ChatsModule -->
<g id="edge14" class="edge">
<title>ChatsComponent&#45;&gt;ChatsModule</title>
<path fill="none" stroke="black" d="M2807,-85.02C2807,-105.17 2807,-134.8 2807,-134.8 2807,-134.8 2713.92,-134.8 2713.92,-134.8"/>
<polygon fill="black" stroke="black" points="2713.92,-131.3 2703.92,-134.8 2713.92,-138.3 2713.92,-131.3"/>
</g>
<!-- ChatsRoutingModule -->
<g id="node17" class="node">
<title>ChatsRoutingModule</title>
<polygon fill="#8dd3c7" stroke="black" points="2726.05,-84.8 2723.05,-88.8 2702.05,-88.8 2699.05,-84.8 2589.95,-84.8 2589.95,-48.8 2726.05,-48.8 2726.05,-84.8"/>
<text text-anchor="middle" x="2658" y="-62.6" font-family="Times,serif" font-size="14.00">ChatsRoutingModule</text>
</g>
<!-- ChatsRoutingModule&#45;&gt;ChatsModule -->
<g id="edge15" class="edge">
<title>ChatsRoutingModule&#45;&gt;ChatsModule</title>
<path fill="none" stroke="black" d="M2673.24,-85.02C2673.24,-85.02 2673.24,-106.53 2673.24,-106.53"/>
<polygon fill="black" stroke="black" points="2669.74,-106.53 2673.24,-116.53 2676.74,-106.53 2669.74,-106.53"/>
</g>
<!-- DashboardComponent -->
<g id="node18" class="node">
<title>DashboardComponent</title>
<polygon fill="#ffffb3" stroke="black" points="3235.97,-84.8 3094.03,-84.8 3094.03,-48.8 3235.97,-48.8 3235.97,-84.8"/>
<text text-anchor="middle" x="3165" y="-62.6" font-family="Times,serif" font-size="14.00">DashboardComponent</text>
</g>
<!-- DashboardComponent&#45;&gt;DashboardModule -->
<g id="edge17" class="edge">
<title>DashboardComponent&#45;&gt;DashboardModule</title>
<path fill="none" stroke="black" d="M3165,-85.02C3165,-105.17 3165,-134.8 3165,-134.8 3165,-134.8 3057.26,-134.8 3057.26,-134.8"/>
<polygon fill="black" stroke="black" points="3057.26,-131.3 3047.26,-134.8 3057.26,-138.3 3057.26,-131.3"/>
</g>
<!-- DashboardRoutingModule -->
<g id="node20" class="node">
<title>DashboardRoutingModule</title>
<polygon fill="#8dd3c7" stroke="black" points="3069.81,-84.8 3066.81,-88.8 3045.81,-88.8 3042.81,-84.8 2904.19,-84.8 2904.19,-48.8 3069.81,-48.8 3069.81,-84.8"/>
<text text-anchor="middle" x="2987" y="-62.6" font-family="Times,serif" font-size="14.00">DashboardRoutingModule</text>
</g>
<!-- DashboardRoutingModule&#45;&gt;DashboardModule -->
<g id="edge18" class="edge">
<title>DashboardRoutingModule&#45;&gt;DashboardModule</title>
<path fill="none" stroke="black" d="M3007.03,-85.02C3007.03,-85.02 3007.03,-106.53 3007.03,-106.53"/>
<polygon fill="black" stroke="black" points="3003.53,-106.53 3007.03,-116.53 3010.53,-106.53 3003.53,-106.53"/>
</g>
<!-- DebtsComponent -->
<g id="node21" class="node">
<title>DebtsComponent</title>
<polygon fill="#ffffb3" stroke="black" points="3551.99,-84.8 3438.01,-84.8 3438.01,-48.8 3551.99,-48.8 3551.99,-84.8"/>
<text text-anchor="middle" x="3495" y="-62.6" font-family="Times,serif" font-size="14.00">DebtsComponent</text>
</g>
<!-- DebtsComponent&#45;&gt;DebtsModule -->
<g id="edge20" class="edge">
<title>DebtsComponent&#45;&gt;DebtsModule</title>
<path fill="none" stroke="black" d="M3495,-85.02C3495,-105.17 3495,-134.8 3495,-134.8 3495,-134.8 3401.23,-134.8 3401.23,-134.8"/>
<polygon fill="black" stroke="black" points="3401.23,-131.3 3391.23,-134.8 3401.23,-138.3 3401.23,-131.3"/>
</g>
<!-- DebtsRoutingModule -->
<g id="node23" class="node">
<title>DebtsRoutingModule</title>
<polygon fill="#8dd3c7" stroke="black" points="3413.82,-84.8 3410.82,-88.8 3389.82,-88.8 3386.82,-84.8 3276.18,-84.8 3276.18,-48.8 3413.82,-48.8 3413.82,-84.8"/>
<text text-anchor="middle" x="3345" y="-62.6" font-family="Times,serif" font-size="14.00">DebtsRoutingModule</text>
</g>
<!-- DebtsRoutingModule&#45;&gt;DebtsModule -->
<g id="edge21" class="edge">
<title>DebtsRoutingModule&#45;&gt;DebtsModule</title>
<path fill="none" stroke="black" d="M3360.37,-85.02C3360.37,-85.02 3360.37,-106.53 3360.37,-106.53"/>
<polygon fill="black" stroke="black" points="3356.87,-106.53 3360.37,-116.53 3363.87,-106.53 3356.87,-106.53"/>
</g>
<!-- ProgressComponent -->
<g id="node24" class="node">
<title>ProgressComponent</title>
<polygon fill="#ffffb3" stroke="black" points="3897.54,-84.8 3768.46,-84.8 3768.46,-48.8 3897.54,-48.8 3897.54,-84.8"/>
<text text-anchor="middle" x="3833" y="-62.6" font-family="Times,serif" font-size="14.00">ProgressComponent</text>
</g>
<!-- ProgressComponent&#45;&gt;ProgressModule -->
<g id="edge23" class="edge">
<title>ProgressComponent&#45;&gt;ProgressModule</title>
<path fill="none" stroke="black" d="M3833,-85.02C3833,-105.17 3833,-134.8 3833,-134.8 3833,-134.8 3732.03,-134.8 3732.03,-134.8"/>
<polygon fill="black" stroke="black" points="3732.03,-131.3 3722.03,-134.8 3732.03,-138.3 3732.03,-131.3"/>
</g>
<!-- ProgressRoutingModule -->
<g id="node26" class="node">
<title>ProgressRoutingModule</title>
<polygon fill="#8dd3c7" stroke="black" points="3744.38,-84.8 3741.38,-88.8 3720.38,-88.8 3717.38,-84.8 3591.62,-84.8 3591.62,-48.8 3744.38,-48.8 3744.38,-84.8"/>
<text text-anchor="middle" x="3668" y="-62.6" font-family="Times,serif" font-size="14.00">ProgressRoutingModule</text>
</g>
<!-- ProgressRoutingModule&#45;&gt;ProgressModule -->
<g id="edge24" class="edge">
<title>ProgressRoutingModule&#45;&gt;ProgressModule</title>
<path fill="none" stroke="black" d="M3685.96,-85.02C3685.96,-85.02 3685.96,-106.53 3685.96,-106.53"/>
<polygon fill="black" stroke="black" points="3682.46,-106.53 3685.96,-116.53 3689.46,-106.53 3682.46,-106.53"/>
</g>
<!-- SettingsComponent -->
<g id="node27" class="node">
<title>SettingsComponent</title>
<polygon fill="#ffffb3" stroke="black" points="4238.45,-84.8 4111.55,-84.8 4111.55,-48.8 4238.45,-48.8 4238.45,-84.8"/>
<text text-anchor="middle" x="4175" y="-62.6" font-family="Times,serif" font-size="14.00">SettingsComponent</text>
</g>
<!-- SettingsComponent&#45;&gt;SettingsModule -->
<g id="edge26" class="edge">
<title>SettingsComponent&#45;&gt;SettingsModule</title>
<path fill="none" stroke="black" d="M4175,-85.02C4175,-105.17 4175,-134.8 4175,-134.8 4175,-134.8 4075.6,-134.8 4075.6,-134.8"/>
<polygon fill="black" stroke="black" points="4075.6,-131.3 4065.6,-134.8 4075.6,-138.3 4075.6,-131.3"/>
</g>
<!-- SettingsRoutingModule -->
<g id="node29" class="node">
<title>SettingsRoutingModule</title>
<polygon fill="#8dd3c7" stroke="black" points="4087.78,-84.8 4084.78,-88.8 4063.78,-88.8 4060.78,-84.8 3938.22,-84.8 3938.22,-48.8 4087.78,-48.8 4087.78,-84.8"/>
<text text-anchor="middle" x="4013" y="-62.6" font-family="Times,serif" font-size="14.00">SettingsRoutingModule</text>
</g>
<!-- SettingsRoutingModule&#45;&gt;SettingsModule -->
<g id="edge27" class="edge">
<title>SettingsRoutingModule&#45;&gt;SettingsModule</title>
<path fill="none" stroke="black" d="M4030.44,-85.02C4030.44,-85.02 4030.44,-106.53 4030.44,-106.53"/>
<polygon fill="black" stroke="black" points="4026.94,-106.53 4030.44,-116.53 4033.94,-106.53 4026.94,-106.53"/>
</g>
<!-- BgVideoComponent -->
<g id="node30" class="node">
<title>BgVideoComponent</title>
<polygon fill="#ffffb3" stroke="black" points="1984.88,-152.8 1853.12,-152.8 1853.12,-116.8 1984.88,-116.8 1984.88,-152.8"/>
<text text-anchor="middle" x="1919" y="-130.6" font-family="Times,serif" font-size="14.00">BgVideoComponent</text>
</g>
<!-- BgVideoComponent&#45;&gt;SharedModule -->
<g id="edge29" class="edge">
<title>BgVideoComponent&#45;&gt;SharedModule</title>
<path fill="none" stroke="black" d="M1919,-116.77C1919,-96.03 1919,-64.8 1919,-64.8 1919,-64.8 1122.41,-64.8 1122.41,-64.8"/>
<polygon fill="black" stroke="black" points="1122.41,-61.3 1112.41,-64.8 1122.41,-68.3 1122.41,-61.3"/>
</g>
<!-- HeaderComponent -->
<g id="node31" class="node">
<title>HeaderComponent</title>
<polygon fill="#ffffb3" stroke="black" points="1834.74,-152.8 1713.26,-152.8 1713.26,-116.8 1834.74,-116.8 1834.74,-152.8"/>
<text text-anchor="middle" x="1774" y="-130.6" font-family="Times,serif" font-size="14.00">HeaderComponent</text>
</g>
<!-- HeaderComponent&#45;&gt;SharedModule -->
<g id="edge30" class="edge">
<title>HeaderComponent&#45;&gt;SharedModule</title>
<path fill="none" stroke="black" d="M1774,-116.77C1774,-97.22 1774,-68.8 1774,-68.8 1774,-68.8 1122.43,-68.8 1122.43,-68.8"/>
<polygon fill="black" stroke="black" points="1122.43,-65.3 1112.43,-68.8 1122.43,-72.3 1122.43,-65.3"/>
</g>
<!-- LogoComponent -->
<g id="node32" class="node">
<title>LogoComponent</title>
<polygon fill="#ffffb3" stroke="black" points="2236.39,-152.8 2125.61,-152.8 2125.61,-116.8 2236.39,-116.8 2236.39,-152.8"/>
<text text-anchor="middle" x="2181" y="-130.6" font-family="Times,serif" font-size="14.00">LogoComponent</text>
</g>
<!-- LogoComponent&#45;&gt;SharedModule -->
<g id="edge31" class="edge">
<title>LogoComponent&#45;&gt;SharedModule</title>
<path fill="none" stroke="black" d="M2181,-116.71C2181,-93.67 2181,-56.8 2181,-56.8 2181,-56.8 1122.48,-56.8 1122.48,-56.8"/>
<polygon fill="black" stroke="black" points="1122.48,-53.3 1112.48,-56.8 1122.48,-60.3 1122.48,-53.3"/>
</g>
<!-- NavComponent -->
<g id="node33" class="node">
<title>NavComponent</title>
<polygon fill="#ffffb3" stroke="black" points="2107.15,-152.8 2002.85,-152.8 2002.85,-116.8 2107.15,-116.8 2107.15,-152.8"/>
<text text-anchor="middle" x="2055" y="-130.6" font-family="Times,serif" font-size="14.00">NavComponent</text>
</g>
<!-- NavComponent&#45;&gt;SharedModule -->
<g id="edge32" class="edge">
<title>NavComponent&#45;&gt;SharedModule</title>
<path fill="none" stroke="black" d="M2055,-116.51C2055,-94.59 2055,-60.8 2055,-60.8 2055,-60.8 1122.53,-60.8 1122.53,-60.8"/>
<polygon fill="black" stroke="black" points="1122.53,-57.3 1112.53,-60.8 1122.53,-64.3 1122.53,-57.3"/>
</g>
<!-- ProfileComponent -->
<g id="node38" class="node">
<title>ProfileComponent</title>
<polygon fill="#ffffb3" stroke="black" points="4688.93,-84.8 4569.07,-84.8 4569.07,-48.8 4688.93,-48.8 4688.93,-84.8"/>
<text text-anchor="middle" x="4629" y="-62.6" font-family="Times,serif" font-size="14.00">ProfileComponent</text>
</g>
<!-- ProfileComponent&#45;&gt;UsersModule -->
<g id="edge37" class="edge">
<title>ProfileComponent&#45;&gt;UsersModule</title>
<path fill="none" stroke="black" d="M4629,-85.02C4629,-105.17 4629,-134.8 4629,-134.8 4629,-134.8 4475.87,-134.8 4475.87,-134.8"/>
<polygon fill="black" stroke="black" points="4475.87,-131.3 4465.87,-134.8 4475.87,-138.3 4475.87,-131.3"/>
</g>
<!-- UsersComponent -->
<g id="node39" class="node">
<title>UsersComponent</title>
<polygon fill="#ffffb3" stroke="black" points="4551.7,-84.8 4438.3,-84.8 4438.3,-48.8 4551.7,-48.8 4551.7,-84.8"/>
<text text-anchor="middle" x="4495" y="-62.6" font-family="Times,serif" font-size="14.00">UsersComponent</text>
</g>
<!-- UsersComponent&#45;&gt;UsersModule -->
<g id="edge38" class="edge">
<title>UsersComponent&#45;&gt;UsersModule</title>
<path fill="none" stroke="black" d="M4452.05,-85.02C4452.05,-85.02 4452.05,-106.53 4452.05,-106.53"/>
<polygon fill="black" stroke="black" points="4448.55,-106.53 4452.05,-116.53 4455.55,-106.53 4448.55,-106.53"/>
</g>
<!-- UsersRoutingModule -->
<g id="node41" class="node">
<title>UsersRoutingModule</title>
<polygon fill="#8dd3c7" stroke="black" points="4414.04,-84.8 4411.04,-88.8 4390.04,-88.8 4387.04,-84.8 4277.96,-84.8 4277.96,-48.8 4414.04,-48.8 4414.04,-84.8"/>
<text text-anchor="middle" x="4346" y="-62.6" font-family="Times,serif" font-size="14.00">UsersRoutingModule</text>
</g>
<!-- UsersRoutingModule&#45;&gt;UsersModule -->
<g id="edge40" class="edge">
<title>UsersRoutingModule&#45;&gt;UsersModule</title>
<path fill="none" stroke="black" d="M4400.94,-85.02C4400.94,-85.02 4400.94,-106.53 4400.94,-106.53"/>
<polygon fill="black" stroke="black" points="4397.44,-106.53 4400.94,-116.53 4404.44,-106.53 4397.44,-106.53"/>
</g>
</g>
</svg>
