<?xml version="1.0" encoding="UTF-8" standalone="no"?>
<!DOCTYPE svg PUBLIC "-//W3C//DTD SVG 1.1//EN"
 "http://www.w3.org/Graphics/SVG/1.1/DTD/svg11.dtd">
<!-- Generated by graphviz version 2.47.3 (20210619.1520)
 -->
<!-- Title: dependencies Pages: 1 -->
<svg width="496pt" height="323pt"
 viewBox="0.00 0.00 496.00 322.80" xmlns="http://www.w3.org/2000/svg" xmlns:xlink="http://www.w3.org/1999/xlink">
<g id="graph0" class="graph" transform="scale(1 1) rotate(0) translate(4 318.8)">
<title>dependencies</title>
<polygon fill="white" stroke="transparent" points="-4,4 -4,-318.8 492,-318.8 492,4 -4,4"/>
<text text-anchor="middle" x="244" y="-8.2" font-family="sans-serif" font-size="14.00">dependencies</text>
<g id="clust1" class="cluster">
<title>cluster_AppModule</title>
<polygon fill="none" stroke="black" stroke-dasharray="1,5" points="8,-108.8 8,-306.8 480,-306.8 480,-108.8 8,-108.8"/>
</g>
<g id="clust2" class="cluster">
<title>cluster_AppModule_declarations</title>
<polygon fill="none" stroke="black" points="350,-116.8 350,-168.8 472,-168.8 472,-116.8 350,-116.8"/>
</g>
<g id="clust4" class="cluster">
<title>cluster_AppModule_imports</title>
<polygon fill="none" stroke="black" points="16,-116.8 16,-168.8 342,-168.8 342,-116.8 16,-116.8"/>
</g>
<g id="clust6" class="cluster">
<title>cluster_AppModule_bootstrap</title>
<polygon fill="none" stroke="black" points="175,-246.8 175,-298.8 299,-298.8 299,-246.8 175,-246.8"/>
</g>
<g id="clust8" class="cluster">
<title>cluster_AuthModule</title>
<polygon fill="none" stroke="black" stroke-dasharray="1,5" points="136,-32.8 136,-100.8 420,-100.8 420,-32.8 136,-32.8"/>
</g>
<g id="clust9" class="cluster">
<title>cluster_AuthModule_declarations</title>
<polygon fill="none" stroke="black" points="286,-40.8 286,-92.8 412,-92.8 412,-40.8 286,-40.8"/>
</g>
<g id="clust14" class="cluster">
<title>cluster_AuthModule_providers</title>
<polygon fill="none" stroke="black" points="144,-40.8 144,-92.8 278,-92.8 278,-40.8 144,-40.8"/>
</g>
<!-- AppComponent -->
<g id="node1" class="node">
<title>AppComponent</title>
<polygon fill="#ffffb3" stroke="black" points="463.94,-160.8 358.06,-160.8 358.06,-124.8 463.94,-124.8 463.94,-160.8"/>
<text text-anchor="middle" x="411" y="-138.6" font-family="Times,serif" font-size="14.00">AppComponent</text>
</g>
<!-- AppModule -->
<g id="node2" class="node">
<title>AppModule</title>
<polygon fill="#8dd3c7" stroke="black" points="278.66,-225.8 275.66,-229.8 254.66,-229.8 251.66,-225.8 195.34,-225.8 195.34,-189.8 278.66,-189.8 278.66,-225.8"/>
<text text-anchor="middle" x="237" y="-203.6" font-family="Times,serif" font-size="14.00">AppModule</text>
</g>
<!-- AppComponent&#45;&gt;AppModule -->
<g id="edge1" class="edge">
<title>AppComponent&#45;&gt;AppModule</title>
<path fill="none" stroke="black" d="M411,-160.91C411,-180.14 411,-207.8 411,-207.8 411,-207.8 288.68,-207.8 288.68,-207.8"/>
<polygon fill="black" stroke="black" points="288.68,-204.3 278.68,-207.8 288.68,-211.3 288.68,-204.3"/>
</g>
<!-- AppComponent  -->
<g id="node6" class="node">
<title>AppComponent </title>
<polygon fill="#80b1d3" stroke="black" points="291.44,-290.8 182.56,-290.8 182.56,-254.8 291.44,-254.8 291.44,-290.8"/>
<text text-anchor="middle" x="237" y="-268.6" font-family="Times,serif" font-size="14.00">AppComponent </text>
</g>
<!-- AppModule&#45;&gt;AppComponent  -->
<g id="edge5" class="edge">
<title>AppModule&#45;&gt;AppComponent </title>
<path fill="none" stroke="black" stroke-dasharray="1,5" d="M237,-225.91C237,-225.91 237,-244.79 237,-244.79"/>
<polygon fill="black" stroke="black" points="233.5,-244.79 237,-254.79 240.5,-244.79 233.5,-244.79"/>
</g>
<!-- AuthModule -->
<g id="node3" class="node">
<title>AuthModule</title>
<polygon fill="#8dd3c7" stroke="black" points="333.55,-160.8 330.55,-164.8 309.55,-164.8 306.55,-160.8 246.45,-160.8 246.45,-124.8 333.55,-124.8 333.55,-160.8"/>
<text text-anchor="middle" x="290" y="-138.6" font-family="Times,serif" font-size="14.00">AuthModule</text>
</g>
<!-- AuthModule&#45;&gt;AppModule -->
<g id="edge2" class="edge">
<title>AuthModule&#45;&gt;AppModule</title>
<path fill="none" stroke="black" d="M262.53,-160.91C262.53,-160.91 262.53,-179.79 262.53,-179.79"/>
<polygon fill="black" stroke="black" points="259.03,-179.79 262.53,-189.79 266.03,-179.79 259.03,-179.79"/>
</g>
<!-- GQLModule -->
<g id="node4" class="node">
<title>GQLModule</title>
<polygon fill="#8dd3c7" stroke="black" points="228.32,-160.8 225.32,-164.8 204.32,-164.8 201.32,-160.8 139.68,-160.8 139.68,-124.8 228.32,-124.8 228.32,-160.8"/>
<text text-anchor="middle" x="184" y="-138.6" font-family="Times,serif" font-size="14.00">GQLModule</text>
</g>
<!-- GQLModule&#45;&gt;AppModule -->
<g id="edge3" class="edge">
<title>GQLModule&#45;&gt;AppModule</title>
<path fill="none" stroke="black" d="M211.66,-160.91C211.66,-160.91 211.66,-179.79 211.66,-179.79"/>
<polygon fill="black" stroke="black" points="208.16,-179.79 211.66,-189.79 215.16,-179.79 208.16,-179.79"/>
</g>
<!-- RoutesModule -->
<g id="node5" class="node">
<title>RoutesModule</title>
<polygon fill="#8dd3c7" stroke="black" points="122.44,-160.8 119.44,-164.8 98.44,-164.8 95.44,-160.8 23.56,-160.8 23.56,-124.8 122.44,-124.8 122.44,-160.8"/>
<text text-anchor="middle" x="73" y="-138.6" font-family="Times,serif" font-size="14.00">RoutesModule</text>
</g>
<!-- RoutesModule&#45;&gt;AppModule -->
<g id="edge4" class="edge">
<title>RoutesModule&#45;&gt;AppModule</title>
<path fill="none" stroke="black" d="M73,-160.91C73,-180.14 73,-207.8 73,-207.8 73,-207.8 185.19,-207.8 185.19,-207.8"/>
<polygon fill="black" stroke="black" points="185.19,-211.3 195.19,-207.8 185.19,-204.3 185.19,-211.3"/>
</g>
<!-- AuthComponent -->
<g id="node7" class="node">
<title>AuthComponent</title>
<polygon fill="#ffffb3" stroke="black" points="403.83,-84.8 294.17,-84.8 294.17,-48.8 403.83,-48.8 403.83,-84.8"/>
<text text-anchor="middle" x="349" y="-62.6" font-family="Times,serif" font-size="14.00">AuthComponent</text>
</g>
<!-- AuthComponent&#45;&gt;AuthModule -->
<g id="edge6" class="edge">
<title>AuthComponent&#45;&gt;AuthModule</title>
<path fill="none" stroke="black" d="M314.05,-84.81C314.05,-84.81 314.05,-114.65 314.05,-114.65"/>
<polygon fill="black" stroke="black" points="310.55,-114.65 314.05,-124.65 317.55,-114.65 310.55,-114.65"/>
</g>
<!-- AuthService -->
<g id="node8" class="node">
<title>AuthService</title>
<ellipse fill="#fdb462" stroke="black" cx="211" cy="-66.8" rx="59.11" ry="18"/>
<text text-anchor="middle" x="211" y="-62.6" font-family="Times,serif" font-size="14.00">AuthService</text>
</g>
<!-- AuthService&#45;&gt;AuthModule -->
<g id="edge7" class="edge">
<title>AuthService&#45;&gt;AuthModule</title>
<path fill="none" stroke="black" d="M258.27,-77.69C258.27,-77.69 258.27,-114.59 258.27,-114.59"/>
<polygon fill="black" stroke="black" points="254.77,-114.59 258.27,-124.59 261.77,-114.59 254.77,-114.59"/>
</g>
</g>
</svg>
