<?xml version="1.0" encoding="UTF-8" standalone="no"?>
<!DOCTYPE svg PUBLIC "-//W3C//DTD SVG 1.1//EN"
 "http://www.w3.org/Graphics/SVG/1.1/DTD/svg11.dtd">
<!-- Generated by graphviz version 2.47.3 (20210619.1520)
 -->
<!-- Title: dependencies Pages: 1 -->
<svg width="308pt" height="174pt"
 viewBox="0.00 0.00 308.00 173.80" xmlns="http://www.w3.org/2000/svg" xmlns:xlink="http://www.w3.org/1999/xlink">
<g id="graph0" class="graph" transform="scale(1 1) rotate(0) translate(4 169.8)">
<title>dependencies</title>
<polygon fill="white" stroke="transparent" points="-4,4 -4,-169.8 304,-169.8 304,4 -4,4"/>
<text text-anchor="middle" x="150" y="-8.2" font-family="sans-serif" font-size="14.00">dependencies</text>
<g id="clust1" class="cluster">
<title>cluster_ProgressModule</title>
<polygon fill="none" stroke="black" stroke-dasharray="1,5" points="8,-32.8 8,-157.8 292,-157.8 292,-32.8 8,-32.8"/>
</g>
<g id="clust2" class="cluster">
<title>cluster_ProgressModule_declarations</title>
<polygon fill="none" stroke="black" points="138,-40.8 138,-92.8 284,-92.8 284,-40.8 138,-40.8"/>
</g>
<g id="clust4" class="cluster">
<title>cluster_ProgressModule_imports</title>
<polygon fill="none" stroke="black" points="16,-40.8 16,-92.8 130,-92.8 130,-40.8 16,-40.8"/>
</g>
<!-- ProgressComponent -->
<g id="node1" class="node">
<title>ProgressComponent</title>
<polygon fill="#ffffb3" stroke="black" points="275.54,-84.8 146.46,-84.8 146.46,-48.8 275.54,-48.8 275.54,-84.8"/>
<text text-anchor="middle" x="211" y="-62.6" font-family="Times,serif" font-size="14.00">ProgressComponent</text>
</g>
<!-- ProgressModule -->
<g id="node2" class="node">
<title>ProgressModule</title>
<polygon fill="#8dd3c7" stroke="black" points="195.76,-149.8 192.76,-153.8 171.76,-153.8 168.76,-149.8 88.24,-149.8 88.24,-113.8 195.76,-113.8 195.76,-149.8"/>
<text text-anchor="middle" x="142" y="-127.6" font-family="Times,serif" font-size="14.00">ProgressModule</text>
</g>
<!-- ProgressComponent&#45;&gt;ProgressModule -->
<g id="edge1" class="edge">
<title>ProgressComponent&#45;&gt;ProgressModule</title>
<path fill="none" stroke="black" d="M171.05,-84.91C171.05,-84.91 171.05,-103.79 171.05,-103.79"/>
<polygon fill="black" stroke="black" points="167.55,-103.79 171.05,-113.79 174.55,-103.79 167.55,-103.79"/>
</g>
<!-- SharedModule -->
<g id="node3" class="node">
<title>SharedModule</title>
<polygon fill="#8dd3c7" stroke="black" points="122.42,-84.8 119.42,-88.8 98.42,-88.8 95.42,-84.8 23.58,-84.8 23.58,-48.8 122.42,-48.8 122.42,-84.8"/>
<text text-anchor="middle" x="73" y="-62.6" font-family="Times,serif" font-size="14.00">SharedModule</text>
</g>
<!-- SharedModule&#45;&gt;ProgressModule -->
<g id="edge2" class="edge">
<title>SharedModule&#45;&gt;ProgressModule</title>
<path fill="none" stroke="black" d="M105.17,-84.91C105.17,-84.91 105.17,-103.79 105.17,-103.79"/>
<polygon fill="black" stroke="black" points="101.67,-103.79 105.17,-113.79 108.67,-103.79 101.67,-103.79"/>
</g>
</g>
</svg>
