<?xml version="1.0" encoding="UTF-8" standalone="no"?>
<!DOCTYPE svg PUBLIC "-//W3C//DTD SVG 1.1//EN"
 "http://www.w3.org/Graphics/SVG/1.1/DTD/svg11.dtd">
<!-- Generated by graphviz version 2.47.3 (20210619.1520)
 -->
<!-- Title: dependencies Pages: 1 -->
<svg width="479pt" height="174pt"
 viewBox="0.00 0.00 479.00 173.80" xmlns="http://www.w3.org/2000/svg" xmlns:xlink="http://www.w3.org/1999/xlink">
<g id="graph0" class="graph" transform="scale(1 1) rotate(0) translate(4 169.8)">
<title>dependencies</title>
<polygon fill="white" stroke="transparent" points="-4,4 -4,-169.8 475,-169.8 475,4 -4,4"/>
<text text-anchor="middle" x="235.5" y="-8.2" font-family="sans-serif" font-size="14.00">dependencies</text>
<g id="clust1" class="cluster">
<title>cluster_ProgressModule</title>
<polygon fill="none" stroke="black" stroke-dasharray="1,5" points="8,-32.8 8,-157.8 463,-157.8 463,-32.8 8,-32.8"/>
</g>
<g id="clust4" class="cluster">
<title>cluster_ProgressModule_imports</title>
<polygon fill="none" stroke="black" points="170,-40.8 170,-92.8 455,-92.8 455,-40.8 170,-40.8"/>
</g>
<g id="clust2" class="cluster">
<title>cluster_ProgressModule_declarations</title>
<polygon fill="none" stroke="black" points="16,-40.8 16,-92.8 162,-92.8 162,-40.8 16,-40.8"/>
</g>
<!-- ProgressComponent -->
<g id="node1" class="node">
<title>ProgressComponent</title>
<polygon fill="#ffffb3" stroke="black" points="153.54,-84.8 24.46,-84.8 24.46,-48.8 153.54,-48.8 153.54,-84.8"/>
<text text-anchor="middle" x="89" y="-62.6" font-family="Times,serif" font-size="14.00">ProgressComponent</text>
</g>
<!-- ProgressModule -->
<g id="node2" class="node">
<title>ProgressModule</title>
<polygon fill="#8dd3c7" stroke="black" points="280.76,-149.8 277.76,-153.8 256.76,-153.8 253.76,-149.8 173.24,-149.8 173.24,-113.8 280.76,-113.8 280.76,-149.8"/>
<text text-anchor="middle" x="227" y="-127.6" font-family="Times,serif" font-size="14.00">ProgressModule</text>
</g>
<!-- ProgressComponent&#45;&gt;ProgressModule -->
<g id="edge1" class="edge">
<title>ProgressComponent&#45;&gt;ProgressModule</title>
<path fill="none" stroke="black" d="M89,-84.91C89,-104.14 89,-131.8 89,-131.8 89,-131.8 162.85,-131.8 162.85,-131.8"/>
<polygon fill="black" stroke="black" points="162.85,-135.3 172.85,-131.8 162.85,-128.3 162.85,-135.3"/>
</g>
<!-- ProgressRoutingModule -->
<g id="node3" class="node">
<title>ProgressRoutingModule</title>
<polygon fill="#8dd3c7" stroke="black" points="447.38,-84.8 444.38,-88.8 423.38,-88.8 420.38,-84.8 294.62,-84.8 294.62,-48.8 447.38,-48.8 447.38,-84.8"/>
<text text-anchor="middle" x="371" y="-62.6" font-family="Times,serif" font-size="14.00">ProgressRoutingModule</text>
</g>
<!-- ProgressRoutingModule&#45;&gt;ProgressModule -->
<g id="edge2" class="edge">
<title>ProgressRoutingModule&#45;&gt;ProgressModule</title>
<path fill="none" stroke="black" d="M371,-84.91C371,-104.14 371,-131.8 371,-131.8 371,-131.8 291.03,-131.8 291.03,-131.8"/>
<polygon fill="black" stroke="black" points="291.03,-128.3 281.03,-131.8 291.03,-135.3 291.03,-128.3"/>
</g>
<!-- SharedModule -->
<g id="node4" class="node">
<title>SharedModule</title>
<polygon fill="#8dd3c7" stroke="black" points="276.42,-84.8 273.42,-88.8 252.42,-88.8 249.42,-84.8 177.58,-84.8 177.58,-48.8 276.42,-48.8 276.42,-84.8"/>
<text text-anchor="middle" x="227" y="-62.6" font-family="Times,serif" font-size="14.00">SharedModule</text>
</g>
<!-- SharedModule&#45;&gt;ProgressModule -->
<g id="edge3" class="edge">
<title>SharedModule&#45;&gt;ProgressModule</title>
<path fill="none" stroke="black" d="M227,-84.91C227,-84.91 227,-103.79 227,-103.79"/>
<polygon fill="black" stroke="black" points="223.5,-103.79 227,-113.79 230.5,-103.79 223.5,-103.79"/>
</g>
</g>
</svg>
