<?xml version="1.0" encoding="UTF-8" standalone="no"?>
<!DOCTYPE svg PUBLIC "-//W3C//DTD SVG 1.1//EN"
 "http://www.w3.org/Graphics/SVG/1.1/DTD/svg11.dtd">
<!-- Generated by graphviz version 2.47.3 (20210619.1520)
 -->
<!-- Title: dependencies Pages: 1 -->
<svg width="899pt" height="174pt"
 viewBox="0.00 0.00 899.00 173.80" xmlns="http://www.w3.org/2000/svg" xmlns:xlink="http://www.w3.org/1999/xlink">
<g id="graph0" class="graph" transform="scale(1 1) rotate(0) translate(4 169.8)">
<title>dependencies</title>
<polygon fill="white" stroke="transparent" points="-4,4 -4,-169.8 895,-169.8 895,4 -4,4"/>
<text text-anchor="middle" x="445.5" y="-8.2" font-family="sans-serif" font-size="14.00">dependencies</text>
<g id="clust1" class="cluster">
<title>cluster_UsersModule</title>
<polygon fill="none" stroke="black" stroke-dasharray="1,5" points="8,-32.8 8,-157.8 883,-157.8 883,-32.8 8,-32.8"/>
</g>
<g id="clust7" class="cluster">
<title>cluster_UsersModule_imports</title>
<polygon fill="none" stroke="black" points="607,-40.8 607,-92.8 875,-92.8 875,-40.8 607,-40.8"/>
</g>
<g id="clust2" class="cluster">
<title>cluster_UsersModule_declarations</title>
<polygon fill="none" stroke="black" points="16,-40.8 16,-92.8 599,-92.8 599,-40.8 16,-40.8"/>
</g>
<!-- AddUserComponent -->
<g id="node1" class="node">
<title>AddUserComponent</title>
<polygon fill="#ffffb3" stroke="black" points="590.87,-84.8 459.13,-84.8 459.13,-48.8 590.87,-48.8 590.87,-84.8"/>
<text text-anchor="middle" x="525" y="-62.6" font-family="Times,serif" font-size="14.00">AddUserComponent</text>
</g>
<!-- UsersModule -->
<g id="node5" class="node">
<title>UsersModule</title>
<polygon fill="#8dd3c7" stroke="black" points="491.92,-149.8 488.92,-153.8 467.92,-153.8 464.92,-149.8 400.08,-149.8 400.08,-113.8 491.92,-113.8 491.92,-149.8"/>
<text text-anchor="middle" x="446" y="-127.6" font-family="Times,serif" font-size="14.00">UsersModule</text>
</g>
<!-- AddUserComponent&#45;&gt;UsersModule -->
<g id="edge1" class="edge">
<title>AddUserComponent&#45;&gt;UsersModule</title>
<path fill="none" stroke="black" d="M475.39,-84.91C475.39,-84.91 475.39,-103.79 475.39,-103.79"/>
<polygon fill="black" stroke="black" points="471.89,-103.79 475.39,-113.79 478.89,-103.79 471.89,-103.79"/>
</g>
<!-- ChangePassComponent -->
<g id="node2" class="node">
<title>ChangePassComponent</title>
<polygon fill="#ffffb3" stroke="black" points="441.48,-84.8 292.52,-84.8 292.52,-48.8 441.48,-48.8 441.48,-84.8"/>
<text text-anchor="middle" x="367" y="-62.6" font-family="Times,serif" font-size="14.00">ChangePassComponent</text>
</g>
<!-- ChangePassComponent&#45;&gt;UsersModule -->
<g id="edge2" class="edge">
<title>ChangePassComponent&#45;&gt;UsersModule</title>
<path fill="none" stroke="black" d="M420.89,-84.91C420.89,-84.91 420.89,-103.79 420.89,-103.79"/>
<polygon fill="black" stroke="black" points="417.39,-103.79 420.89,-113.79 424.39,-103.79 417.39,-103.79"/>
</g>
<!-- ProfileComponent -->
<g id="node3" class="node">
<title>ProfileComponent</title>
<polygon fill="#ffffb3" stroke="black" points="274.93,-84.8 155.07,-84.8 155.07,-48.8 274.93,-48.8 274.93,-84.8"/>
<text text-anchor="middle" x="215" y="-62.6" font-family="Times,serif" font-size="14.00">ProfileComponent</text>
</g>
<!-- ProfileComponent&#45;&gt;UsersModule -->
<g id="edge3" class="edge">
<title>ProfileComponent&#45;&gt;UsersModule</title>
<path fill="none" stroke="black" d="M215,-84.82C215,-102.17 215,-125.8 215,-125.8 215,-125.8 390.09,-125.8 390.09,-125.8"/>
<polygon fill="black" stroke="black" points="390.09,-129.3 400.09,-125.8 390.09,-122.3 390.09,-129.3"/>
</g>
<!-- UsersComponent -->
<g id="node4" class="node">
<title>UsersComponent</title>
<polygon fill="#ffffb3" stroke="black" points="137.7,-84.8 24.3,-84.8 24.3,-48.8 137.7,-48.8 137.7,-84.8"/>
<text text-anchor="middle" x="81" y="-62.6" font-family="Times,serif" font-size="14.00">UsersComponent</text>
</g>
<!-- UsersComponent&#45;&gt;UsersModule -->
<g id="edge4" class="edge">
<title>UsersComponent&#45;&gt;UsersModule</title>
<path fill="none" stroke="black" d="M81,-85.08C81,-106.12 81,-137.8 81,-137.8 81,-137.8 390.14,-137.8 390.14,-137.8"/>
<polygon fill="black" stroke="black" points="390.14,-141.3 400.14,-137.8 390.14,-134.3 390.14,-141.3"/>
</g>
<!-- SharedModule -->
<g id="node6" class="node">
<title>SharedModule</title>
<polygon fill="#8dd3c7" stroke="black" points="867.42,-84.8 864.42,-88.8 843.42,-88.8 840.42,-84.8 768.58,-84.8 768.58,-48.8 867.42,-48.8 867.42,-84.8"/>
<text text-anchor="middle" x="818" y="-62.6" font-family="Times,serif" font-size="14.00">SharedModule</text>
</g>
<!-- SharedModule&#45;&gt;UsersModule -->
<g id="edge5" class="edge">
<title>SharedModule&#45;&gt;UsersModule</title>
<path fill="none" stroke="black" d="M818,-85.08C818,-106.12 818,-137.8 818,-137.8 818,-137.8 501.99,-137.8 501.99,-137.8"/>
<polygon fill="black" stroke="black" points="501.99,-134.3 491.99,-137.8 501.99,-141.3 501.99,-134.3"/>
</g>
<!-- UsersRoutingModule -->
<g id="node7" class="node">
<title>UsersRoutingModule</title>
<polygon fill="#8dd3c7" stroke="black" points="751.04,-84.8 748.04,-88.8 727.04,-88.8 724.04,-84.8 614.96,-84.8 614.96,-48.8 751.04,-48.8 751.04,-84.8"/>
<text text-anchor="middle" x="683" y="-62.6" font-family="Times,serif" font-size="14.00">UsersRoutingModule</text>
</g>
<!-- UsersRoutingModule&#45;&gt;UsersModule -->
<g id="edge6" class="edge">
<title>UsersRoutingModule&#45;&gt;UsersModule</title>
<path fill="none" stroke="black" d="M683,-84.82C683,-102.17 683,-125.8 683,-125.8 683,-125.8 501.98,-125.8 501.98,-125.8"/>
<polygon fill="black" stroke="black" points="501.98,-122.3 491.98,-125.8 501.98,-129.3 501.98,-122.3"/>
</g>
</g>
</svg>
