<?xml version="1.0" encoding="UTF-8" standalone="no"?>
<!DOCTYPE svg PUBLIC "-//W3C//DTD SVG 1.1//EN"
 "http://www.w3.org/Graphics/SVG/1.1/DTD/svg11.dtd">
<!-- Generated by graphviz version 2.47.3 (20210619.1520)
 -->
<!-- Title: dependencies Pages: 1 -->
<svg width="583pt" height="174pt"
 viewBox="0.00 0.00 583.00 173.80" xmlns="http://www.w3.org/2000/svg" xmlns:xlink="http://www.w3.org/1999/xlink">
<g id="graph0" class="graph" transform="scale(1 1) rotate(0) translate(4 169.8)">
<title>dependencies</title>
<polygon fill="white" stroke="transparent" points="-4,4 -4,-169.8 579,-169.8 579,4 -4,4"/>
<text text-anchor="middle" x="287.5" y="-8.2" font-family="sans-serif" font-size="14.00">dependencies</text>
<g id="clust1" class="cluster">
<title>cluster_UsersModule</title>
<polygon fill="none" stroke="black" stroke-dasharray="1,5" points="8,-32.8 8,-157.8 567,-157.8 567,-32.8 8,-32.8"/>
</g>
<g id="clust2" class="cluster">
<title>cluster_UsersModule_declarations</title>
<polygon fill="none" stroke="black" points="292,-40.8 292,-92.8 559,-92.8 559,-40.8 292,-40.8"/>
</g>
<g id="clust5" class="cluster">
<title>cluster_UsersModule_imports</title>
<polygon fill="none" stroke="black" points="16,-40.8 16,-92.8 284,-92.8 284,-40.8 16,-40.8"/>
</g>
<!-- ProfileComponent -->
<g id="node1" class="node">
<title>ProfileComponent</title>
<polygon fill="#ffffb3" stroke="black" points="550.93,-84.8 431.07,-84.8 431.07,-48.8 550.93,-48.8 550.93,-84.8"/>
<text text-anchor="middle" x="491" y="-62.6" font-family="Times,serif" font-size="14.00">ProfileComponent</text>
</g>
<!-- UsersModule -->
<g id="node3" class="node">
<title>UsersModule</title>
<polygon fill="#8dd3c7" stroke="black" points="337.92,-149.8 334.92,-153.8 313.92,-153.8 310.92,-149.8 246.08,-149.8 246.08,-113.8 337.92,-113.8 337.92,-149.8"/>
<text text-anchor="middle" x="292" y="-127.6" font-family="Times,serif" font-size="14.00">UsersModule</text>
</g>
<!-- ProfileComponent&#45;&gt;UsersModule -->
<g id="edge1" class="edge">
<title>ProfileComponent&#45;&gt;UsersModule</title>
<path fill="none" stroke="black" d="M491,-84.91C491,-104.14 491,-131.8 491,-131.8 491,-131.8 348.15,-131.8 348.15,-131.8"/>
<polygon fill="black" stroke="black" points="348.15,-128.3 338.15,-131.8 348.15,-135.3 348.15,-128.3"/>
</g>
<!-- UsersComponent -->
<g id="node2" class="node">
<title>UsersComponent</title>
<polygon fill="#ffffb3" stroke="black" points="413.7,-84.8 300.3,-84.8 300.3,-48.8 413.7,-48.8 413.7,-84.8"/>
<text text-anchor="middle" x="357" y="-62.6" font-family="Times,serif" font-size="14.00">UsersComponent</text>
</g>
<!-- UsersComponent&#45;&gt;UsersModule -->
<g id="edge2" class="edge">
<title>UsersComponent&#45;&gt;UsersModule</title>
<path fill="none" stroke="black" d="M319.05,-84.91C319.05,-84.91 319.05,-103.79 319.05,-103.79"/>
<polygon fill="black" stroke="black" points="315.55,-103.79 319.05,-113.79 322.55,-103.79 315.55,-103.79"/>
</g>
<!-- SharedModule -->
<g id="node4" class="node">
<title>SharedModule</title>
<polygon fill="#8dd3c7" stroke="black" points="276.42,-84.8 273.42,-88.8 252.42,-88.8 249.42,-84.8 177.58,-84.8 177.58,-48.8 276.42,-48.8 276.42,-84.8"/>
<text text-anchor="middle" x="227" y="-62.6" font-family="Times,serif" font-size="14.00">SharedModule</text>
</g>
<!-- SharedModule&#45;&gt;UsersModule -->
<g id="edge3" class="edge">
<title>SharedModule&#45;&gt;UsersModule</title>
<path fill="none" stroke="black" d="M261.25,-84.91C261.25,-84.91 261.25,-103.79 261.25,-103.79"/>
<polygon fill="black" stroke="black" points="257.75,-103.79 261.25,-113.79 264.75,-103.79 257.75,-103.79"/>
</g>
<!-- UsersRoutingModule -->
<g id="node5" class="node">
<title>UsersRoutingModule</title>
<polygon fill="#8dd3c7" stroke="black" points="160.04,-84.8 157.04,-88.8 136.04,-88.8 133.04,-84.8 23.96,-84.8 23.96,-48.8 160.04,-48.8 160.04,-84.8"/>
<text text-anchor="middle" x="92" y="-62.6" font-family="Times,serif" font-size="14.00">UsersRoutingModule</text>
</g>
<!-- UsersRoutingModule&#45;&gt;UsersModule -->
<g id="edge4" class="edge">
<title>UsersRoutingModule&#45;&gt;UsersModule</title>
<path fill="none" stroke="black" d="M92,-84.91C92,-104.14 92,-131.8 92,-131.8 92,-131.8 236.12,-131.8 236.12,-131.8"/>
<polygon fill="black" stroke="black" points="236.12,-135.3 246.12,-131.8 236.12,-128.3 236.12,-135.3"/>
</g>
</g>
</svg>
