<?xml version="1.0" encoding="UTF-8" standalone="no"?>
<!DOCTYPE svg PUBLIC "-//W3C//DTD SVG 1.1//EN"
 "http://www.w3.org/Graphics/SVG/1.1/DTD/svg11.dtd">
<!-- Generated by graphviz version 2.47.3 (20210619.1520)
 -->
<!-- Title: dependencies Pages: 1 -->
<svg width="749pt" height="174pt"
 viewBox="0.00 0.00 749.00 173.80" xmlns="http://www.w3.org/2000/svg" xmlns:xlink="http://www.w3.org/1999/xlink">
<g id="graph0" class="graph" transform="scale(1 1) rotate(0) translate(4 169.8)">
<title>dependencies</title>
<polygon fill="white" stroke="transparent" points="-4,4 -4,-169.8 745,-169.8 745,4 -4,4"/>
<text text-anchor="middle" x="370.5" y="-8.2" font-family="sans-serif" font-size="14.00">dependencies</text>
<g id="clust1" class="cluster">
<title>cluster_UsersModule</title>
<polygon fill="none" stroke="black" stroke-dasharray="1,5" points="8,-32.8 8,-157.8 733,-157.8 733,-32.8 8,-32.8"/>
</g>
<g id="clust6" class="cluster">
<title>cluster_UsersModule_imports</title>
<polygon fill="none" stroke="black" points="457,-40.8 457,-92.8 725,-92.8 725,-40.8 457,-40.8"/>
</g>
<g id="clust2" class="cluster">
<title>cluster_UsersModule_declarations</title>
<polygon fill="none" stroke="black" points="16,-40.8 16,-92.8 449,-92.8 449,-40.8 16,-40.8"/>
</g>
<!-- ChangePassComponent -->
<g id="node1" class="node">
<title>ChangePassComponent</title>
<polygon fill="#ffffb3" stroke="black" points="441.48,-84.8 292.52,-84.8 292.52,-48.8 441.48,-48.8 441.48,-84.8"/>
<text text-anchor="middle" x="367" y="-62.6" font-family="Times,serif" font-size="14.00">ChangePassComponent</text>
</g>
<!-- UsersModule -->
<g id="node4" class="node">
<title>UsersModule</title>
<polygon fill="#8dd3c7" stroke="black" points="412.92,-149.8 409.92,-153.8 388.92,-153.8 385.92,-149.8 321.08,-149.8 321.08,-113.8 412.92,-113.8 412.92,-149.8"/>
<text text-anchor="middle" x="367" y="-127.6" font-family="Times,serif" font-size="14.00">UsersModule</text>
</g>
<!-- ChangePassComponent&#45;&gt;UsersModule -->
<g id="edge1" class="edge">
<title>ChangePassComponent&#45;&gt;UsersModule</title>
<path fill="none" stroke="black" d="M367,-84.91C367,-84.91 367,-103.79 367,-103.79"/>
<polygon fill="black" stroke="black" points="363.5,-103.79 367,-113.79 370.5,-103.79 363.5,-103.79"/>
</g>
<!-- ProfileComponent -->
<g id="node2" class="node">
<title>ProfileComponent</title>
<polygon fill="#ffffb3" stroke="black" points="274.93,-84.8 155.07,-84.8 155.07,-48.8 274.93,-48.8 274.93,-84.8"/>
<text text-anchor="middle" x="215" y="-62.6" font-family="Times,serif" font-size="14.00">ProfileComponent</text>
</g>
<!-- ProfileComponent&#45;&gt;UsersModule -->
<g id="edge2" class="edge">
<title>ProfileComponent&#45;&gt;UsersModule</title>
<path fill="none" stroke="black" d="M215,-84.82C215,-102.17 215,-125.8 215,-125.8 215,-125.8 310.98,-125.8 310.98,-125.8"/>
<polygon fill="black" stroke="black" points="310.98,-129.3 320.98,-125.8 310.98,-122.3 310.98,-129.3"/>
</g>
<!-- UsersComponent -->
<g id="node3" class="node">
<title>UsersComponent</title>
<polygon fill="#ffffb3" stroke="black" points="137.7,-84.8 24.3,-84.8 24.3,-48.8 137.7,-48.8 137.7,-84.8"/>
<text text-anchor="middle" x="81" y="-62.6" font-family="Times,serif" font-size="14.00">UsersComponent</text>
</g>
<!-- UsersComponent&#45;&gt;UsersModule -->
<g id="edge3" class="edge">
<title>UsersComponent&#45;&gt;UsersModule</title>
<path fill="none" stroke="black" d="M81,-85.08C81,-106.12 81,-137.8 81,-137.8 81,-137.8 311.05,-137.8 311.05,-137.8"/>
<polygon fill="black" stroke="black" points="311.05,-141.3 321.05,-137.8 311.05,-134.3 311.05,-141.3"/>
</g>
<!-- SharedModule -->
<g id="node5" class="node">
<title>SharedModule</title>
<polygon fill="#8dd3c7" stroke="black" points="717.42,-84.8 714.42,-88.8 693.42,-88.8 690.42,-84.8 618.58,-84.8 618.58,-48.8 717.42,-48.8 717.42,-84.8"/>
<text text-anchor="middle" x="668" y="-62.6" font-family="Times,serif" font-size="14.00">SharedModule</text>
</g>
<!-- SharedModule&#45;&gt;UsersModule -->
<g id="edge4" class="edge">
<title>SharedModule&#45;&gt;UsersModule</title>
<path fill="none" stroke="black" d="M668,-85.08C668,-106.12 668,-137.8 668,-137.8 668,-137.8 422.72,-137.8 422.72,-137.8"/>
<polygon fill="black" stroke="black" points="422.72,-134.3 412.72,-137.8 422.72,-141.3 422.72,-134.3"/>
</g>
<!-- UsersRoutingModule -->
<g id="node6" class="node">
<title>UsersRoutingModule</title>
<polygon fill="#8dd3c7" stroke="black" points="601.04,-84.8 598.04,-88.8 577.04,-88.8 574.04,-84.8 464.96,-84.8 464.96,-48.8 601.04,-48.8 601.04,-84.8"/>
<text text-anchor="middle" x="533" y="-62.6" font-family="Times,serif" font-size="14.00">UsersRoutingModule</text>
</g>
<!-- UsersRoutingModule&#45;&gt;UsersModule -->
<g id="edge5" class="edge">
<title>UsersRoutingModule&#45;&gt;UsersModule</title>
<path fill="none" stroke="black" d="M533,-84.82C533,-102.17 533,-125.8 533,-125.8 533,-125.8 422.8,-125.8 422.8,-125.8"/>
<polygon fill="black" stroke="black" points="422.8,-122.3 412.8,-125.8 422.8,-129.3 422.8,-122.3"/>
</g>
</g>
</svg>
