<?xml version="1.0" encoding="UTF-8" standalone="no"?>
<!DOCTYPE svg PUBLIC "-//W3C//DTD SVG 1.1//EN"
 "http://www.w3.org/Graphics/SVG/1.1/DTD/svg11.dtd">
<!-- Generated by graphviz version 2.47.3 (20210619.1520)
 -->
<!-- Title: dependencies Pages: 1 -->
<svg width="961pt" height="247pt"
 viewBox="0.00 0.00 961.00 246.80" xmlns="http://www.w3.org/2000/svg" xmlns:xlink="http://www.w3.org/1999/xlink">
<g id="graph0" class="graph" transform="scale(1 1) rotate(0) translate(4 242.8)">
<title>dependencies</title>
<polygon fill="white" stroke="transparent" points="-4,4 -4,-242.8 957,-242.8 957,4 -4,4"/>
<text text-anchor="middle" x="476.5" y="-8.2" font-family="sans-serif" font-size="14.00">dependencies</text>
<g id="clust1" class="cluster">
<title>cluster_AppModule</title>
<polygon fill="none" stroke="black" stroke-dasharray="1,5" points="8,-32.8 8,-230.8 945,-230.8 945,-32.8 8,-32.8"/>
</g>
<g id="clust2" class="cluster">
<title>cluster_AppModule_declarations</title>
<polygon fill="none" stroke="black" points="815,-40.8 815,-92.8 937,-92.8 937,-40.8 815,-40.8"/>
</g>
<g id="clust4" class="cluster">
<title>cluster_AppModule_imports</title>
<polygon fill="none" stroke="black" points="448,-40.8 448,-92.8 807,-92.8 807,-40.8 448,-40.8"/>
</g>
<g id="clust7" class="cluster">
<title>cluster_AppModule_providers</title>
<polygon fill="none" stroke="black" points="16,-40.8 16,-92.8 440,-92.8 440,-40.8 16,-40.8"/>
</g>
<g id="clust6" class="cluster">
<title>cluster_AppModule_bootstrap</title>
<polygon fill="none" stroke="black" points="443,-170.8 443,-222.8 567,-222.8 567,-170.8 443,-170.8"/>
</g>
<!-- AppComponent -->
<g id="node1" class="node">
<title>AppComponent</title>
<polygon fill="#ffffb3" stroke="black" points="928.94,-84.8 823.06,-84.8 823.06,-48.8 928.94,-48.8 928.94,-84.8"/>
<text text-anchor="middle" x="876" y="-62.6" font-family="Times,serif" font-size="14.00">AppComponent</text>
</g>
<!-- AppModule -->
<g id="node2" class="node">
<title>AppModule</title>
<polygon fill="#8dd3c7" stroke="black" points="546.66,-149.8 543.66,-153.8 522.66,-153.8 519.66,-149.8 463.34,-149.8 463.34,-113.8 546.66,-113.8 546.66,-149.8"/>
<text text-anchor="middle" x="505" y="-127.6" font-family="Times,serif" font-size="14.00">AppModule</text>
</g>
<!-- AppComponent&#45;&gt;AppModule -->
<g id="edge1" class="edge">
<title>AppComponent&#45;&gt;AppModule</title>
<path fill="none" stroke="black" d="M876,-85.09C876,-107.01 876,-140.8 876,-140.8 876,-140.8 556.84,-140.8 556.84,-140.8"/>
<polygon fill="black" stroke="black" points="556.84,-137.3 546.84,-140.8 556.84,-144.3 556.84,-137.3"/>
</g>
<!-- AppComponent  -->
<g id="node6" class="node">
<title>AppComponent </title>
<polygon fill="#80b1d3" stroke="black" points="559.44,-214.8 450.56,-214.8 450.56,-178.8 559.44,-178.8 559.44,-214.8"/>
<text text-anchor="middle" x="505" y="-192.6" font-family="Times,serif" font-size="14.00">AppComponent </text>
</g>
<!-- AppModule&#45;&gt;AppComponent  -->
<g id="edge5" class="edge">
<title>AppModule&#45;&gt;AppComponent </title>
<path fill="none" stroke="black" stroke-dasharray="1,5" d="M505,-149.91C505,-149.91 505,-168.79 505,-168.79"/>
<polygon fill="black" stroke="black" points="501.5,-168.79 505,-178.79 508.5,-168.79 501.5,-168.79"/>
</g>
<!-- AppRoutingModule -->
<g id="node3" class="node">
<title>AppRoutingModule</title>
<polygon fill="#8dd3c7" stroke="black" points="799.27,-84.8 796.27,-88.8 775.27,-88.8 772.27,-84.8 670.73,-84.8 670.73,-48.8 799.27,-48.8 799.27,-84.8"/>
<text text-anchor="middle" x="735" y="-62.6" font-family="Times,serif" font-size="14.00">AppRoutingModule</text>
</g>
<!-- AppRoutingModule&#45;&gt;AppModule -->
<g id="edge2" class="edge">
<title>AppRoutingModule&#45;&gt;AppModule</title>
<path fill="none" stroke="black" d="M735,-84.91C735,-104.14 735,-131.8 735,-131.8 735,-131.8 556.92,-131.8 556.92,-131.8"/>
<polygon fill="black" stroke="black" points="556.92,-128.3 546.92,-131.8 556.92,-135.3 556.92,-128.3"/>
</g>
<!-- GqlModule -->
<g id="node4" class="node">
<title>GqlModule</title>
<polygon fill="#8dd3c7" stroke="black" points="652.05,-84.8 649.05,-88.8 628.05,-88.8 625.05,-84.8 571.95,-84.8 571.95,-48.8 652.05,-48.8 652.05,-84.8"/>
<text text-anchor="middle" x="612" y="-62.6" font-family="Times,serif" font-size="14.00">GqlModule</text>
</g>
<!-- GqlModule&#45;&gt;AppModule -->
<g id="edge3" class="edge">
<title>GqlModule&#45;&gt;AppModule</title>
<path fill="none" stroke="black" d="M612,-84.83C612,-101.2 612,-122.8 612,-122.8 612,-122.8 556.68,-122.8 556.68,-122.8"/>
<polygon fill="black" stroke="black" points="556.68,-119.3 546.68,-122.8 556.68,-126.3 556.68,-119.3"/>
</g>
<!-- SharedModule -->
<g id="node5" class="node">
<title>SharedModule</title>
<polygon fill="#8dd3c7" stroke="black" points="554.42,-84.8 551.42,-88.8 530.42,-88.8 527.42,-84.8 455.58,-84.8 455.58,-48.8 554.42,-48.8 554.42,-84.8"/>
<text text-anchor="middle" x="505" y="-62.6" font-family="Times,serif" font-size="14.00">SharedModule</text>
</g>
<!-- SharedModule&#45;&gt;AppModule -->
<g id="edge4" class="edge">
<title>SharedModule&#45;&gt;AppModule</title>
<path fill="none" stroke="black" d="M505,-84.91C505,-84.91 505,-103.79 505,-103.79"/>
<polygon fill="black" stroke="black" points="501.5,-103.79 505,-113.79 508.5,-103.79 501.5,-103.79"/>
</g>
<!-- AuthService -->
<g id="node7" class="node">
<title>AuthService</title>
<ellipse fill="#fdb462" stroke="black" cx="373" cy="-66.8" rx="59.11" ry="18"/>
<text text-anchor="middle" x="373" y="-62.6" font-family="Times,serif" font-size="14.00">AuthService</text>
</g>
<!-- AuthService&#45;&gt;AppModule -->
<g id="edge6" class="edge">
<title>AuthService&#45;&gt;AppModule</title>
<path fill="none" stroke="black" d="M373,-84.83C373,-101.2 373,-122.8 373,-122.8 373,-122.8 453.23,-122.8 453.23,-122.8"/>
<polygon fill="black" stroke="black" points="453.23,-126.3 463.23,-122.8 453.23,-119.3 453.23,-126.3"/>
</g>
<!-- TeamsService -->
<g id="node8" class="node">
<title>TeamsService</title>
<ellipse fill="#fdb462" stroke="black" cx="230" cy="-66.8" rx="65.97" ry="18"/>
<text text-anchor="middle" x="230" y="-62.6" font-family="Times,serif" font-size="14.00">TeamsService</text>
</g>
<!-- TeamsService&#45;&gt;AppModule -->
<g id="edge7" class="edge">
<title>TeamsService&#45;&gt;AppModule</title>
<path fill="none" stroke="black" d="M230,-84.91C230,-104.14 230,-131.8 230,-131.8 230,-131.8 453.23,-131.8 453.23,-131.8"/>
<polygon fill="black" stroke="black" points="453.23,-135.3 463.23,-131.8 453.23,-128.3 453.23,-135.3"/>
</g>
<!-- ToastService -->
<g id="node9" class="node">
<title>ToastService</title>
<ellipse fill="#fdb462" stroke="black" cx="85" cy="-66.8" rx="61.39" ry="18"/>
<text text-anchor="middle" x="85" y="-62.6" font-family="Times,serif" font-size="14.00">ToastService</text>
</g>
<!-- ToastService&#45;&gt;AppModule -->
<g id="edge8" class="edge">
<title>ToastService&#45;&gt;AppModule</title>
<path fill="none" stroke="black" d="M85,-85.09C85,-107.01 85,-140.8 85,-140.8 85,-140.8 453.19,-140.8 453.19,-140.8"/>
<polygon fill="black" stroke="black" points="453.19,-144.3 463.19,-140.8 453.19,-137.3 453.19,-144.3"/>
</g>
</g>
</svg>
