<?xml version="1.0" encoding="UTF-8" standalone="no"?>
<!DOCTYPE svg PUBLIC "-//W3C//DTD SVG 1.1//EN"
 "http://www.w3.org/Graphics/SVG/1.1/DTD/svg11.dtd">
<!-- Generated by graphviz version 2.47.3 (20210619.1520)
 -->
<!-- Title: dependencies Pages: 1 -->
<svg width="812pt" height="247pt"
 viewBox="0.00 0.00 812.00 246.80" xmlns="http://www.w3.org/2000/svg" xmlns:xlink="http://www.w3.org/1999/xlink">
<g id="graph0" class="graph" transform="scale(1 1) rotate(0) translate(4 242.8)">
<title>dependencies</title>
<polygon fill="white" stroke="transparent" points="-4,4 -4,-242.8 808,-242.8 808,4 -4,4"/>
<text text-anchor="middle" x="402" y="-8.2" font-family="sans-serif" font-size="14.00">dependencies</text>
<g id="clust1" class="cluster">
<title>cluster_AppModule</title>
<polygon fill="none" stroke="black" stroke-dasharray="1,5" points="8,-32.8 8,-230.8 796,-230.8 796,-32.8 8,-32.8"/>
</g>
<g id="clust4" class="cluster">
<title>cluster_AppModule_imports</title>
<polygon fill="none" stroke="black" points="429,-40.8 429,-92.8 788,-92.8 788,-40.8 429,-40.8"/>
</g>
<g id="clust7" class="cluster">
<title>cluster_AppModule_providers</title>
<polygon fill="none" stroke="black" points="146,-40.8 146,-92.8 421,-92.8 421,-40.8 146,-40.8"/>
</g>
<g id="clust6" class="cluster">
<title>cluster_AppModule_bootstrap</title>
<polygon fill="none" stroke="black" points="358,-170.8 358,-222.8 482,-222.8 482,-170.8 358,-170.8"/>
</g>
<g id="clust2" class="cluster">
<title>cluster_AppModule_declarations</title>
<polygon fill="none" stroke="black" points="16,-40.8 16,-92.8 138,-92.8 138,-40.8 16,-40.8"/>
</g>
<!-- AppComponent -->
<g id="node1" class="node">
<title>AppComponent</title>
<polygon fill="#ffffb3" stroke="black" points="129.94,-84.8 24.06,-84.8 24.06,-48.8 129.94,-48.8 129.94,-84.8"/>
<text text-anchor="middle" x="77" y="-62.6" font-family="Times,serif" font-size="14.00">AppComponent</text>
</g>
<!-- AppModule -->
<g id="node2" class="node">
<title>AppModule</title>
<polygon fill="#8dd3c7" stroke="black" points="461.66,-149.8 458.66,-153.8 437.66,-153.8 434.66,-149.8 378.34,-149.8 378.34,-113.8 461.66,-113.8 461.66,-149.8"/>
<text text-anchor="middle" x="420" y="-127.6" font-family="Times,serif" font-size="14.00">AppModule</text>
</g>
<!-- AppComponent&#45;&gt;AppModule -->
<g id="edge1" class="edge">
<title>AppComponent&#45;&gt;AppModule</title>
<path fill="none" stroke="black" d="M77,-85.08C77,-106.12 77,-137.8 77,-137.8 77,-137.8 368.28,-137.8 368.28,-137.8"/>
<polygon fill="black" stroke="black" points="368.28,-141.3 378.28,-137.8 368.28,-134.3 368.28,-141.3"/>
</g>
<!-- AppComponent  -->
<g id="node6" class="node">
<title>AppComponent </title>
<polygon fill="#80b1d3" stroke="black" points="474.44,-214.8 365.56,-214.8 365.56,-178.8 474.44,-178.8 474.44,-214.8"/>
<text text-anchor="middle" x="420" y="-192.6" font-family="Times,serif" font-size="14.00">AppComponent </text>
</g>
<!-- AppModule&#45;&gt;AppComponent  -->
<g id="edge5" class="edge">
<title>AppModule&#45;&gt;AppComponent </title>
<path fill="none" stroke="black" stroke-dasharray="1,5" d="M420,-149.91C420,-149.91 420,-168.79 420,-168.79"/>
<polygon fill="black" stroke="black" points="416.5,-168.79 420,-178.79 423.5,-168.79 416.5,-168.79"/>
</g>
<!-- AppRoutingModule -->
<g id="node3" class="node">
<title>AppRoutingModule</title>
<polygon fill="#8dd3c7" stroke="black" points="780.27,-84.8 777.27,-88.8 756.27,-88.8 753.27,-84.8 651.73,-84.8 651.73,-48.8 780.27,-48.8 780.27,-84.8"/>
<text text-anchor="middle" x="716" y="-62.6" font-family="Times,serif" font-size="14.00">AppRoutingModule</text>
</g>
<!-- AppRoutingModule&#45;&gt;AppModule -->
<g id="edge2" class="edge">
<title>AppRoutingModule&#45;&gt;AppModule</title>
<path fill="none" stroke="black" d="M716,-85.08C716,-106.12 716,-137.8 716,-137.8 716,-137.8 471.78,-137.8 471.78,-137.8"/>
<polygon fill="black" stroke="black" points="471.78,-134.3 461.78,-137.8 471.78,-141.3 471.78,-134.3"/>
</g>
<!-- GqlModule -->
<g id="node4" class="node">
<title>GqlModule</title>
<polygon fill="#8dd3c7" stroke="black" points="633.05,-84.8 630.05,-88.8 609.05,-88.8 606.05,-84.8 552.95,-84.8 552.95,-48.8 633.05,-48.8 633.05,-84.8"/>
<text text-anchor="middle" x="593" y="-62.6" font-family="Times,serif" font-size="14.00">GqlModule</text>
</g>
<!-- GqlModule&#45;&gt;AppModule -->
<g id="edge3" class="edge">
<title>GqlModule&#45;&gt;AppModule</title>
<path fill="none" stroke="black" d="M593,-84.82C593,-102.17 593,-125.8 593,-125.8 593,-125.8 471.88,-125.8 471.88,-125.8"/>
<polygon fill="black" stroke="black" points="471.88,-122.3 461.88,-125.8 471.88,-129.3 471.88,-122.3"/>
</g>
<!-- SharedModule -->
<g id="node5" class="node">
<title>SharedModule</title>
<polygon fill="#8dd3c7" stroke="black" points="535.42,-84.8 532.42,-88.8 511.42,-88.8 508.42,-84.8 436.58,-84.8 436.58,-48.8 535.42,-48.8 535.42,-84.8"/>
<text text-anchor="middle" x="486" y="-62.6" font-family="Times,serif" font-size="14.00">SharedModule</text>
</g>
<!-- SharedModule&#45;&gt;AppModule -->
<g id="edge4" class="edge">
<title>SharedModule&#45;&gt;AppModule</title>
<path fill="none" stroke="black" d="M449.31,-84.91C449.31,-84.91 449.31,-103.79 449.31,-103.79"/>
<polygon fill="black" stroke="black" points="445.81,-103.79 449.31,-113.79 452.81,-103.79 445.81,-103.79"/>
</g>
<!-- AuthService -->
<g id="node7" class="node">
<title>AuthService</title>
<ellipse fill="#fdb462" stroke="black" cx="354" cy="-66.8" rx="59.11" ry="18"/>
<text text-anchor="middle" x="354" y="-62.6" font-family="Times,serif" font-size="14.00">AuthService</text>
</g>
<!-- AuthService&#45;&gt;AppModule -->
<g id="edge6" class="edge">
<title>AuthService&#45;&gt;AppModule</title>
<path fill="none" stroke="black" d="M395.74,-79.64C395.74,-79.64 395.74,-103.32 395.74,-103.32"/>
<polygon fill="black" stroke="black" points="392.24,-103.32 395.74,-113.32 399.24,-103.32 392.24,-103.32"/>
</g>
<!-- ToastService -->
<g id="node8" class="node">
<title>ToastService</title>
<ellipse fill="#fdb462" stroke="black" cx="215" cy="-66.8" rx="61.39" ry="18"/>
<text text-anchor="middle" x="215" y="-62.6" font-family="Times,serif" font-size="14.00">ToastService</text>
</g>
<!-- ToastService&#45;&gt;AppModule -->
<g id="edge7" class="edge">
<title>ToastService&#45;&gt;AppModule</title>
<path fill="none" stroke="black" d="M215,-84.82C215,-102.17 215,-125.8 215,-125.8 215,-125.8 368.02,-125.8 368.02,-125.8"/>
<polygon fill="black" stroke="black" points="368.02,-129.3 378.02,-125.8 368.02,-122.3 368.02,-129.3"/>
</g>
</g>
</svg>
