<?xml version="1.0" encoding="UTF-8" standalone="no"?>
<!DOCTYPE svg PUBLIC "-//W3C//DTD SVG 1.1//EN"
 "http://www.w3.org/Graphics/SVG/1.1/DTD/svg11.dtd">
<!-- Generated by graphviz version 2.47.3 (20210619.1520)
 -->
<!-- Title: dependencies Pages: 1 -->
<svg width="390pt" height="247pt"
 viewBox="0.00 0.00 390.00 246.80" xmlns="http://www.w3.org/2000/svg" xmlns:xlink="http://www.w3.org/1999/xlink">
<g id="graph0" class="graph" transform="scale(1 1) rotate(0) translate(4 242.8)">
<title>dependencies</title>
<polygon fill="white" stroke="transparent" points="-4,4 -4,-242.8 386,-242.8 386,4 -4,4"/>
<text text-anchor="middle" x="191" y="-8.2" font-family="sans-serif" font-size="14.00">dependencies</text>
<g id="clust1" class="cluster">
<title>cluster_AppModule</title>
<polygon fill="none" stroke="black" stroke-dasharray="1,5" points="8,-32.8 8,-230.8 374,-230.8 374,-32.8 8,-32.8"/>
</g>
<g id="clust6" class="cluster">
<title>cluster_AppModule_bootstrap</title>
<polygon fill="none" stroke="black" points="122,-170.8 122,-222.8 246,-222.8 246,-170.8 122,-170.8"/>
</g>
<g id="clust2" class="cluster">
<title>cluster_AppModule_declarations</title>
<polygon fill="none" stroke="black" points="244,-40.8 244,-92.8 366,-92.8 366,-40.8 244,-40.8"/>
</g>
<g id="clust4" class="cluster">
<title>cluster_AppModule_imports</title>
<polygon fill="none" stroke="black" points="16,-40.8 16,-92.8 236,-92.8 236,-40.8 16,-40.8"/>
</g>
<!-- AppComponent -->
<g id="node1" class="node">
<title>AppComponent</title>
<polygon fill="#ffffb3" stroke="black" points="357.94,-84.8 252.06,-84.8 252.06,-48.8 357.94,-48.8 357.94,-84.8"/>
<text text-anchor="middle" x="305" y="-62.6" font-family="Times,serif" font-size="14.00">AppComponent</text>
</g>
<!-- AppModule -->
<g id="node2" class="node">
<title>AppModule</title>
<polygon fill="#8dd3c7" stroke="black" points="225.66,-149.8 222.66,-153.8 201.66,-153.8 198.66,-149.8 142.34,-149.8 142.34,-113.8 225.66,-113.8 225.66,-149.8"/>
<text text-anchor="middle" x="184" y="-127.6" font-family="Times,serif" font-size="14.00">AppModule</text>
</g>
<!-- AppComponent&#45;&gt;AppModule -->
<g id="edge1" class="edge">
<title>AppComponent&#45;&gt;AppModule</title>
<path fill="none" stroke="black" d="M305,-84.91C305,-104.14 305,-131.8 305,-131.8 305,-131.8 235.98,-131.8 235.98,-131.8"/>
<polygon fill="black" stroke="black" points="235.98,-128.3 225.98,-131.8 235.98,-135.3 235.98,-128.3"/>
</g>
<!-- AppComponent  -->
<g id="node5" class="node">
<title>AppComponent </title>
<polygon fill="#80b1d3" stroke="black" points="238.44,-214.8 129.56,-214.8 129.56,-178.8 238.44,-178.8 238.44,-214.8"/>
<text text-anchor="middle" x="184" y="-192.6" font-family="Times,serif" font-size="14.00">AppComponent </text>
</g>
<!-- AppModule&#45;&gt;AppComponent  -->
<g id="edge4" class="edge">
<title>AppModule&#45;&gt;AppComponent </title>
<path fill="none" stroke="black" stroke-dasharray="1,5" d="M184,-149.91C184,-149.91 184,-168.79 184,-168.79"/>
<polygon fill="black" stroke="black" points="180.5,-168.79 184,-178.79 187.5,-168.79 180.5,-168.79"/>
</g>
<!-- GQLModule -->
<g id="node3" class="node">
<title>GQLModule</title>
<polygon fill="#8dd3c7" stroke="black" points="228.32,-84.8 225.32,-88.8 204.32,-88.8 201.32,-84.8 139.68,-84.8 139.68,-48.8 228.32,-48.8 228.32,-84.8"/>
<text text-anchor="middle" x="184" y="-62.6" font-family="Times,serif" font-size="14.00">GQLModule</text>
</g>
<!-- GQLModule&#45;&gt;AppModule -->
<g id="edge2" class="edge">
<title>GQLModule&#45;&gt;AppModule</title>
<path fill="none" stroke="black" d="M184,-84.91C184,-84.91 184,-103.79 184,-103.79"/>
<polygon fill="black" stroke="black" points="180.5,-103.79 184,-113.79 187.5,-103.79 180.5,-103.79"/>
</g>
<!-- RoutesModule -->
<g id="node4" class="node">
<title>RoutesModule</title>
<polygon fill="#8dd3c7" stroke="black" points="122.44,-84.8 119.44,-88.8 98.44,-88.8 95.44,-84.8 23.56,-84.8 23.56,-48.8 122.44,-48.8 122.44,-84.8"/>
<text text-anchor="middle" x="73" y="-62.6" font-family="Times,serif" font-size="14.00">RoutesModule</text>
</g>
<!-- RoutesModule&#45;&gt;AppModule -->
<g id="edge3" class="edge">
<title>RoutesModule&#45;&gt;AppModule</title>
<path fill="none" stroke="black" d="M73,-84.91C73,-104.14 73,-131.8 73,-131.8 73,-131.8 132.04,-131.8 132.04,-131.8"/>
<polygon fill="black" stroke="black" points="132.04,-135.3 142.04,-131.8 132.04,-128.3 132.04,-135.3"/>
</g>
</g>
</svg>
