<?xml version="1.0" encoding="UTF-8" standalone="no"?>
<!DOCTYPE svg PUBLIC "-//W3C//DTD SVG 1.1//EN"
 "http://www.w3.org/Graphics/SVG/1.1/DTD/svg11.dtd">
<!-- Generated by graphviz version 2.47.3 (20210619.1520)
 -->
<!-- Title: dependencies Pages: 1 -->
<svg width="1469pt" height="247pt"
 viewBox="0.00 0.00 1469.00 246.80" xmlns="http://www.w3.org/2000/svg" xmlns:xlink="http://www.w3.org/1999/xlink">
<g id="graph0" class="graph" transform="scale(1 1) rotate(0) translate(4 242.8)">
<title>dependencies</title>
<polygon fill="white" stroke="transparent" points="-4,4 -4,-242.8 1465,-242.8 1465,4 -4,4"/>
<text text-anchor="middle" x="730.5" y="-8.2" font-family="sans-serif" font-size="14.00">dependencies</text>
<g id="clust1" class="cluster">
<title>cluster_AppModule</title>
<polygon fill="none" stroke="black" stroke-dasharray="1,5" points="8,-32.8 8,-230.8 1453,-230.8 1453,-32.8 8,-32.8"/>
</g>
<g id="clust4" class="cluster">
<title>cluster_AppModule_imports</title>
<polygon fill="none" stroke="black" points="146,-40.8 146,-92.8 1445,-92.8 1445,-40.8 146,-40.8"/>
</g>
<g id="clust2" class="cluster">
<title>cluster_AppModule_declarations</title>
<polygon fill="none" stroke="black" points="16,-40.8 16,-92.8 138,-92.8 138,-40.8 16,-40.8"/>
</g>
<g id="clust6" class="cluster">
<title>cluster_AppModule_bootstrap</title>
<polygon fill="none" stroke="black" points="659,-170.8 659,-222.8 783,-222.8 783,-170.8 659,-170.8"/>
</g>
<!-- AppComponent -->
<g id="node1" class="node">
<title>AppComponent</title>
<polygon fill="#ffffb3" stroke="black" points="129.94,-84.8 24.06,-84.8 24.06,-48.8 129.94,-48.8 129.94,-84.8"/>
<text text-anchor="middle" x="77" y="-62.6" font-family="Times,serif" font-size="14.00">AppComponent</text>
</g>
<!-- AppModule -->
<g id="node2" class="node">
<title>AppModule</title>
<polygon fill="#8dd3c7" stroke="black" points="762.66,-149.8 759.66,-153.8 738.66,-153.8 735.66,-149.8 679.34,-149.8 679.34,-113.8 762.66,-113.8 762.66,-149.8"/>
<text text-anchor="middle" x="721" y="-127.6" font-family="Times,serif" font-size="14.00">AppModule</text>
</g>
<!-- AppComponent&#45;&gt;AppModule -->
<g id="edge1" class="edge">
<title>AppComponent&#45;&gt;AppModule</title>
<path fill="none" stroke="black" d="M77,-85.05C77,-107.82 77,-143.8 77,-143.8 77,-143.8 669.24,-143.8 669.24,-143.8"/>
<polygon fill="black" stroke="black" points="669.24,-147.3 679.24,-143.8 669.24,-140.3 669.24,-147.3"/>
</g>
<!-- AppComponent  -->
<g id="node14" class="node">
<title>AppComponent </title>
<polygon fill="#80b1d3" stroke="black" points="775.44,-214.8 666.56,-214.8 666.56,-178.8 775.44,-178.8 775.44,-214.8"/>
<text text-anchor="middle" x="721" y="-192.6" font-family="Times,serif" font-size="14.00">AppComponent </text>
</g>
<!-- AppModule&#45;&gt;AppComponent  -->
<g id="edge13" class="edge">
<title>AppModule&#45;&gt;AppComponent </title>
<path fill="none" stroke="black" stroke-dasharray="1,5" d="M721,-149.91C721,-149.91 721,-168.79 721,-168.79"/>
<polygon fill="black" stroke="black" points="717.5,-168.79 721,-178.79 724.5,-168.79 717.5,-168.79"/>
</g>
<!-- AlarmsModule -->
<g id="node3" class="node">
<title>AlarmsModule</title>
<polygon fill="#8dd3c7" stroke="black" points="1437.26,-84.8 1434.26,-88.8 1413.26,-88.8 1410.26,-84.8 1336.74,-84.8 1336.74,-48.8 1437.26,-48.8 1437.26,-84.8"/>
<text text-anchor="middle" x="1387" y="-62.6" font-family="Times,serif" font-size="14.00">AlarmsModule</text>
</g>
<!-- AlarmsModule&#45;&gt;AppModule -->
<g id="edge2" class="edge">
<title>AlarmsModule&#45;&gt;AppModule</title>
<path fill="none" stroke="black" d="M1387,-85.05C1387,-107.82 1387,-143.8 1387,-143.8 1387,-143.8 772.66,-143.8 772.66,-143.8"/>
<polygon fill="black" stroke="black" points="772.66,-140.3 762.66,-143.8 772.66,-147.3 772.66,-140.3"/>
</g>
<!-- AppRoutingModule -->
<g id="node4" class="node">
<title>AppRoutingModule</title>
<polygon fill="#8dd3c7" stroke="black" points="1318.27,-84.8 1315.27,-88.8 1294.27,-88.8 1291.27,-84.8 1189.73,-84.8 1189.73,-48.8 1318.27,-48.8 1318.27,-84.8"/>
<text text-anchor="middle" x="1254" y="-62.6" font-family="Times,serif" font-size="14.00">AppRoutingModule</text>
</g>
<!-- AppRoutingModule&#45;&gt;AppModule -->
<g id="edge3" class="edge">
<title>AppRoutingModule&#45;&gt;AppModule</title>
<path fill="none" stroke="black" d="M1254,-85.08C1254,-106.12 1254,-137.8 1254,-137.8 1254,-137.8 772.82,-137.8 772.82,-137.8"/>
<polygon fill="black" stroke="black" points="772.82,-134.3 762.82,-137.8 772.82,-141.3 772.82,-134.3"/>
</g>
<!-- AuthModule -->
<g id="node5" class="node">
<title>AuthModule</title>
<polygon fill="#8dd3c7" stroke="black" points="1171.55,-84.8 1168.55,-88.8 1147.55,-88.8 1144.55,-84.8 1084.45,-84.8 1084.45,-48.8 1171.55,-48.8 1171.55,-84.8"/>
<text text-anchor="middle" x="1128" y="-62.6" font-family="Times,serif" font-size="14.00">AuthModule</text>
</g>
<!-- AuthModule&#45;&gt;AppModule -->
<g id="edge4" class="edge">
<title>AuthModule&#45;&gt;AppModule</title>
<path fill="none" stroke="black" d="M1128,-84.91C1128,-104.14 1128,-131.8 1128,-131.8 1128,-131.8 773.02,-131.8 773.02,-131.8"/>
<polygon fill="black" stroke="black" points="773.02,-128.3 763.02,-131.8 773.02,-135.3 773.02,-128.3"/>
</g>
<!-- ChatsModule -->
<g id="node6" class="node">
<title>ChatsModule</title>
<polygon fill="#8dd3c7" stroke="black" points="1066.94,-84.8 1063.94,-88.8 1042.94,-88.8 1039.94,-84.8 975.06,-84.8 975.06,-48.8 1066.94,-48.8 1066.94,-84.8"/>
<text text-anchor="middle" x="1021" y="-62.6" font-family="Times,serif" font-size="14.00">ChatsModule</text>
</g>
<!-- ChatsModule&#45;&gt;AppModule -->
<g id="edge5" class="edge">
<title>ChatsModule&#45;&gt;AppModule</title>
<path fill="none" stroke="black" d="M1021,-84.82C1021,-102.17 1021,-125.8 1021,-125.8 1021,-125.8 772.71,-125.8 772.71,-125.8"/>
<polygon fill="black" stroke="black" points="772.71,-122.3 762.71,-125.8 772.71,-129.3 772.71,-122.3"/>
</g>
<!-- DashboardModule -->
<g id="node7" class="node">
<title>DashboardModule</title>
<polygon fill="#8dd3c7" stroke="black" points="957.19,-84.8 954.19,-88.8 933.19,-88.8 930.19,-84.8 836.81,-84.8 836.81,-48.8 957.19,-48.8 957.19,-84.8"/>
<text text-anchor="middle" x="897" y="-62.6" font-family="Times,serif" font-size="14.00">DashboardModule</text>
</g>
<!-- DashboardModule&#45;&gt;AppModule -->
<g id="edge6" class="edge">
<title>DashboardModule&#45;&gt;AppModule</title>
<path fill="none" stroke="black" d="M897,-85.04C897,-100.37 897,-119.8 897,-119.8 897,-119.8 772.71,-119.8 772.71,-119.8"/>
<polygon fill="black" stroke="black" points="772.71,-116.3 762.71,-119.8 772.71,-123.3 772.71,-116.3"/>
</g>
<!-- DebtsModule -->
<g id="node8" class="node">
<title>DebtsModule</title>
<polygon fill="#8dd3c7" stroke="black" points="819.21,-84.8 816.21,-88.8 795.21,-88.8 792.21,-84.8 726.79,-84.8 726.79,-48.8 819.21,-48.8 819.21,-84.8"/>
<text text-anchor="middle" x="773" y="-62.6" font-family="Times,serif" font-size="14.00">DebtsModule</text>
</g>
<!-- DebtsModule&#45;&gt;AppModule -->
<g id="edge7" class="edge">
<title>DebtsModule&#45;&gt;AppModule</title>
<path fill="none" stroke="black" d="M744.86,-84.91C744.86,-84.91 744.86,-103.79 744.86,-103.79"/>
<polygon fill="black" stroke="black" points="741.36,-103.79 744.86,-113.79 748.36,-103.79 741.36,-103.79"/>
</g>
<!-- GqlModule -->
<g id="node9" class="node">
<title>GqlModule</title>
<polygon fill="#8dd3c7" stroke="black" points="709.05,-84.8 706.05,-88.8 685.05,-88.8 682.05,-84.8 628.95,-84.8 628.95,-48.8 709.05,-48.8 709.05,-84.8"/>
<text text-anchor="middle" x="669" y="-62.6" font-family="Times,serif" font-size="14.00">GqlModule</text>
</g>
<!-- GqlModule&#45;&gt;AppModule -->
<g id="edge8" class="edge">
<title>GqlModule&#45;&gt;AppModule</title>
<path fill="none" stroke="black" d="M694.22,-84.91C694.22,-84.91 694.22,-103.79 694.22,-103.79"/>
<polygon fill="black" stroke="black" points="690.72,-103.79 694.22,-113.79 697.72,-103.79 690.72,-103.79"/>
</g>
<!-- ProgressModule -->
<g id="node10" class="node">
<title>ProgressModule</title>
<polygon fill="#8dd3c7" stroke="black" points="610.76,-84.8 607.76,-88.8 586.76,-88.8 583.76,-84.8 503.24,-84.8 503.24,-48.8 610.76,-48.8 610.76,-84.8"/>
<text text-anchor="middle" x="557" y="-62.6" font-family="Times,serif" font-size="14.00">ProgressModule</text>
</g>
<!-- ProgressModule&#45;&gt;AppModule -->
<g id="edge9" class="edge">
<title>ProgressModule&#45;&gt;AppModule</title>
<path fill="none" stroke="black" d="M557,-85.04C557,-100.37 557,-119.8 557,-119.8 557,-119.8 669.19,-119.8 669.19,-119.8"/>
<polygon fill="black" stroke="black" points="669.19,-123.3 679.19,-119.8 669.19,-116.3 669.19,-123.3"/>
</g>
<!-- SettingsModule -->
<g id="node11" class="node">
<title>SettingsModule</title>
<polygon fill="#8dd3c7" stroke="black" points="485.16,-84.8 482.16,-88.8 461.16,-88.8 458.16,-84.8 380.84,-84.8 380.84,-48.8 485.16,-48.8 485.16,-84.8"/>
<text text-anchor="middle" x="433" y="-62.6" font-family="Times,serif" font-size="14.00">SettingsModule</text>
</g>
<!-- SettingsModule&#45;&gt;AppModule -->
<g id="edge10" class="edge">
<title>SettingsModule&#45;&gt;AppModule</title>
<path fill="none" stroke="black" d="M433,-84.82C433,-102.17 433,-125.8 433,-125.8 433,-125.8 669.12,-125.8 669.12,-125.8"/>
<polygon fill="black" stroke="black" points="669.12,-129.3 679.12,-125.8 669.12,-122.3 669.12,-129.3"/>
</g>
<!-- SharedModule -->
<g id="node12" class="node">
<title>SharedModule</title>
<polygon fill="#8dd3c7" stroke="black" points="362.42,-84.8 359.42,-88.8 338.42,-88.8 335.42,-84.8 263.58,-84.8 263.58,-48.8 362.42,-48.8 362.42,-84.8"/>
<text text-anchor="middle" x="313" y="-62.6" font-family="Times,serif" font-size="14.00">SharedModule</text>
</g>
<!-- SharedModule&#45;&gt;AppModule -->
<g id="edge11" class="edge">
<title>SharedModule&#45;&gt;AppModule</title>
<path fill="none" stroke="black" d="M313,-84.91C313,-104.14 313,-131.8 313,-131.8 313,-131.8 669.25,-131.8 669.25,-131.8"/>
<polygon fill="black" stroke="black" points="669.25,-135.3 679.25,-131.8 669.25,-128.3 669.25,-135.3"/>
</g>
<!-- UsersModule -->
<g id="node13" class="node">
<title>UsersModule</title>
<polygon fill="#8dd3c7" stroke="black" points="245.92,-84.8 242.92,-88.8 221.92,-88.8 218.92,-84.8 154.08,-84.8 154.08,-48.8 245.92,-48.8 245.92,-84.8"/>
<text text-anchor="middle" x="200" y="-62.6" font-family="Times,serif" font-size="14.00">UsersModule</text>
</g>
<!-- UsersModule&#45;&gt;AppModule -->
<g id="edge12" class="edge">
<title>UsersModule&#45;&gt;AppModule</title>
<path fill="none" stroke="black" d="M200,-85.08C200,-106.12 200,-137.8 200,-137.8 200,-137.8 669.25,-137.8 669.25,-137.8"/>
<polygon fill="black" stroke="black" points="669.25,-141.3 679.25,-137.8 669.25,-134.3 669.25,-141.3"/>
</g>
</g>
</svg>
