<?xml version="1.0" encoding="UTF-8" standalone="no"?>
<!DOCTYPE svg PUBLIC "-//W3C//DTD SVG 1.1//EN"
 "http://www.w3.org/Graphics/SVG/1.1/DTD/svg11.dtd">
<!-- Generated by graphviz version 2.47.3 (20210619.1520)
 -->
<!-- Title: dependencies Pages: 1 -->
<svg width="496pt" height="247pt"
 viewBox="0.00 0.00 496.00 246.80" xmlns="http://www.w3.org/2000/svg" xmlns:xlink="http://www.w3.org/1999/xlink">
<g id="graph0" class="graph" transform="scale(1 1) rotate(0) translate(4 242.8)">
<title>dependencies</title>
<polygon fill="white" stroke="transparent" points="-4,4 -4,-242.8 492,-242.8 492,4 -4,4"/>
<text text-anchor="middle" x="244" y="-8.2" font-family="sans-serif" font-size="14.00">dependencies</text>
<g id="clust1" class="cluster">
<title>cluster_AppModule</title>
<polygon fill="none" stroke="black" stroke-dasharray="1,5" points="8,-32.8 8,-230.8 480,-230.8 480,-32.8 8,-32.8"/>
</g>
<g id="clust2" class="cluster">
<title>cluster_AppModule_declarations</title>
<polygon fill="none" stroke="black" points="350,-40.8 350,-92.8 472,-92.8 472,-40.8 350,-40.8"/>
</g>
<g id="clust4" class="cluster">
<title>cluster_AppModule_imports</title>
<polygon fill="none" stroke="black" points="16,-40.8 16,-92.8 342,-92.8 342,-40.8 16,-40.8"/>
</g>
<g id="clust6" class="cluster">
<title>cluster_AppModule_bootstrap</title>
<polygon fill="none" stroke="black" points="175,-170.8 175,-222.8 299,-222.8 299,-170.8 175,-170.8"/>
</g>
<!-- AppComponent -->
<g id="node1" class="node">
<title>AppComponent</title>
<polygon fill="#ffffb3" stroke="black" points="463.94,-84.8 358.06,-84.8 358.06,-48.8 463.94,-48.8 463.94,-84.8"/>
<text text-anchor="middle" x="411" y="-62.6" font-family="Times,serif" font-size="14.00">AppComponent</text>
</g>
<!-- AppModule -->
<g id="node2" class="node">
<title>AppModule</title>
<polygon fill="#8dd3c7" stroke="black" points="278.66,-149.8 275.66,-153.8 254.66,-153.8 251.66,-149.8 195.34,-149.8 195.34,-113.8 278.66,-113.8 278.66,-149.8"/>
<text text-anchor="middle" x="237" y="-127.6" font-family="Times,serif" font-size="14.00">AppModule</text>
</g>
<!-- AppComponent&#45;&gt;AppModule -->
<g id="edge1" class="edge">
<title>AppComponent&#45;&gt;AppModule</title>
<path fill="none" stroke="black" d="M411,-84.91C411,-104.14 411,-131.8 411,-131.8 411,-131.8 288.68,-131.8 288.68,-131.8"/>
<polygon fill="black" stroke="black" points="288.68,-128.3 278.68,-131.8 288.68,-135.3 288.68,-128.3"/>
</g>
<!-- AppComponent  -->
<g id="node6" class="node">
<title>AppComponent </title>
<polygon fill="#80b1d3" stroke="black" points="291.44,-214.8 182.56,-214.8 182.56,-178.8 291.44,-178.8 291.44,-214.8"/>
<text text-anchor="middle" x="237" y="-192.6" font-family="Times,serif" font-size="14.00">AppComponent </text>
</g>
<!-- AppModule&#45;&gt;AppComponent  -->
<g id="edge5" class="edge">
<title>AppModule&#45;&gt;AppComponent </title>
<path fill="none" stroke="black" stroke-dasharray="1,5" d="M237,-149.91C237,-149.91 237,-168.79 237,-168.79"/>
<polygon fill="black" stroke="black" points="233.5,-168.79 237,-178.79 240.5,-168.79 233.5,-168.79"/>
</g>
<!-- AuthModule -->
<g id="node3" class="node">
<title>AuthModule</title>
<polygon fill="#8dd3c7" stroke="black" points="333.55,-84.8 330.55,-88.8 309.55,-88.8 306.55,-84.8 246.45,-84.8 246.45,-48.8 333.55,-48.8 333.55,-84.8"/>
<text text-anchor="middle" x="290" y="-62.6" font-family="Times,serif" font-size="14.00">AuthModule</text>
</g>
<!-- AuthModule&#45;&gt;AppModule -->
<g id="edge2" class="edge">
<title>AuthModule&#45;&gt;AppModule</title>
<path fill="none" stroke="black" d="M262.53,-84.91C262.53,-84.91 262.53,-103.79 262.53,-103.79"/>
<polygon fill="black" stroke="black" points="259.03,-103.79 262.53,-113.79 266.03,-103.79 259.03,-103.79"/>
</g>
<!-- GQLModule -->
<g id="node4" class="node">
<title>GQLModule</title>
<polygon fill="#8dd3c7" stroke="black" points="228.32,-84.8 225.32,-88.8 204.32,-88.8 201.32,-84.8 139.68,-84.8 139.68,-48.8 228.32,-48.8 228.32,-84.8"/>
<text text-anchor="middle" x="184" y="-62.6" font-family="Times,serif" font-size="14.00">GQLModule</text>
</g>
<!-- GQLModule&#45;&gt;AppModule -->
<g id="edge3" class="edge">
<title>GQLModule&#45;&gt;AppModule</title>
<path fill="none" stroke="black" d="M211.66,-84.91C211.66,-84.91 211.66,-103.79 211.66,-103.79"/>
<polygon fill="black" stroke="black" points="208.16,-103.79 211.66,-113.79 215.16,-103.79 208.16,-103.79"/>
</g>
<!-- RoutesModule -->
<g id="node5" class="node">
<title>RoutesModule</title>
<polygon fill="#8dd3c7" stroke="black" points="122.44,-84.8 119.44,-88.8 98.44,-88.8 95.44,-84.8 23.56,-84.8 23.56,-48.8 122.44,-48.8 122.44,-84.8"/>
<text text-anchor="middle" x="73" y="-62.6" font-family="Times,serif" font-size="14.00">RoutesModule</text>
</g>
<!-- RoutesModule&#45;&gt;AppModule -->
<g id="edge4" class="edge">
<title>RoutesModule&#45;&gt;AppModule</title>
<path fill="none" stroke="black" d="M73,-84.91C73,-104.14 73,-131.8 73,-131.8 73,-131.8 185.19,-131.8 185.19,-131.8"/>
<polygon fill="black" stroke="black" points="185.19,-135.3 195.19,-131.8 185.19,-128.3 185.19,-135.3"/>
</g>
</g>
</svg>
