<?xml version="1.0" encoding="UTF-8" standalone="no"?>
<!DOCTYPE svg PUBLIC "-//W3C//DTD SVG 1.1//EN"
 "http://www.w3.org/Graphics/SVG/1.1/DTD/svg11.dtd">
<!-- Generated by graphviz version 2.47.3 (20210619.1520)
 -->
<!-- Title: dependencies Pages: 1 -->
<svg width="772pt" height="247pt"
 viewBox="0.00 0.00 772.00 246.80" xmlns="http://www.w3.org/2000/svg" xmlns:xlink="http://www.w3.org/1999/xlink">
<g id="graph0" class="graph" transform="scale(1 1) rotate(0) translate(4 242.8)">
<title>dependencies</title>
<polygon fill="white" stroke="transparent" points="-4,4 -4,-242.8 768,-242.8 768,4 -4,4"/>
<text text-anchor="middle" x="382" y="-8.2" font-family="sans-serif" font-size="14.00">dependencies</text>
<g id="clust1" class="cluster">
<title>cluster_AppModule</title>
<polygon fill="none" stroke="black" stroke-dasharray="1,5" points="8,-32.8 8,-230.8 756,-230.8 756,-32.8 8,-32.8"/>
</g>
<g id="clust4" class="cluster">
<title>cluster_AppModule_imports</title>
<polygon fill="none" stroke="black" points="146,-40.8 146,-92.8 748,-92.8 748,-40.8 146,-40.8"/>
</g>
<g id="clust2" class="cluster">
<title>cluster_AppModule_declarations</title>
<polygon fill="none" stroke="black" points="16,-40.8 16,-92.8 138,-92.8 138,-40.8 16,-40.8"/>
</g>
<g id="clust6" class="cluster">
<title>cluster_AppModule_bootstrap</title>
<polygon fill="none" stroke="black" points="307,-170.8 307,-222.8 431,-222.8 431,-170.8 307,-170.8"/>
</g>
<!-- AppComponent -->
<g id="node1" class="node">
<title>AppComponent</title>
<polygon fill="#ffffb3" stroke="black" points="129.94,-84.8 24.06,-84.8 24.06,-48.8 129.94,-48.8 129.94,-84.8"/>
<text text-anchor="middle" x="77" y="-62.6" font-family="Times,serif" font-size="14.00">AppComponent</text>
</g>
<!-- AppModule -->
<g id="node2" class="node">
<title>AppModule</title>
<polygon fill="#8dd3c7" stroke="black" points="410.66,-149.8 407.66,-153.8 386.66,-153.8 383.66,-149.8 327.34,-149.8 327.34,-113.8 410.66,-113.8 410.66,-149.8"/>
<text text-anchor="middle" x="369" y="-127.6" font-family="Times,serif" font-size="14.00">AppModule</text>
</g>
<!-- AppComponent&#45;&gt;AppModule -->
<g id="edge1" class="edge">
<title>AppComponent&#45;&gt;AppModule</title>
<path fill="none" stroke="black" d="M77,-85.08C77,-106.12 77,-137.8 77,-137.8 77,-137.8 317.16,-137.8 317.16,-137.8"/>
<polygon fill="black" stroke="black" points="317.16,-141.3 327.16,-137.8 317.16,-134.3 317.16,-141.3"/>
</g>
<!-- AppComponent  -->
<g id="node8" class="node">
<title>AppComponent </title>
<polygon fill="#80b1d3" stroke="black" points="423.44,-214.8 314.56,-214.8 314.56,-178.8 423.44,-178.8 423.44,-214.8"/>
<text text-anchor="middle" x="369" y="-192.6" font-family="Times,serif" font-size="14.00">AppComponent </text>
</g>
<!-- AppModule&#45;&gt;AppComponent  -->
<g id="edge7" class="edge">
<title>AppModule&#45;&gt;AppComponent </title>
<path fill="none" stroke="black" stroke-dasharray="1,5" d="M369,-149.91C369,-149.91 369,-168.79 369,-168.79"/>
<polygon fill="black" stroke="black" points="365.5,-168.79 369,-178.79 372.5,-168.79 365.5,-168.79"/>
</g>
<!-- AppRoutingModule -->
<g id="node3" class="node">
<title>AppRoutingModule</title>
<polygon fill="#8dd3c7" stroke="black" points="740.27,-84.8 737.27,-88.8 716.27,-88.8 713.27,-84.8 611.73,-84.8 611.73,-48.8 740.27,-48.8 740.27,-84.8"/>
<text text-anchor="middle" x="676" y="-62.6" font-family="Times,serif" font-size="14.00">AppRoutingModule</text>
</g>
<!-- AppRoutingModule&#45;&gt;AppModule -->
<g id="edge2" class="edge">
<title>AppRoutingModule&#45;&gt;AppModule</title>
<path fill="none" stroke="black" d="M676,-85.08C676,-106.12 676,-137.8 676,-137.8 676,-137.8 420.72,-137.8 420.72,-137.8"/>
<polygon fill="black" stroke="black" points="420.72,-134.3 410.72,-137.8 420.72,-141.3 420.72,-134.3"/>
</g>
<!-- AuthModule -->
<g id="node4" class="node">
<title>AuthModule</title>
<polygon fill="#8dd3c7" stroke="black" points="593.55,-84.8 590.55,-88.8 569.55,-88.8 566.55,-84.8 506.45,-84.8 506.45,-48.8 593.55,-48.8 593.55,-84.8"/>
<text text-anchor="middle" x="550" y="-62.6" font-family="Times,serif" font-size="14.00">AuthModule</text>
</g>
<!-- AuthModule&#45;&gt;AppModule -->
<g id="edge3" class="edge">
<title>AuthModule&#45;&gt;AppModule</title>
<path fill="none" stroke="black" d="M550,-84.82C550,-102.17 550,-125.8 550,-125.8 550,-125.8 420.98,-125.8 420.98,-125.8"/>
<polygon fill="black" stroke="black" points="420.98,-122.3 410.98,-125.8 420.98,-129.3 420.98,-122.3"/>
</g>
<!-- DashboardModule -->
<g id="node5" class="node">
<title>DashboardModule</title>
<polygon fill="#8dd3c7" stroke="black" points="488.19,-84.8 485.19,-88.8 464.19,-88.8 461.19,-84.8 367.81,-84.8 367.81,-48.8 488.19,-48.8 488.19,-84.8"/>
<text text-anchor="middle" x="428" y="-62.6" font-family="Times,serif" font-size="14.00">DashboardModule</text>
</g>
<!-- DashboardModule&#45;&gt;AppModule -->
<g id="edge4" class="edge">
<title>DashboardModule&#45;&gt;AppModule</title>
<path fill="none" stroke="black" d="M389.37,-84.91C389.37,-84.91 389.37,-103.79 389.37,-103.79"/>
<polygon fill="black" stroke="black" points="385.87,-103.79 389.37,-113.79 392.87,-103.79 385.87,-103.79"/>
</g>
<!-- GqlModule -->
<g id="node6" class="node">
<title>GqlModule</title>
<polygon fill="#8dd3c7" stroke="black" points="350.05,-84.8 347.05,-88.8 326.05,-88.8 323.05,-84.8 269.95,-84.8 269.95,-48.8 350.05,-48.8 350.05,-84.8"/>
<text text-anchor="middle" x="310" y="-62.6" font-family="Times,serif" font-size="14.00">GqlModule</text>
</g>
<!-- GqlModule&#45;&gt;AppModule -->
<g id="edge5" class="edge">
<title>GqlModule&#45;&gt;AppModule</title>
<path fill="none" stroke="black" d="M338.72,-84.91C338.72,-84.91 338.72,-103.79 338.72,-103.79"/>
<polygon fill="black" stroke="black" points="335.22,-103.79 338.72,-113.79 342.22,-103.79 335.22,-103.79"/>
</g>
<!-- SharedModule -->
<g id="node7" class="node">
<title>SharedModule</title>
<polygon fill="#8dd3c7" stroke="black" points="252.42,-84.8 249.42,-88.8 228.42,-88.8 225.42,-84.8 153.58,-84.8 153.58,-48.8 252.42,-48.8 252.42,-84.8"/>
<text text-anchor="middle" x="203" y="-62.6" font-family="Times,serif" font-size="14.00">SharedModule</text>
</g>
<!-- SharedModule&#45;&gt;AppModule -->
<g id="edge6" class="edge">
<title>SharedModule&#45;&gt;AppModule</title>
<path fill="none" stroke="black" d="M203,-84.82C203,-102.17 203,-125.8 203,-125.8 203,-125.8 317.11,-125.8 317.11,-125.8"/>
<polygon fill="black" stroke="black" points="317.11,-129.3 327.11,-125.8 317.11,-122.3 317.11,-129.3"/>
</g>
</g>
</svg>
