<?xml version="1.0" encoding="UTF-8" standalone="no"?>
<!DOCTYPE svg PUBLIC "-//W3C//DTD SVG 1.1//EN"
 "http://www.w3.org/Graphics/SVG/1.1/DTD/svg11.dtd">
<!-- Generated by graphviz version 2.47.3 (20210619.1520)
 -->
<!-- Title: dependencies Pages: 1 -->
<svg width="812pt" height="247pt"
 viewBox="0.00 0.00 812.00 246.80" xmlns="http://www.w3.org/2000/svg" xmlns:xlink="http://www.w3.org/1999/xlink">
<g id="graph0" class="graph" transform="scale(1 1) rotate(0) translate(4 242.8)">
<title>dependencies</title>
<polygon fill="white" stroke="transparent" points="-4,4 -4,-242.8 808,-242.8 808,4 -4,4"/>
<text text-anchor="middle" x="402" y="-8.2" font-family="sans-serif" font-size="14.00">dependencies</text>
<g id="clust1" class="cluster">
<title>cluster_AppModule</title>
<polygon fill="none" stroke="black" stroke-dasharray="1,5" points="8,-32.8 8,-230.8 796,-230.8 796,-32.8 8,-32.8"/>
</g>
<g id="clust7" class="cluster">
<title>cluster_AppModule_providers</title>
<polygon fill="none" stroke="black" points="513,-40.8 513,-92.8 788,-92.8 788,-40.8 513,-40.8"/>
</g>
<g id="clust4" class="cluster">
<title>cluster_AppModule_imports</title>
<polygon fill="none" stroke="black" points="146,-40.8 146,-92.8 505,-92.8 505,-40.8 146,-40.8"/>
</g>
<g id="clust6" class="cluster">
<title>cluster_AppModule_bootstrap</title>
<polygon fill="none" stroke="black" points="309,-170.8 309,-222.8 433,-222.8 433,-170.8 309,-170.8"/>
</g>
<g id="clust2" class="cluster">
<title>cluster_AppModule_declarations</title>
<polygon fill="none" stroke="black" points="16,-40.8 16,-92.8 138,-92.8 138,-40.8 16,-40.8"/>
</g>
<!-- AppComponent -->
<g id="node1" class="node">
<title>AppComponent</title>
<polygon fill="#ffffb3" stroke="black" points="129.94,-84.8 24.06,-84.8 24.06,-48.8 129.94,-48.8 129.94,-84.8"/>
<text text-anchor="middle" x="77" y="-62.6" font-family="Times,serif" font-size="14.00">AppComponent</text>
</g>
<!-- AppModule -->
<g id="node2" class="node">
<title>AppModule</title>
<polygon fill="#8dd3c7" stroke="black" points="412.66,-149.8 409.66,-153.8 388.66,-153.8 385.66,-149.8 329.34,-149.8 329.34,-113.8 412.66,-113.8 412.66,-149.8"/>
<text text-anchor="middle" x="371" y="-127.6" font-family="Times,serif" font-size="14.00">AppModule</text>
</g>
<!-- AppComponent&#45;&gt;AppModule -->
<g id="edge1" class="edge">
<title>AppComponent&#45;&gt;AppModule</title>
<path fill="none" stroke="black" d="M77,-85.08C77,-106.12 77,-137.8 77,-137.8 77,-137.8 319.19,-137.8 319.19,-137.8"/>
<polygon fill="black" stroke="black" points="319.19,-141.3 329.19,-137.8 319.19,-134.3 319.19,-141.3"/>
</g>
<!-- AppComponent  -->
<g id="node6" class="node">
<title>AppComponent </title>
<polygon fill="#80b1d3" stroke="black" points="425.44,-214.8 316.56,-214.8 316.56,-178.8 425.44,-178.8 425.44,-214.8"/>
<text text-anchor="middle" x="371" y="-192.6" font-family="Times,serif" font-size="14.00">AppComponent </text>
</g>
<!-- AppModule&#45;&gt;AppComponent  -->
<g id="edge5" class="edge">
<title>AppModule&#45;&gt;AppComponent </title>
<path fill="none" stroke="black" stroke-dasharray="1,5" d="M371,-149.91C371,-149.91 371,-168.79 371,-168.79"/>
<polygon fill="black" stroke="black" points="367.5,-168.79 371,-178.79 374.5,-168.79 367.5,-168.79"/>
</g>
<!-- AppRoutingModule -->
<g id="node3" class="node">
<title>AppRoutingModule</title>
<polygon fill="#8dd3c7" stroke="black" points="497.27,-84.8 494.27,-88.8 473.27,-88.8 470.27,-84.8 368.73,-84.8 368.73,-48.8 497.27,-48.8 497.27,-84.8"/>
<text text-anchor="middle" x="433" y="-62.6" font-family="Times,serif" font-size="14.00">AppRoutingModule</text>
</g>
<!-- AppRoutingModule&#45;&gt;AppModule -->
<g id="edge2" class="edge">
<title>AppRoutingModule&#45;&gt;AppModule</title>
<path fill="none" stroke="black" d="M390.72,-84.91C390.72,-84.91 390.72,-103.79 390.72,-103.79"/>
<polygon fill="black" stroke="black" points="387.22,-103.79 390.72,-113.79 394.22,-103.79 387.22,-103.79"/>
</g>
<!-- GqlModule -->
<g id="node4" class="node">
<title>GqlModule</title>
<polygon fill="#8dd3c7" stroke="black" points="350.05,-84.8 347.05,-88.8 326.05,-88.8 323.05,-84.8 269.95,-84.8 269.95,-48.8 350.05,-48.8 350.05,-84.8"/>
<text text-anchor="middle" x="310" y="-62.6" font-family="Times,serif" font-size="14.00">GqlModule</text>
</g>
<!-- GqlModule&#45;&gt;AppModule -->
<g id="edge3" class="edge">
<title>GqlModule&#45;&gt;AppModule</title>
<path fill="none" stroke="black" d="M339.72,-84.91C339.72,-84.91 339.72,-103.79 339.72,-103.79"/>
<polygon fill="black" stroke="black" points="336.22,-103.79 339.72,-113.79 343.22,-103.79 336.22,-103.79"/>
</g>
<!-- SharedModule -->
<g id="node5" class="node">
<title>SharedModule</title>
<polygon fill="#8dd3c7" stroke="black" points="252.42,-84.8 249.42,-88.8 228.42,-88.8 225.42,-84.8 153.58,-84.8 153.58,-48.8 252.42,-48.8 252.42,-84.8"/>
<text text-anchor="middle" x="203" y="-62.6" font-family="Times,serif" font-size="14.00">SharedModule</text>
</g>
<!-- SharedModule&#45;&gt;AppModule -->
<g id="edge4" class="edge">
<title>SharedModule&#45;&gt;AppModule</title>
<path fill="none" stroke="black" d="M203,-84.82C203,-102.17 203,-125.8 203,-125.8 203,-125.8 319.04,-125.8 319.04,-125.8"/>
<polygon fill="black" stroke="black" points="319.04,-129.3 329.04,-125.8 319.04,-122.3 319.04,-129.3"/>
</g>
<!-- AuthService -->
<g id="node7" class="node">
<title>AuthService</title>
<ellipse fill="#fdb462" stroke="black" cx="721" cy="-66.8" rx="59.11" ry="18"/>
<text text-anchor="middle" x="721" y="-62.6" font-family="Times,serif" font-size="14.00">AuthService</text>
</g>
<!-- AuthService&#45;&gt;AppModule -->
<g id="edge6" class="edge">
<title>AuthService&#45;&gt;AppModule</title>
<path fill="none" stroke="black" d="M721,-85.08C721,-106.12 721,-137.8 721,-137.8 721,-137.8 422.87,-137.8 422.87,-137.8"/>
<polygon fill="black" stroke="black" points="422.87,-134.3 412.87,-137.8 422.87,-141.3 422.87,-134.3"/>
</g>
<!-- ToastService -->
<g id="node8" class="node">
<title>ToastService</title>
<ellipse fill="#fdb462" stroke="black" cx="582" cy="-66.8" rx="61.39" ry="18"/>
<text text-anchor="middle" x="582" y="-62.6" font-family="Times,serif" font-size="14.00">ToastService</text>
</g>
<!-- ToastService&#45;&gt;AppModule -->
<g id="edge7" class="edge">
<title>ToastService&#45;&gt;AppModule</title>
<path fill="none" stroke="black" d="M582,-84.82C582,-102.17 582,-125.8 582,-125.8 582,-125.8 422.69,-125.8 422.69,-125.8"/>
<polygon fill="black" stroke="black" points="422.69,-122.3 412.69,-125.8 422.69,-129.3 422.69,-122.3"/>
</g>
</g>
</svg>
