<?xml version="1.0" encoding="UTF-8" standalone="no"?>
<!DOCTYPE svg PUBLIC "-//W3C//DTD SVG 1.1//EN"
 "http://www.w3.org/Graphics/SVG/1.1/DTD/svg11.dtd">
<!-- Generated by graphviz version 2.47.3 (20210619.1520)
 -->
<!-- Title: dependencies Pages: 1 -->
<svg width="529pt" height="247pt"
 viewBox="0.00 0.00 529.00 246.80" xmlns="http://www.w3.org/2000/svg" xmlns:xlink="http://www.w3.org/1999/xlink">
<g id="graph0" class="graph" transform="scale(1 1) rotate(0) translate(4 242.8)">
<title>dependencies</title>
<polygon fill="white" stroke="transparent" points="-4,4 -4,-242.8 525,-242.8 525,4 -4,4"/>
<text text-anchor="middle" x="260.5" y="-8.2" font-family="sans-serif" font-size="14.00">dependencies</text>
<g id="clust1" class="cluster">
<title>cluster_AppModule</title>
<polygon fill="none" stroke="black" stroke-dasharray="1,5" points="8,-32.8 8,-230.8 513,-230.8 513,-32.8 8,-32.8"/>
</g>
<g id="clust6" class="cluster">
<title>cluster_AppModule_bootstrap</title>
<polygon fill="none" stroke="black" points="179,-170.8 179,-222.8 303,-222.8 303,-170.8 179,-170.8"/>
</g>
<g id="clust2" class="cluster">
<title>cluster_AppModule_declarations</title>
<polygon fill="none" stroke="black" points="383,-40.8 383,-92.8 505,-92.8 505,-40.8 383,-40.8"/>
</g>
<g id="clust4" class="cluster">
<title>cluster_AppModule_imports</title>
<polygon fill="none" stroke="black" points="16,-40.8 16,-92.8 375,-92.8 375,-40.8 16,-40.8"/>
</g>
<!-- AppComponent -->
<g id="node1" class="node">
<title>AppComponent</title>
<polygon fill="#ffffb3" stroke="black" points="496.94,-84.8 391.06,-84.8 391.06,-48.8 496.94,-48.8 496.94,-84.8"/>
<text text-anchor="middle" x="444" y="-62.6" font-family="Times,serif" font-size="14.00">AppComponent</text>
</g>
<!-- AppModule -->
<g id="node2" class="node">
<title>AppModule</title>
<polygon fill="#8dd3c7" stroke="black" points="282.66,-149.8 279.66,-153.8 258.66,-153.8 255.66,-149.8 199.34,-149.8 199.34,-113.8 282.66,-113.8 282.66,-149.8"/>
<text text-anchor="middle" x="241" y="-127.6" font-family="Times,serif" font-size="14.00">AppModule</text>
</g>
<!-- AppComponent&#45;&gt;AppModule -->
<g id="edge1" class="edge">
<title>AppComponent&#45;&gt;AppModule</title>
<path fill="none" stroke="black" d="M444,-84.91C444,-104.14 444,-131.8 444,-131.8 444,-131.8 293.06,-131.8 293.06,-131.8"/>
<polygon fill="black" stroke="black" points="293.06,-128.3 283.06,-131.8 293.06,-135.3 293.06,-128.3"/>
</g>
<!-- AppComponent  -->
<g id="node6" class="node">
<title>AppComponent </title>
<polygon fill="#80b1d3" stroke="black" points="295.44,-214.8 186.56,-214.8 186.56,-178.8 295.44,-178.8 295.44,-214.8"/>
<text text-anchor="middle" x="241" y="-192.6" font-family="Times,serif" font-size="14.00">AppComponent </text>
</g>
<!-- AppModule&#45;&gt;AppComponent  -->
<g id="edge5" class="edge">
<title>AppModule&#45;&gt;AppComponent </title>
<path fill="none" stroke="black" stroke-dasharray="1,5" d="M241,-149.91C241,-149.91 241,-168.79 241,-168.79"/>
<polygon fill="black" stroke="black" points="237.5,-168.79 241,-178.79 244.5,-168.79 237.5,-168.79"/>
</g>
<!-- AppRoutingModule -->
<g id="node3" class="node">
<title>AppRoutingModule</title>
<polygon fill="#8dd3c7" stroke="black" points="367.27,-84.8 364.27,-88.8 343.27,-88.8 340.27,-84.8 238.73,-84.8 238.73,-48.8 367.27,-48.8 367.27,-84.8"/>
<text text-anchor="middle" x="303" y="-62.6" font-family="Times,serif" font-size="14.00">AppRoutingModule</text>
</g>
<!-- AppRoutingModule&#45;&gt;AppModule -->
<g id="edge2" class="edge">
<title>AppRoutingModule&#45;&gt;AppModule</title>
<path fill="none" stroke="black" d="M260.72,-84.91C260.72,-84.91 260.72,-103.79 260.72,-103.79"/>
<polygon fill="black" stroke="black" points="257.22,-103.79 260.72,-113.79 264.22,-103.79 257.22,-103.79"/>
</g>
<!-- GqlModule -->
<g id="node4" class="node">
<title>GqlModule</title>
<polygon fill="#8dd3c7" stroke="black" points="220.05,-84.8 217.05,-88.8 196.05,-88.8 193.05,-84.8 139.95,-84.8 139.95,-48.8 220.05,-48.8 220.05,-84.8"/>
<text text-anchor="middle" x="180" y="-62.6" font-family="Times,serif" font-size="14.00">GqlModule</text>
</g>
<!-- GqlModule&#45;&gt;AppModule -->
<g id="edge3" class="edge">
<title>GqlModule&#45;&gt;AppModule</title>
<path fill="none" stroke="black" d="M209.72,-84.91C209.72,-84.91 209.72,-103.79 209.72,-103.79"/>
<polygon fill="black" stroke="black" points="206.22,-103.79 209.72,-113.79 213.22,-103.79 206.22,-103.79"/>
</g>
<!-- SharedModule -->
<g id="node5" class="node">
<title>SharedModule</title>
<polygon fill="#8dd3c7" stroke="black" points="122.42,-84.8 119.42,-88.8 98.42,-88.8 95.42,-84.8 23.58,-84.8 23.58,-48.8 122.42,-48.8 122.42,-84.8"/>
<text text-anchor="middle" x="73" y="-62.6" font-family="Times,serif" font-size="14.00">SharedModule</text>
</g>
<!-- SharedModule&#45;&gt;AppModule -->
<g id="edge4" class="edge">
<title>SharedModule&#45;&gt;AppModule</title>
<path fill="none" stroke="black" d="M73,-84.91C73,-104.14 73,-131.8 73,-131.8 73,-131.8 189.04,-131.8 189.04,-131.8"/>
<polygon fill="black" stroke="black" points="189.04,-135.3 199.04,-131.8 189.04,-128.3 189.04,-135.3"/>
</g>
</g>
</svg>
