<?xml version="1.0" encoding="UTF-8" standalone="no"?>
<!DOCTYPE svg PUBLIC "-//W3C//DTD SVG 1.1//EN"
 "http://www.w3.org/Graphics/SVG/1.1/DTD/svg11.dtd">
<!-- Generated by graphviz version 2.47.3 (20210619.1520)
 -->
<!-- Title: dependencies Pages: 1 -->
<svg width="278pt" height="174pt"
 viewBox="0.00 0.00 278.00 173.80" xmlns="http://www.w3.org/2000/svg" xmlns:xlink="http://www.w3.org/1999/xlink">
<g id="graph0" class="graph" transform="scale(1 1) rotate(0) translate(4 169.8)">
<title>dependencies</title>
<polygon fill="white" stroke="transparent" points="-4,4 -4,-169.8 274,-169.8 274,4 -4,4"/>
<text text-anchor="middle" x="135" y="-8.2" font-family="sans-serif" font-size="14.00">dependencies</text>
<g id="clust1" class="cluster">
<title>cluster_MeModule</title>
<polygon fill="none" stroke="black" stroke-dasharray="1,5" points="8,-32.8 8,-157.8 262,-157.8 262,-32.8 8,-32.8"/>
</g>
<g id="clust4" class="cluster">
<title>cluster_MeModule_imports</title>
<polygon fill="none" stroke="black" points="140,-40.8 140,-92.8 254,-92.8 254,-40.8 140,-40.8"/>
</g>
<g id="clust2" class="cluster">
<title>cluster_MeModule_declarations</title>
<polygon fill="none" stroke="black" points="16,-40.8 16,-92.8 132,-92.8 132,-40.8 16,-40.8"/>
</g>
<!-- MeComponent -->
<g id="node1" class="node">
<title>MeComponent</title>
<polygon fill="#ffffb3" stroke="black" points="123.99,-84.8 24.01,-84.8 24.01,-48.8 123.99,-48.8 123.99,-84.8"/>
<text text-anchor="middle" x="74" y="-62.6" font-family="Times,serif" font-size="14.00">MeComponent</text>
</g>
<!-- MeModule -->
<g id="node2" class="node">
<title>MeModule</title>
<polygon fill="#8dd3c7" stroke="black" points="174.21,-149.8 171.21,-153.8 150.21,-153.8 147.21,-149.8 95.79,-149.8 95.79,-113.8 174.21,-113.8 174.21,-149.8"/>
<text text-anchor="middle" x="135" y="-127.6" font-family="Times,serif" font-size="14.00">MeModule</text>
</g>
<!-- MeComponent&#45;&gt;MeModule -->
<g id="edge1" class="edge">
<title>MeComponent&#45;&gt;MeModule</title>
<path fill="none" stroke="black" d="M109.95,-84.91C109.95,-84.91 109.95,-103.79 109.95,-103.79"/>
<polygon fill="black" stroke="black" points="106.45,-103.79 109.95,-113.79 113.45,-103.79 106.45,-103.79"/>
</g>
<!-- SharedModule -->
<g id="node3" class="node">
<title>SharedModule</title>
<polygon fill="#8dd3c7" stroke="black" points="246.42,-84.8 243.42,-88.8 222.42,-88.8 219.42,-84.8 147.58,-84.8 147.58,-48.8 246.42,-48.8 246.42,-84.8"/>
<text text-anchor="middle" x="197" y="-62.6" font-family="Times,serif" font-size="14.00">SharedModule</text>
</g>
<!-- SharedModule&#45;&gt;MeModule -->
<g id="edge2" class="edge">
<title>SharedModule&#45;&gt;MeModule</title>
<path fill="none" stroke="black" d="M160.95,-84.91C160.95,-84.91 160.95,-103.79 160.95,-103.79"/>
<polygon fill="black" stroke="black" points="157.45,-103.79 160.95,-113.79 164.45,-103.79 157.45,-103.79"/>
</g>
</g>
</svg>
