<svg width="15" height="17" fill="none" xmlns="http://www.w3.org/2000/svg"><path d="M5.634 15.22c0 .984.835 1.78 1.866 1.78 1.031 0 1.866-.796 1.866-1.78H5.634z" fill="#FACC6D"/><path fill-rule="evenodd" clip-rule="evenodd" d="M5.41 1.84C5.496.808 6.398 0 7.5 0c1.102 0 2.004.809 2.09 1.84 2.26.807 3.864 2.882 3.864 5.318v3.68L15 12.313v2.003H0v-2.003l1.546-1.475v-3.68c0-1.278.451-2.52 1.282-3.523A5.943 5.943 0 0 1 5.41 1.84zm2.09-.05A.215.215 0 0 0 7.278 2V3.21l-.721.163a4.1 4.1 0 0 0-2.258 1.372 3.778 3.778 0 0 0-.878 2.413v4.42l-.993.949h10.144l-.993-.948V7.158c0-1.837-1.332-3.377-3.136-3.785l-.721-.163V2A.215.215 0 0 0 7.5 1.79z" fill="#FACC6D"/></svg>