<svg width="15" height="17" viewBox="0 0 15 17" fill="none" xmlns="http://www.w3.org/2000/svg">
<path d="M5.63428 15.2194C5.63428 16.2036 6.46865 17 7.4999 17C8.53115 17 9.36553 16.2036 9.36553 15.2194H5.63428Z" fill="#FACC6D"/>
<path fill-rule="evenodd" clip-rule="evenodd" d="M5.40988 1.83909C5.49617 0.808585 6.39777 0 7.5 0C8.60229 0 9.50393 0.808672 9.59013 1.83926C11.8505 2.6474 13.4542 4.72156 13.4542 7.15798V10.8376L15 12.3129V14.316H0V12.3129L1.54583 10.8376V7.15821C1.54583 7.15814 1.54583 7.15829 1.54583 7.15821C1.54554 5.87958 1.99747 4.63805 2.82844 3.63509C3.50416 2.81951 4.39835 2.20036 5.40988 1.83909ZM7.5 1.7895C7.3761 1.7895 7.27812 1.883 7.27812 2.00125V3.21001L6.55655 3.373C5.66368 3.57469 4.8683 4.05813 4.29919 4.74503C3.73009 5.43192 3.4206 6.28206 3.42083 7.15775V11.5788L2.42791 12.5265H12.5721L11.5792 11.5788V7.15798C11.5792 5.32067 10.2471 3.7807 8.44331 3.37297L7.72188 3.2099V2.00125C7.72188 1.883 7.6239 1.7895 7.5 1.7895Z" fill="#FACC6D"/>
</svg>
