<svg width="26" height="20" fill="none" xmlns="http://www.w3.org/2000/svg"><path d="M24.462 14.462h-1.175V6.056a.797.797 0 0 0-.797-.797H20V.797A.797.797 0 0 0 19.203 0H6.056a.797.797 0 0 0-.797.797v4.462h-2.49a.797.797 0 0 0-.797.797v8.406H.797a.797.797 0 1 0 0 1.594h11.036v2.35H10A.797.797 0 0 0 10 20h5.259a.797.797 0 0 0 0-1.594h-1.833v-2.35h11.036a.797.797 0 0 0 0-1.594zM6.852 1.594h11.554v3.665H6.853V1.594zm14.841 5.259v1.049a.802.802 0 0 0-.424.22.803.803 0 0 0-.233.563c0 .21.085.415.233.564a.806.806 0 0 0 .424.22v1.838c-.317-.037-.496-.208-.82-.545-.423-.44-1.002-1.04-2.108-1.04s-1.685.6-2.108 1.04c-.369.383-.549.553-.96.553-.41 0-.59-.17-.96-.553-.422-.44-1.001-1.04-2.107-1.04-1.106 0-1.685.6-2.108 1.04-.369.383-.549.553-.96.553-.41 0-.59-.17-.96-.553-.423-.44-1.002-1.04-2.108-1.04s-1.685.6-2.108 1.04c-.324.337-.503.509-.82.545V9.47a.799.799 0 0 0 .424-1.347.8.8 0 0 0-.424-.22v-1.05h18.127zm-18.127 6.05c1.015-.048 1.564-.615 1.968-1.036.37-.383.55-.552.96-.552.411 0 .591.17.96.552.423.44 1.002 1.041 2.108 1.041s1.686-.601 2.108-1.04c.369-.384.55-.553.96-.553.41 0 .59.17.96.552.422.44 1.002 1.041 2.107 1.041 1.106 0 1.686-.601 2.108-1.04.37-.384.55-.553.96-.553.41 0 .59.17.96.552.404.42.953.988 1.968 1.037v1.558H3.566v-1.558z" fill="#DCBF9D"/><path d="M9.561 9.482a.8.8 0 0 0 .563-1.36.801.801 0 0 0-.563-.234.803.803 0 0 0-.563.234.803.803 0 0 0-.233.563c0 .21.085.415.233.564a.804.804 0 0 0 .563.233zM15.697 9.482a.8.8 0 0 0 .563-1.36.801.801 0 0 0-.563-.234.803.803 0 0 0-.563.234.803.803 0 0 0-.234.563c0 .21.086.415.234.564a.803.803 0 0 0 .563.233zM8.685 2.63a.803.803 0 0 0-.563.233.803.803 0 0 0-.234.563c0 .21.085.415.234.564a.803.803 0 0 0 .563.233.8.8 0 0 0 .797-.797.8.8 0 0 0-.797-.797zM12.63 2.63a.803.803 0 0 0-.564.233.803.803 0 0 0-.234.563c0 .21.086.415.234.564a.803.803 0 0 0 .563.233.801.801 0 0 0 .797-.797.8.8 0 0 0-.797-.797zM16.574 2.63a.803.803 0 0 0-.564.233.803.803 0 0 0-.233.563c0 .21.085.415.233.564a.803.803 0 0 0 .564.233.8.8 0 0 0 .796-.797.8.8 0 0 0-.796-.797z" fill="#DCBF9D"/></svg>