<svg width="15" height="16" viewBox="0 0 15 16" fill="none" xmlns="http://www.w3.org/2000/svg">
<path fill-rule="evenodd" clip-rule="evenodd" d="M2.14286 2V10H9.64286V2H2.14286ZM1.07143 0C0.479695 0 0 0.447715 0 1V11C0 11.5523 0.479695 12 1.07143 12H10.7143C11.306 12 11.7857 11.5523 11.7857 11V1C11.7857 0.447715 11.306 0 10.7143 0H1.07143Z" fill="#FACC6D"/>
<path fill-rule="evenodd" clip-rule="evenodd" d="M11.7857 6H12.8571V14H5.35714V12H10.7143C11.306 12 11.7857 11.5523 11.7857 11V6ZM10.7143 4C10.1226 4 9.64286 4.44772 9.64286 5V10H4.28571C3.69398 10 3.21429 10.4477 3.21429 11V15C3.21429 15.5523 3.69398 16 4.28571 16H13.9286C14.5203 16 15 15.5523 15 15V5C15 4.44772 14.5203 4 13.9286 4H10.7143Z" fill="#FACC6D"/>
</svg>
