<svg width="15" height="13" fill="none" xmlns="http://www.w3.org/2000/svg"><path d="M4.358 7.54c.422 0 .83-.027 1.215-.077V3.341a9.582 9.582 0 0 0-1.215-.076C1.951 3.265 0 4.128 0 5.193v.418C0 6.676 1.951 7.54 4.358 7.54zM4.358 9.692a9.59 9.59 0 0 0 1.215-.076V8.408c-.386.049-.793.076-1.215.076-2.1 0-3.854-.658-4.266-1.533A.921.921 0 0 0 0 7.346v.418c0 1.065 1.951 1.928 4.358 1.928zM5.573 10.654v-.094a9.58 9.58 0 0 1-1.215.076c-2.1 0-3.854-.657-4.266-1.533A.92.92 0 0 0 0 9.498v.418c0 1.065 1.951 1.928 4.358 1.928.481 0 .944-.034 1.377-.098a1.49 1.49 0 0 1-.162-.674v-.418zM10.642 0C8.235 0 6.284.863 6.284 1.928v.418c0 1.065 1.951 1.928 4.358 1.928 2.407 0 4.358-.863 4.358-1.928v-.418C15 .863 13.049 0 10.642 0z" fill="#FACC6D"/><path d="M10.642 5.219c-2.101 0-3.855-.658-4.267-1.533a.92.92 0 0 0-.091.394V4.5c0 1.064 1.95 1.928 4.358 1.928 2.407 0 4.358-.864 4.358-1.928V4.08a.92.92 0 0 0-.092-.394c-.412.875-2.165 1.533-4.266 1.533z" fill="#FACC6D"/><path d="M10.642 7.371c-2.101 0-3.855-.658-4.267-1.533a.92.92 0 0 0-.091.395v.418c0 1.065 1.95 1.928 4.358 1.928 2.407 0 4.358-.863 4.358-1.928v-.418a.92.92 0 0 0-.092-.395c-.412.875-2.165 1.533-4.266 1.533z" fill="#FACC6D"/><path d="M10.642 9.64c-2.101 0-3.855-.658-4.267-1.533a.92.92 0 0 0-.091.394v.419c0 1.064 1.95 1.928 4.358 1.928 2.407 0 4.358-.864 4.358-1.928V8.5a.92.92 0 0 0-.092-.394c-.412.875-2.165 1.533-4.266 1.533z" fill="#FACC6D"/><path d="M10.642 11.792c-2.101 0-3.855-.658-4.267-1.533a.92.92 0 0 0-.091.395v.418c0 1.065 1.95 1.928 4.358 1.928C13.049 13 15 12.137 15 11.072v-.418a.92.92 0 0 0-.092-.395c-.412.875-2.165 1.533-4.266 1.533z" fill="#FACC6D"/></svg>