<svg width="15" height="13" viewBox="0 0 15 13" fill="none" xmlns="http://www.w3.org/2000/svg">
<path d="M4.35809 7.53932C4.77963 7.53932 5.18709 7.51276 5.57266 7.46333V3.34125C5.18713 3.29185 4.77963 3.26529 4.35809 3.26529C1.95119 3.26529 0 4.12844 0 5.19323V5.61134C0 6.6761 1.95119 7.53932 4.35809 7.53932Z" fill="#FACC6D"/>
<path d="M4.35809 9.69172C4.77963 9.69172 5.18709 9.66516 5.57266 9.6158V8.40753C5.18701 8.45694 4.77974 8.48386 4.35809 8.48386C2.25713 8.48386 0.50356 7.82614 0.0916581 6.95078C0.0316732 7.07828 0 7.21031 0 7.34565V7.76377C0 8.82857 1.95119 9.69172 4.35809 9.69172Z" fill="#FACC6D"/>
<path d="M5.57266 10.654V10.5601C5.18701 10.6095 4.77974 10.6364 4.35809 10.6364C2.25713 10.6364 0.503559 9.97866 0.0916581 9.1033C0.0316732 9.23077 0 9.3628 0 9.49814V9.91625C0 10.9811 1.95119 11.8442 4.35809 11.8442C4.83943 11.8442 5.30239 11.8096 5.73532 11.7459C5.62801 11.5318 5.57266 11.306 5.57266 11.0721V10.654Z" fill="#FACC6D"/>
<path d="M10.6419 0C8.23501 0 6.28381 0.863153 6.28381 1.92795V2.34606C6.28381 3.41086 8.23501 4.27401 10.6419 4.27401C13.0488 4.27401 15 3.41086 15 2.34606V1.92795C15 0.863153 13.0488 0 10.6419 0Z" fill="#FACC6D"/>
<path d="M10.6418 5.21865C8.54082 5.21865 6.78725 4.56097 6.37535 3.68558C6.31536 3.81305 6.28369 3.94507 6.28369 4.08045V4.49856C6.28369 5.56336 8.23488 6.42651 10.6418 6.42651C13.0487 6.42651 14.9999 5.56336 14.9999 4.49856V4.08045C14.9999 3.94507 14.9682 3.81305 14.9082 3.68558C14.4963 4.56097 12.7428 5.21865 10.6418 5.21865Z" fill="#FACC6D"/>
<path d="M10.6418 7.3711C8.54082 7.3711 6.78725 6.71337 6.37535 5.83801C6.31536 5.96548 6.28369 6.09751 6.28369 6.23289V6.651C6.28369 7.71584 8.23488 8.579 10.6418 8.579C13.0487 8.579 14.9999 7.71584 14.9999 6.651V6.23289C14.9999 6.09751 14.9682 5.96548 14.9082 5.83801C14.4963 6.71341 12.7428 7.3711 10.6418 7.3711Z" fill="#FACC6D"/>
<path d="M10.6418 9.63974C8.54082 9.63974 6.78725 8.98202 6.37535 8.10666C6.31536 8.23417 6.28369 8.36615 6.28369 8.50149V8.91965C6.28369 9.98444 8.23488 10.8476 10.6418 10.8476C13.0487 10.8476 14.9999 9.98444 14.9999 8.91965V8.50149C14.9999 8.36615 14.9682 8.23409 14.9082 8.10666C14.4963 8.98198 12.7428 9.63974 10.6418 9.63974Z" fill="#FACC6D"/>
<path d="M10.6418 11.7921C8.54082 11.7921 6.78725 11.1344 6.37535 10.2591C6.31536 10.3866 6.28369 10.5186 6.28369 10.6539V11.072C6.28369 12.1368 8.23488 13 10.6418 13C13.0487 13 14.9999 12.1368 14.9999 11.072V10.6539C14.9999 10.5185 14.9682 10.3865 14.9082 10.259C14.4963 11.1344 12.7428 11.7921 10.6418 11.7921Z" fill="#FACC6D"/>
</svg>
