<svg width="23" height="15" fill="none" xmlns="http://www.w3.org/2000/svg"><path d="M19.396 0H2.7A2.702 2.702 0 0 0 0 2.699V12.3A2.702 2.702 0 0 0 2.699 15h16.697a2.702 2.702 0 0 0 2.699-2.699V2.7c0-1.488-1.21-2.699-2.699-2.699zm-1.319 1.76-7.03 4.53-7.03-4.53h14.06zm1.32 11.48H2.698a.94.94 0 0 1-.938-.939V2.75l8.743 5.623.037.019a1.014 1.014 0 0 0 .247.102l.022.004c.079.019.158.03.237.03h.002c.079 0 .158-.011.237-.03.007-.002.014-.002.021-.005a1.022 1.022 0 0 0 .248-.101c.012-.007.024-.012.036-.02l8.744-5.622v9.552a.94.94 0 0 1-.939.939z" fill="#DCBF9D"/></svg>