<svg width="37" height="25" fill="none" xmlns="http://www.w3.org/2000/svg"><path d="m30.296.47-9.844 24h-4.096L6.512.47h3.641c.393 0 .714.094.961.282.247.188.433.432.556.73l5.412 13.67c.191.476.707 1.97.875 2.546.18.564.349 1.157.506 1.776.135-.62.281-1.212.438-1.776.158-.575.332-1.1.523-1.577l5.714-14.639c.09-.254.264-.486.522-.697.27-.21.596-.315.978-.315h3.658z" fill="#FACC6D"/><path d="M17.082 15.152 13.94 24.47H9.844L0 .47h3.64c.394 0 .714.094.962.282.247.188.432.432.556.73l5.748 14.64c.19.475.37 1 .54 1.576.179.564.347 1.157.505 1.776.135-.62.28-1.212.438-1.776.157-.575.332-1.1.523-1.577l2.278-5.675s.178.377.277.706c.18.377.436 1.13.61 1.553l1.005 2.447z" fill="#fff" fill-opacity=".1"/><path d="m30.296.47-9.844 24h-4.096L6.512.47h3.641c.393 0 .714.094.961.282.247.188.433.432.556.73l5.412 13.67c.191.476.707 1.97.875 2.546.18.564.349 1.157.506 1.776.135-.62.281-1.212.438-1.776.158-.575.332-1.1.523-1.577l5.714-14.639c.09-.254.264-.486.522-.697.27-.21.596-.315.978-.315h3.658z" fill="#FACC6D"/><path d="m36.667.47-9.844 24h-4.096l-2.925-9.318.955-2.447.606-1.553c.248.188.152-1.004.276-.706l2.15 5.675c.19.476.37 1.002.54 1.577.179.564.348 1.157.505 1.776.135-.62.28-1.212.438-1.776.158-.575.332-1.1.523-1.577l5.714-14.639c.09-.254.264-.486.522-.697.27-.21.596-.315.978-.315h3.658z" fill="#fff" fill-opacity=".1"/><path d="m30.296.47-9.844 24h-4.096L6.512.47h3.641c.393 0 .714.094.961.282.247.188.433.432.556.73l5.412 13.67c.191.476.707 1.97.875 2.546.18.564.349 1.157.506 1.776.135-.62.281-1.212.438-1.776.158-.575.332-1.1.523-1.577l5.714-14.639c.09-.254.264-.486.522-.697.27-.21.596-.315.978-.315h3.658z" fill="#FACC6D"/><path d="m30.296.47-9.844 24h-4.096L6.512.47h3.641c.393 0 .714.094.961.282.247.188.433.432.556.73l5.412 13.67c.191.476.707 1.97.875 2.546.18.564.349 1.157.506 1.776.135-.62.281-1.212.438-1.776.158-.575.332-1.1.523-1.577l5.714-14.639c.09-.254.264-.486.522-.697.27-.21.596-.315.978-.315h3.658z" fill="#FACC6D"/><path d="m30.296.47-9.844 24h-4.096L6.512.47h3.641c.393 0 .714.094.961.282.247.188.433.432.556.73l5.412 13.67c.191.476.707 1.97.875 2.546.18.564.349 1.157.506 1.776.135-.62.281-1.212.438-1.776.158-.575.332-1.1.523-1.577l5.714-14.639c.09-.254.264-.486.522-.697.27-.21.596-.315.978-.315h3.658z" fill="#FACC6D"/><path d="m30.296.47-9.844 24h-4.096L6.512.47h3.641c.393 0 .714.094.961.282.247.188.433.432.556.73l5.412 13.67c.191.476.707 1.97.875 2.546.18.564.349 1.157.506 1.776.135-.62.281-1.212.438-1.776.158-.575.332-1.1.523-1.577l5.714-14.639c.09-.254.264-.486.522-.697.27-.21.596-.315.978-.315h3.658z" fill="#FACC6D"/><path d="m30.296.47-9.844 24h-4.096L6.512.47h3.641c.393 0 .714.094.961.282.247.188.433.432.556.73l5.412 13.67c.191.476.707 1.97.875 2.546.18.564.349 1.157.506 1.776.135-.62.281-1.212.438-1.776.158-.575.332-1.1.523-1.577l5.714-14.639c.09-.254.264-.486.522-.697.27-.21.596-.315.978-.315h3.658z" fill="#FACC6D"/><path d="m30.296.47-9.844 24h-4.096L6.512.47h3.641c.393 0 .714.094.961.282.247.188.433.432.556.73l5.412 13.67c.191.476.707 1.97.875 2.546.18.564.349 1.157.506 1.776.135-.62.281-1.212.438-1.776.158-.575.332-1.1.523-1.577l5.714-14.639c.09-.254.264-.486.522-.697.27-.21.596-.315.978-.315h3.658z" fill="#FACC6D"/><path d="m30.296.47-9.844 24h-4.096L6.512.47h3.641c.393 0 .714.094.961.282.247.188.433.432.556.73l5.412 13.67c.191.476.707 1.97.875 2.546.18.564.349 1.157.506 1.776.135-.62.281-1.212.438-1.776.158-.575.332-1.1.523-1.577l5.714-14.639c.09-.254.264-.486.522-.697.27-.21.596-.315.978-.315h3.658z" fill="#FACC6D"/><path d="m30.296.47-9.844 24h-4.096L6.512.47h3.641c.393 0 .714.094.961.282.247.188.433.432.556.73l5.412 13.67c.191.476.707 1.97.875 2.546.18.564.349 1.157.506 1.776.135-.62.281-1.212.438-1.776.158-.575.332-1.1.523-1.577l5.714-14.639c.09-.254.264-.486.522-.697.27-.21.596-.315.978-.315h3.658z" fill="#FACC6D"/><path d="m30.296.47-9.844 24h-4.096L6.512.47h3.641c.393 0 .714.094.961.282.247.188.433.432.556.73l5.412 13.67c.191.476.707 1.97.875 2.546.18.564.349 1.157.506 1.776.135-.62.281-1.212.438-1.776.158-.575.332-1.1.523-1.577l5.714-14.639c.09-.254.264-.486.522-.697.27-.21.596-.315.978-.315h3.658z" fill="#FACC6D"/><path d="m30.296.47-9.844 24h-4.096L6.512.47h3.641c.393 0 .714.094.961.282.247.188.433.432.556.73l5.412 13.67c.191.476.707 1.97.875 2.546.18.564.349 1.157.506 1.776.135-.62.281-1.212.438-1.776.158-.575.332-1.1.523-1.577l5.714-14.639c.09-.254.264-.486.522-.697.27-.21.596-.315.978-.315h3.658z" fill="#FACC6D"/><path d="m30.296.47-9.844 24h-4.096L6.512.47h3.641c.393 0 .714.094.961.282.247.188.433.432.556.73l5.412 13.67c.191.476.707 1.97.875 2.546.18.564.349 1.157.506 1.776.135-.62.281-1.212.438-1.776.158-.575.332-1.1.523-1.577l5.714-14.639c.09-.254.264-.486.522-.697.27-.21.596-.315.978-.315h3.658z" fill="#FACC6D"/><path d="m30.296.47-9.844 24h-4.096L6.512.47h3.641c.393 0 .714.094.961.282.247.188.433.432.556.73l5.412 13.67c.191.476.707 1.97.875 2.546.18.564.349 1.157.506 1.776.135-.62.281-1.212.438-1.776.158-.575.332-1.1.523-1.577l5.714-14.639c.09-.254.264-.486.522-.697.27-.21.596-.315.978-.315h3.658z" fill="#FACC6D"/><path d="m30.296.47-9.844 24h-4.096L6.512.47h3.641c.393 0 .714.094.961.282.247.188.433.432.556.73l5.412 13.67c.191.476.707 1.97.875 2.546.18.564.349 1.157.506 1.776.135-.62.281-1.212.438-1.776.158-.575.332-1.1.523-1.577l5.714-14.639c.09-.254.264-.486.522-.697.27-.21.596-.315.978-.315h3.658z" fill="#FACC6D"/><path d="m30.296.47-9.844 24h-4.096L6.512.47h3.641c.393 0 .714.094.961.282.247.188.433.432.556.73l5.412 13.67c.191.476.707 1.97.875 2.546.18.564.349 1.157.506 1.776.135-.62.281-1.212.438-1.776.158-.575.332-1.1.523-1.577l5.714-14.639c.09-.254.264-.486.522-.697.27-.21.596-.315.978-.315h3.658z" fill="#FACC6D"/><path d="m30.296.47-9.844 24h-4.096L6.512.47h3.641c.393 0 .714.094.961.282.247.188.433.432.556.73l5.412 13.67c.191.476.707 1.97.875 2.546.18.564.349 1.157.506 1.776.135-.62.281-1.212.438-1.776.158-.575.332-1.1.523-1.577l5.714-14.639c.09-.254.264-.486.522-.697.27-.21.596-.315.978-.315h3.658z" fill="#FACC6D"/><path d="m30.296.47-9.844 24h-4.096L6.512.47h3.641c.393 0 .714.094.961.282.247.188.433.432.556.73l5.412 13.67c.191.476.707 1.97.875 2.546.18.564.349 1.157.506 1.776.135-.62.281-1.212.438-1.776.158-.575.332-1.1.523-1.577l5.714-14.639c.09-.254.264-.486.522-.697.27-.21.596-.315.978-.315h3.658z" fill="#FACC6D"/><path d="m30.296.47-9.844 24h-4.096L6.512.47h3.641c.393 0 .714.094.961.282.247.188.433.432.556.73l5.412 13.67c.191.476.707 1.97.875 2.546.18.564.349 1.157.506 1.776.135-.62.281-1.212.438-1.776.158-.575.332-1.1.523-1.577l5.714-14.639c.09-.254.264-.486.522-.697.27-.21.596-.315.978-.315h3.658z" fill="#FACC6D"/><path d="m30.296.47-9.844 24h-4.096L6.512.47h3.641c.393 0 .714.094.961.282.247.188.433.432.556.73l5.412 13.67c.191.476.707 1.97.875 2.546.18.564.349 1.157.506 1.776.135-.62.281-1.212.438-1.776.158-.575.332-1.1.523-1.577l5.714-14.639c.09-.254.264-.486.522-.697.27-.21.596-.315.978-.315h3.658z" fill="#FACC6D"/><path d="m30.296.47-9.844 24h-4.096L6.512.47h3.641c.393 0 .714.094.961.282.247.188.433.432.556.73l5.412 13.67c.191.476.707 1.97.875 2.546.18.564.349 1.157.506 1.776.135-.62.281-1.212.438-1.776.158-.575.332-1.1.523-1.577l5.714-14.639c.09-.254.264-.486.522-.697.27-.21.596-.315.978-.315h3.658z" fill="#FACC6D"/><path d="m30.296.47-9.844 24h-4.096L6.512.47h3.641c.393 0 .714.094.961.282.247.188.433.432.556.73l5.412 13.67c.191.476.707 1.97.875 2.546.18.564.349 1.157.506 1.776.135-.62.281-1.212.438-1.776.158-.575.332-1.1.523-1.577l5.714-14.639c.09-.254.264-.486.522-.697.27-.21.596-.315.978-.315h3.658z" fill="#FACC6D"/><path d="m30.296.47-9.844 24h-4.096L6.512.47h3.641c.393 0 .714.094.961.282.247.188.433.432.556.73l5.412 13.67c.191.476.707 1.97.875 2.546.18.564.349 1.157.506 1.776.135-.62.281-1.212.438-1.776.158-.575.332-1.1.523-1.577l5.714-14.639c.09-.254.264-.486.522-.697.27-.21.596-.315.978-.315h3.658z" fill="#FACC6D"/><path d="m30.296.47-9.844 24h-4.096L6.512.47h3.641c.393 0 .714.094.961.282.247.188.433.432.556.73l5.412 13.67c.191.476.707 1.97.875 2.546.18.564.349 1.157.506 1.776.135-.62.281-1.212.438-1.776.158-.575.332-1.1.523-1.577l5.714-14.639c.09-.254.264-.486.522-.697.27-.21.596-.315.978-.315h3.658z" fill="#FACC6D"/><path d="m30.296.47-9.844 24h-4.096L6.512.47h3.641c.393 0 .714.094.961.282.247.188.433.432.556.73l5.412 13.67c.191.476.707 1.97.875 2.546.18.564.349 1.157.506 1.776.135-.62.281-1.212.438-1.776.158-.575.332-1.1.523-1.577l5.714-14.639c.09-.254.264-.486.522-.697.27-.21.596-.315.978-.315h3.658z" fill="#FACC6D"/><path d="m30.296.47-9.844 24h-4.096L6.512.47h3.641c.393 0 .714.094.961.282.247.188.433.432.556.73l5.412 13.67c.191.476.707 1.97.875 2.546.18.564.349 1.157.506 1.776.135-.62.281-1.212.438-1.776.158-.575.332-1.1.523-1.577l5.714-14.639c.09-.254.264-.486.522-.697.27-.21.596-.315.978-.315h3.658z" fill="#FACC6D"/></svg>