<svg width="37" height="25" viewBox="0 0 37 25" fill="none" xmlns="http://www.w3.org/2000/svg">
<path d="M30.2959 0.469971L20.4521 24.47H16.3561L6.51238 0.469971H10.1532C10.5465 0.469971 10.8668 0.564024 11.114 0.75213C11.3612 0.940234 11.5466 1.18366 11.6702 1.48242L17.0823 15.1523C17.2734 15.6281 17.7889 17.1228 17.9574 17.6982C18.1372 18.2625 18.3058 18.8545 18.4631 19.4741C18.598 18.8545 18.7441 18.2625 18.9014 17.6982C19.0587 17.1228 19.2329 16.5972 19.4239 16.1214L25.138 1.48242C25.2279 1.22792 25.4021 0.995559 25.6605 0.785324C25.9302 0.575089 26.2561 0.469971 26.6382 0.469971H30.2959Z" fill="#FACC6D"/>
<path d="M17.0823 15.1523L13.9397 24.47H9.84377L0 0.469971H3.64085C4.03415 0.469971 4.35441 0.564024 4.60162 0.75213C4.84884 0.940234 5.03426 1.18366 5.15786 1.48242L10.9057 16.1214C11.0967 16.5972 11.2765 17.1228 11.4451 17.6982C11.6249 18.2625 11.7934 18.8545 11.9507 19.4741C12.0856 18.8545 12.2317 18.2625 12.389 17.6982C12.5463 17.1228 12.7205 16.5972 12.9115 16.1214L15.1899 10.4464C15.1899 10.4464 15.3683 10.8229 15.467 11.1523C15.6477 11.5288 15.9026 12.2817 16.0768 12.7053L17.0823 15.1523Z" fill="white" fill-opacity="0.1"/>
<path d="M30.2959 0.469971L20.4521 24.47H16.3561L6.51238 0.469971H10.1532C10.5465 0.469971 10.8668 0.564024 11.114 0.75213C11.3612 0.940234 11.5466 1.18366 11.6702 1.48242L17.0823 15.1523C17.2734 15.6281 17.7889 17.1228 17.9574 17.6982C18.1372 18.2625 18.3058 18.8545 18.4631 19.4741C18.598 18.8545 18.7441 18.2625 18.9014 17.6982C19.0587 17.1228 19.2329 16.5972 19.4239 16.1214L25.138 1.48242C25.2279 1.22792 25.4021 0.995559 25.6605 0.785324C25.9302 0.575089 26.2561 0.469971 26.6382 0.469971H30.2959Z" fill="#FACC6D"/>
<path d="M36.6667 0.469971L26.8229 24.47H22.7269L19.8022 15.1523L20.7573 12.7053C21.1431 11.717 21.1982 11.5759 21.3635 11.1523C21.6107 11.3404 21.5154 10.1477 21.639 10.4464L23.7889 16.1214C23.9799 16.5972 24.1597 17.1228 24.3282 17.6982C24.508 18.2625 24.6766 18.8545 24.8339 19.4741C24.9688 18.8545 25.1148 18.2625 25.2722 17.6982C25.4295 17.1228 25.6037 16.5972 25.7947 16.1214L31.5088 1.48242C31.5987 1.22792 31.7729 0.995559 32.0313 0.785324C32.301 0.575089 32.6269 0.469971 33.009 0.469971H36.6667Z" fill="white" fill-opacity="0.1"/>
<path d="M30.2959 0.469971L20.4521 24.47H16.3561L6.51238 0.469971H10.1532C10.5465 0.469971 10.8668 0.564024 11.114 0.75213C11.3612 0.940234 11.5466 1.18366 11.6702 1.48242L17.0823 15.1523C17.2734 15.6281 17.7889 17.1228 17.9574 17.6982C18.1372 18.2625 18.3058 18.8545 18.4631 19.4741C18.598 18.8545 18.7441 18.2625 18.9014 17.6982C19.0587 17.1228 19.2329 16.5972 19.4239 16.1214L25.138 1.48242C25.2279 1.22792 25.4021 0.995559 25.6605 0.785324C25.9302 0.575089 26.2561 0.469971 26.6382 0.469971H30.2959Z" fill="#FACC6D"/>
<path d="M30.2959 0.469971L20.4521 24.47H16.3561L6.51238 0.469971H10.1532C10.5465 0.469971 10.8668 0.564024 11.114 0.75213C11.3612 0.940234 11.5466 1.18366 11.6702 1.48242L17.0823 15.1523C17.2734 15.6281 17.7889 17.1228 17.9574 17.6982C18.1372 18.2625 18.3058 18.8545 18.4631 19.4741C18.598 18.8545 18.7441 18.2625 18.9014 17.6982C19.0587 17.1228 19.2329 16.5972 19.4239 16.1214L25.138 1.48242C25.2279 1.22792 25.4021 0.995559 25.6605 0.785324C25.9302 0.575089 26.2561 0.469971 26.6382 0.469971H30.2959Z" fill="#FACC6D"/>
<path d="M30.2959 0.469971L20.4521 24.47H16.3561L6.51238 0.469971H10.1532C10.5465 0.469971 10.8668 0.564024 11.114 0.75213C11.3612 0.940234 11.5466 1.18366 11.6702 1.48242L17.0823 15.1523C17.2734 15.6281 17.7889 17.1228 17.9574 17.6982C18.1372 18.2625 18.3058 18.8545 18.4631 19.4741C18.598 18.8545 18.7441 18.2625 18.9014 17.6982C19.0587 17.1228 19.2329 16.5972 19.4239 16.1214L25.138 1.48242C25.2279 1.22792 25.4021 0.995559 25.6605 0.785324C25.9302 0.575089 26.2561 0.469971 26.6382 0.469971H30.2959Z" fill="#FACC6D"/>
<path d="M30.2959 0.469971L20.4521 24.47H16.3561L6.51238 0.469971H10.1532C10.5465 0.469971 10.8668 0.564024 11.114 0.75213C11.3612 0.940234 11.5466 1.18366 11.6702 1.48242L17.0823 15.1523C17.2734 15.6281 17.7889 17.1228 17.9574 17.6982C18.1372 18.2625 18.3058 18.8545 18.4631 19.4741C18.598 18.8545 18.7441 18.2625 18.9014 17.6982C19.0587 17.1228 19.2329 16.5972 19.4239 16.1214L25.138 1.48242C25.2279 1.22792 25.4021 0.995559 25.6605 0.785324C25.9302 0.575089 26.2561 0.469971 26.6382 0.469971H30.2959Z" fill="#FACC6D"/>
<path d="M30.2959 0.469971L20.4521 24.47H16.3561L6.51238 0.469971H10.1532C10.5465 0.469971 10.8668 0.564024 11.114 0.75213C11.3612 0.940234 11.5466 1.18366 11.6702 1.48242L17.0823 15.1523C17.2734 15.6281 17.7889 17.1228 17.9574 17.6982C18.1372 18.2625 18.3058 18.8545 18.4631 19.4741C18.598 18.8545 18.7441 18.2625 18.9014 17.6982C19.0587 17.1228 19.2329 16.5972 19.4239 16.1214L25.138 1.48242C25.2279 1.22792 25.4021 0.995559 25.6605 0.785324C25.9302 0.575089 26.2561 0.469971 26.6382 0.469971H30.2959Z" fill="#FACC6D"/>
<path d="M30.2959 0.469971L20.4521 24.47H16.3561L6.51238 0.469971H10.1532C10.5465 0.469971 10.8668 0.564024 11.114 0.75213C11.3612 0.940234 11.5466 1.18366 11.6702 1.48242L17.0823 15.1523C17.2734 15.6281 17.7889 17.1228 17.9574 17.6982C18.1372 18.2625 18.3058 18.8545 18.4631 19.4741C18.598 18.8545 18.7441 18.2625 18.9014 17.6982C19.0587 17.1228 19.2329 16.5972 19.4239 16.1214L25.138 1.48242C25.2279 1.22792 25.4021 0.995559 25.6605 0.785324C25.9302 0.575089 26.2561 0.469971 26.6382 0.469971H30.2959Z" fill="#FACC6D"/>
<path d="M30.2959 0.469971L20.4521 24.47H16.3561L6.51238 0.469971H10.1532C10.5465 0.469971 10.8668 0.564024 11.114 0.75213C11.3612 0.940234 11.5466 1.18366 11.6702 1.48242L17.0823 15.1523C17.2734 15.6281 17.7889 17.1228 17.9574 17.6982C18.1372 18.2625 18.3058 18.8545 18.4631 19.4741C18.598 18.8545 18.7441 18.2625 18.9014 17.6982C19.0587 17.1228 19.2329 16.5972 19.4239 16.1214L25.138 1.48242C25.2279 1.22792 25.4021 0.995559 25.6605 0.785324C25.9302 0.575089 26.2561 0.469971 26.6382 0.469971H30.2959Z" fill="#FACC6D"/>
<path d="M30.2959 0.469971L20.4521 24.47H16.3561L6.51238 0.469971H10.1532C10.5465 0.469971 10.8668 0.564024 11.114 0.75213C11.3612 0.940234 11.5466 1.18366 11.6702 1.48242L17.0823 15.1523C17.2734 15.6281 17.7889 17.1228 17.9574 17.6982C18.1372 18.2625 18.3058 18.8545 18.4631 19.4741C18.598 18.8545 18.7441 18.2625 18.9014 17.6982C19.0587 17.1228 19.2329 16.5972 19.4239 16.1214L25.138 1.48242C25.2279 1.22792 25.4021 0.995559 25.6605 0.785324C25.9302 0.575089 26.2561 0.469971 26.6382 0.469971H30.2959Z" fill="#FACC6D"/>
<path d="M30.2959 0.469971L20.4521 24.47H16.3561L6.51238 0.469971H10.1532C10.5465 0.469971 10.8668 0.564024 11.114 0.75213C11.3612 0.940234 11.5466 1.18366 11.6702 1.48242L17.0823 15.1523C17.2734 15.6281 17.7889 17.1228 17.9574 17.6982C18.1372 18.2625 18.3058 18.8545 18.4631 19.4741C18.598 18.8545 18.7441 18.2625 18.9014 17.6982C19.0587 17.1228 19.2329 16.5972 19.4239 16.1214L25.138 1.48242C25.2279 1.22792 25.4021 0.995559 25.6605 0.785324C25.9302 0.575089 26.2561 0.469971 26.6382 0.469971H30.2959Z" fill="#FACC6D"/>
<path d="M30.2959 0.469971L20.4521 24.47H16.3561L6.51238 0.469971H10.1532C10.5465 0.469971 10.8668 0.564024 11.114 0.75213C11.3612 0.940234 11.5466 1.18366 11.6702 1.48242L17.0823 15.1523C17.2734 15.6281 17.7889 17.1228 17.9574 17.6982C18.1372 18.2625 18.3058 18.8545 18.4631 19.4741C18.598 18.8545 18.7441 18.2625 18.9014 17.6982C19.0587 17.1228 19.2329 16.5972 19.4239 16.1214L25.138 1.48242C25.2279 1.22792 25.4021 0.995559 25.6605 0.785324C25.9302 0.575089 26.2561 0.469971 26.6382 0.469971H30.2959Z" fill="#FACC6D"/>
<path d="M30.2959 0.469971L20.4521 24.47H16.3561L6.51238 0.469971H10.1532C10.5465 0.469971 10.8668 0.564024 11.114 0.75213C11.3612 0.940234 11.5466 1.18366 11.6702 1.48242L17.0823 15.1523C17.2734 15.6281 17.7889 17.1228 17.9574 17.6982C18.1372 18.2625 18.3058 18.8545 18.4631 19.4741C18.598 18.8545 18.7441 18.2625 18.9014 17.6982C19.0587 17.1228 19.2329 16.5972 19.4239 16.1214L25.138 1.48242C25.2279 1.22792 25.4021 0.995559 25.6605 0.785324C25.9302 0.575089 26.2561 0.469971 26.6382 0.469971H30.2959Z" fill="#FACC6D"/>
<path d="M30.2959 0.469971L20.4521 24.47H16.3561L6.51238 0.469971H10.1532C10.5465 0.469971 10.8668 0.564024 11.114 0.75213C11.3612 0.940234 11.5466 1.18366 11.6702 1.48242L17.0823 15.1523C17.2734 15.6281 17.7889 17.1228 17.9574 17.6982C18.1372 18.2625 18.3058 18.8545 18.4631 19.4741C18.598 18.8545 18.7441 18.2625 18.9014 17.6982C19.0587 17.1228 19.2329 16.5972 19.4239 16.1214L25.138 1.48242C25.2279 1.22792 25.4021 0.995559 25.6605 0.785324C25.9302 0.575089 26.2561 0.469971 26.6382 0.469971H30.2959Z" fill="#FACC6D"/>
<path d="M30.2959 0.469971L20.4521 24.47H16.3561L6.51238 0.469971H10.1532C10.5465 0.469971 10.8668 0.564024 11.114 0.75213C11.3612 0.940234 11.5466 1.18366 11.6702 1.48242L17.0823 15.1523C17.2734 15.6281 17.7889 17.1228 17.9574 17.6982C18.1372 18.2625 18.3058 18.8545 18.4631 19.4741C18.598 18.8545 18.7441 18.2625 18.9014 17.6982C19.0587 17.1228 19.2329 16.5972 19.4239 16.1214L25.138 1.48242C25.2279 1.22792 25.4021 0.995559 25.6605 0.785324C25.9302 0.575089 26.2561 0.469971 26.6382 0.469971H30.2959Z" fill="#FACC6D"/>
<path d="M30.2959 0.469971L20.4521 24.47H16.3561L6.51238 0.469971H10.1532C10.5465 0.469971 10.8668 0.564024 11.114 0.75213C11.3612 0.940234 11.5466 1.18366 11.6702 1.48242L17.0823 15.1523C17.2734 15.6281 17.7889 17.1228 17.9574 17.6982C18.1372 18.2625 18.3058 18.8545 18.4631 19.4741C18.598 18.8545 18.7441 18.2625 18.9014 17.6982C19.0587 17.1228 19.2329 16.5972 19.4239 16.1214L25.138 1.48242C25.2279 1.22792 25.4021 0.995559 25.6605 0.785324C25.9302 0.575089 26.2561 0.469971 26.6382 0.469971H30.2959Z" fill="#FACC6D"/>
<path d="M30.2959 0.469971L20.4521 24.47H16.3561L6.51238 0.469971H10.1532C10.5465 0.469971 10.8668 0.564024 11.114 0.75213C11.3612 0.940234 11.5466 1.18366 11.6702 1.48242L17.0823 15.1523C17.2734 15.6281 17.7889 17.1228 17.9574 17.6982C18.1372 18.2625 18.3058 18.8545 18.4631 19.4741C18.598 18.8545 18.7441 18.2625 18.9014 17.6982C19.0587 17.1228 19.2329 16.5972 19.4239 16.1214L25.138 1.48242C25.2279 1.22792 25.4021 0.995559 25.6605 0.785324C25.9302 0.575089 26.2561 0.469971 26.6382 0.469971H30.2959Z" fill="#FACC6D"/>
<path d="M30.2959 0.469971L20.4521 24.47H16.3561L6.51238 0.469971H10.1532C10.5465 0.469971 10.8668 0.564024 11.114 0.75213C11.3612 0.940234 11.5466 1.18366 11.6702 1.48242L17.0823 15.1523C17.2734 15.6281 17.7889 17.1228 17.9574 17.6982C18.1372 18.2625 18.3058 18.8545 18.4631 19.4741C18.598 18.8545 18.7441 18.2625 18.9014 17.6982C19.0587 17.1228 19.2329 16.5972 19.4239 16.1214L25.138 1.48242C25.2279 1.22792 25.4021 0.995559 25.6605 0.785324C25.9302 0.575089 26.2561 0.469971 26.6382 0.469971H30.2959Z" fill="#FACC6D"/>
<path d="M30.2959 0.469971L20.4521 24.47H16.3561L6.51238 0.469971H10.1532C10.5465 0.469971 10.8668 0.564024 11.114 0.75213C11.3612 0.940234 11.5466 1.18366 11.6702 1.48242L17.0823 15.1523C17.2734 15.6281 17.7889 17.1228 17.9574 17.6982C18.1372 18.2625 18.3058 18.8545 18.4631 19.4741C18.598 18.8545 18.7441 18.2625 18.9014 17.6982C19.0587 17.1228 19.2329 16.5972 19.4239 16.1214L25.138 1.48242C25.2279 1.22792 25.4021 0.995559 25.6605 0.785324C25.9302 0.575089 26.2561 0.469971 26.6382 0.469971H30.2959Z" fill="#FACC6D"/>
<path d="M30.2959 0.469971L20.4521 24.47H16.3561L6.51238 0.469971H10.1532C10.5465 0.469971 10.8668 0.564024 11.114 0.75213C11.3612 0.940234 11.5466 1.18366 11.6702 1.48242L17.0823 15.1523C17.2734 15.6281 17.7889 17.1228 17.9574 17.6982C18.1372 18.2625 18.3058 18.8545 18.4631 19.4741C18.598 18.8545 18.7441 18.2625 18.9014 17.6982C19.0587 17.1228 19.2329 16.5972 19.4239 16.1214L25.138 1.48242C25.2279 1.22792 25.4021 0.995559 25.6605 0.785324C25.9302 0.575089 26.2561 0.469971 26.6382 0.469971H30.2959Z" fill="#FACC6D"/>
<path d="M30.2959 0.469971L20.4521 24.47H16.3561L6.51238 0.469971H10.1532C10.5465 0.469971 10.8668 0.564024 11.114 0.75213C11.3612 0.940234 11.5466 1.18366 11.6702 1.48242L17.0823 15.1523C17.2734 15.6281 17.7889 17.1228 17.9574 17.6982C18.1372 18.2625 18.3058 18.8545 18.4631 19.4741C18.598 18.8545 18.7441 18.2625 18.9014 17.6982C19.0587 17.1228 19.2329 16.5972 19.4239 16.1214L25.138 1.48242C25.2279 1.22792 25.4021 0.995559 25.6605 0.785324C25.9302 0.575089 26.2561 0.469971 26.6382 0.469971H30.2959Z" fill="#FACC6D"/>
<path d="M30.2959 0.469971L20.4521 24.47H16.3561L6.51238 0.469971H10.1532C10.5465 0.469971 10.8668 0.564024 11.114 0.75213C11.3612 0.940234 11.5466 1.18366 11.6702 1.48242L17.0823 15.1523C17.2734 15.6281 17.7889 17.1228 17.9574 17.6982C18.1372 18.2625 18.3058 18.8545 18.4631 19.4741C18.598 18.8545 18.7441 18.2625 18.9014 17.6982C19.0587 17.1228 19.2329 16.5972 19.4239 16.1214L25.138 1.48242C25.2279 1.22792 25.4021 0.995559 25.6605 0.785324C25.9302 0.575089 26.2561 0.469971 26.6382 0.469971H30.2959Z" fill="#FACC6D"/>
<path d="M30.2959 0.469971L20.4521 24.47H16.3561L6.51238 0.469971H10.1532C10.5465 0.469971 10.8668 0.564024 11.114 0.75213C11.3612 0.940234 11.5466 1.18366 11.6702 1.48242L17.0823 15.1523C17.2734 15.6281 17.7889 17.1228 17.9574 17.6982C18.1372 18.2625 18.3058 18.8545 18.4631 19.4741C18.598 18.8545 18.7441 18.2625 18.9014 17.6982C19.0587 17.1228 19.2329 16.5972 19.4239 16.1214L25.138 1.48242C25.2279 1.22792 25.4021 0.995559 25.6605 0.785324C25.9302 0.575089 26.2561 0.469971 26.6382 0.469971H30.2959Z" fill="#FACC6D"/>
<path d="M30.2959 0.469971L20.4521 24.47H16.3561L6.51238 0.469971H10.1532C10.5465 0.469971 10.8668 0.564024 11.114 0.75213C11.3612 0.940234 11.5466 1.18366 11.6702 1.48242L17.0823 15.1523C17.2734 15.6281 17.7889 17.1228 17.9574 17.6982C18.1372 18.2625 18.3058 18.8545 18.4631 19.4741C18.598 18.8545 18.7441 18.2625 18.9014 17.6982C19.0587 17.1228 19.2329 16.5972 19.4239 16.1214L25.138 1.48242C25.2279 1.22792 25.4021 0.995559 25.6605 0.785324C25.9302 0.575089 26.2561 0.469971 26.6382 0.469971H30.2959Z" fill="#FACC6D"/>
<path d="M30.2959 0.469971L20.4521 24.47H16.3561L6.51238 0.469971H10.1532C10.5465 0.469971 10.8668 0.564024 11.114 0.75213C11.3612 0.940234 11.5466 1.18366 11.6702 1.48242L17.0823 15.1523C17.2734 15.6281 17.7889 17.1228 17.9574 17.6982C18.1372 18.2625 18.3058 18.8545 18.4631 19.4741C18.598 18.8545 18.7441 18.2625 18.9014 17.6982C19.0587 17.1228 19.2329 16.5972 19.4239 16.1214L25.138 1.48242C25.2279 1.22792 25.4021 0.995559 25.6605 0.785324C25.9302 0.575089 26.2561 0.469971 26.6382 0.469971H30.2959Z" fill="#FACC6D"/>
<path d="M30.2959 0.469971L20.4521 24.47H16.3561L6.51238 0.469971H10.1532C10.5465 0.469971 10.8668 0.564024 11.114 0.75213C11.3612 0.940234 11.5466 1.18366 11.6702 1.48242L17.0823 15.1523C17.2734 15.6281 17.7889 17.1228 17.9574 17.6982C18.1372 18.2625 18.3058 18.8545 18.4631 19.4741C18.598 18.8545 18.7441 18.2625 18.9014 17.6982C19.0587 17.1228 19.2329 16.5972 19.4239 16.1214L25.138 1.48242C25.2279 1.22792 25.4021 0.995559 25.6605 0.785324C25.9302 0.575089 26.2561 0.469971 26.6382 0.469971H30.2959Z" fill="#FACC6D"/>
</svg>
