<svg width="153" height="36" fill="none" xmlns="http://www.w3.org/2000/svg"><g clip-path="url(#a)"><path d="M45.444 0 30.678 36h-6.144L9.77 0h5.46c.59 0 1.071.141 1.442.423.37.282.649.648.834 1.096l8.119 20.505c.286.713 1.06 2.955 1.312 3.818.27.847.523 1.735.759 2.664.202-.93.421-1.817.657-2.664a21.77 21.77 0 0 1 .784-2.365L37.707 1.52c.135-.382.396-.73.784-1.046.404-.315.893-.473 1.466-.473h5.487z" fill="#FACC6D"/><path d="M25.623 22.023 20.91 36h-6.144L0 0h5.461c.59 0 1.07.141 1.441.423.371.282.65.648.835 1.096l8.622 21.958c.286.714.556 1.502.809 2.365.27.847.522 1.735.758 2.664.202-.93.422-1.817.658-2.664a21.77 21.77 0 0 1 .783-2.365l3.418-8.512s.267.564.416 1.058c.27.565.653 1.695.914 2.33l1.509 3.67z" fill="#fff" fill-opacity=".1"/><path d="M45.444 0 30.678 36h-6.144L9.77 0h5.46c.59 0 1.071.141 1.442.423.37.282.649.648.834 1.096l8.119 20.505c.286.713 1.06 2.955 1.312 3.818.27.847.523 1.735.759 2.664.202-.93.421-1.817.657-2.664a21.77 21.77 0 0 1 .784-2.365L37.707 1.52c.135-.382.396-.73.784-1.046.404-.315.893-.473 1.466-.473h5.487z" fill="#FACC6D"/><path d="M55 0 40.234 36H34.09l-4.387-13.977 1.433-3.67.91-2.33c.37.283.227-1.506.413-1.058l3.224 8.512c.287.714.556 1.502.81 2.365.27.847.522 1.735.758 2.664.202-.93.421-1.817.657-2.664a21.77 21.77 0 0 1 .784-2.365L47.263 1.52c.135-.382.396-.73.784-1.046C48.452.158 48.94 0 49.514 0H55z" fill="#fff" fill-opacity=".1"/><path d="M45.444 0 30.678 36h-6.144L9.77 0h5.46c.59 0 1.071.141 1.442.423.37.282.649.648.834 1.096l8.119 20.505c.286.713 1.06 2.955 1.312 3.818.27.847.523 1.735.759 2.664.202-.93.421-1.817.657-2.664a21.77 21.77 0 0 1 .784-2.365L37.707 1.52c.135-.382.396-.73.784-1.046.404-.315.893-.473 1.466-.473h5.487z" fill="#FACC6D"/><path d="M45.444 0 30.678 36h-6.144L9.77 0h5.46c.59 0 1.071.141 1.442.423.37.282.649.648.834 1.096l8.119 20.505c.286.713 1.06 2.955 1.312 3.818.27.847.523 1.735.759 2.664.202-.93.421-1.817.657-2.664a21.77 21.77 0 0 1 .784-2.365L37.707 1.52c.135-.382.396-.73.784-1.046.404-.315.893-.473 1.466-.473h5.487z" fill="#FACC6D"/><path d="M45.444 0 30.678 36h-6.144L9.77 0h5.46c.59 0 1.071.141 1.442.423.37.282.649.648.834 1.096l8.119 20.505c.286.713 1.06 2.955 1.312 3.818.27.847.523 1.735.759 2.664.202-.93.421-1.817.657-2.664a21.77 21.77 0 0 1 .784-2.365L37.707 1.52c.135-.382.396-.73.784-1.046.404-.315.893-.473 1.466-.473h5.487z" fill="#FACC6D"/><path d="M45.444 0 30.678 36h-6.144L9.77 0h5.46c.59 0 1.071.141 1.442.423.37.282.649.648.834 1.096l8.119 20.505c.286.713 1.06 2.955 1.312 3.818.27.847.523 1.735.759 2.664.202-.93.421-1.817.657-2.664a21.77 21.77 0 0 1 .784-2.365L37.707 1.52c.135-.382.396-.73.784-1.046.404-.315.893-.473 1.466-.473h5.487z" fill="#FACC6D"/><path d="M45.444 0 30.678 36h-6.144L9.77 0h5.46c.59 0 1.071.141 1.442.423.37.282.649.648.834 1.096l8.119 20.505c.286.713 1.06 2.955 1.312 3.818.27.847.523 1.735.759 2.664.202-.93.421-1.817.657-2.664a21.77 21.77 0 0 1 .784-2.365L37.707 1.52c.135-.382.396-.73.784-1.046.404-.315.893-.473 1.466-.473h5.487z" fill="#FACC6D"/><path d="M45.444 0 30.678 36h-6.144L9.77 0h5.46c.59 0 1.071.141 1.442.423.37.282.649.648.834 1.096l8.119 20.505c.286.713 1.06 2.955 1.312 3.818.27.847.523 1.735.759 2.664.202-.93.421-1.817.657-2.664a21.77 21.77 0 0 1 .784-2.365L37.707 1.52c.135-.382.396-.73.784-1.046.404-.315.893-.473 1.466-.473h5.487z" fill="#FACC6D"/><path d="M45.444 0 30.678 36h-6.144L9.77 0h5.46c.59 0 1.071.141 1.442.423.37.282.649.648.834 1.096l8.119 20.505c.286.713 1.06 2.955 1.312 3.818.27.847.523 1.735.759 2.664.202-.93.421-1.817.657-2.664a21.77 21.77 0 0 1 .784-2.365L37.707 1.52c.135-.382.396-.73.784-1.046.404-.315.893-.473 1.466-.473h5.487z" fill="#FACC6D"/><path d="M45.444 0 30.678 36h-6.144L9.77 0h5.46c.59 0 1.071.141 1.442.423.37.282.649.648.834 1.096l8.119 20.505c.286.713 1.06 2.955 1.312 3.818.27.847.523 1.735.759 2.664.202-.93.421-1.817.657-2.664a21.77 21.77 0 0 1 .784-2.365L37.707 1.52c.135-.382.396-.73.784-1.046.404-.315.893-.473 1.466-.473h5.487z" fill="#FACC6D"/><path d="M45.444 0 30.678 36h-6.144L9.77 0h5.46c.59 0 1.071.141 1.442.423.37.282.649.648.834 1.096l8.119 20.505c.286.713 1.06 2.955 1.312 3.818.27.847.523 1.735.759 2.664.202-.93.421-1.817.657-2.664a21.77 21.77 0 0 1 .784-2.365L37.707 1.52c.135-.382.396-.73.784-1.046.404-.315.893-.473 1.466-.473h5.487z" fill="#FACC6D"/><path d="M45.444 0 30.678 36h-6.144L9.77 0h5.46c.59 0 1.071.141 1.442.423.37.282.649.648.834 1.096l8.119 20.505c.286.713 1.06 2.955 1.312 3.818.27.847.523 1.735.759 2.664.202-.93.421-1.817.657-2.664a21.77 21.77 0 0 1 .784-2.365L37.707 1.52c.135-.382.396-.73.784-1.046.404-.315.893-.473 1.466-.473h5.487z" fill="#FACC6D"/><path d="M45.444 0 30.678 36h-6.144L9.77 0h5.46c.59 0 1.071.141 1.442.423.37.282.649.648.834 1.096l8.119 20.505c.286.713 1.06 2.955 1.312 3.818.27.847.523 1.735.759 2.664.202-.93.421-1.817.657-2.664a21.77 21.77 0 0 1 .784-2.365L37.707 1.52c.135-.382.396-.73.784-1.046.404-.315.893-.473 1.466-.473h5.487z" fill="#FACC6D"/><path d="M45.444 0 30.678 36h-6.144L9.77 0h5.46c.59 0 1.071.141 1.442.423.37.282.649.648.834 1.096l8.119 20.505c.286.713 1.06 2.955 1.312 3.818.27.847.523 1.735.759 2.664.202-.93.421-1.817.657-2.664a21.77 21.77 0 0 1 .784-2.365L37.707 1.52c.135-.382.396-.73.784-1.046.404-.315.893-.473 1.466-.473h5.487z" fill="#FACC6D"/><path d="M45.444 0 30.678 36h-6.144L9.77 0h5.46c.59 0 1.071.141 1.442.423.37.282.649.648.834 1.096l8.119 20.505c.286.713 1.06 2.955 1.312 3.818.27.847.523 1.735.759 2.664.202-.93.421-1.817.657-2.664a21.77 21.77 0 0 1 .784-2.365L37.707 1.52c.135-.382.396-.73.784-1.046.404-.315.893-.473 1.466-.473h5.487z" fill="#FACC6D"/><path d="M45.444 0 30.678 36h-6.144L9.77 0h5.46c.59 0 1.071.141 1.442.423.37.282.649.648.834 1.096l8.119 20.505c.286.713 1.06 2.955 1.312 3.818.27.847.523 1.735.759 2.664.202-.93.421-1.817.657-2.664a21.77 21.77 0 0 1 .784-2.365L37.707 1.52c.135-.382.396-.73.784-1.046.404-.315.893-.473 1.466-.473h5.487z" fill="#FACC6D"/><path d="M45.444 0 30.678 36h-6.144L9.77 0h5.46c.59 0 1.071.141 1.442.423.37.282.649.648.834 1.096l8.119 20.505c.286.713 1.06 2.955 1.312 3.818.27.847.523 1.735.759 2.664.202-.93.421-1.817.657-2.664a21.77 21.77 0 0 1 .784-2.365L37.707 1.52c.135-.382.396-.73.784-1.046.404-.315.893-.473 1.466-.473h5.487z" fill="#FACC6D"/><path d="M45.444 0 30.678 36h-6.144L9.77 0h5.46c.59 0 1.071.141 1.442.423.37.282.649.648.834 1.096l8.119 20.505c.286.713 1.06 2.955 1.312 3.818.27.847.523 1.735.759 2.664.202-.93.421-1.817.657-2.664a21.77 21.77 0 0 1 .784-2.365L37.707 1.52c.135-.382.396-.73.784-1.046.404-.315.893-.473 1.466-.473h5.487z" fill="#FACC6D"/><path d="M45.444 0 30.678 36h-6.144L9.77 0h5.46c.59 0 1.071.141 1.442.423.37.282.649.648.834 1.096l8.119 20.505c.286.713 1.06 2.955 1.312 3.818.27.847.523 1.735.759 2.664.202-.93.421-1.817.657-2.664a21.77 21.77 0 0 1 .784-2.365L37.707 1.52c.135-.382.396-.73.784-1.046.404-.315.893-.473 1.466-.473h5.487z" fill="#FACC6D"/><path d="M45.444 0 30.678 36h-6.144L9.77 0h5.46c.59 0 1.071.141 1.442.423.37.282.649.648.834 1.096l8.119 20.505c.286.713 1.06 2.955 1.312 3.818.27.847.523 1.735.759 2.664.202-.93.421-1.817.657-2.664a21.77 21.77 0 0 1 .784-2.365L37.707 1.52c.135-.382.396-.73.784-1.046.404-.315.893-.473 1.466-.473h5.487z" fill="#FACC6D"/><path d="M45.444 0 30.678 36h-6.144L9.77 0h5.46c.59 0 1.071.141 1.442.423.37.282.649.648.834 1.096l8.119 20.505c.286.713 1.06 2.955 1.312 3.818.27.847.523 1.735.759 2.664.202-.93.421-1.817.657-2.664a21.77 21.77 0 0 1 .784-2.365L37.707 1.52c.135-.382.396-.73.784-1.046.404-.315.893-.473 1.466-.473h5.487z" fill="#FACC6D"/><path d="M45.444 0 30.678 36h-6.144L9.77 0h5.46c.59 0 1.071.141 1.442.423.37.282.649.648.834 1.096l8.119 20.505c.286.713 1.06 2.955 1.312 3.818.27.847.523 1.735.759 2.664.202-.93.421-1.817.657-2.664a21.77 21.77 0 0 1 .784-2.365L37.707 1.52c.135-.382.396-.73.784-1.046.404-.315.893-.473 1.466-.473h5.487z" fill="#FACC6D"/><path d="M45.444 0 30.678 36h-6.144L9.77 0h5.46c.59 0 1.071.141 1.442.423.37.282.649.648.834 1.096l8.119 20.505c.286.713 1.06 2.955 1.312 3.818.27.847.523 1.735.759 2.664.202-.93.421-1.817.657-2.664a21.77 21.77 0 0 1 .784-2.365L37.707 1.52c.135-.382.396-.73.784-1.046.404-.315.893-.473 1.466-.473h5.487z" fill="#FACC6D"/><path d="M45.444 0 30.678 36h-6.144L9.77 0h5.46c.59 0 1.071.141 1.442.423.37.282.649.648.834 1.096l8.119 20.505c.286.713 1.06 2.955 1.312 3.818.27.847.523 1.735.759 2.664.202-.93.421-1.817.657-2.664a21.77 21.77 0 0 1 .784-2.365L37.707 1.52c.135-.382.396-.73.784-1.046.404-.315.893-.473 1.466-.473h5.487z" fill="#FACC6D"/><path d="M45.444 0 30.678 36h-6.144L9.77 0h5.46c.59 0 1.071.141 1.442.423.37.282.649.648.834 1.096l8.119 20.505c.286.713 1.06 2.955 1.312 3.818.27.847.523 1.735.759 2.664.202-.93.421-1.817.657-2.664a21.77 21.77 0 0 1 .784-2.365L37.707 1.52c.135-.382.396-.73.784-1.046.404-.315.893-.473 1.466-.473h5.487z" fill="#FACC6D"/><path d="M45.444 0 30.678 36h-6.144L9.77 0h5.46c.59 0 1.071.141 1.442.423.37.282.649.648.834 1.096l8.119 20.505c.286.713 1.06 2.955 1.312 3.818.27.847.523 1.735.759 2.664.202-.93.421-1.817.657-2.664a21.77 21.77 0 0 1 .784-2.365L37.707 1.52c.135-.382.396-.73.784-1.046.404-.315.893-.473 1.466-.473h5.487z" fill="#FACC6D"/><g opacity=".5" fill="#fff"><path d="m72.496 21.748-5.184-12.87c-.18-.42-.354-.924-.522-1.512-.072.288-.15.564-.234.828a7.815 7.815 0 0 1-.27.702l-5.184 12.852h11.394zM78.13 31h-1.422a.654.654 0 0 1-.414-.126.975.975 0 0 1-.252-.36l-2.988-7.398h-12.51l-2.988 7.398a.773.773 0 0 1-.252.342.67.67 0 0 1-.432.144h-1.404L65.89 5.53h1.818L78.13 31zM102.008 5.53V31h-.864a.973.973 0 0 1-.396-.072 1.086 1.086 0 0 1-.288-.288L83.918 8.536c.036.36.054.702.054 1.026V31h-1.62V5.53h.918c.168 0 .294.024.378.072.096.036.198.126.306.27l16.506 22.05a10.33 10.33 0 0 1-.054-1.026V5.53h1.602zM129.184 5.53V31h-.864a.973.973 0 0 1-.396-.072 1.086 1.086 0 0 1-.288-.288L111.094 8.536c.036.36.054.702.054 1.026V31h-1.62V5.53h.918c.168 0 .294.024.378.072.096.036.198.126.306.27l16.506 22.05a10.33 10.33 0 0 1-.054-1.026V5.53h1.602zM152.003 29.47l-.036 1.53h-15.264V5.53h15.264v1.53h-13.41v10.296h11.16v1.494h-11.16v10.62h13.446z"/></g></g><defs><clipPath id="a"><path fill="#fff" d="M0 0h152.003v36H0z"/></clipPath></defs></svg>