<svg width="12" height="20" fill="none" xmlns="http://www.w3.org/2000/svg"><path d="M1.875 0h8.25C11.161 0 12 .933 12 2.083v15.834c0 1.15-.84 2.083-1.875 2.083h-8.25C.839 20 0 19.067 0 17.917V2.083C0 .933.84 0 1.875 0zM3.75 1.25c-.207 0-.375.187-.375.417v.416c0 .23.168.417.375.417h4.5c.207 0 .375-.187.375-.417v-.416c0-.23-.168-.417-.375-.417h-4.5zM1.5 3.333v12.5h9v-12.5h-9zM6 16.667c-.621 0-1.125.56-1.125 1.25s.504 1.25 1.125 1.25 1.125-.56 1.125-1.25-.504-1.25-1.125-1.25z" fill="#DCBF9D"/></svg>