<svg width="20" height="19" viewBox="0 0 20 19" fill="none" xmlns="http://www.w3.org/2000/svg">
<path fill-rule="evenodd" clip-rule="evenodd" d="M8.92397 0.0646271C9.26985 0.0252519 9.6288 0 10 0C10.3721 0 10.7309 0.0259429 11.0743 0.0644329C11.4545 0.107048 11.7771 0.362844 11.9052 0.723329L12.6063 2.6962C12.7282 2.74288 12.8488 2.79286 12.9679 2.84609L14.8559 1.94709C15.2016 1.78251 15.6108 1.8297 15.9099 2.06863C16.4719 2.51752 16.9819 3.02792 17.4303 3.59027C17.6686 3.88913 17.7157 4.29768 17.5517 4.64292L16.6539 6.53226C16.7068 6.65086 16.7568 6.77116 16.8036 6.89314L18.7774 7.59514C19.1378 7.72331 19.3935 8.04582 19.4361 8.42594C19.4748 8.77062 19.5 9.12913 19.5 9.50028C19.5 9.87133 19.4748 10.2295 19.4368 10.5725C19.3948 10.9533 19.1389 11.2765 18.778 11.4049L16.8043 12.1068C16.7574 12.229 16.7073 12.3498 16.654 12.4688L17.5515 14.3563C17.7158 14.7018 17.6686 15.1107 17.4299 15.4097C16.982 15.9706 16.4728 16.4812 15.909 16.9305C15.6101 17.1686 15.2017 17.2156 14.8566 17.0516L12.9673 16.1538C12.8487 16.2067 12.7284 16.2566 12.6065 16.3035L11.9039 18.2776C11.7757 18.6379 11.4533 18.8935 11.0732 18.9361C10.7286 18.9747 10.3706 19 9.99944 19C9.62788 19 9.26976 18.9748 8.92666 18.9368C8.54602 18.8948 8.22284 18.639 8.09442 18.2782L7.3919 16.3045C7.26991 16.2576 7.14946 16.2076 7.03064 16.1544L5.14417 17.0529C4.79892 17.2173 4.39013 17.1704 4.09104 16.9322C3.52841 16.4839 3.01759 15.9744 2.56832 15.4105C2.33011 15.1115 2.28322 14.7029 2.44749 14.3577L3.34622 12.4691C3.29313 12.3502 3.24316 12.2297 3.19639 12.1077L1.22293 11.4053C0.863225 11.2773 0.607806 10.9557 0.564624 10.5763C0.525255 10.2305 0.5 9.87152 0.5 9.50083C0.5 9.12934 0.525925 8.76944 0.564452 8.4263C0.607097 8.04648 0.862512 7.72419 1.22254 7.59589L3.1963 6.89257C3.24306 6.77053 3.29303 6.65001 3.34613 6.53109L2.4471 4.64378C2.28253 4.29832 2.32954 3.88923 2.56818 3.59009C3.01699 3.02752 3.52688 2.51689 4.09049 2.06784C4.38952 1.8296 4.79823 1.78271 5.14345 1.94705L7.03234 2.84625C7.15113 2.79318 7.27155 2.74323 7.39356 2.69647L8.09482 0.723329C8.22272 0.363432 8.54447 0.107829 8.92397 0.0646271ZM9.76206 2.00444L9.11675 3.82016C9.01043 4.11931 8.76838 4.3502 8.46455 4.44229C8.13135 4.54327 7.81306 4.67587 7.51006 4.83809C7.22991 4.98808 6.89515 4.996 6.60823 4.85941L4.87304 4.03338C4.75634 4.14296 4.6431 4.25624 4.53347 4.37308L5.3592 6.10652C5.4959 6.39348 5.48803 6.72833 5.33801 7.00856C5.17593 7.3113 5.04322 7.63025 4.9421 7.96345C4.85002 8.26685 4.61952 8.5086 4.32086 8.61503L2.50456 9.26225C2.50157 9.34211 2.5 9.42162 2.5 9.50083C2.5 9.5799 2.50152 9.65911 2.50444 9.73854L4.32048 10.3848C4.61932 10.4912 4.84998 10.733 4.9421 11.0365C5.04322 11.3697 5.17593 11.6887 5.33801 11.9914C5.48797 12.2715 5.4959 12.6062 5.35937 12.8931L4.53386 14.6278C4.64331 14.7443 4.75647 14.8573 4.87318 14.9667L6.60641 14.1412C6.89336 14.0046 7.2282 14.0124 7.5084 14.1625C7.81185 14.3249 8.13124 14.4583 8.46448 14.5599C8.76744 14.6522 9.00872 14.8827 9.11493 15.1811L9.76079 16.9956C9.84052 16.9985 9.92003 17 9.99944 17C10.0786 17 10.1578 16.9985 10.2373 16.9956L10.8834 15.18C10.9896 14.8816 11.2309 14.6511 11.5339 14.5588C11.8671 14.4571 12.1873 14.3236 12.492 14.1613C12.7716 14.0125 13.1051 14.0049 13.3912 14.1409L15.126 14.9652C15.2425 14.8558 15.3556 14.7426 15.4651 14.6259L14.6405 12.8918C14.5038 12.6043 14.5121 12.269 14.6629 11.9886C14.8242 11.6887 14.9575 11.369 15.0593 11.0346C15.1516 10.7314 15.3822 10.4899 15.6808 10.3837L17.4956 9.73823C17.4985 9.6587 17.5 9.57942 17.5 9.50028C17.5 9.42099 17.4985 9.34159 17.4956 9.26196L15.6803 8.61634C15.3816 8.51013 15.151 8.26863 15.0587 7.96542C14.9572 7.63211 14.8238 7.31261 14.6614 7.00755C14.5126 6.72801 14.505 6.39452 14.6409 6.1085L15.4654 4.3735C15.3558 4.2567 15.2426 4.14338 15.1259 4.03369L13.3919 4.85937C13.1046 4.99616 12.7693 4.98807 12.489 4.83758C12.1853 4.67457 11.8661 4.54223 11.5362 4.44252C11.232 4.35059 10.9897 4.11957 10.8832 3.82016L10.238 2.00453C10.1584 2.00156 10.0791 2 10 2C9.92081 2 9.84153 2.00152 9.76206 2.00444Z" fill="#FACC6D"/>
<path fill-rule="evenodd" clip-rule="evenodd" d="M10 11C10.8284 11 11.5 10.3284 11.5 9.5C11.5 8.67157 10.8284 8 10 8C9.17157 8 8.5 8.67157 8.5 9.5C8.5 10.3284 9.17157 11 10 11ZM10 13C11.933 13 13.5 11.433 13.5 9.5C13.5 7.567 11.933 6 10 6C8.067 6 6.5 7.567 6.5 9.5C6.5 11.433 8.067 13 10 13Z" fill="#FACC6D"/>
</svg>
