<svg width="20" height="19" fill="none" xmlns="http://www.w3.org/2000/svg"><path fill-rule="evenodd" clip-rule="evenodd" d="M8.924.065C9.27.025 9.629 0 10 0c.372 0 .73.026 1.074.064a1 1 0 0 1 .831.66l.701 1.972c.122.047.243.097.362.15l1.888-.899a1 1 0 0 1 1.054.122c.562.449 1.072.959 1.52 1.521a1 1 0 0 1 .122 1.053l-.898 1.89c.053.118.103.238.15.36l1.973.702a1 1 0 0 1 .66.83c.038.346.063.704.063 1.075s-.025.73-.063 1.072a1 1 0 0 1-.659.833l-1.974.702a7.176 7.176 0 0 1-.15.362l.898 1.887a1 1 0 0 1-.122 1.054 9.616 9.616 0 0 1-1.521 1.52 1 1 0 0 1-1.052.122l-1.89-.898a7.474 7.474 0 0 1-.36.15l-.703 1.974a1 1 0 0 1-.83.658A9.62 9.62 0 0 1 9.998 19c-.371 0-.73-.025-1.072-.063a1 1 0 0 1-.833-.659l-.702-1.973a7.254 7.254 0 0 1-.361-.15l-1.887.898a1 1 0 0 1-1.053-.12 9.572 9.572 0 0 1-1.523-1.522 1 1 0 0 1-.12-1.053l.898-1.889a7.264 7.264 0 0 1-.15-.361l-1.973-.703a1 1 0 0 1-.658-.829A9.491 9.491 0 0 1 .5 9.501c0-.372.026-.732.064-1.075a1 1 0 0 1 .659-.83l1.973-.703a7.24 7.24 0 0 1 .15-.362l-.899-1.887a1 1 0 0 1 .121-1.054A9.6 9.6 0 0 1 4.09 2.068a1 1 0 0 1 1.053-.121l1.89.9c.118-.054.239-.104.36-.15L8.096.722a1 1 0 0 1 .829-.658zm.838 1.94L9.117 3.82a1 1 0 0 1-.652.622 5.236 5.236 0 0 0-.955.396 1 1 0 0 1-.902.021l-1.735-.826c-.117.11-.23.223-.34.34l.826 1.734a1 1 0 0 1-.021.902 5.252 5.252 0 0 0-.396.954 1 1 0 0 1-.621.652l-1.816.647a6.376 6.376 0 0 0 0 .477l1.815.646a1 1 0 0 1 .622.652c.101.333.234.652.396.954a1 1 0 0 1 .021.902l-.825 1.735c.11.116.222.23.34.339l1.732-.826a1 1 0 0 1 .902.021 5.3 5.3 0 0 0 .956.398 1 1 0 0 1 .65.621l.647 1.815a6.564 6.564 0 0 0 .476 0l.646-1.816a1 1 0 0 1 .65-.621c.334-.102.654-.235.959-.398a1 1 0 0 1 .9-.02l1.734.824c.117-.11.23-.222.34-.34l-.825-1.733a1 1 0 0 1 .022-.903c.161-.3.294-.62.396-.954a1 1 0 0 1 .622-.651l1.815-.646a6.528 6.528 0 0 0 0-.476l-1.816-.646a1 1 0 0 1-.621-.65 5.357 5.357 0 0 0-.398-.958 1 1 0 0 1-.02-.9l.824-1.734a7.656 7.656 0 0 0-.34-.34l-1.733.825a1 1 0 0 1-.903-.021 5.19 5.19 0 0 0-.953-.395 1 1 0 0 1-.653-.623l-.645-1.815a6.382 6.382 0 0 0-.476 0z" fill="#FACC6D"/><path fill-rule="evenodd" clip-rule="evenodd" d="M10 11a1.5 1.5 0 1 0 0-3 1.5 1.5 0 0 0 0 3zm0 2a3.5 3.5 0 1 0 0-7 3.5 3.5 0 0 0 0 7z" fill="#FACC6D"/></svg>