<svg width="15" height="15" viewBox="0 0 15 15" fill="none" xmlns="http://www.w3.org/2000/svg">
<path d="M7.5 0.5C8.36195 0.5 9.1886 0.84241 9.7981 1.4519C10.4076 2.0614 10.75 2.88805 10.75 3.75C10.75 4.61195 10.4076 5.4386 9.7981 6.0481C9.1886 6.65759 8.36195 7 7.5 7C6.63805 7 5.8114 6.65759 5.2019 6.0481C4.59241 5.4386 4.25 4.61195 4.25 3.75C4.25 2.88805 4.59241 2.0614 5.2019 1.4519C5.8114 0.84241 6.63805 0.5 7.5 0.5ZM12.5803 10.9203C13.884 11.5721 14.5 12.3804 14.5 13.125V14.5H0.5V13.125C0.5 12.3804 1.116 11.5721 2.4197 10.9203C3.69363 10.2833 5.48885 9.875 7.5 9.875C9.51115 9.875 11.3064 10.2833 12.5803 10.9203Z" stroke="#FACC6D"/>
</svg>
