<svg width="153" height="36" viewBox="0 0 153 36" fill="none" xmlns="http://www.w3.org/2000/svg">
<g clip-path="url(#clip0_1_23)">
<path d="M45.4438 0L30.6781 36H24.5342L9.76857 0H15.2298C15.8198 0 16.3002 0.14108 16.671 0.423238C17.0418 0.705395 17.32 1.07054 17.5054 1.51867L25.6235 22.0235C25.9101 22.7372 26.6833 24.9793 26.9362 25.8423C27.2059 26.6888 27.4587 27.5768 27.6947 28.5062C27.8969 27.5768 28.1161 26.6888 28.3521 25.8423C28.588 24.9793 28.8493 24.1909 29.1358 23.4772L37.707 1.51867C37.8418 1.13693 38.1031 0.788382 38.4908 0.47303C38.8953 0.157677 39.3841 0 39.9572 0H45.4438Z" fill="#FACC6D"/>
<path d="M25.6235 22.0235L20.9096 36H14.7656L0 0H5.46127C6.05122 0 6.53161 0.14108 6.90244 0.423238C7.27326 0.705395 7.55138 1.07054 7.7368 1.51867L16.3585 23.4772C16.6451 24.1909 16.9148 24.9793 17.1676 25.8423C17.4373 26.6888 17.6901 27.5768 17.9261 28.5062C18.1284 27.5768 18.3475 26.6888 18.5835 25.8423C18.8195 24.9793 19.0807 24.1909 19.3673 23.4772L22.7848 14.9647C22.7848 14.9647 23.0524 15.5294 23.2005 16.0235C23.4716 16.5882 23.8538 17.7176 24.1151 18.3529L25.6235 22.0235Z" fill="white" fill-opacity="0.1"/>
<path d="M45.4438 0L30.6781 36H24.5342L9.76857 0H15.2298C15.8198 0 16.3002 0.14108 16.671 0.423238C17.0418 0.705395 17.32 1.07054 17.5054 1.51867L25.6235 22.0235C25.9101 22.7372 26.6833 24.9793 26.9362 25.8423C27.2059 26.6888 27.4587 27.5768 27.6947 28.5062C27.8969 27.5768 28.1161 26.6888 28.3521 25.8423C28.588 24.9793 28.8493 24.1909 29.1358 23.4772L37.707 1.51867C37.8418 1.13693 38.1031 0.788382 38.4908 0.47303C38.8953 0.157677 39.3841 0 39.9572 0H45.4438Z" fill="#FACC6D"/>
<path d="M55 0L40.2343 36H34.0904L29.7032 22.0235L31.136 18.3529C31.7146 16.8706 31.7973 16.6588 32.0453 16.0235C32.4161 16.3057 32.2731 14.5166 32.4585 14.9647L35.6833 23.4772C35.9698 24.1909 36.2395 24.9793 36.4924 25.8423C36.7621 26.6888 37.0149 27.5768 37.2509 28.5062C37.4531 27.5768 37.6723 26.6888 37.9083 25.8423C38.1442 24.9793 38.4055 24.1909 38.692 23.4772L47.2632 1.51867C47.3981 1.13693 47.6593 0.788382 48.047 0.47303C48.4515 0.157677 48.9404 0 49.5135 0H55Z" fill="white" fill-opacity="0.1"/>
<path d="M45.4438 0L30.6781 36H24.5342L9.76857 0H15.2298C15.8198 0 16.3002 0.14108 16.671 0.423238C17.0418 0.705395 17.32 1.07054 17.5054 1.51867L25.6235 22.0235C25.9101 22.7372 26.6833 24.9793 26.9362 25.8423C27.2059 26.6888 27.4587 27.5768 27.6947 28.5062C27.8969 27.5768 28.1161 26.6888 28.3521 25.8423C28.588 24.9793 28.8493 24.1909 29.1358 23.4772L37.707 1.51867C37.8418 1.13693 38.1031 0.788382 38.4908 0.47303C38.8953 0.157677 39.3841 0 39.9572 0H45.4438Z" fill="#FACC6D"/>
<path d="M45.4438 0L30.6781 36H24.5342L9.76857 0H15.2298C15.8198 0 16.3002 0.14108 16.671 0.423238C17.0418 0.705395 17.32 1.07054 17.5054 1.51867L25.6235 22.0235C25.9101 22.7372 26.6833 24.9793 26.9362 25.8423C27.2059 26.6888 27.4587 27.5768 27.6947 28.5062C27.8969 27.5768 28.1161 26.6888 28.3521 25.8423C28.588 24.9793 28.8493 24.1909 29.1358 23.4772L37.707 1.51867C37.8418 1.13693 38.1031 0.788382 38.4908 0.47303C38.8953 0.157677 39.3841 0 39.9572 0H45.4438Z" fill="#FACC6D"/>
<path d="M45.4438 0L30.6781 36H24.5342L9.76857 0H15.2298C15.8198 0 16.3002 0.14108 16.671 0.423238C17.0418 0.705395 17.32 1.07054 17.5054 1.51867L25.6235 22.0235C25.9101 22.7372 26.6833 24.9793 26.9362 25.8423C27.2059 26.6888 27.4587 27.5768 27.6947 28.5062C27.8969 27.5768 28.1161 26.6888 28.3521 25.8423C28.588 24.9793 28.8493 24.1909 29.1358 23.4772L37.707 1.51867C37.8418 1.13693 38.1031 0.788382 38.4908 0.47303C38.8953 0.157677 39.3841 0 39.9572 0H45.4438Z" fill="#FACC6D"/>
<path d="M45.4438 0L30.6781 36H24.5342L9.76857 0H15.2298C15.8198 0 16.3002 0.14108 16.671 0.423238C17.0418 0.705395 17.32 1.07054 17.5054 1.51867L25.6235 22.0235C25.9101 22.7372 26.6833 24.9793 26.9362 25.8423C27.2059 26.6888 27.4587 27.5768 27.6947 28.5062C27.8969 27.5768 28.1161 26.6888 28.3521 25.8423C28.588 24.9793 28.8493 24.1909 29.1358 23.4772L37.707 1.51867C37.8418 1.13693 38.1031 0.788382 38.4908 0.47303C38.8953 0.157677 39.3841 0 39.9572 0H45.4438Z" fill="#FACC6D"/>
<path d="M45.4438 0L30.6781 36H24.5342L9.76857 0H15.2298C15.8198 0 16.3002 0.14108 16.671 0.423238C17.0418 0.705395 17.32 1.07054 17.5054 1.51867L25.6235 22.0235C25.9101 22.7372 26.6833 24.9793 26.9362 25.8423C27.2059 26.6888 27.4587 27.5768 27.6947 28.5062C27.8969 27.5768 28.1161 26.6888 28.3521 25.8423C28.588 24.9793 28.8493 24.1909 29.1358 23.4772L37.707 1.51867C37.8418 1.13693 38.1031 0.788382 38.4908 0.47303C38.8953 0.157677 39.3841 0 39.9572 0H45.4438Z" fill="#FACC6D"/>
<path d="M45.4438 0L30.6781 36H24.5342L9.76857 0H15.2298C15.8198 0 16.3002 0.14108 16.671 0.423238C17.0418 0.705395 17.32 1.07054 17.5054 1.51867L25.6235 22.0235C25.9101 22.7372 26.6833 24.9793 26.9362 25.8423C27.2059 26.6888 27.4587 27.5768 27.6947 28.5062C27.8969 27.5768 28.1161 26.6888 28.3521 25.8423C28.588 24.9793 28.8493 24.1909 29.1358 23.4772L37.707 1.51867C37.8418 1.13693 38.1031 0.788382 38.4908 0.47303C38.8953 0.157677 39.3841 0 39.9572 0H45.4438Z" fill="#FACC6D"/>
<path d="M45.4438 0L30.6781 36H24.5342L9.76857 0H15.2298C15.8198 0 16.3002 0.14108 16.671 0.423238C17.0418 0.705395 17.32 1.07054 17.5054 1.51867L25.6235 22.0235C25.9101 22.7372 26.6833 24.9793 26.9362 25.8423C27.2059 26.6888 27.4587 27.5768 27.6947 28.5062C27.8969 27.5768 28.1161 26.6888 28.3521 25.8423C28.588 24.9793 28.8493 24.1909 29.1358 23.4772L37.707 1.51867C37.8418 1.13693 38.1031 0.788382 38.4908 0.47303C38.8953 0.157677 39.3841 0 39.9572 0H45.4438Z" fill="#FACC6D"/>
<path d="M45.4438 0L30.6781 36H24.5342L9.76857 0H15.2298C15.8198 0 16.3002 0.14108 16.671 0.423238C17.0418 0.705395 17.32 1.07054 17.5054 1.51867L25.6235 22.0235C25.9101 22.7372 26.6833 24.9793 26.9362 25.8423C27.2059 26.6888 27.4587 27.5768 27.6947 28.5062C27.8969 27.5768 28.1161 26.6888 28.3521 25.8423C28.588 24.9793 28.8493 24.1909 29.1358 23.4772L37.707 1.51867C37.8418 1.13693 38.1031 0.788382 38.4908 0.47303C38.8953 0.157677 39.3841 0 39.9572 0H45.4438Z" fill="#FACC6D"/>
<path d="M45.4438 0L30.6781 36H24.5342L9.76857 0H15.2298C15.8198 0 16.3002 0.14108 16.671 0.423238C17.0418 0.705395 17.32 1.07054 17.5054 1.51867L25.6235 22.0235C25.9101 22.7372 26.6833 24.9793 26.9362 25.8423C27.2059 26.6888 27.4587 27.5768 27.6947 28.5062C27.8969 27.5768 28.1161 26.6888 28.3521 25.8423C28.588 24.9793 28.8493 24.1909 29.1358 23.4772L37.707 1.51867C37.8418 1.13693 38.1031 0.788382 38.4908 0.47303C38.8953 0.157677 39.3841 0 39.9572 0H45.4438Z" fill="#FACC6D"/>
<path d="M45.4438 0L30.6781 36H24.5342L9.76857 0H15.2298C15.8198 0 16.3002 0.14108 16.671 0.423238C17.0418 0.705395 17.32 1.07054 17.5054 1.51867L25.6235 22.0235C25.9101 22.7372 26.6833 24.9793 26.9362 25.8423C27.2059 26.6888 27.4587 27.5768 27.6947 28.5062C27.8969 27.5768 28.1161 26.6888 28.3521 25.8423C28.588 24.9793 28.8493 24.1909 29.1358 23.4772L37.707 1.51867C37.8418 1.13693 38.1031 0.788382 38.4908 0.47303C38.8953 0.157677 39.3841 0 39.9572 0H45.4438Z" fill="#FACC6D"/>
<path d="M45.4438 0L30.6781 36H24.5342L9.76857 0H15.2298C15.8198 0 16.3002 0.14108 16.671 0.423238C17.0418 0.705395 17.32 1.07054 17.5054 1.51867L25.6235 22.0235C25.9101 22.7372 26.6833 24.9793 26.9362 25.8423C27.2059 26.6888 27.4587 27.5768 27.6947 28.5062C27.8969 27.5768 28.1161 26.6888 28.3521 25.8423C28.588 24.9793 28.8493 24.1909 29.1358 23.4772L37.707 1.51867C37.8418 1.13693 38.1031 0.788382 38.4908 0.47303C38.8953 0.157677 39.3841 0 39.9572 0H45.4438Z" fill="#FACC6D"/>
<path d="M45.4438 0L30.6781 36H24.5342L9.76857 0H15.2298C15.8198 0 16.3002 0.14108 16.671 0.423238C17.0418 0.705395 17.32 1.07054 17.5054 1.51867L25.6235 22.0235C25.9101 22.7372 26.6833 24.9793 26.9362 25.8423C27.2059 26.6888 27.4587 27.5768 27.6947 28.5062C27.8969 27.5768 28.1161 26.6888 28.3521 25.8423C28.588 24.9793 28.8493 24.1909 29.1358 23.4772L37.707 1.51867C37.8418 1.13693 38.1031 0.788382 38.4908 0.47303C38.8953 0.157677 39.3841 0 39.9572 0H45.4438Z" fill="#FACC6D"/>
<path d="M45.4438 0L30.6781 36H24.5342L9.76857 0H15.2298C15.8198 0 16.3002 0.14108 16.671 0.423238C17.0418 0.705395 17.32 1.07054 17.5054 1.51867L25.6235 22.0235C25.9101 22.7372 26.6833 24.9793 26.9362 25.8423C27.2059 26.6888 27.4587 27.5768 27.6947 28.5062C27.8969 27.5768 28.1161 26.6888 28.3521 25.8423C28.588 24.9793 28.8493 24.1909 29.1358 23.4772L37.707 1.51867C37.8418 1.13693 38.1031 0.788382 38.4908 0.47303C38.8953 0.157677 39.3841 0 39.9572 0H45.4438Z" fill="#FACC6D"/>
<path d="M45.4438 0L30.6781 36H24.5342L9.76857 0H15.2298C15.8198 0 16.3002 0.14108 16.671 0.423238C17.0418 0.705395 17.32 1.07054 17.5054 1.51867L25.6235 22.0235C25.9101 22.7372 26.6833 24.9793 26.9362 25.8423C27.2059 26.6888 27.4587 27.5768 27.6947 28.5062C27.8969 27.5768 28.1161 26.6888 28.3521 25.8423C28.588 24.9793 28.8493 24.1909 29.1358 23.4772L37.707 1.51867C37.8418 1.13693 38.1031 0.788382 38.4908 0.47303C38.8953 0.157677 39.3841 0 39.9572 0H45.4438Z" fill="#FACC6D"/>
<path d="M45.4438 0L30.6781 36H24.5342L9.76857 0H15.2298C15.8198 0 16.3002 0.14108 16.671 0.423238C17.0418 0.705395 17.32 1.07054 17.5054 1.51867L25.6235 22.0235C25.9101 22.7372 26.6833 24.9793 26.9362 25.8423C27.2059 26.6888 27.4587 27.5768 27.6947 28.5062C27.8969 27.5768 28.1161 26.6888 28.3521 25.8423C28.588 24.9793 28.8493 24.1909 29.1358 23.4772L37.707 1.51867C37.8418 1.13693 38.1031 0.788382 38.4908 0.47303C38.8953 0.157677 39.3841 0 39.9572 0H45.4438Z" fill="#FACC6D"/>
<path d="M45.4438 0L30.6781 36H24.5342L9.76857 0H15.2298C15.8198 0 16.3002 0.14108 16.671 0.423238C17.0418 0.705395 17.32 1.07054 17.5054 1.51867L25.6235 22.0235C25.9101 22.7372 26.6833 24.9793 26.9362 25.8423C27.2059 26.6888 27.4587 27.5768 27.6947 28.5062C27.8969 27.5768 28.1161 26.6888 28.3521 25.8423C28.588 24.9793 28.8493 24.1909 29.1358 23.4772L37.707 1.51867C37.8418 1.13693 38.1031 0.788382 38.4908 0.47303C38.8953 0.157677 39.3841 0 39.9572 0H45.4438Z" fill="#FACC6D"/>
<path d="M45.4438 0L30.6781 36H24.5342L9.76857 0H15.2298C15.8198 0 16.3002 0.14108 16.671 0.423238C17.0418 0.705395 17.32 1.07054 17.5054 1.51867L25.6235 22.0235C25.9101 22.7372 26.6833 24.9793 26.9362 25.8423C27.2059 26.6888 27.4587 27.5768 27.6947 28.5062C27.8969 27.5768 28.1161 26.6888 28.3521 25.8423C28.588 24.9793 28.8493 24.1909 29.1358 23.4772L37.707 1.51867C37.8418 1.13693 38.1031 0.788382 38.4908 0.47303C38.8953 0.157677 39.3841 0 39.9572 0H45.4438Z" fill="#FACC6D"/>
<path d="M45.4438 0L30.6781 36H24.5342L9.76857 0H15.2298C15.8198 0 16.3002 0.14108 16.671 0.423238C17.0418 0.705395 17.32 1.07054 17.5054 1.51867L25.6235 22.0235C25.9101 22.7372 26.6833 24.9793 26.9362 25.8423C27.2059 26.6888 27.4587 27.5768 27.6947 28.5062C27.8969 27.5768 28.1161 26.6888 28.3521 25.8423C28.588 24.9793 28.8493 24.1909 29.1358 23.4772L37.707 1.51867C37.8418 1.13693 38.1031 0.788382 38.4908 0.47303C38.8953 0.157677 39.3841 0 39.9572 0H45.4438Z" fill="#FACC6D"/>
<path d="M45.4438 0L30.6781 36H24.5342L9.76857 0H15.2298C15.8198 0 16.3002 0.14108 16.671 0.423238C17.0418 0.705395 17.32 1.07054 17.5054 1.51867L25.6235 22.0235C25.9101 22.7372 26.6833 24.9793 26.9362 25.8423C27.2059 26.6888 27.4587 27.5768 27.6947 28.5062C27.8969 27.5768 28.1161 26.6888 28.3521 25.8423C28.588 24.9793 28.8493 24.1909 29.1358 23.4772L37.707 1.51867C37.8418 1.13693 38.1031 0.788382 38.4908 0.47303C38.8953 0.157677 39.3841 0 39.9572 0H45.4438Z" fill="#FACC6D"/>
<path d="M45.4438 0L30.6781 36H24.5342L9.76857 0H15.2298C15.8198 0 16.3002 0.14108 16.671 0.423238C17.0418 0.705395 17.32 1.07054 17.5054 1.51867L25.6235 22.0235C25.9101 22.7372 26.6833 24.9793 26.9362 25.8423C27.2059 26.6888 27.4587 27.5768 27.6947 28.5062C27.8969 27.5768 28.1161 26.6888 28.3521 25.8423C28.588 24.9793 28.8493 24.1909 29.1358 23.4772L37.707 1.51867C37.8418 1.13693 38.1031 0.788382 38.4908 0.47303C38.8953 0.157677 39.3841 0 39.9572 0H45.4438Z" fill="#FACC6D"/>
<path d="M45.4438 0L30.6781 36H24.5342L9.76857 0H15.2298C15.8198 0 16.3002 0.14108 16.671 0.423238C17.0418 0.705395 17.32 1.07054 17.5054 1.51867L25.6235 22.0235C25.9101 22.7372 26.6833 24.9793 26.9362 25.8423C27.2059 26.6888 27.4587 27.5768 27.6947 28.5062C27.8969 27.5768 28.1161 26.6888 28.3521 25.8423C28.588 24.9793 28.8493 24.1909 29.1358 23.4772L37.707 1.51867C37.8418 1.13693 38.1031 0.788382 38.4908 0.47303C38.8953 0.157677 39.3841 0 39.9572 0H45.4438Z" fill="#FACC6D"/>
<path d="M45.4438 0L30.6781 36H24.5342L9.76857 0H15.2298C15.8198 0 16.3002 0.14108 16.671 0.423238C17.0418 0.705395 17.32 1.07054 17.5054 1.51867L25.6235 22.0235C25.9101 22.7372 26.6833 24.9793 26.9362 25.8423C27.2059 26.6888 27.4587 27.5768 27.6947 28.5062C27.8969 27.5768 28.1161 26.6888 28.3521 25.8423C28.588 24.9793 28.8493 24.1909 29.1358 23.4772L37.707 1.51867C37.8418 1.13693 38.1031 0.788382 38.4908 0.47303C38.8953 0.157677 39.3841 0 39.9572 0H45.4438Z" fill="#FACC6D"/>
<path d="M45.4438 0L30.6781 36H24.5342L9.76857 0H15.2298C15.8198 0 16.3002 0.14108 16.671 0.423238C17.0418 0.705395 17.32 1.07054 17.5054 1.51867L25.6235 22.0235C25.9101 22.7372 26.6833 24.9793 26.9362 25.8423C27.2059 26.6888 27.4587 27.5768 27.6947 28.5062C27.8969 27.5768 28.1161 26.6888 28.3521 25.8423C28.588 24.9793 28.8493 24.1909 29.1358 23.4772L37.707 1.51867C37.8418 1.13693 38.1031 0.788382 38.4908 0.47303C38.8953 0.157677 39.3841 0 39.9572 0H45.4438Z" fill="#FACC6D"/>
<path d="M45.4438 0L30.6781 36H24.5342L9.76857 0H15.2298C15.8198 0 16.3002 0.14108 16.671 0.423238C17.0418 0.705395 17.32 1.07054 17.5054 1.51867L25.6235 22.0235C25.9101 22.7372 26.6833 24.9793 26.9362 25.8423C27.2059 26.6888 27.4587 27.5768 27.6947 28.5062C27.8969 27.5768 28.1161 26.6888 28.3521 25.8423C28.588 24.9793 28.8493 24.1909 29.1358 23.4772L37.707 1.51867C37.8418 1.13693 38.1031 0.788382 38.4908 0.47303C38.8953 0.157677 39.3841 0 39.9572 0H45.4438Z" fill="#FACC6D"/>
<g opacity="0.5">
<path d="M72.496 21.748L67.312 8.87803C67.132 8.45803 66.958 7.95403 66.79 7.36603C66.718 7.65403 66.64 7.93003 66.556 8.19403C66.472 8.44603 66.382 8.68003 66.286 8.89603L61.102 21.748H72.496ZM78.13 31H76.708C76.54 31 76.402 30.958 76.294 30.874C76.186 30.778 76.102 30.658 76.042 30.514L73.054 23.116H60.544L57.556 30.514C57.508 30.646 57.424 30.76 57.304 30.856C57.184 30.952 57.04 31 56.872 31H55.468L65.89 5.53003H67.708L78.13 31Z" fill="white"/>
<path d="M102.008 5.53003V31H101.144C100.988 31 100.856 30.976 100.748 30.928C100.652 30.868 100.556 30.772 100.46 30.64L83.9179 8.53603C83.9539 8.89603 83.9719 9.23803 83.9719 9.56203V31H82.3519V5.53003H83.2699C83.4379 5.53003 83.5639 5.55403 83.6479 5.60203C83.7439 5.63803 83.8459 5.72803 83.9539 5.87203L100.46 27.922C100.424 27.562 100.406 27.22 100.406 26.896V5.53003H102.008Z" fill="white"/>
<path d="M129.184 5.53003V31H128.32C128.164 31 128.032 30.976 127.924 30.928C127.828 30.868 127.732 30.772 127.636 30.64L111.094 8.53603C111.13 8.89603 111.148 9.23803 111.148 9.56203V31H109.528V5.53003H110.446C110.614 5.53003 110.74 5.55403 110.824 5.60203C110.92 5.63803 111.022 5.72803 111.13 5.87203L127.636 27.922C127.6 27.562 127.582 27.22 127.582 26.896V5.53003H129.184Z" fill="white"/>
<path d="M152.003 29.47L151.967 31H136.703V5.53003H151.967V7.06003H138.557V17.356H149.717V18.85H138.557V29.47H152.003Z" fill="white"/>
</g>
</g>
<defs>
<clipPath id="clip0_1_23">
<rect width="152.003" height="36" fill="white"/>
</clipPath>
</defs>
</svg>
