<?xml version="1.0" encoding="UTF-8" standalone="no"?>
<!DOCTYPE svg PUBLIC "-//W3C//DTD SVG 1.1//EN"
 "http://www.w3.org/Graphics/SVG/1.1/DTD/svg11.dtd">
<!-- Generated by graphviz version 2.47.3 (20210619.1520)
 -->
<!-- Title: dependencies Pages: 1 -->
<svg width="448pt" height="174pt"
 viewBox="0.00 0.00 448.00 173.80" xmlns="http://www.w3.org/2000/svg" xmlns:xlink="http://www.w3.org/1999/xlink">
<g id="graph0" class="graph" transform="scale(1 1) rotate(0) translate(4 169.8)">
<title>dependencies</title>
<polygon fill="white" stroke="transparent" points="-4,4 -4,-169.8 444,-169.8 444,4 -4,4"/>
<text text-anchor="middle" x="220" y="-8.2" font-family="sans-serif" font-size="14.00">dependencies</text>
<g id="clust1" class="cluster">
<title>cluster_DebtsModule</title>
<polygon fill="none" stroke="black" stroke-dasharray="1,5" points="8,-32.8 8,-157.8 432,-157.8 432,-32.8 8,-32.8"/>
</g>
<g id="clust4" class="cluster">
<title>cluster_DebtsModule_imports</title>
<polygon fill="none" stroke="black" points="154,-40.8 154,-92.8 424,-92.8 424,-40.8 154,-40.8"/>
</g>
<g id="clust2" class="cluster">
<title>cluster_DebtsModule_declarations</title>
<polygon fill="none" stroke="black" points="16,-40.8 16,-92.8 146,-92.8 146,-40.8 16,-40.8"/>
</g>
<!-- DebtsComponent -->
<g id="node1" class="node">
<title>DebtsComponent</title>
<polygon fill="#ffffb3" stroke="black" points="137.99,-84.8 24.01,-84.8 24.01,-48.8 137.99,-48.8 137.99,-84.8"/>
<text text-anchor="middle" x="81" y="-62.6" font-family="Times,serif" font-size="14.00">DebtsComponent</text>
</g>
<!-- DebtsModule -->
<g id="node2" class="node">
<title>DebtsModule</title>
<polygon fill="#8dd3c7" stroke="black" points="257.21,-149.8 254.21,-153.8 233.21,-153.8 230.21,-149.8 164.79,-149.8 164.79,-113.8 257.21,-113.8 257.21,-149.8"/>
<text text-anchor="middle" x="211" y="-127.6" font-family="Times,serif" font-size="14.00">DebtsModule</text>
</g>
<!-- DebtsComponent&#45;&gt;DebtsModule -->
<g id="edge1" class="edge">
<title>DebtsComponent&#45;&gt;DebtsModule</title>
<path fill="none" stroke="black" d="M81,-84.91C81,-104.14 81,-131.8 81,-131.8 81,-131.8 154.8,-131.8 154.8,-131.8"/>
<polygon fill="black" stroke="black" points="154.8,-135.3 164.8,-131.8 154.8,-128.3 154.8,-135.3"/>
</g>
<!-- DebtsRoutingModule -->
<g id="node3" class="node">
<title>DebtsRoutingModule</title>
<polygon fill="#8dd3c7" stroke="black" points="415.82,-84.8 412.82,-88.8 391.82,-88.8 388.82,-84.8 278.18,-84.8 278.18,-48.8 415.82,-48.8 415.82,-84.8"/>
<text text-anchor="middle" x="347" y="-62.6" font-family="Times,serif" font-size="14.00">DebtsRoutingModule</text>
</g>
<!-- DebtsRoutingModule&#45;&gt;DebtsModule -->
<g id="edge2" class="edge">
<title>DebtsRoutingModule&#45;&gt;DebtsModule</title>
<path fill="none" stroke="black" d="M347,-84.91C347,-104.14 347,-131.8 347,-131.8 347,-131.8 267.42,-131.8 267.42,-131.8"/>
<polygon fill="black" stroke="black" points="267.42,-128.3 257.42,-131.8 267.42,-135.3 267.42,-128.3"/>
</g>
<!-- SharedModule -->
<g id="node4" class="node">
<title>SharedModule</title>
<polygon fill="#8dd3c7" stroke="black" points="260.42,-84.8 257.42,-88.8 236.42,-88.8 233.42,-84.8 161.58,-84.8 161.58,-48.8 260.42,-48.8 260.42,-84.8"/>
<text text-anchor="middle" x="211" y="-62.6" font-family="Times,serif" font-size="14.00">SharedModule</text>
</g>
<!-- SharedModule&#45;&gt;DebtsModule -->
<g id="edge3" class="edge">
<title>SharedModule&#45;&gt;DebtsModule</title>
<path fill="none" stroke="black" d="M211,-84.91C211,-84.91 211,-103.79 211,-103.79"/>
<polygon fill="black" stroke="black" points="207.5,-103.79 211,-113.79 214.5,-103.79 207.5,-103.79"/>
</g>
</g>
</svg>
