<?xml version="1.0" encoding="UTF-8" standalone="no"?>
<!DOCTYPE svg PUBLIC "-//W3C//DTD SVG 1.1//EN"
 "http://www.w3.org/Graphics/SVG/1.1/DTD/svg11.dtd">
<!-- Generated by graphviz version 2.47.3 (20210619.1520)
 -->
<!-- Title: dependencies Pages: 1 -->
<svg width="448pt" height="174pt"
 viewBox="0.00 0.00 448.00 173.80" xmlns="http://www.w3.org/2000/svg" xmlns:xlink="http://www.w3.org/1999/xlink">
<g id="graph0" class="graph" transform="scale(1 1) rotate(0) translate(4 169.8)">
<title>dependencies</title>
<polygon fill="white" stroke="transparent" points="-4,4 -4,-169.8 444,-169.8 444,4 -4,4"/>
<text text-anchor="middle" x="220" y="-8.2" font-family="sans-serif" font-size="14.00">dependencies</text>
<g id="clust1" class="cluster">
<title>cluster_DebtsModule</title>
<polygon fill="none" stroke="black" stroke-dasharray="1,5" points="8,-32.8 8,-157.8 432,-157.8 432,-32.8 8,-32.8"/>
</g>
<g id="clust2" class="cluster">
<title>cluster_DebtsModule_declarations</title>
<polygon fill="none" stroke="black" points="294,-40.8 294,-92.8 424,-92.8 424,-40.8 294,-40.8"/>
</g>
<g id="clust4" class="cluster">
<title>cluster_DebtsModule_imports</title>
<polygon fill="none" stroke="black" points="16,-40.8 16,-92.8 286,-92.8 286,-40.8 16,-40.8"/>
</g>
<!-- DebtsComponent -->
<g id="node1" class="node">
<title>DebtsComponent</title>
<polygon fill="#ffffb3" stroke="black" points="415.99,-84.8 302.01,-84.8 302.01,-48.8 415.99,-48.8 415.99,-84.8"/>
<text text-anchor="middle" x="359" y="-62.6" font-family="Times,serif" font-size="14.00">DebtsComponent</text>
</g>
<!-- DebtsModule -->
<g id="node2" class="node">
<title>DebtsModule</title>
<polygon fill="#8dd3c7" stroke="black" points="255.21,-149.8 252.21,-153.8 231.21,-153.8 228.21,-149.8 162.79,-149.8 162.79,-113.8 255.21,-113.8 255.21,-149.8"/>
<text text-anchor="middle" x="209" y="-127.6" font-family="Times,serif" font-size="14.00">DebtsModule</text>
</g>
<!-- DebtsComponent&#45;&gt;DebtsModule -->
<g id="edge1" class="edge">
<title>DebtsComponent&#45;&gt;DebtsModule</title>
<path fill="none" stroke="black" d="M359,-84.91C359,-104.14 359,-131.8 359,-131.8 359,-131.8 265.23,-131.8 265.23,-131.8"/>
<polygon fill="black" stroke="black" points="265.23,-128.3 255.23,-131.8 265.23,-135.3 265.23,-128.3"/>
</g>
<!-- DebtsRoutingModule -->
<g id="node3" class="node">
<title>DebtsRoutingModule</title>
<polygon fill="#8dd3c7" stroke="black" points="277.82,-84.8 274.82,-88.8 253.82,-88.8 250.82,-84.8 140.18,-84.8 140.18,-48.8 277.82,-48.8 277.82,-84.8"/>
<text text-anchor="middle" x="209" y="-62.6" font-family="Times,serif" font-size="14.00">DebtsRoutingModule</text>
</g>
<!-- DebtsRoutingModule&#45;&gt;DebtsModule -->
<g id="edge2" class="edge">
<title>DebtsRoutingModule&#45;&gt;DebtsModule</title>
<path fill="none" stroke="black" d="M209,-84.91C209,-84.91 209,-103.79 209,-103.79"/>
<polygon fill="black" stroke="black" points="205.5,-103.79 209,-113.79 212.5,-103.79 205.5,-103.79"/>
</g>
<!-- SharedModule -->
<g id="node4" class="node">
<title>SharedModule</title>
<polygon fill="#8dd3c7" stroke="black" points="122.42,-84.8 119.42,-88.8 98.42,-88.8 95.42,-84.8 23.58,-84.8 23.58,-48.8 122.42,-48.8 122.42,-84.8"/>
<text text-anchor="middle" x="73" y="-62.6" font-family="Times,serif" font-size="14.00">SharedModule</text>
</g>
<!-- SharedModule&#45;&gt;DebtsModule -->
<g id="edge3" class="edge">
<title>SharedModule&#45;&gt;DebtsModule</title>
<path fill="none" stroke="black" d="M73,-84.91C73,-104.14 73,-131.8 73,-131.8 73,-131.8 152.58,-131.8 152.58,-131.8"/>
<polygon fill="black" stroke="black" points="152.58,-135.3 162.58,-131.8 152.58,-128.3 152.58,-135.3"/>
</g>
</g>
</svg>
