<?xml version="1.0" encoding="UTF-8" standalone="no"?>
<!DOCTYPE svg PUBLIC "-//W3C//DTD SVG 1.1//EN"
 "http://www.w3.org/Graphics/SVG/1.1/DTD/svg11.dtd">
<!-- Generated by graphviz version 2.47.3 (20210619.1520)
 -->
<!-- Title: dependencies Pages: 1 -->
<svg width="292pt" height="174pt"
 viewBox="0.00 0.00 292.00 173.80" xmlns="http://www.w3.org/2000/svg" xmlns:xlink="http://www.w3.org/1999/xlink">
<g id="graph0" class="graph" transform="scale(1 1) rotate(0) translate(4 169.8)">
<title>dependencies</title>
<polygon fill="white" stroke="transparent" points="-4,4 -4,-169.8 288,-169.8 288,4 -4,4"/>
<text text-anchor="middle" x="142" y="-8.2" font-family="sans-serif" font-size="14.00">dependencies</text>
<g id="clust1" class="cluster">
<title>cluster_DebtsModule</title>
<polygon fill="none" stroke="black" stroke-dasharray="1,5" points="8,-32.8 8,-157.8 276,-157.8 276,-32.8 8,-32.8"/>
</g>
<g id="clust4" class="cluster">
<title>cluster_DebtsModule_imports</title>
<polygon fill="none" stroke="black" points="154,-40.8 154,-92.8 268,-92.8 268,-40.8 154,-40.8"/>
</g>
<g id="clust2" class="cluster">
<title>cluster_DebtsModule_declarations</title>
<polygon fill="none" stroke="black" points="16,-40.8 16,-92.8 146,-92.8 146,-40.8 16,-40.8"/>
</g>
<!-- DebtsComponent -->
<g id="node1" class="node">
<title>DebtsComponent</title>
<polygon fill="#ffffb3" stroke="black" points="137.99,-84.8 24.01,-84.8 24.01,-48.8 137.99,-48.8 137.99,-84.8"/>
<text text-anchor="middle" x="81" y="-62.6" font-family="Times,serif" font-size="14.00">DebtsComponent</text>
</g>
<!-- DebtsModule -->
<g id="node2" class="node">
<title>DebtsModule</title>
<polygon fill="#8dd3c7" stroke="black" points="192.21,-149.8 189.21,-153.8 168.21,-153.8 165.21,-149.8 99.79,-149.8 99.79,-113.8 192.21,-113.8 192.21,-149.8"/>
<text text-anchor="middle" x="146" y="-127.6" font-family="Times,serif" font-size="14.00">DebtsModule</text>
</g>
<!-- DebtsComponent&#45;&gt;DebtsModule -->
<g id="edge1" class="edge">
<title>DebtsComponent&#45;&gt;DebtsModule</title>
<path fill="none" stroke="black" d="M118.95,-84.91C118.95,-84.91 118.95,-103.79 118.95,-103.79"/>
<polygon fill="black" stroke="black" points="115.45,-103.79 118.95,-113.79 122.45,-103.79 115.45,-103.79"/>
</g>
<!-- SharedModule -->
<g id="node3" class="node">
<title>SharedModule</title>
<polygon fill="#8dd3c7" stroke="black" points="260.42,-84.8 257.42,-88.8 236.42,-88.8 233.42,-84.8 161.58,-84.8 161.58,-48.8 260.42,-48.8 260.42,-84.8"/>
<text text-anchor="middle" x="211" y="-62.6" font-family="Times,serif" font-size="14.00">SharedModule</text>
</g>
<!-- SharedModule&#45;&gt;DebtsModule -->
<g id="edge2" class="edge">
<title>SharedModule&#45;&gt;DebtsModule</title>
<path fill="none" stroke="black" d="M176.95,-84.91C176.95,-84.91 176.95,-103.79 176.95,-103.79"/>
<polygon fill="black" stroke="black" points="173.45,-103.79 176.95,-113.79 180.45,-103.79 173.45,-103.79"/>
</g>
</g>
</svg>
