<?xml version="1.0" encoding="UTF-8" standalone="no"?>
<!DOCTYPE svg PUBLIC "-//W3C//DTD SVG 1.1//EN"
 "http://www.w3.org/Graphics/SVG/1.1/DTD/svg11.dtd">
<!-- Generated by graphviz version 2.47.3 (20210619.1520)
 -->
<!-- Title: dependencies Pages: 1 -->
<svg width="446pt" height="174pt"
 viewBox="0.00 0.00 446.00 173.80" xmlns="http://www.w3.org/2000/svg" xmlns:xlink="http://www.w3.org/1999/xlink">
<g id="graph0" class="graph" transform="scale(1 1) rotate(0) translate(4 169.8)">
<title>dependencies</title>
<polygon fill="white" stroke="transparent" points="-4,4 -4,-169.8 442,-169.8 442,4 -4,4"/>
<text text-anchor="middle" x="219" y="-8.2" font-family="sans-serif" font-size="14.00">dependencies</text>
<g id="clust1" class="cluster">
<title>cluster_ChatsModule</title>
<polygon fill="none" stroke="black" stroke-dasharray="1,5" points="8,-32.8 8,-157.8 430,-157.8 430,-32.8 8,-32.8"/>
</g>
<g id="clust2" class="cluster">
<title>cluster_ChatsModule_declarations</title>
<polygon fill="none" stroke="black" points="292,-40.8 292,-92.8 422,-92.8 422,-40.8 292,-40.8"/>
</g>
<g id="clust4" class="cluster">
<title>cluster_ChatsModule_imports</title>
<polygon fill="none" stroke="black" points="16,-40.8 16,-92.8 284,-92.8 284,-40.8 16,-40.8"/>
</g>
<!-- ChatsComponent -->
<g id="node1" class="node">
<title>ChatsComponent</title>
<polygon fill="#ffffb3" stroke="black" points="413.72,-84.8 300.28,-84.8 300.28,-48.8 413.72,-48.8 413.72,-84.8"/>
<text text-anchor="middle" x="357" y="-62.6" font-family="Times,serif" font-size="14.00">ChatsComponent</text>
</g>
<!-- ChatsModule -->
<g id="node2" class="node">
<title>ChatsModule</title>
<polygon fill="#8dd3c7" stroke="black" points="253.94,-149.8 250.94,-153.8 229.94,-153.8 226.94,-149.8 162.06,-149.8 162.06,-113.8 253.94,-113.8 253.94,-149.8"/>
<text text-anchor="middle" x="208" y="-127.6" font-family="Times,serif" font-size="14.00">ChatsModule</text>
</g>
<!-- ChatsComponent&#45;&gt;ChatsModule -->
<g id="edge1" class="edge">
<title>ChatsComponent&#45;&gt;ChatsModule</title>
<path fill="none" stroke="black" d="M357,-84.91C357,-104.14 357,-131.8 357,-131.8 357,-131.8 263.92,-131.8 263.92,-131.8"/>
<polygon fill="black" stroke="black" points="263.92,-128.3 253.92,-131.8 263.92,-135.3 263.92,-128.3"/>
</g>
<!-- ChatsRoutingModule -->
<g id="node3" class="node">
<title>ChatsRoutingModule</title>
<polygon fill="#8dd3c7" stroke="black" points="276.05,-84.8 273.05,-88.8 252.05,-88.8 249.05,-84.8 139.95,-84.8 139.95,-48.8 276.05,-48.8 276.05,-84.8"/>
<text text-anchor="middle" x="208" y="-62.6" font-family="Times,serif" font-size="14.00">ChatsRoutingModule</text>
</g>
<!-- ChatsRoutingModule&#45;&gt;ChatsModule -->
<g id="edge2" class="edge">
<title>ChatsRoutingModule&#45;&gt;ChatsModule</title>
<path fill="none" stroke="black" d="M208,-84.91C208,-84.91 208,-103.79 208,-103.79"/>
<polygon fill="black" stroke="black" points="204.5,-103.79 208,-113.79 211.5,-103.79 204.5,-103.79"/>
</g>
<!-- SharedModule -->
<g id="node4" class="node">
<title>SharedModule</title>
<polygon fill="#8dd3c7" stroke="black" points="122.42,-84.8 119.42,-88.8 98.42,-88.8 95.42,-84.8 23.58,-84.8 23.58,-48.8 122.42,-48.8 122.42,-84.8"/>
<text text-anchor="middle" x="73" y="-62.6" font-family="Times,serif" font-size="14.00">SharedModule</text>
</g>
<!-- SharedModule&#45;&gt;ChatsModule -->
<g id="edge3" class="edge">
<title>SharedModule&#45;&gt;ChatsModule</title>
<path fill="none" stroke="black" d="M73,-84.91C73,-104.14 73,-131.8 73,-131.8 73,-131.8 151.92,-131.8 151.92,-131.8"/>
<polygon fill="black" stroke="black" points="151.92,-135.3 161.92,-131.8 151.92,-128.3 151.92,-135.3"/>
</g>
</g>
</svg>
