<?xml version="1.0" encoding="UTF-8" standalone="no"?>
<!DOCTYPE svg PUBLIC "-//W3C//DTD SVG 1.1//EN"
 "http://www.w3.org/Graphics/SVG/1.1/DTD/svg11.dtd">
<!-- Generated by graphviz version 2.47.3 (20210619.1520)
 -->
<!-- Title: dependencies Pages: 1 -->
<svg width="446pt" height="174pt"
 viewBox="0.00 0.00 446.00 173.80" xmlns="http://www.w3.org/2000/svg" xmlns:xlink="http://www.w3.org/1999/xlink">
<g id="graph0" class="graph" transform="scale(1 1) rotate(0) translate(4 169.8)">
<title>dependencies</title>
<polygon fill="white" stroke="transparent" points="-4,4 -4,-169.8 442,-169.8 442,4 -4,4"/>
<text text-anchor="middle" x="219" y="-8.2" font-family="sans-serif" font-size="14.00">dependencies</text>
<g id="clust1" class="cluster">
<title>cluster_ChatsModule</title>
<polygon fill="none" stroke="black" stroke-dasharray="1,5" points="8,-32.8 8,-157.8 430,-157.8 430,-32.8 8,-32.8"/>
</g>
<g id="clust4" class="cluster">
<title>cluster_ChatsModule_imports</title>
<polygon fill="none" stroke="black" points="154,-40.8 154,-92.8 422,-92.8 422,-40.8 154,-40.8"/>
</g>
<g id="clust2" class="cluster">
<title>cluster_ChatsModule_declarations</title>
<polygon fill="none" stroke="black" points="16,-40.8 16,-92.8 146,-92.8 146,-40.8 16,-40.8"/>
</g>
<!-- ChatsComponent -->
<g id="node1" class="node">
<title>ChatsComponent</title>
<polygon fill="#ffffb3" stroke="black" points="137.72,-84.8 24.28,-84.8 24.28,-48.8 137.72,-48.8 137.72,-84.8"/>
<text text-anchor="middle" x="81" y="-62.6" font-family="Times,serif" font-size="14.00">ChatsComponent</text>
</g>
<!-- ChatsModule -->
<g id="node2" class="node">
<title>ChatsModule</title>
<polygon fill="#8dd3c7" stroke="black" points="256.94,-149.8 253.94,-153.8 232.94,-153.8 229.94,-149.8 165.06,-149.8 165.06,-113.8 256.94,-113.8 256.94,-149.8"/>
<text text-anchor="middle" x="211" y="-127.6" font-family="Times,serif" font-size="14.00">ChatsModule</text>
</g>
<!-- ChatsComponent&#45;&gt;ChatsModule -->
<g id="edge1" class="edge">
<title>ChatsComponent&#45;&gt;ChatsModule</title>
<path fill="none" stroke="black" d="M81,-84.91C81,-104.14 81,-131.8 81,-131.8 81,-131.8 155.17,-131.8 155.17,-131.8"/>
<polygon fill="black" stroke="black" points="155.17,-135.3 165.17,-131.8 155.17,-128.3 155.17,-135.3"/>
</g>
<!-- ChatsRoutingModule -->
<g id="node3" class="node">
<title>ChatsRoutingModule</title>
<polygon fill="#8dd3c7" stroke="black" points="414.05,-84.8 411.05,-88.8 390.05,-88.8 387.05,-84.8 277.95,-84.8 277.95,-48.8 414.05,-48.8 414.05,-84.8"/>
<text text-anchor="middle" x="346" y="-62.6" font-family="Times,serif" font-size="14.00">ChatsRoutingModule</text>
</g>
<!-- ChatsRoutingModule&#45;&gt;ChatsModule -->
<g id="edge2" class="edge">
<title>ChatsRoutingModule&#45;&gt;ChatsModule</title>
<path fill="none" stroke="black" d="M346,-84.91C346,-104.14 346,-131.8 346,-131.8 346,-131.8 267.08,-131.8 267.08,-131.8"/>
<polygon fill="black" stroke="black" points="267.08,-128.3 257.08,-131.8 267.08,-135.3 267.08,-128.3"/>
</g>
<!-- SharedModule -->
<g id="node4" class="node">
<title>SharedModule</title>
<polygon fill="#8dd3c7" stroke="black" points="260.42,-84.8 257.42,-88.8 236.42,-88.8 233.42,-84.8 161.58,-84.8 161.58,-48.8 260.42,-48.8 260.42,-84.8"/>
<text text-anchor="middle" x="211" y="-62.6" font-family="Times,serif" font-size="14.00">SharedModule</text>
</g>
<!-- SharedModule&#45;&gt;ChatsModule -->
<g id="edge3" class="edge">
<title>SharedModule&#45;&gt;ChatsModule</title>
<path fill="none" stroke="black" d="M211,-84.91C211,-84.91 211,-103.79 211,-103.79"/>
<polygon fill="black" stroke="black" points="207.5,-103.79 211,-113.79 214.5,-103.79 207.5,-103.79"/>
</g>
</g>
</svg>
